<?xml version="1.0" encoding="UTF-8" standalone="no"?>
<!DOCTYPE svg PUBLIC "-//W3C//DTD SVG 1.1//EN" "http://www.w3.org/Graphics/SVG/1.1/DTD/svg11.dtd" >
<svg xmlns="http://www.w3.org/2000/svg">
<metadata>
This is a SVG font generated by e-font.
</metadata>
<defs>
<font id="ArtifaktElementHeavy" horiz-adv-x="637" >
<font-face units-per-em="1000" ascent="1050" descent="-350" />
<missing-glyph horiz-adv-x="637" />
<glyph unicode="&#x20;" horiz-adv-x="222" />
<glyph unicode="&#x21;" horiz-adv-x="352" d="M70 700L90 287L261 287L281 700ZM176 -20C237 -20 285 29 285 90C285 150 237 199 176 199C115 199 67 150 67 90C67 29 115 -20 176 -20Z"/>
<glyph unicode="&#x22;" horiz-adv-x="514" d="M63 411L214 411L236 700L41 700ZM300 411L452 411L473 700L278 700Z"/>
<glyph unicode="&#x23;" horiz-adv-x="600" d="M576 412L590 545L524 545L539 690L368 700L352 545L290 545L305 690L135 700L119 545L51 545L37 412L105 412L91 288L24 288L10 155L77 155L61 0L231 -10L249 155L311 155L294 0L465 -10L482 155L549 155L563 288L496 288L509 412ZM325 288L263 288L276 412L338 412Z"/>
<glyph unicode="&#x24;" horiz-adv-x="608" d="M428 395L337 426C269 448 253 457 253 479L253 486C253 511 286 524 333 524C375 524 415 512 476 472L564 574C515 613 450 645 364 655L364 758L220 758L220 650C113 628 44 567 44 476L44 451C44 374 102 320 213 284L297 257C358 237 372 221 372 195L372 185C372 152 337 131 277 131C206 131 162 150 104 188L14 84C61 44 127 10 220 -3L220 -110L364 -110L364 -4C483 13 579 80 579 187L579 218C579 306 516 366 428 395Z"/>
<glyph unicode="&#x25;" horiz-adv-x="1089" d="M287 0L423 -53L797 740L662 793ZM245 305C375 305 437 375 437 481L437 584C437 690 375 760 245 760C118 760 51 690 51 584L51 481C51 375 118 305 245 305ZM245 424C223 424 213 440 213 473L213 593C213 628 222 644 245 644C264 644 275 628 275 593L275 473C275 440 265 424 245 424ZM846 -18C976 -18 1038 52 1038 158L1038 261C1038 367 976 436 846 436C719 436 652 367 652 261L652 158C652 52 719 -18 846 -18ZM846 101C825 101 814 117 814 150L814 270C814 305 824 321 846 321C865 321 877 305 877 270L877 150C877 117 866 101 846 101Z"/>
<glyph unicode="&#x26;" horiz-adv-x="736" d="M764 0L611 155L707 319L563 390L495 272L414 354C511 402 555 447 555 526L555 558C555 646 484 720 319 720C182 720 79 667 79 560L79 524C79 478 107 442 149 398C69 362 21 303 21 219L21 175C21 58 140 -20 307 -20C389 -20 447 -4 505 39L544 0ZM268 545C268 573 286 590 320 590C355 590 373 572 373 546L373 533C373 508 355 481 311 459C278 494 268 510 268 532ZM241 198L241 219C241 244 248 263 265 280L394 151C372 136 348 129 317 129C269 129 241 155 241 198Z"/>
<glyph unicode="&#x27;" horiz-adv-x="277" d="M63 411L214 411L236 700L41 700Z"/>
<glyph unicode="&#x28;" horiz-adv-x="400" d="M264 170L264 370C264 533 264 565 359 656L245 760C97 650 40 566 40 370L40 170C40 -26 97 -110 245 -220L359 -116C264 -25 264 7 264 170Z"/>
<glyph unicode="&#x29;" horiz-adv-x="400" d="M155 760L41 656C136 565 136 533 136 370L136 170C136 7 136 -25 41 -116L155 -220C303 -110 360 -26 360 170L360 370C360 566 303 650 155 760Z"/>
<glyph unicode="&#x2a;" horiz-adv-x="454" d="M453 518L403 668L287 606L308 740L147 740L168 607L51 667L1 517L131 498L39 404L169 310L227 429L288 311L417 405L323 498Z"/>
<glyph unicode="&#x2b;" horiz-adv-x="595" d="M504 423L386 423L386 549L210 549L210 423L91 423L91 261L210 261L210 136L386 136L386 261L504 261Z"/>
<glyph unicode="&#x2c;" horiz-adv-x="329" d="M111 -218C252 -91 279 20 279 90C279 156 230 200 169 200C109 200 60 149 60 90C60 45 84 11 119 -8C107 -67 87 -99 41 -160Z"/>
<glyph unicode="&#x2d;" horiz-adv-x="444" d="M393 423L51 423L51 261L393 261Z"/>
<glyph unicode="&#x2e;" horiz-adv-x="320" d="M160 -20C221 -20 269 29 269 90C269 150 221 199 160 199C99 199 51 150 51 90C51 29 99 -20 160 -20Z"/>
<glyph unicode="&#x2f;" horiz-adv-x="400" d="M123 -193L443 740L277 793L-43 -140Z"/>
<glyph unicode="&#x30;" horiz-adv-x="655" d="M329 -20C520 -20 612 82 612 238L612 462C612 618 520 720 329 720C144 720 43 618 43 462L43 238C43 82 144 -20 329 -20ZM329 139C283 139 261 163 261 240L261 462C261 542 282 566 329 566C373 566 393 542 393 462L393 240C393 163 374 139 329 139Z"/>
<glyph unicode="&#x31;" horiz-adv-x="527" d="M396 153L396 700L233 700L13 576L85 444L179 483L179 153L53 153L53 0L179 0L505 0L505 153Z"/>
<glyph unicode="&#x32;" horiz-adv-x="573" d="M320 246L414 309C495 363 541 408 541 489L541 527C541 640 445 720 277 720C160 720 81 684 11 632L97 504C144 537 191 558 250 558C297 558 324 538 324 509L324 497C324 471 314 457 255 418L158 354C81 303 27 233 27 109L27 0L537 0L537 163L246 163C249 190 264 209 320 246Z"/>
<glyph unicode="&#x33;" horiz-adv-x="609" d="M281 -20C457 -20 580 64 580 176L580 227C580 322 499 363 421 377C499 394 555 448 555 507L555 548C555 642 447 720 297 720C159 720 87 672 23 609L127 507C177 553 221 571 267 571C314 571 341 551 341 517L341 497C341 451 291 439 239 439L195 439L195 296L239 296C287 296 362 289 362 225L362 206C362 157 323 137 265 137C206 137 157 164 119 203L6 97C65 27 145 -20 281 -20Z"/>
<glyph unicode="&#x34;" horiz-adv-x="662" d="M347 0L566 0L566 102L642 102L642 266L566 266L566 415L397 415L356 266L250 266L435 700L222 700L20 221L20 102L347 102Z"/>
<glyph unicode="&#x35;" horiz-adv-x="608" d="M371 452C332 452 300 446 274 438L274 541L536 541L536 700L69 700L69 291L187 291C216 299 236 307 270 307C329 307 361 288 361 231L361 211C361 166 325 143 265 143C200 143 166 165 115 213L1 95C55 26 153 -20 283 -20C474 -20 580 80 580 196L580 247C580 376 482 452 371 452Z"/>
<glyph unicode="&#x36;" horiz-adv-x="620" d="M392 474C330 474 286 458 250 430C274 530 380 556 517 557L517 720C216 719 33 587 33 331L33 277C33 92 134 -20 321 -20C512 -20 596 95 596 218L596 262C596 382 522 474 392 474ZM380 226C380 162 362 139 310 139C262 139 246 163 246 233L246 298C268 316 291 327 319 327C366 327 380 307 380 254Z"/>
<glyph unicode="&#x37;" horiz-adv-x="547" d="M530 700L6 700L6 539L305 539L69 0L305 0L530 548Z"/>
<glyph unicode="&#x38;" horiz-adv-x="663" d="M502 389C576 413 609 450 609 511L609 545C609 645 485 720 331 720C177 720 54 650 54 536L54 501C54 431 82 388 147 351C71 321 32 270 32 215L32 172C32 58 156 -20 325 -20C495 -20 631 58 631 175L631 218C631 312 585 352 502 389ZM268 532C268 563 288 576 330 576C378 576 396 558 396 528L396 504C396 479 389 463 362 445L329 458C282 476 268 487 268 512ZM414 185C414 149 389 126 332 126C273 126 248 150 248 197L248 221C248 254 256 272 284 291L337 270C396 246 414 235 414 205Z"/>
<glyph unicode="&#x39;" horiz-adv-x="620" d="M306 720C109 720 24 605 24 482L24 438C24 318 98 226 228 226C292 226 335 240 369 267C343 169 235 144 78 143L78 -20C413 -19 587 113 587 369L587 423C587 608 497 720 306 720ZM240 446L240 474C240 538 262 561 310 561C360 561 374 537 374 467L374 402C352 384 329 373 301 373C258 373 240 393 240 446Z"/>
<glyph unicode="&#x3a;" horiz-adv-x="320" d="M160 301C221 301 269 350 269 411C269 470 221 520 160 520C99 520 51 470 51 411C51 350 99 301 160 301ZM160 -20C221 -20 269 29 269 90C269 150 221 199 160 199C99 199 51 150 51 90C51 29 99 -20 160 -20Z"/>
<glyph unicode="&#x3b;" horiz-adv-x="329" d="M160 301C221 301 269 350 269 411C269 470 221 520 160 520C99 520 51 470 51 411C51 350 99 301 160 301ZM111 -218C252 -91 279 20 279 90C279 156 230 200 169 200C109 200 60 149 60 90C60 45 84 11 119 -8C107 -67 87 -99 41 -160Z"/>
<glyph unicode="&#x3c;" horiz-adv-x="600" d="M440 86L509 224L262 343L509 459L440 600L91 426L91 260Z"/>
<glyph unicode="&#x3d;" horiz-adv-x="600" d="M509 542L91 542L91 380L509 380ZM509 304L91 304L91 142L509 142Z"/>
<glyph unicode="&#x3e;" horiz-adv-x="600" d="M160 86L509 260L509 426L160 600L91 459L338 343L91 224Z"/>
<glyph unicode="&#x3f;" horiz-adv-x="549" d="M161 268L352 268L352 290C352 356 528 385 528 514L528 547C528 641 431 720 270 720C158 720 80 684 20 632L106 514C152 546 191 567 243 567C284 567 310 548 310 518L310 506C310 439 161 401 161 298ZM256 -20C317 -20 365 29 365 90C365 150 317 199 256 199C195 199 147 150 147 90C147 29 195 -20 256 -20Z"/>
<glyph unicode="&#x40;" horiz-adv-x="1030" d="M526 720C272 720 68 575 68 356L68 221C68 -4 227 -143 496 -143C561 -143 619 -136 697 -106L657 9C608 -8 541 -15 507 -15C335 -15 249 69 249 229L249 339C249 468 330 593 526 593C723 593 794 492 794 334L794 259C794 206 784 185 763 185C738 185 732 203 732 240L733 471C672 515 603 535 524 535C356 535 289 436 289 315L289 258C289 148 347 62 481 62C541 62 585 84 620 119C647 87 698 56 767 56C906 56 973 154 973 259L973 372C973 595 778 720 526 720ZM470 263L470 310C470 392 481 416 519 416C535 416 545 415 555 410L555 201C544 194 532 189 517 189C473 189 470 224 470 263Z"/>
<glyph unicode="&#x41;" horiz-adv-x="661" d="M445 0L669 0L470 700L177 700L-8 0L210 0L237 124L413 124ZM378 280L270 280L324 559Z"/>
<glyph unicode="&#x42;" horiz-adv-x="667" d="M533 369L535 369C562 382 613 412 613 479L613 524C613 632 508 700 336 700L289 700L67 700L67 0L265 0L344 0C520 0 635 78 635 190L635 233C635 319 569 359 533 369ZM326 563C372 563 391 547 391 507L391 473C391 437 368 418 328 418L289 418L289 563ZM413 208C413 155 381 137 335 137L289 137L289 300L338 300C396 300 413 278 413 241Z"/>
<glyph unicode="&#x43;" horiz-adv-x="607" d="M353 -20C456 -20 543 23 595 70L511 185C472 157 424 134 367 134C298 134 265 167 265 249L265 467C265 534 303 566 365 566C415 566 453 554 493 521L598 634C536 686 468 720 354 720C159 720 43 608 43 432L43 256C43 88 158 -20 353 -20Z"/>
<glyph unicode="&#x44;" horiz-adv-x="690" d="M344 700L289 700L67 700L67 0L248 0L321 0C535 0 646 110 646 288L646 422C646 588 546 700 344 700ZM424 281C424 190 393 153 327 153L289 153L289 547L339 547C398 547 424 514 424 431Z"/>
<glyph unicode="&#x45;" horiz-adv-x="574" d="M530 547L530 700L289 700L67 700L67 0L130 0L530 0L530 158L289 158L289 278L509 278L509 429L289 429L289 547Z"/>
<glyph unicode="&#x46;" horiz-adv-x="554" d="M541 547L541 700L289 700L67 700L67 0L289 0L289 268L499 268L499 419L289 419L289 547Z"/>
<glyph unicode="&#x47;" horiz-adv-x="686" d="M351 413L351 276L437 276L437 169C417 150 388 134 348 134C294 134 265 169 265 228L265 467C265 534 305 566 378 566C433 566 473 540 508 502L644 596C583 680 486 720 364 720C164 720 43 608 43 441L43 234C43 84 158 -20 299 -20C370 -20 429 6 472 41L487 0L646 0L646 276L647 413Z"/>
<glyph unicode="&#x48;" horiz-adv-x="732" d="M664 700L442 700L442 438L289 438L289 700L67 700L67 0L289 0L289 272L442 272L442 0L664 0Z"/>
<glyph unicode="&#x49;" horiz-adv-x="463" d="M431 549L431 700L342 700L31 700L31 549L120 549L120 153L31 153L31 0L120 0L431 0L431 153L342 153L342 549Z"/>
<glyph unicode="&#x4a;" horiz-adv-x="586" d="M532 700L64 700L64 549L311 549L311 223C311 165 273 134 223 134C182 134 149 152 117 183L17 69C71 13 137 -20 246 -20C424 -20 532 97 532 236Z"/>
<glyph unicode="&#x4b;" horiz-adv-x="689" d="M448 0L696 0L430 387L668 700L444 700L277 467L277 700L67 700L67 0L277 0L277 226L289 242Z"/>
<glyph unicode="&#x4c;" horiz-adv-x="540" d="M289 163L289 700L67 700L67 0L83 0L533 0L533 163Z"/>
<glyph unicode="&#x4d;" horiz-adv-x="880" d="M543 700L545 697L439 293L342 700L67 700L67 0L264 0L264 378L336 100L535 100L534 101L604 369L604 0L812 0L812 700Z"/>
<glyph unicode="&#x4e;" horiz-adv-x="734" d="M481 700L481 360L325 700L67 700L67 0L253 0L253 418L436 0L666 0L666 700Z"/>
<glyph unicode="&#x4f;" horiz-adv-x="719" d="M360 720C158 720 43 607 43 432L43 268C43 93 161 -20 360 -20C564 -20 676 93 676 268L676 432C676 607 564 720 360 720ZM360 566C418 566 454 531 454 432L454 271C454 169 419 134 360 134C300 134 265 169 265 271L265 432C265 531 298 566 360 566Z"/>
<glyph unicode="&#x50;" horiz-adv-x="648" d="M358 700L289 700L67 700L67 0L289 0L289 209L343 209C510 209 626 286 626 418L626 496C626 624 521 700 358 700ZM404 437C404 381 371 360 328 360L289 360L289 549L338 549C378 549 404 528 404 482Z"/>
<glyph unicode="&#x51;" horiz-adv-x="720" d="M682 -66L585 56C645 104 678 171 678 258L678 441C678 608 566 720 361 720C158 720 43 608 43 441L43 259C43 92 161 -20 361 -20C394 -20 425 -15 455 -8L571 -154ZM258 249L258 446C258 531 296 566 362 566C425 566 464 534 464 449L464 214C464 212 464 210 463 209L427 254L315 169L349 126C285 130 258 166 258 249Z"/>
<glyph unicode="&#x52;" horiz-adv-x="672" d="M430 0L669 0L519 292C584 327 626 378 626 445L626 507C626 625 516 700 361 700L289 700L67 700L67 0L289 0L289 245L317 245ZM289 561L342 561C378 561 404 540 404 491L404 446C404 408 378 384 340 384L289 384Z"/>
<glyph unicode="&#x53;" horiz-adv-x="618" d="M308 -20C460 -20 597 59 597 197L597 231C597 329 531 395 438 428L342 462C270 487 253 496 253 521L253 528C253 556 289 571 338 571C382 571 424 558 488 513L581 627C519 679 433 720 314 720C149 720 33 644 33 518L33 490C33 405 95 345 212 305L300 275C364 252 379 235 379 205L379 194C379 158 342 134 279 134C204 134 157 155 97 198L2 82C65 26 160 -20 308 -20Z"/>
<glyph unicode="&#x54;" horiz-adv-x="568" d="M567 700L395 700L1 700L1 547L173 547L173 0L395 0L395 547L567 547Z"/>
<glyph unicode="&#x55;" horiz-adv-x="709" d="M655 700L433 700L433 231C433 168 409 134 355 134C300 134 276 168 276 231L276 700L54 700L54 228C54 83 159 -20 355 -20C555 -20 655 83 655 228Z"/>
<glyph unicode="&#x56;" horiz-adv-x="651" d="M185 0L478 0L659 700L437 700L335 168L220 700L-8 700Z"/>
<glyph unicode="&#x57;" horiz-adv-x="924" d="M718 700L671 199L606 700L338 700L339 699L271 199L225 700L6 700L112 0L407 0L470 509L528 0L823 0L918 700Z"/>
<glyph unicode="&#x58;" horiz-adv-x="667" d="M471 388L661 700L430 700L336 497L335 496L335 497L246 700L6 700L195 367L-15 0L227 0L331 239L433 0L682 0Z"/>
<glyph unicode="&#x59;" horiz-adv-x="629" d="M642 700L418 700L319 426L220 700L-13 700L205 271L205 0L426 0L426 273Z"/>
<glyph unicode="&#x5a;" horiz-adv-x="596" d="M564 700L40 700L40 544L330 544L28 163L28 0L573 0L573 168L268 168L564 549Z"/>
<glyph unicode="&#x5b;" horiz-adv-x="400" d="M44 -200L355 -200L355 -48L254 -48L254 588L355 588L355 740L44 740Z"/>
<glyph unicode="&#x5c;" horiz-adv-x="400" d="M277 -193L443 -140L123 793L-43 740Z"/>
<glyph unicode="&#x5d;" horiz-adv-x="400" d="M356 -200L356 740L45 740L45 588L146 588L146 -48L45 -48L45 -200Z"/>
<glyph unicode="&#x5e;" horiz-adv-x="600" d="M398 700L202 700L23 381L222 381L299 542L382 381L577 381Z"/>
<glyph unicode="&#x5f;" horiz-adv-x="600" d="M576 -28L34 -28L34 -190L576 -190Z"/>
<glyph unicode="&#x60;" horiz-adv-x="400" d="M298 596L350 701L107 837L40 706Z"/>
<glyph unicode="&#x61;" horiz-adv-x="584" d="M287 565C198 565 110 541 44 501L104 384C142 401 196 421 254 421C302 421 327 410 327 364L327 342L251 342C100 342 17 282 17 180L17 148C17 51 94 -20 212 -20C270 -20 322 2 367 46L385 0L542 0L542 350C542 476 468 565 287 565ZM270 120C243 120 228 133 228 167L228 183C228 221 248 236 286 236L327 236L327 147C311 129 290 120 270 120Z"/>
<glyph unicode="&#x62;" horiz-adv-x="631" d="M403 565C347 565 305 549 271 517L271 740L53 740L53 0L207 0L232 49C269 7 320 -20 387 -20C500 -20 600 73 600 241L600 304C600 472 514 565 403 565ZM380 229C380 156 358 129 323 129C302 129 285 136 271 153L271 388C286 406 304 416 329 416C362 416 380 390 380 320Z"/>
<glyph unicode="&#x63;" horiz-adv-x="504" d="M302 -20C382 -20 455 11 504 53L428 163C395 142 368 129 330 129C271 129 247 154 247 248L247 300C247 392 273 416 327 416C365 416 385 405 411 383L507 489C458 538 395 565 311 565C132 565 29 463 29 297L29 248C29 82 132 -20 302 -20Z"/>
<glyph unicode="&#x64;" horiz-adv-x="634" d="M363 740L363 521C334 548 296 565 244 565C132 565 31 463 31 304L31 241C31 78 123 -20 246 -20C314 -20 364 12 399 57L427 0L581 0L581 740ZM305 129C270 129 249 153 249 238L249 310C249 391 268 416 306 416C328 416 348 408 363 392L363 164C348 141 329 129 305 129Z"/>
<glyph unicode="&#x65;" horiz-adv-x="572" d="M542 219C545 238 547 258 547 282C547 479 467 565 292 565C129 565 29 458 29 298L29 241C29 91 131 -20 310 -20C395 -20 483 9 541 47L478 165C434 142 374 129 331 129C258 129 240 152 240 213L240 219ZM298 436C341 436 357 412 357 332L357 329L240 329C241 414 262 436 298 436Z"/>
<glyph unicode="&#x66;" horiz-adv-x="407" d="M344 616C369 616 389 612 413 606L433 740C393 752 347 760 295 760C153 760 75 705 75 548L75 545L20 545L20 396L75 396L75 0L293 0L293 396L404 396L404 545L293 545L293 569C293 602 308 616 344 616Z"/>
<glyph unicode="&#x67;" horiz-adv-x="637" d="M421 545L402 496C369 539 319 565 254 565C135 565 31 464 31 307L31 267C31 91 123 0 247 0C300 0 341 21 374 54L374 23C374 -47 339 -75 269 -75C207 -75 160 -59 114 -38L54 -157C111 -194 191 -220 285 -220C454 -220 583 -139 583 42L584 545ZM249 267L249 310C249 393 273 416 308 416C330 416 348 406 364 391L364 173C347 158 329 148 305 148C270 148 249 172 249 267Z"/>
<glyph unicode="&#x68;" horiz-adv-x="630" d="M408 565C353 565 309 551 271 515L271 740L53 740L53 0L271 0L271 387C287 407 305 416 325 416C352 416 369 398 369 364L369 0L587 0L587 376C587 497 514 565 408 565Z"/>
<glyph unicode="&#x69;" horiz-adv-x="346" d="M181 602C250 602 302 653 302 719C302 787 250 837 181 837C113 837 60 787 60 719C60 653 113 602 181 602ZM14 545L14 396L75 396L75 0L293 0L293 545Z"/>
<glyph unicode="&#x6a;" horiz-adv-x="348" d="M183 602C252 602 304 653 304 719C304 787 252 837 183 837C115 837 62 787 62 719C62 653 115 602 183 602ZM295 545L26 545L26 396L77 396L77 -37C77 -67 65 -78 41 -78C32 -78 23 -77 14 -76L3 -200C23 -211 56 -220 98 -220C205 -220 295 -158 295 -23Z"/>
<glyph unicode="&#x6b;" horiz-adv-x="620" d="M394 0L627 0L445 312L609 545L396 545L271 367L271 740L53 740L53 0L271 0L271 174L284 191Z"/>
<glyph unicode="&#x6c;" horiz-adv-x="331" d="M260 740L42 740L42 150C42 33 121 -20 222 -20C264 -20 298 -10 320 0L307 136C300 135 296 135 292 135C270 135 260 146 260 172Z"/>
<glyph unicode="&#x6d;" horiz-adv-x="900" d="M691 565C627 565 580 543 536 490C506 538 455 565 397 565C338 565 294 546 253 501L243 545L53 545L53 0L269 0L269 386C284 406 298 416 314 416C331 416 346 407 346 371L346 0L562 0L562 386C577 406 591 416 607 416C625 416 641 407 641 371L641 0L858 0L858 376C858 497 782 565 691 565Z"/>
<glyph unicode="&#x6e;" horiz-adv-x="628" d="M408 565C344 565 295 546 253 501L243 545L53 545L53 0L271 0L271 386C288 406 305 416 325 416C353 416 368 398 368 362L368 0L586 0L586 376C586 497 514 565 408 565Z"/>
<glyph unicode="&#x6f;" horiz-adv-x="618" d="M309 565C129 565 29 463 29 298L29 247C29 83 129 -20 309 -20C489 -20 589 83 589 247L589 298C589 463 489 565 309 565ZM309 416C354 416 371 391 371 301L371 248C371 154 354 129 309 129C265 129 247 154 247 248L247 301C247 391 265 416 309 416Z"/>
<glyph unicode="&#x70;" horiz-adv-x="631" d="M403 565C337 565 290 543 254 500L243 545L53 545L53 -200L271 -200L271 17C303 -6 342 -20 388 -20C500 -20 600 73 600 241L600 304C600 472 513 565 403 565ZM382 229C382 156 360 129 322 129C303 129 289 134 271 145L271 388C286 406 304 416 329 416C364 416 382 388 382 320Z"/>
<glyph unicode="&#x71;" horiz-adv-x="632" d="M389 545L380 505C348 541 306 565 244 565C132 565 31 463 31 304L31 241C31 78 123 -20 240 -20C291 -20 331 -2 361 26L361 -200L579 -200L579 545ZM305 129C270 129 249 153 249 238L249 310C249 391 268 416 306 416C327 416 346 409 361 394L361 157C346 137 326 129 305 129Z"/>
<glyph unicode="&#x72;" horiz-adv-x="456" d="M392 562C325 562 258 520 228 449L195 545L53 545L53 0L271 0L271 282C303 344 345 363 382 363C401 363 411 361 421 359L457 553C434 560 417 562 392 562Z"/>
<glyph unicode="&#x73;" horiz-adv-x="524" d="M251 -20C393 -20 504 35 504 151L504 181C504 252 462 296 381 325L319 348C259 370 248 376 248 391L248 398C248 413 262 426 295 426C337 426 366 417 410 388L495 488C444 533 364 565 279 565C133 565 35 498 35 395L35 368C35 296 75 255 158 225L220 203C275 184 288 173 288 157L288 148C288 134 272 121 229 121C184 121 144 133 94 169L5 68C59 10 150 -20 251 -20Z"/>
<glyph unicode="&#x74;" horiz-adv-x="414" d="M387 142C369 138 354 136 338 136C302 136 284 153 284 187L284 396L390 396L390 545L284 545L284 679L87 679L74 545L0 545L0 396L66 396L66 173C66 38 147 -20 271 -20C317 -20 367 -12 404 0Z"/>
<glyph unicode="&#x75;" horiz-adv-x="623" d="M352 545L352 158C336 139 317 129 297 129C272 129 260 141 260 168L260 545L42 545L42 154C42 45 117 -20 215 -20C277 -20 331 5 374 46L389 0L570 0L570 545Z"/>
<glyph unicode="&#x76;" horiz-adv-x="563" d="M572 545L358 545L287 162L215 545L-9 545L147 0L420 0Z"/>
<glyph unicode="&#x77;" horiz-adv-x="802" d="M603 545L569 189L496 545L317 545L245 189L212 545L-4 545L115 0L333 0L401 333L469 0L686 0L805 545Z"/>
<glyph unicode="&#x78;" horiz-adv-x="562" d="M404 275L563 546L345 546L282 384L218 546L-10 546L154 276L-13 0L209 0L276 157L342 0L575 0Z"/>
<glyph unicode="&#x79;" horiz-adv-x="558" d="M187 -220C315 -220 379 -158 417 -15L567 545L353 545L287 158L213 545L-9 545L157 0L244 0L239 -22C227 -67 204 -80 154 -80C131 -80 112 -77 83 -70L62 -200C93 -211 137 -220 187 -220Z"/>
<glyph unicode="&#x7a;" horiz-adv-x="501" d="M471 545L35 545L35 397L251 397L25 146L25 0L481 0L481 152L246 152L471 402Z"/>
<glyph unicode="&#x7b;" horiz-adv-x="400" d="M345 -220L372 -82C321 -70 301 -36 301 17L301 137C301 212 255 264 179 270C255 276 301 328 301 403L301 523C301 576 321 610 372 622L345 760C196 748 89 699 89 562L89 415C89 366 67 342 18 342L18 199C67 198 89 174 89 125L89 -22C89 -159 196 -208 345 -220Z"/>
<glyph unicode="&#x7c;" horiz-adv-x="400" d="M91 -80L309 -80L309 740L91 740Z"/>
<glyph unicode="&#x7d;" horiz-adv-x="400" d="M74 -220C222 -208 329 -159 329 -22L329 125C329 174 351 198 400 199L400 342C351 342 329 366 329 415L329 562C329 699 222 748 74 760L46 622C97 610 117 576 117 523L117 403C117 328 164 276 240 270C164 264 117 212 117 137L117 17C117 -36 97 -70 46 -82Z"/>
<glyph unicode="&#x7e;" horiz-adv-x="600" d="M385 233C474 233 532 302 567 374L456 424C441 402 419 380 382 380C325 380 302 434 215 434C126 434 68 369 33 297L145 241C159 267 181 287 218 287C275 287 298 233 385 233Z"/>
<glyph unicode="&#xa0;" horiz-adv-x="222" />
<glyph unicode="&#xa1;" horiz-adv-x="352" d="M176 520C115 520 67 471 67 410C67 350 115 301 176 301C237 301 285 350 285 410C285 471 237 520 176 520ZM281 -200L261 213L90 213L70 -200Z"/>
<glyph unicode="&#xa2;" horiz-adv-x="597" d="M462 163C429 142 402 129 364 129C305 129 281 154 281 248L281 300C281 392 307 416 361 416C399 416 419 405 445 383L541 489C503 527 457 551 400 561L400 639L253 639L253 555C131 525 63 432 63 297L63 248C63 111 133 18 253 -11L253 -110L400 -110L400 -13C454 -2 502 22 538 53Z"/>
<glyph unicode="&#xa3;" horiz-adv-x="598" d="M324 308L494 308L494 378L317 378C306 419 286 445 286 480L286 494C286 527 314 561 363 561C405 561 439 551 489 514L573 638C504 692 430 720 328 720C160 720 74 611 74 505L74 483C74 439 91 409 104 378L52 378L52 308L116 308C115 271 108 228 52 163L52 0L544 0L544 163L258 163C308 223 321 270 324 308Z"/>
<glyph unicode="&#xa4;" horiz-adv-x="600" d="M537 342C537 388 524 430 501 466L569 534L491 612L421 541C386 561 345 572 300 572C256 572 215 561 180 541L109 612L31 534L99 465C77 429 64 387 64 342C64 296 77 254 99 218L31 151L109 73L181 142C216 123 256 112 300 112C344 112 385 123 420 142L491 73L569 151L501 218C524 253 537 296 537 342ZM300 252C249 252 222 289 222 342C222 393 249 430 300 430C351 430 377 393 377 342C377 289 351 252 300 252Z"/>
<glyph unicode="&#xa5;" horiz-adv-x="630" d="M623 700L418 700L322 455L220 700L7 700L197 333L94 333L94 273L214 273L214 203L94 203L94 143L214 143L214 0L417 0L417 143L536 143L536 203L417 203L417 273L536 273L536 333L433 333Z"/>
<glyph unicode="&#xa6;" horiz-adv-x="400" d="M91 420L309 420L309 740L91 740ZM91 -80L309 -80L309 240L91 240Z"/>
<glyph unicode="&#xa7;" horiz-adv-x="600" d="M549 346L549 375C549 447 507 490 425 520L364 542C302 564 291 571 291 586L291 593C291 608 305 621 338 621C382 621 410 612 455 582L540 683C489 728 409 760 323 760C178 760 81 693 81 590L81 563C81 522 94 493 121 470C81 445 51 409 51 354L51 325C51 253 93 210 175 180L236 158C298 136 309 129 309 114L309 107C309 92 295 79 262 79C218 79 190 88 145 118L60 17C111 -28 191 -60 277 -60C422 -60 519 7 519 110L519 137C519 178 506 207 479 230C519 255 549 291 549 346ZM242 351L242 363C242 378 249 393 264 405L268 404C345 376 358 368 358 349L358 337C358 322 351 307 336 295L332 296C255 324 242 332 242 351Z"/>
<glyph unicode="&#xa8;" horiz-adv-x="400" d="M68 620C125 620 169 664 169 719C169 773 125 817 68 817C13 817 -33 773 -33 719C-33 664 13 620 68 620ZM331 620C388 620 432 664 432 719C432 773 388 817 331 817C276 817 230 773 230 719C230 664 276 620 331 620Z"/>
<glyph unicode="&#xa9;" horiz-adv-x="880" d="M438 -20C668 -20 818 116 818 297L818 395C818 566 668 720 438 720C222 720 62 566 62 395L62 297C62 116 222 -20 438 -20ZM440 71C269 71 167 161 167 298L167 394C167 521 269 629 440 629C622 629 713 521 713 394L713 298C713 161 622 71 440 71ZM453 128C515 128 567 154 599 183L545 261C522 244 496 231 462 231C422 231 402 250 402 293L402 415C402 455 425 474 461 474C490 474 513 467 537 447L600 520C563 552 522 572 454 572C337 572 267 505 267 399L267 294C267 193 337 128 453 128Z"/>
<glyph unicode="&#xaa;" horiz-adv-x="498" d="M259 719C192 719 137 702 90 676L134 588C189 612 214 617 253 617C281 617 297 606 297 580L297 560L254 560C133 560 68 505 68 442L68 398C68 327 132 287 201 287C248 287 281 304 308 328L318 294L430 294L430 578C430 664 371 719 259 719ZM200 420L200 437C200 452 210 473 261 473L297 473L297 420C275 404 250 395 226 395C211 395 200 403 200 420Z"/>
<glyph unicode="&#xab;" horiz-adv-x="667" d="M237 6L357 85L234 283L357 482L237 560L43 336L43 231ZM514 6L634 85L511 283L634 482L514 560L320 336L320 231Z"/>
<glyph unicode="&#xac;" horiz-adv-x="600" d="M94 423L94 261L345 261L345 136L507 136L507 261L507 423Z"/>
<glyph unicode="&#xad;" horiz-adv-x="444" d="M393 423L51 423L51 261L393 261Z"/>
<glyph unicode="&#xae;" horiz-adv-x="880" d="M438 720C222 720 62 566 62 395L62 297C62 116 222 -20 438 -20C668 -20 818 116 818 297L818 395C818 566 668 720 438 720ZM713 298C713 161 622 71 440 71C269 71 167 161 167 298L167 394C167 521 269 629 440 629C622 629 713 521 713 394ZM615 407L615 446C615 516 556 560 464 560L426 560L297 560L297 140L426 140L426 290L440 290L494 140L624 140L554 313C594 333 615 365 615 407ZM426 475L452 475C473 475 488 463 488 436L488 408C488 386 473 372 450 372L426 372Z"/>
<glyph unicode="&#xaf;" horiz-adv-x="400" d="M38 633L361 633L361 764L38 764Z"/>
<glyph unicode="&#xb0;" horiz-adv-x="519" d="M217 354C312 354 400 419 400 539C400 658 312 720 217 720C123 720 34 658 34 539C34 419 123 354 217 354ZM217 470C180 470 166 502 166 539C166 576 180 606 217 606C255 606 268 576 268 539C268 502 255 470 217 470Z"/>
<glyph unicode="&#xb1;" horiz-adv-x="595" d="M386 423L386 549L210 549L210 423L91 423L91 261L210 261L210 193L386 193L386 261L504 261L504 423ZM91 0L504 0L504 162L91 162Z"/>
<glyph unicode="&#xb2;" horiz-adv-x="500" d="M63 415L448 415L448 522L200 522C203 548 218 567 271 600L341 644C414 690 450 726 450 784L450 811C450 891 377 953 250 953C165 953 105 928 50 889L108 806C150 833 187 847 235 847C286 847 310 826 310 800L310 789C310 764 298 751 249 720L172 672C108 632 63 580 63 487Z"/>
<glyph unicode="&#xb3;" horiz-adv-x="500" d="M244 402C371 402 464 465 464 549L464 586C464 655 398 688 343 698C398 710 445 749 445 794L445 825C445 898 360 953 253 953C154 953 95 919 46 873L114 805C156 840 194 855 236 855C277 855 308 839 308 805L308 790C308 749 267 738 223 738L183 738L183 645L223 645C266 645 325 636 325 582L325 567C325 523 283 504 235 504C184 504 143 526 111 557L35 487C80 437 140 402 244 402Z"/>
<glyph unicode="&#xb4;" horiz-adv-x="400" d="M93 596L350 706L284 837L40 701Z"/>
<glyph unicode="&#xb5;" horiz-adv-x="634" d="M363 545L363 149C347 131 328 121 308 121C283 121 271 133 271 159L271 545L53 545L53 -200L271 -200L271 -13C283 -18 295 -20 308 -20C342 -20 372 -3 392 25L400 0L581 0L581 545Z"/>
<glyph unicode="&#xb6;" horiz-adv-x="816" d="M333 700C150 707 52 615 52 478C52 352 143 263 299 258L299 -200L466 -200L466 570L546 570L546 -200L714 -200L714 700Z"/>
<glyph unicode="&#xb7;" horiz-adv-x="320" d="M160 222C221 222 269 271 269 332C269 392 221 441 160 441C99 441 51 392 51 332C51 271 99 222 160 222Z"/>
<glyph unicode="&#xb8;" horiz-adv-x="400" d="M188 -265C275 -265 347 -225 347 -153L347 -131C347 -69 306 -44 233 -35L233 16L126 16L114 -111C179 -111 208 -117 208 -134L208 -142C208 -155 196 -165 163 -165C139 -165 119 -163 99 -158L75 -246C114 -260 146 -265 188 -265Z"/>
<glyph unicode="&#xb9;" horiz-adv-x="500" d="M86 415L440 415L440 516L343 516L343 940L238 940L60 844L108 758L203 799L203 516L86 516Z"/>
<glyph unicode="&#xba;" horiz-adv-x="498" d="M247 288C387 288 448 366 448 471L448 531C448 640 387 720 247 720C109 720 49 640 49 531L49 471C49 366 107 288 247 288ZM247 396C203 396 182 415 182 471L182 534C182 591 203 611 247 611C292 611 315 591 315 534L315 471C315 415 292 396 247 396Z"/>
<glyph unicode="&#xbb;" horiz-adv-x="667" d="M163 6L357 231L357 336L163 560L43 482L166 283L43 85ZM440 6L634 231L634 336L440 560L320 482L443 283L320 85Z"/>
<glyph unicode="&#xbc;" horiz-adv-x="1249" d="M528 -21L834 715L721 759L414 24ZM86 215L440 215L440 316L343 316L343 740L238 740L60 644L108 558L203 599L203 316L86 316ZM1018 0L1159 0L1159 85L1216 85L1216 191L1159 191L1159 313L1049 313L1023 191L933 191L1074 525L940 525L781 165L781 85L1018 85Z"/>
<glyph unicode="&#xbd;" horiz-adv-x="1249" d="M528 -21L834 715L721 759L414 24ZM86 215L440 215L440 316L343 316L343 740L238 740L60 644L108 558L203 599L203 316L86 316ZM812 0L1197 0L1197 107L949 107C952 133 967 152 1020 185L1090 229C1163 275 1199 311 1199 369L1199 396C1199 476 1126 538 999 538C914 538 854 513 799 474L857 391C899 418 936 432 984 432C1035 432 1059 411 1059 385L1059 374C1059 349 1047 336 998 305L921 257C857 217 812 165 812 72Z"/>
<glyph unicode="&#xbe;" horiz-adv-x="1249" d="M528 -21L834 715L721 759L414 24ZM244 202C371 202 464 265 464 349L464 386C464 455 398 488 343 498C398 510 445 549 445 594L445 625C445 698 360 753 253 753C154 753 95 719 46 673L114 605C156 640 194 655 236 655C277 655 308 639 308 605L308 590C308 549 267 538 223 538L183 538L183 445L223 445C266 445 325 436 325 382L325 367C325 323 283 304 235 304C184 304 143 326 111 357L35 287C80 237 140 202 244 202ZM1018 0L1159 0L1159 85L1216 85L1216 191L1159 191L1159 313L1049 313L1023 191L933 191L1074 525L940 525L781 165L781 85L1018 85Z"/>
<glyph unicode="&#xbf;" horiz-adv-x="549" d="M293 520C232 520 184 471 184 410C184 350 232 301 293 301C354 301 402 350 402 410C402 471 354 520 293 520ZM388 232L197 232L197 210C197 144 21 115 21 -14L21 -47C21 -141 118 -220 279 -220C391 -220 469 -184 529 -132L443 -14C397 -46 358 -67 306 -67C265 -67 239 -48 239 -18L239 -6C239 61 388 99 388 202Z"/>
<glyph unicode="&#xc0;" horiz-adv-x="661" d="M484 844L235 969L174 837L432 736ZM445 0L669 0L470 700L177 700L-8 0L210 0L237 124L413 124ZM378 280L270 280L324 559Z"/>
<glyph unicode="&#xc1;" horiz-adv-x="661" d="M479 837L417 969L169 844L220 736ZM445 0L669 0L470 700L177 700L-8 0L210 0L237 124L413 124ZM378 280L270 280L324 559Z"/>
<glyph unicode="&#xc2;" horiz-adv-x="661" d="M328 831L462 740L533 832L386 960L271 960L123 832L194 740ZM445 0L669 0L470 700L177 700L-8 0L210 0L237 124L413 124ZM378 280L270 280L324 559Z"/>
<glyph unicode="&#xc3;" horiz-adv-x="661" d="M273 787C304 787 326 742 386 742C455 742 514 799 544 871L435 921C419 893 406 878 382 878C350 878 329 923 268 923C199 923 140 865 111 793L220 744C236 772 248 787 273 787ZM445 0L669 0L470 700L177 700L-8 0L210 0L237 124L413 124ZM378 280L270 280L324 559Z"/>
<glyph unicode="&#xc4;" horiz-adv-x="661" d="M197 767C254 767 298 811 298 866C298 920 254 964 197 964C142 964 96 920 96 866C96 811 142 767 197 767ZM460 767C517 767 561 811 561 866C561 920 517 964 460 964C405 964 359 920 359 866C359 811 405 767 460 767ZM445 0L669 0L470 700L177 700L-8 0L210 0L237 124L413 124ZM378 280L270 280L324 559Z"/>
<glyph unicode="&#xc5;" horiz-adv-x="661" d="M329 715C429 715 489 777 489 854L489 879C489 956 429 1018 329 1018C229 1018 167 956 167 879L167 854C167 777 229 715 329 715ZM285 874C285 906 305 921 328 921C351 921 371 906 371 874L371 859C371 827 351 812 328 812C305 812 285 827 285 859ZM445 0L669 0L470 700L177 700L-8 0L210 0L237 124L413 124ZM378 280L270 280L324 559Z"/>
<glyph unicode="&#xc6;" horiz-adv-x="976" d="M635 158L609 278L880 278L880 429L577 429L551 547L901 547L901 700L518 700L225 700L-8 0L210 0L244 124L423 124L445 0L523 0L940 0L940 158ZM398 280L287 280L363 557Z"/>
<glyph unicode="&#xc7;" horiz-adv-x="607" d="M595 70L511 185C472 157 424 134 367 134C298 134 265 167 265 249L265 467C265 534 303 566 365 566C415 566 453 554 493 521L598 634C536 686 468 720 354 720C159 720 43 608 43 432L43 256C43 113 127 14 272 -13L263 -111C327 -111 356 -117 356 -134L356 -142C356 -155 344 -165 311 -165C287 -165 267 -163 247 -158L223 -246C262 -260 294 -265 336 -265C423 -265 495 -225 495 -153L495 -131C495 -69 454 -44 381 -35L381 -19C471 -12 548 27 595 70Z"/>
<glyph unicode="&#xc8;" horiz-adv-x="574" d="M453 844L204 969L143 837L401 736ZM530 547L530 700L289 700L67 700L67 0L130 0L530 0L530 158L289 158L289 278L509 278L509 429L289 429L289 547Z"/>
<glyph unicode="&#xc9;" horiz-adv-x="574" d="M448 837L386 969L138 844L189 736ZM530 547L530 700L289 700L67 700L67 0L130 0L530 0L530 158L289 158L289 278L509 278L509 429L289 429L289 547Z"/>
<glyph unicode="&#xca;" horiz-adv-x="574" d="M298 831L432 740L503 832L356 960L241 960L93 832L164 740ZM530 547L530 700L289 700L67 700L67 0L130 0L530 0L530 158L289 158L289 278L509 278L509 429L289 429L289 547Z"/>
<glyph unicode="&#xcb;" horiz-adv-x="574" d="M166 767C223 767 267 811 267 866C267 920 223 964 166 964C111 964 65 920 65 866C65 811 111 767 166 767ZM429 767C486 767 530 811 530 866C530 920 486 964 429 964C374 964 328 920 328 866C328 811 374 767 429 767ZM530 700L67 700L67 0L130 0L530 0L530 158L289 158L289 278L509 278L509 429L289 429L289 547L530 547Z"/>
<glyph unicode="&#xcc;" horiz-adv-x="463" d="M387 844L138 969L77 837L335 736ZM431 549L431 700L342 700L31 700L31 549L120 549L120 153L31 153L31 0L120 0L431 0L431 153L342 153L342 549Z"/>
<glyph unicode="&#xcd;" horiz-adv-x="463" d="M382 837L320 969L72 844L123 736ZM431 549L431 700L342 700L31 700L31 549L120 549L120 153L31 153L31 0L120 0L431 0L431 153L342 153L342 549Z"/>
<glyph unicode="&#xce;" horiz-adv-x="463" d="M231 831L365 740L436 832L289 960L174 960L26 832L97 740ZM431 700L31 700L31 549L120 549L120 153L31 153L31 0L120 0L431 0L431 153L342 153L342 549L431 549Z"/>
<glyph unicode="&#xcf;" horiz-adv-x="463" d="M201 866C201 920 157 964 100 964C45 964 -1 920 -1 866C-1 811 45 767 100 767C157 767 201 811 201 866ZM363 964C308 964 262 920 262 866C262 811 308 767 363 767C420 767 464 811 464 866C464 920 420 964 363 964ZM431 700L31 700L31 549L120 549L120 153L31 153L31 0L120 0L431 0L431 153L342 153L342 549L431 549Z"/>
<glyph unicode="&#xd0;" horiz-adv-x="690" d="M344 700L289 700L67 700L67 407L29 407L29 295L67 295L67 0L248 0L321 0C535 0 646 110 646 288L646 422C646 588 546 700 344 700ZM424 281C424 190 393 153 327 153L289 153L289 295L371 295L371 407L289 407L289 547L339 547C398 547 424 514 424 431Z"/>
<glyph unicode="&#xd1;" horiz-adv-x="734" d="M326 787C357 787 379 742 439 742C508 742 567 799 597 871L488 921C472 893 459 878 435 878C403 878 382 923 321 923C252 923 193 865 164 793L273 744C289 772 301 787 326 787ZM481 700L481 360L325 700L67 700L67 0L253 0L253 418L436 0L666 0L666 700Z"/>
<glyph unicode="&#xd2;" horiz-adv-x="719" d="M463 736L515 844L266 969L205 837ZM360 720C158 720 43 607 43 432L43 268C43 93 161 -20 360 -20C564 -20 676 93 676 268L676 432C676 607 564 720 360 720ZM360 566C418 566 454 531 454 432L454 271C454 169 419 134 360 134C300 134 265 169 265 271L265 432C265 531 298 566 360 566Z"/>
<glyph unicode="&#xd3;" horiz-adv-x="719" d="M251 736L510 837L448 969L200 844ZM360 720C158 720 43 607 43 432L43 268C43 93 161 -20 360 -20C564 -20 676 93 676 268L676 432C676 607 564 720 360 720ZM360 566C418 566 454 531 454 432L454 271C454 169 419 134 360 134C300 134 265 169 265 271L265 432C265 531 298 566 360 566Z"/>
<glyph unicode="&#xd4;" horiz-adv-x="719" d="M226 740L360 831L494 740L565 832L418 960L303 960L155 832ZM360 720C158 720 43 607 43 432L43 268C43 93 161 -20 360 -20C564 -20 676 93 676 268L676 432C676 607 564 720 360 720ZM360 566C418 566 454 531 454 432L454 271C454 169 419 134 360 134C300 134 265 169 265 271L265 432C265 531 298 566 360 566Z"/>
<glyph unicode="&#xd5;" horiz-adv-x="719" d="M417 742C486 742 545 799 575 871L466 921C450 893 437 878 413 878C381 878 360 923 299 923C230 923 171 865 142 793L251 744C267 772 279 787 304 787C335 787 357 742 417 742ZM360 720C158 720 43 607 43 432L43 268C43 93 161 -20 360 -20C564 -20 676 93 676 268L676 432C676 607 564 720 360 720ZM360 566C418 566 454 531 454 432L454 271C454 169 419 134 360 134C300 134 265 169 265 271L265 432C265 531 298 566 360 566Z"/>
<glyph unicode="&#xd6;" horiz-adv-x="719" d="M228 767C285 767 329 811 329 866C329 920 285 964 228 964C173 964 127 920 127 866C127 811 173 767 228 767ZM491 767C548 767 592 811 592 866C592 920 548 964 491 964C436 964 390 920 390 866C390 811 436 767 491 767ZM360 720C158 720 43 607 43 432L43 268C43 93 161 -20 360 -20C564 -20 676 93 676 268L676 432C676 607 564 720 360 720ZM360 566C418 566 454 531 454 432L454 271C454 169 419 134 360 134C300 134 265 169 265 271L265 432C265 531 298 566 360 566Z"/>
<glyph unicode="&#xd7;" horiz-adv-x="600" d="M513 442L399 556L299 457L200 556L85 442L185 342L85 243L200 128L299 228L399 128L513 243L414 342Z"/>
<glyph unicode="&#xd8;" horiz-adv-x="719" d="M593 643L639 730L528 787L482 703C446 714 405 720 360 720C158 720 43 607 43 432L43 268C43 180 73 107 129 57L83 -30L194 -87L239 -3C275 -14 315 -20 360 -20C564 -20 676 93 676 268L676 432C676 520 647 593 593 643ZM265 432C265 531 298 566 360 566C385 566 406 560 421 544L265 264L265 271ZM454 271C454 169 419 134 360 134C335 134 315 140 299 154L454 433L454 432Z"/>
<glyph unicode="&#xd9;" horiz-adv-x="709" d="M458 736L510 844L261 969L200 837ZM655 700L433 700L433 231C433 168 409 134 355 134C300 134 276 168 276 231L276 700L54 700L54 228C54 83 159 -20 355 -20C555 -20 655 83 655 228Z"/>
<glyph unicode="&#xda;" horiz-adv-x="709" d="M246 736L505 837L443 969L195 844ZM655 700L433 700L433 231C433 168 409 134 355 134C300 134 276 168 276 231L276 700L54 700L54 228C54 83 159 -20 355 -20C555 -20 655 83 655 228Z"/>
<glyph unicode="&#xdb;" horiz-adv-x="709" d="M221 740L355 831L489 740L560 832L413 960L298 960L150 832ZM655 700L433 700L433 231C433 168 409 134 355 134C300 134 276 168 276 231L276 700L54 700L54 228C54 83 159 -20 355 -20C555 -20 655 83 655 228Z"/>
<glyph unicode="&#xdc;" horiz-adv-x="709" d="M223 767C280 767 324 811 324 866C324 920 280 964 223 964C168 964 122 920 122 866C122 811 168 767 223 767ZM486 767C543 767 587 811 587 866C587 920 543 964 486 964C431 964 385 920 385 866C385 811 431 767 486 767ZM655 700L433 700L433 231C433 168 409 134 355 134C300 134 276 168 276 231L276 700L54 700L54 228C54 83 159 -20 355 -20C555 -20 655 83 655 228Z"/>
<glyph unicode="&#xdd;" horiz-adv-x="629" d="M466 837L404 969L156 844L207 736ZM642 700L418 700L319 426L220 700L-13 700L205 271L205 0L426 0L426 273Z"/>
<glyph unicode="&#xde;" horiz-adv-x="653" d="M354 596L289 596L289 700L67 700L67 0L289 0L289 105L339 105C506 105 623 182 623 314L623 392C623 520 517 596 354 596ZM401 333C401 277 367 256 324 256L289 256L289 445L334 445C374 445 401 424 401 378Z"/>
<glyph unicode="&#xdf;" horiz-adv-x="669" d="M447 -20C574 -20 653 39 653 156L653 203C653 279 613 322 531 361C463 393 458 400 458 418L458 427C458 449 473 459 599 511C593 661 505 760 320 760C170 760 42 683 42 525L42 0L254 0L254 550C254 608 291 628 328 628C360 628 394 615 397 555C308 516 292 480 292 412L292 395C292 310 309 285 395 249C438 230 453 212 453 179L453 166C453 141 436 121 405 121C387 121 366 123 333 136L286 13C337 -7 383 -20 447 -20Z"/>
<glyph unicode="&#xe0;" horiz-adv-x="584" d="M448 701L204 837L138 706L395 596ZM287 565C198 565 110 541 44 501L104 384C142 401 196 421 254 421C302 421 327 410 327 364L327 342L251 342C100 342 17 282 17 180L17 148C17 51 94 -20 212 -20C270 -20 322 2 367 46L385 0L542 0L542 350C542 476 468 565 287 565ZM270 120C243 120 228 133 228 167L228 183C228 221 248 236 286 236L327 236L327 147C311 129 290 120 270 120Z"/>
<glyph unicode="&#xe1;" horiz-adv-x="584" d="M448 706L381 837L138 701L190 596ZM287 565C198 565 110 541 44 501L104 384C142 401 196 421 254 421C302 421 327 410 327 364L327 342L251 342C100 342 17 282 17 180L17 148C17 51 94 -20 212 -20C270 -20 322 2 367 46L385 0L542 0L542 350C542 476 468 565 287 565ZM270 120C243 120 228 133 228 167L228 183C228 221 248 236 286 236L327 236L327 147C311 129 290 120 270 120Z"/>
<glyph unicode="&#xe2;" horiz-adv-x="584" d="M293 693L427 597L498 689L351 822L236 822L88 689L159 597ZM287 565C198 565 110 541 44 501L104 384C142 401 196 421 254 421C302 421 327 410 327 364L327 342L251 342C100 342 17 282 17 180L17 148C17 51 94 -20 212 -20C270 -20 322 2 367 46L385 0L542 0L542 350C542 476 468 565 287 565ZM270 120C243 120 228 133 228 167L228 183C228 221 248 236 286 236L327 236L327 147C311 129 290 120 270 120Z"/>
<glyph unicode="&#xe3;" horiz-adv-x="584" d="M239 661C270 661 292 616 352 616C421 616 480 673 510 745L401 795C385 767 372 752 348 752C316 752 295 797 234 797C165 797 106 739 77 667L186 618C202 646 214 661 239 661ZM287 565C198 565 110 541 44 501L104 384C142 401 196 421 254 421C302 421 327 410 327 364L327 342L251 342C100 342 17 282 17 180L17 148C17 51 94 -20 212 -20C270 -20 322 2 367 46L385 0L542 0L542 350C542 476 468 565 287 565ZM270 120C243 120 228 133 228 167L228 183C228 221 248 236 286 236L327 236L327 147C311 129 290 120 270 120Z"/>
<glyph unicode="&#xe4;" horiz-adv-x="584" d="M161 620C218 620 262 664 262 719C262 773 218 817 161 817C106 817 60 773 60 719C60 664 106 620 161 620ZM424 620C481 620 525 664 525 719C525 773 481 817 424 817C369 817 323 773 323 719C323 664 369 620 424 620ZM287 565C198 565 110 541 44 501L104 384C142 401 196 421 254 421C302 421 327 410 327 364L327 342L251 342C100 342 17 282 17 180L17 148C17 51 94 -20 212 -20C270 -20 322 2 367 46L385 0L542 0L542 350C542 476 468 565 287 565ZM270 120C243 120 228 133 228 167L228 183C228 221 248 236 286 236L327 236L327 147C311 129 290 120 270 120Z"/>
<glyph unicode="&#xe5;" horiz-adv-x="584" d="M294 589C394 589 454 651 454 728L454 753C454 830 394 892 294 892C194 892 132 830 132 753L132 728C132 651 194 589 294 589ZM250 748C250 780 270 795 293 795C316 795 336 780 336 748L336 733C336 701 316 686 293 686C270 686 250 701 250 733ZM287 565C198 565 110 541 44 501L104 384C142 401 196 421 254 421C302 421 327 410 327 364L327 342L251 342C100 342 17 282 17 180L17 148C17 51 94 -20 212 -20C270 -20 322 2 367 46L385 0L542 0L542 350C542 476 468 565 287 565ZM270 120C243 120 228 133 228 167L228 183C228 221 248 236 286 236L327 236L327 147C311 129 290 120 270 120Z"/>
<glyph unicode="&#xe6;" horiz-adv-x="862" d="M629 129C566 129 532 152 532 213L532 229L831 229C834 248 836 268 836 292C836 483 749 565 600 565C527 565 469 533 439 487C416 542 358 565 287 565C198 565 110 541 44 501L104 384C142 401 196 421 254 421C302 421 327 410 327 364L327 335L251 335C100 335 17 275 17 180L17 148C17 51 94 -20 212 -20C277 -20 342 -4 396 56C442 9 512 -20 603 -20C687 -20 775 9 833 47L770 165C726 142 685 129 629 129ZM591 437C631 437 649 418 649 337L649 334L532 334C533 411 552 437 591 437ZM270 120C243 120 228 133 228 167L228 183C228 214 248 229 286 229L327 229C328 203 332 178 339 155C314 129 292 120 270 120Z"/>
<glyph unicode="&#xe7;" horiz-adv-x="504" d="M504 53L428 163C395 142 368 129 330 129C271 129 247 154 247 248L247 300C247 392 273 416 327 416C365 416 385 405 411 383L507 489C458 538 395 565 311 565C132 565 29 463 29 297L29 248C29 105 105 11 233 -13L225 -111C289 -111 318 -117 318 -134L318 -142C318 -155 306 -165 273 -165C249 -165 229 -163 209 -158L185 -246C224 -260 256 -265 298 -265C385 -265 457 -225 457 -153L457 -131C457 -69 416 -44 343 -35L343 -17C407 -9 463 18 504 53Z"/>
<glyph unicode="&#xe8;" horiz-adv-x="572" d="M453 701L209 837L143 706L400 596ZM542 219C545 238 547 258 547 282C547 479 467 565 292 565C129 565 29 458 29 298L29 241C29 91 131 -20 310 -20C395 -20 483 9 541 47L478 165C434 142 374 129 331 129C258 129 240 152 240 213L240 219ZM298 436C341 436 357 412 357 332L357 329L240 329C241 414 262 436 298 436Z"/>
<glyph unicode="&#xe9;" horiz-adv-x="572" d="M453 706L386 837L143 701L195 596ZM542 219C545 238 547 258 547 282C547 479 467 565 292 565C129 565 29 458 29 298L29 241C29 91 131 -20 310 -20C395 -20 483 9 541 47L478 165C434 142 374 129 331 129C258 129 240 152 240 213L240 219ZM298 436C341 436 357 412 357 332L357 329L240 329C241 414 262 436 298 436Z"/>
<glyph unicode="&#xea;" horiz-adv-x="572" d="M297 693L431 597L502 689L355 822L240 822L92 689L163 597ZM542 219C545 238 547 258 547 282C547 479 467 565 292 565C129 565 29 458 29 298L29 241C29 91 131 -20 310 -20C395 -20 483 9 541 47L478 165C434 142 374 129 331 129C258 129 240 152 240 213L240 219ZM298 436C341 436 357 412 357 332L357 329L240 329C241 414 262 436 298 436Z"/>
<glyph unicode="&#xeb;" horiz-adv-x="572" d="M165 620C222 620 266 664 266 719C266 773 222 817 165 817C110 817 64 773 64 719C64 664 110 620 165 620ZM428 620C485 620 529 664 529 719C529 773 485 817 428 817C373 817 327 773 327 719C327 664 373 620 428 620ZM542 219C545 238 547 258 547 282C547 479 467 565 292 565C129 565 29 458 29 298L29 241C29 91 131 -20 310 -20C395 -20 483 9 541 47L478 165C434 142 374 129 331 129C258 129 240 152 240 213L240 219ZM298 436C341 436 357 412 357 332L357 329L240 329C241 414 262 436 298 436Z"/>
<glyph unicode="&#xec;" horiz-adv-x="346" d="M336 701L92 837L26 706L283 596ZM14 545L14 396L75 396L75 0L293 0L293 545Z"/>
<glyph unicode="&#xed;" horiz-adv-x="346" d="M336 706L269 837L26 701L78 596ZM14 545L14 396L75 396L75 0L293 0L293 545Z"/>
<glyph unicode="&#xee;" horiz-adv-x="346" d="M239 822L124 822L-24 689L47 597L181 693L315 597L386 689ZM14 545L14 396L75 396L75 0L293 0L293 545Z"/>
<glyph unicode="&#xef;" horiz-adv-x="346" d="M150 719C150 773 106 817 49 817C-6 817 -52 773 -52 719C-52 664 -6 620 49 620C106 620 150 664 150 719ZM312 817C257 817 211 773 211 719C211 664 257 620 312 620C369 620 413 664 413 719C413 773 369 817 312 817ZM14 545L14 396L75 396L75 0L293 0L293 545Z"/>
<glyph unicode="&#xf0;" horiz-adv-x="624" d="M399 691L433 751L329 806L289 737C235 752 175 759 108 760L108 613C147 613 181 610 212 604L179 548L284 493L320 556C356 525 374 480 374 421C341 450 298 465 233 465C104 465 29 375 29 262L29 218C29 95 113 -20 304 -20C491 -20 592 92 592 277L592 331C592 491 525 619 399 691ZM309 129C265 129 247 153 247 226L247 254C247 307 263 327 306 327C331 327 353 315 374 294L374 233C374 154 357 129 309 129Z"/>
<glyph unicode="&#xf1;" horiz-adv-x="628" d="M260 661C291 661 313 616 373 616C442 616 501 673 531 745L422 795C406 767 393 752 369 752C337 752 316 797 255 797C186 797 127 739 98 667L207 618C223 646 235 661 260 661ZM408 565C344 565 295 546 253 501L243 545L53 545L53 0L271 0L271 386C288 406 305 416 325 416C353 416 368 398 368 362L368 0L586 0L586 376C586 497 514 565 408 565Z"/>
<glyph unicode="&#xf2;" horiz-adv-x="618" d="M412 596L465 701L221 837L155 706ZM309 565C129 565 29 463 29 298L29 247C29 83 129 -20 309 -20C489 -20 589 83 589 247L589 298C589 463 489 565 309 565ZM309 416C354 416 371 391 371 301L371 248C371 154 354 129 309 129C265 129 247 154 247 248L247 301C247 391 265 416 309 416Z"/>
<glyph unicode="&#xf3;" horiz-adv-x="618" d="M207 596L465 706L398 837L155 701ZM309 565C129 565 29 463 29 298L29 247C29 83 129 -20 309 -20C489 -20 589 83 589 247L589 298C589 463 489 565 309 565ZM309 416C354 416 371 391 371 301L371 248C371 154 354 129 309 129C265 129 247 154 247 248L247 301C247 391 265 416 309 416Z"/>
<glyph unicode="&#xf4;" horiz-adv-x="618" d="M175 597L309 693L443 597L514 689L367 822L252 822L104 689ZM309 565C129 565 29 463 29 298L29 247C29 83 129 -20 309 -20C489 -20 589 83 589 247L589 298C589 463 489 565 309 565ZM309 416C354 416 371 391 371 301L371 248C371 154 354 129 309 129C265 129 247 154 247 248L247 301C247 391 265 416 309 416Z"/>
<glyph unicode="&#xf5;" horiz-adv-x="618" d="M368 616C437 616 496 673 526 745L417 795C401 767 388 752 364 752C332 752 311 797 250 797C181 797 122 739 93 667L202 618C218 646 230 661 255 661C286 661 308 616 368 616ZM309 565C129 565 29 463 29 298L29 247C29 83 129 -20 309 -20C489 -20 589 83 589 247L589 298C589 463 489 565 309 565ZM309 416C354 416 371 391 371 301L371 248C371 154 354 129 309 129C265 129 247 154 247 248L247 301C247 391 265 416 309 416Z"/>
<glyph unicode="&#xf6;" horiz-adv-x="618" d="M177 620C234 620 278 664 278 719C278 773 234 817 177 817C122 817 76 773 76 719C76 664 122 620 177 620ZM440 620C497 620 541 664 541 719C541 773 497 817 440 817C385 817 339 773 339 719C339 664 385 620 440 620ZM309 565C129 565 29 463 29 298L29 247C29 83 129 -20 309 -20C489 -20 589 83 589 247L589 298C589 463 489 565 309 565ZM309 416C354 416 371 391 371 301L371 248C371 154 354 129 309 129C265 129 247 154 247 248L247 301C247 391 265 416 309 416Z"/>
<glyph unicode="&#xf7;" horiz-adv-x="600" d="M306 673C245 673 197 624 197 563C197 503 245 454 306 454C367 454 415 503 415 563C415 624 367 673 306 673ZM509 263L509 425L91 425L91 263ZM306 13C367 13 415 62 415 123C415 183 367 232 306 232C245 232 197 183 197 123C197 62 245 13 306 13Z"/>
<glyph unicode="&#xf8;" horiz-adv-x="618" d="M511 498L547 565L433 622L396 556C369 562 340 565 309 565C129 565 29 463 29 298L29 247C29 161 57 92 109 46L72 -24L186 -81L225 -11C251 -17 279 -20 309 -20C489 -20 589 83 589 247L589 298C589 383 562 452 511 498ZM240 301C240 392 267 427 309 427C323 427 335 423 345 415L240 220L240 248ZM379 248C379 156 352 121 309 121C297 121 286 124 276 131L378 321C379 314 379 308 379 301Z"/>
<glyph unicode="&#xf9;" horiz-adv-x="623" d="M467 701L223 837L157 706L414 596ZM352 545L352 158C336 139 317 129 297 129C272 129 260 141 260 168L260 545L42 545L42 154C42 45 117 -20 215 -20C277 -20 331 5 374 46L389 0L570 0L570 545Z"/>
<glyph unicode="&#xfa;" horiz-adv-x="623" d="M467 706L400 837L157 701L209 596ZM352 545L352 158C336 139 317 129 297 129C272 129 260 141 260 168L260 545L42 545L42 154C42 45 117 -20 215 -20C277 -20 331 5 374 46L389 0L570 0L570 545Z"/>
<glyph unicode="&#xfb;" horiz-adv-x="623" d="M311 693L445 597L516 689L369 822L254 822L106 689L177 597ZM352 545L352 158C336 139 317 129 297 129C272 129 260 141 260 168L260 545L42 545L42 154C42 45 117 -20 215 -20C277 -20 331 5 374 46L389 0L570 0L570 545Z"/>
<glyph unicode="&#xfc;" horiz-adv-x="623" d="M179 620C236 620 280 664 280 719C280 773 236 817 179 817C124 817 78 773 78 719C78 664 124 620 179 620ZM442 620C499 620 543 664 543 719C543 773 499 817 442 817C387 817 341 773 341 719C341 664 387 620 442 620ZM352 545L352 158C336 139 317 129 297 129C272 129 260 141 260 168L260 545L42 545L42 154C42 45 117 -20 215 -20C277 -20 331 5 374 46L389 0L570 0L570 545Z"/>
<glyph unicode="&#xfd;" horiz-adv-x="558" d="M177 596L435 706L368 837L125 701ZM187 -220C315 -220 379 -158 417 -15L567 545L353 545L287 158L213 545L-9 545L157 0L244 0L239 -22C227 -67 204 -80 154 -80C131 -80 112 -77 83 -70L62 -200C93 -211 137 -220 187 -220Z"/>
<glyph unicode="&#xfe;" horiz-adv-x="633" d="M404 565C349 565 307 549 273 517L273 740L53 740L53 -200L273 -200L273 20C304 -5 342 -20 389 -20C502 -20 602 73 602 241L602 304C602 472 516 565 404 565ZM382 229C382 158 360 131 325 131C304 131 287 138 273 154L273 388C288 407 306 417 331 417C364 417 382 390 382 320Z"/>
<glyph unicode="&#xff;" horiz-adv-x="558" d="M147 620C204 620 248 664 248 719C248 773 204 817 147 817C92 817 46 773 46 719C46 664 92 620 147 620ZM410 620C467 620 511 664 511 719C511 773 467 817 410 817C355 817 309 773 309 719C309 664 355 620 410 620ZM187 -220C315 -220 379 -158 417 -15L567 545L353 545L287 158L213 545L-9 545L157 0L244 0L239 -22C227 -67 204 -80 154 -80C131 -80 112 -77 83 -70L62 -200C93 -211 137 -220 187 -220Z"/>
<glyph unicode="&#x100;" horiz-adv-x="661" d="M489 891L167 891L167 760L489 760ZM445 0L669 0L470 700L177 700L-8 0L210 0L237 124L413 124ZM378 280L270 280L324 559Z"/>
<glyph unicode="&#x101;" horiz-adv-x="584" d="M453 764L131 764L131 633L453 633ZM287 565C198 565 110 541 44 501L104 384C142 401 196 421 254 421C302 421 327 410 327 364L327 342L251 342C100 342 17 282 17 180L17 148C17 51 94 -20 212 -20C270 -20 322 2 367 46L385 0L542 0L542 350C542 476 468 565 287 565ZM270 120C243 120 228 133 228 167L228 183C228 221 248 236 286 236L327 236L327 147C311 129 290 120 270 120Z"/>
<glyph unicode="&#x102;" horiz-adv-x="661" d="M328 743C446 743 517 822 530 923L405 942C394 895 373 873 328 873C283 873 263 895 252 942L126 923C140 822 210 743 328 743ZM445 0L669 0L470 700L177 700L-8 0L210 0L237 124L413 124ZM378 280L270 280L324 559Z"/>
<glyph unicode="&#x103;" horiz-adv-x="584" d="M293 621C411 621 482 700 490 801L370 820C359 773 338 751 293 751C248 751 228 773 217 820L96 801C105 700 175 621 293 621ZM287 565C198 565 110 541 44 501L104 384C142 401 196 421 254 421C302 421 327 410 327 364L327 342L251 342C100 342 17 282 17 180L17 148C17 51 94 -20 212 -20C270 -20 322 2 367 46L385 0L542 0L542 350C542 476 468 565 287 565ZM270 120C243 120 228 133 228 167L228 183C228 221 248 236 286 236L327 236L327 147C311 129 290 120 270 120Z"/>
<glyph unicode="&#x104;" horiz-adv-x="661" d="M600 0L669 0L470 700L177 700L-8 0L210 0L237 124L413 124L442 14C373 -16 325 -65 325 -128C325 -207 385 -253 472 -253C508 -253 535 -249 557 -243L569 -132C547 -137 526 -140 507 -140C472 -140 457 -126 457 -96C457 -69 485 -23 600 0ZM378 280L270 280L324 559Z"/>
<glyph unicode="&#x105;" horiz-adv-x="584" d="M287 565C198 565 110 541 44 501L104 384C142 401 196 421 254 421C302 421 327 410 327 364L327 342L251 342C100 342 17 282 17 180L17 148C17 51 94 -20 212 -20C270 -20 322 2 367 46L380 12C314 -18 267 -66 267 -128C267 -207 327 -253 414 -253C450 -253 477 -249 499 -243L511 -132C489 -137 468 -140 449 -140C414 -140 399 -126 399 -96C399 -69 427 -23 542 0L542 350C542 476 468 565 287 565ZM270 120C243 120 228 133 228 167L228 183C228 221 248 236 286 236L327 236L327 147C311 129 290 120 270 120Z"/>
<glyph unicode="&#x106;" horiz-adv-x="607" d="M236 736L495 837L433 969L185 844ZM353 -20C456 -20 543 23 595 70L511 185C472 157 424 134 367 134C298 134 265 167 265 249L265 467C265 534 303 566 365 566C415 566 453 554 493 521L598 634C536 686 468 720 354 720C159 720 43 608 43 432L43 256C43 88 158 -20 353 -20Z"/>
<glyph unicode="&#x107;" horiz-adv-x="504" d="M193 596L451 706L384 837L141 701ZM302 -20C382 -20 455 11 504 53L428 163C395 142 368 129 330 129C271 129 247 154 247 248L247 300C247 392 273 416 327 416C365 416 385 405 411 383L507 489C458 538 395 565 311 565C132 565 29 463 29 297L29 248C29 82 132 -20 302 -20Z"/>
<glyph unicode="&#x108;" horiz-adv-x="607" d="M211 740L345 831L479 740L550 832L403 960L288 960L140 832ZM353 -20C456 -20 543 23 595 70L511 185C472 157 424 134 367 134C298 134 265 167 265 249L265 467C265 534 303 566 365 566C415 566 453 554 493 521L598 634C536 686 468 720 354 720C159 720 43 608 43 432L43 256C43 88 158 -20 353 -20Z"/>
<glyph unicode="&#x109;" horiz-adv-x="504" d="M161 597L295 693L429 597L500 689L353 822L238 822L90 689ZM302 -20C382 -20 455 11 504 53L428 163C395 142 368 129 330 129C271 129 247 154 247 248L247 300C247 392 273 416 327 416C365 416 385 405 411 383L507 489C458 538 395 565 311 565C132 565 29 463 29 297L29 248C29 82 132 -20 302 -20Z"/>
<glyph unicode="&#x10a;" horiz-adv-x="607" d="M345 747C414 747 466 798 466 864C466 932 414 982 345 982C277 982 224 932 224 864C224 798 277 747 345 747ZM353 -20C456 -20 543 23 595 70L511 185C472 157 424 134 367 134C298 134 265 167 265 249L265 467C265 534 303 566 365 566C415 566 453 554 493 521L598 634C536 686 468 720 354 720C159 720 43 608 43 432L43 256C43 88 158 -20 353 -20Z"/>
<glyph unicode="&#x10b;" horiz-adv-x="504" d="M295 602C364 602 416 653 416 719C416 787 364 837 295 837C227 837 174 787 174 719C174 653 227 602 295 602ZM302 -20C382 -20 455 11 504 53L428 163C395 142 368 129 330 129C271 129 247 154 247 248L247 300C247 392 273 416 327 416C365 416 385 405 411 383L507 489C458 538 395 565 311 565C132 565 29 463 29 297L29 248C29 82 132 -20 302 -20Z"/>
<glyph unicode="&#x10c;" horiz-adv-x="607" d="M288 740L403 740L550 868L479 960L345 869L211 960L140 868ZM353 -20C456 -20 543 23 595 70L511 185C472 157 424 134 367 134C298 134 265 167 265 249L265 467C265 534 303 566 365 566C415 566 453 554 493 521L598 634C536 686 468 720 354 720C159 720 43 608 43 432L43 256C43 88 158 -20 353 -20Z"/>
<glyph unicode="&#x10d;" horiz-adv-x="504" d="M238 597L353 597L500 730L429 822L295 726L161 822L90 730ZM302 -20C382 -20 455 11 504 53L428 163C395 142 368 129 330 129C271 129 247 154 247 248L247 300C247 392 273 416 327 416C365 416 385 405 411 383L507 489C458 538 395 565 311 565C132 565 29 463 29 297L29 248C29 82 132 -20 302 -20Z"/>
<glyph unicode="&#x10e;" horiz-adv-x="690" d="M371 740L518 868L447 960L313 869L179 960L108 868L256 740ZM344 700L289 700L67 700L67 0L248 0L321 0C535 0 646 110 646 288L646 422C646 588 546 700 344 700ZM424 281C424 190 393 153 327 153L289 153L289 547L339 547C398 547 424 514 424 431Z"/>
<glyph unicode="&#x10f;" horiz-adv-x="798" d="M651 760L626 519L755 499L818 735ZM363 521C334 548 296 565 244 565C132 565 31 463 31 304L31 241C31 78 123 -20 246 -20C314 -20 364 12 399 57L427 0L581 0L581 740L363 740ZM305 129C270 129 249 153 249 238L249 310C249 391 268 416 306 416C328 416 348 408 363 392L363 164C348 141 329 129 305 129Z"/>
<glyph unicode="&#x110;" horiz-adv-x="690" d="M344 700L289 700L67 700L67 407L29 407L29 295L67 295L67 0L248 0L321 0C535 0 646 110 646 288L646 422C646 588 546 700 344 700ZM424 281C424 190 393 153 327 153L289 153L289 295L371 295L371 407L289 407L289 547L339 547C398 547 424 514 424 431Z"/>
<glyph unicode="&#x111;" horiz-adv-x="646" d="M624 698L581 698L581 740L363 740L363 698L273 698L273 587L363 587L363 521C334 548 296 565 244 565C132 565 31 463 31 304L31 241C31 78 123 -20 246 -20C314 -20 364 12 399 57L427 0L581 0L581 587L624 587ZM305 129C270 129 249 153 249 238L249 310C249 391 268 416 306 416C328 416 348 408 363 392L363 164C348 141 329 129 305 129Z"/>
<glyph unicode="&#x112;" horiz-adv-x="574" d="M458 891L136 891L136 760L458 760ZM530 547L530 700L289 700L67 700L67 0L130 0L530 0L530 158L289 158L289 278L509 278L509 429L289 429L289 547Z"/>
<glyph unicode="&#x113;" horiz-adv-x="572" d="M458 764L136 764L136 633L458 633ZM542 219C545 238 547 258 547 282C547 479 467 565 292 565C129 565 29 458 29 298L29 241C29 91 131 -20 310 -20C395 -20 483 9 541 47L478 165C434 142 374 129 331 129C258 129 240 152 240 213L240 219ZM298 436C341 436 357 412 357 332L357 329L240 329C241 414 262 436 298 436Z"/>
<glyph unicode="&#x116;" horiz-adv-x="574" d="M298 747C367 747 419 798 419 864C419 932 367 982 298 982C230 982 177 932 177 864C177 798 230 747 298 747ZM530 547L530 700L289 700L67 700L67 0L130 0L530 0L530 158L289 158L289 278L509 278L509 429L289 429L289 547Z"/>
<glyph unicode="&#x117;" horiz-adv-x="572" d="M297 602C366 602 418 653 418 719C418 787 366 837 297 837C229 837 176 787 176 719C176 653 229 602 297 602ZM542 219C545 238 547 258 547 282C547 479 467 565 292 565C129 565 29 458 29 298L29 241C29 91 131 -20 310 -20C395 -20 483 9 541 47L478 165C434 142 374 129 331 129C258 129 240 152 240 213L240 219ZM298 436C341 436 357 412 357 332L357 329L240 329C241 414 262 436 298 436Z"/>
<glyph unicode="&#x118;" horiz-adv-x="574" d="M387 -96C387 -69 415 -23 530 0L530 158L289 158L289 278L509 278L509 429L289 429L289 547L530 547L530 700L289 700L67 700L67 0L130 0L344 0C291 -30 255 -73 255 -128C255 -207 315 -253 402 -253C438 -253 465 -249 487 -243L499 -132C477 -137 456 -140 437 -140C402 -140 387 -126 387 -96Z"/>
<glyph unicode="&#x119;" horiz-adv-x="572" d="M542 219C545 238 547 258 547 282C547 479 467 565 292 565C129 565 29 458 29 298L29 241C29 105 112 1 262 -17C211 -41 177 -75 177 -128C177 -207 237 -253 324 -253C360 -253 387 -249 409 -243L421 -132C399 -137 378 -140 359 -140C324 -140 309 -126 309 -96C309 -71 332 -36 437 0C476 12 512 29 541 47L478 165C434 142 374 129 331 129C258 129 240 152 240 213L240 219ZM298 436C341 436 357 412 357 332L357 329L240 329C241 414 262 436 298 436Z"/>
<glyph unicode="&#x11a;" horiz-adv-x="574" d="M356 740L503 868L432 960L298 869L164 960L93 868L241 740ZM530 547L530 700L289 700L67 700L67 0L130 0L530 0L530 158L289 158L289 278L509 278L509 429L289 429L289 547Z"/>
<glyph unicode="&#x11b;" horiz-adv-x="572" d="M355 597L502 730L431 822L297 726L163 822L92 730L240 597ZM542 219C545 238 547 258 547 282C547 479 467 565 292 565C129 565 29 458 29 298L29 241C29 91 131 -20 310 -20C395 -20 483 9 541 47L478 165C434 142 374 129 331 129C258 129 240 152 240 213L240 219ZM298 436C341 436 357 412 357 332L357 329L240 329C241 414 262 436 298 436Z"/>
<glyph unicode="&#x11c;" horiz-adv-x="686" d="M368 831L502 740L573 832L426 960L311 960L163 832L234 740ZM351 413L351 276L437 276L437 169C417 150 388 134 348 134C294 134 265 169 265 228L265 467C265 534 305 566 378 566C433 566 473 540 508 502L644 596C583 680 486 720 364 720C164 720 43 608 43 441L43 234C43 84 158 -20 299 -20C370 -20 429 6 472 41L487 0L646 0L646 276L647 413Z"/>
<glyph unicode="&#x11d;" horiz-adv-x="637" d="M313 693L447 597L518 689L371 822L256 822L108 689L179 597ZM421 545L402 496C369 539 319 565 254 565C135 565 31 464 31 307L31 267C31 91 123 0 247 0C300 0 341 21 374 54L374 23C374 -47 339 -75 269 -75C207 -75 160 -59 114 -38L54 -157C111 -194 191 -220 285 -220C454 -220 583 -139 583 42L584 545ZM249 267L249 310C249 393 273 416 308 416C330 416 348 406 364 391L364 173C347 158 329 148 305 148C270 148 249 172 249 267Z"/>
<glyph unicode="&#x11e;" horiz-adv-x="686" d="M368 743C486 743 557 822 570 923L445 942C434 895 413 873 368 873C323 873 303 895 292 942L166 923C180 822 250 743 368 743ZM351 413L351 276L437 276L437 169C417 150 388 134 348 134C294 134 265 169 265 228L265 467C265 534 305 566 378 566C433 566 473 540 508 502L644 596C583 680 486 720 364 720C164 720 43 608 43 441L43 234C43 84 158 -20 299 -20C370 -20 429 6 472 41L487 0L646 0L646 276L647 413Z"/>
<glyph unicode="&#x11f;" horiz-adv-x="637" d="M313 621C431 621 502 700 510 801L390 820C379 773 358 751 313 751C268 751 248 773 237 820L116 801C125 700 195 621 313 621ZM421 545L402 496C369 539 319 565 254 565C135 565 31 464 31 307L31 267C31 91 123 0 247 0C300 0 341 21 374 54L374 23C374 -47 339 -75 269 -75C207 -75 160 -59 114 -38L54 -157C111 -194 191 -220 285 -220C454 -220 583 -139 583 42L584 545ZM249 267L249 310C249 393 273 416 308 416C330 416 348 406 364 391L364 173C347 158 329 148 305 148C270 148 249 172 249 267Z"/>
<glyph unicode="&#x120;" horiz-adv-x="686" d="M368 747C437 747 489 798 489 864C489 932 437 982 368 982C300 982 247 932 247 864C247 798 300 747 368 747ZM351 413L351 276L437 276L437 169C417 150 388 134 348 134C294 134 265 169 265 228L265 467C265 534 305 566 378 566C433 566 473 540 508 502L644 596C583 680 486 720 364 720C164 720 43 608 43 441L43 234C43 84 158 -20 299 -20C370 -20 429 6 472 41L487 0L646 0L646 276L647 413Z"/>
<glyph unicode="&#x121;" horiz-adv-x="637" d="M313 602C382 602 434 653 434 719C434 787 382 837 313 837C245 837 192 787 192 719C192 653 245 602 313 602ZM421 545L402 496C369 539 319 565 254 565C135 565 31 464 31 307L31 267C31 91 123 0 247 0C300 0 341 21 374 54L374 23C374 -47 339 -75 269 -75C207 -75 160 -59 114 -38L54 -157C111 -194 191 -220 285 -220C454 -220 583 -139 583 42L584 545ZM249 267L249 310C249 393 273 416 308 416C330 416 348 406 364 391L364 173C347 158 329 148 305 148C270 148 249 172 249 267Z"/>
<glyph unicode="&#x122;" horiz-adv-x="686" d="M351 413L351 276L437 276L437 169C417 150 388 134 348 134C294 134 265 169 265 228L265 467C265 534 305 566 378 566C433 566 473 540 508 502L644 596C583 680 486 720 364 720C164 720 43 608 43 441L43 234C43 84 158 -20 299 -20C370 -20 429 6 472 41L487 0L646 0L646 276L647 413ZM353 -47C300 -47 261 -89 261 -138C261 -171 279 -195 302 -211C299 -249 289 -276 274 -312L355 -345C415 -263 444 -190 444 -138C444 -86 406 -47 353 -47Z"/>
<glyph unicode="&#x123;" horiz-adv-x="637" d="M313 597C366 597 405 639 405 688C405 721 387 745 364 761C367 799 377 826 392 862L311 895C251 813 222 740 222 688C222 636 260 597 313 597ZM421 545L402 496C369 539 319 565 254 565C135 565 31 464 31 307L31 267C31 91 123 0 247 0C300 0 341 21 374 54L374 23C374 -47 339 -75 269 -75C207 -75 160 -59 114 -38L54 -157C111 -194 191 -220 285 -220C454 -220 583 -139 583 42L584 545ZM249 267L249 310C249 393 273 416 308 416C330 416 348 406 364 391L364 173C347 158 329 148 305 148C270 148 249 172 249 267Z"/>
<glyph unicode="&#x124;" horiz-adv-x="732" d="M231 740L365 831L499 740L570 832L423 960L308 960L160 832ZM664 700L442 700L442 438L289 438L289 700L67 700L67 0L289 0L289 272L442 272L442 0L664 0Z"/>
<glyph unicode="&#x125;" horiz-adv-x="630" d="M295 780L366 872L219 1000L104 1000L-44 872L27 780L161 871ZM408 565C353 565 309 551 271 515L271 740L53 740L53 0L271 0L271 387C287 407 305 416 325 416C352 416 369 398 369 364L369 0L587 0L587 376C587 497 514 565 408 565Z"/>
<glyph unicode="&#x126;" horiz-adv-x="732" d="M695 603L664 603L664 700L442 700L442 603L289 603L289 700L67 700L67 603L34 603L34 491L67 491L67 0L289 0L289 272L442 272L442 0L664 0L664 491L695 491ZM442 438L289 438L289 491L442 491Z"/>
<glyph unicode="&#x127;" horiz-adv-x="627" d="M405 565C349 565 306 551 268 515L268 587L361 587L361 698L268 698L268 740L50 740L50 698L10 698L10 587L50 587L50 0L268 0L268 387C284 406 302 416 322 416C349 416 367 398 367 364L367 0L585 0L585 376C585 497 511 565 405 565Z"/>
<glyph unicode="&#x128;" horiz-adv-x="463" d="M176 787C207 787 229 742 289 742C358 742 417 799 447 871L338 921C322 893 309 878 285 878C253 878 232 923 171 923C102 923 43 865 14 793L123 744C139 772 151 787 176 787ZM431 700L31 700L31 549L120 549L120 153L31 153L31 0L120 0L431 0L431 153L342 153L342 549L431 549Z"/>
<glyph unicode="&#x129;" horiz-adv-x="346" d="M289 795C273 767 260 752 236 752C204 752 183 797 122 797C53 797 -6 739 -35 667L74 618C90 646 102 661 127 661C158 661 180 616 240 616C309 616 368 673 398 745ZM14 545L14 396L75 396L75 0L293 0L293 545Z"/>
<glyph unicode="&#x12a;" horiz-adv-x="463" d="M392 891L70 891L70 760L392 760ZM431 549L431 700L342 700L31 700L31 549L120 549L120 153L31 153L31 0L120 0L431 0L431 153L342 153L342 549Z"/>
<glyph unicode="&#x12b;" horiz-adv-x="346" d="M19 764L19 633L341 633L341 764ZM14 545L14 396L75 396L75 0L293 0L293 545Z"/>
<glyph unicode="&#x12e;" horiz-adv-x="463" d="M431 549L431 700L342 700L31 700L31 549L120 549L120 153L31 153L31 0L158 0C105 -30 69 -73 69 -128C69 -207 129 -253 216 -253C252 -253 279 -249 301 -243L313 -132C291 -137 270 -140 251 -140C216 -140 201 -126 201 -96C201 -69 229 -23 344 0L431 0L431 153L342 153L342 549Z"/>
<glyph unicode="&#x12f;" horiz-adv-x="346" d="M181 602C250 602 302 653 302 719C302 787 250 837 181 837C113 837 60 787 60 719C60 653 113 602 181 602ZM14 545L14 396L75 396L75 3C18 -27 -20 -71 -20 -128C-20 -207 40 -253 127 -253C163 -253 190 -249 212 -243L224 -132C202 -137 181 -140 162 -140C127 -140 112 -126 112 -96C112 -69 140 -23 255 0L293 0L293 545Z"/>
<glyph unicode="&#x130;" horiz-adv-x="463" d="M231 747C300 747 352 798 352 864C352 932 300 982 231 982C163 982 110 932 110 864C110 798 163 747 231 747ZM431 549L431 700L342 700L31 700L31 549L120 549L120 153L31 153L31 0L120 0L431 0L431 153L342 153L342 549Z"/>
<glyph unicode="&#x131;" horiz-adv-x="346" d="M293 545L14 545L14 396L75 396L75 0L293 0Z"/>
<glyph unicode="&#x132;" horiz-adv-x="1029" d="M431 700L31 700L31 549L120 549L120 153L31 153L31 0L120 0L431 0L431 153L342 153L342 549L431 549ZM975 700L507 700L507 549L754 549L754 223C754 165 716 134 666 134C625 134 592 152 560 183L460 69C514 13 580 -20 689 -20C867 -20 975 97 975 236Z"/>
<glyph unicode="&#x133;" horiz-adv-x="694" d="M181 837C113 837 60 787 60 719C60 653 113 602 181 602C250 602 302 653 302 719C302 787 250 837 181 837ZM529 602C598 602 650 653 650 719C650 787 598 837 529 837C461 837 408 787 408 719C408 653 461 602 529 602ZM14 545L14 396L75 396L75 0L293 0L293 545ZM372 396L423 396L423 -37C423 -67 411 -78 387 -78C378 -78 369 -77 360 -76L349 -200C369 -211 402 -220 444 -220C551 -220 641 -158 641 -23L641 545L372 545Z"/>
<glyph unicode="&#x134;" horiz-adv-x="586" d="M296 831L430 740L501 832L354 960L239 960L91 832L162 740ZM532 700L64 700L64 549L311 549L311 223C311 165 273 134 223 134C182 134 149 152 117 183L17 69C71 13 137 -20 246 -20C424 -20 532 97 532 236Z"/>
<glyph unicode="&#x135;" horiz-adv-x="348" d="M49 597L183 693L317 597L388 689L241 822L126 822L-22 689ZM295 545L26 545L26 396L77 396L77 -37C77 -67 65 -78 41 -78C32 -78 23 -77 14 -76L3 -200C23 -211 56 -220 98 -220C205 -220 295 -158 295 -23Z"/>
<glyph unicode="&#x136;" horiz-adv-x="689" d="M430 387L668 700L444 700L277 467L277 700L67 700L67 0L277 0L277 226L289 242L448 0L696 0ZM354 -47C301 -47 262 -89 262 -138C262 -171 280 -195 303 -211C300 -249 290 -276 275 -312L356 -345C416 -263 445 -190 445 -138C445 -86 407 -47 354 -47Z"/>
<glyph unicode="&#x137;" horiz-adv-x="620" d="M271 174L284 191L394 0L627 0L445 312L609 545L396 545L271 367L271 740L53 740L53 0L271 0ZM338 -47C285 -47 246 -89 246 -138C246 -171 264 -195 287 -211C284 -249 274 -276 259 -312L340 -345C400 -263 429 -190 429 -138C429 -86 391 -47 338 -47Z"/>
<glyph unicode="&#x138;" horiz-adv-x="620" d="M394 0L627 0L445 312L609 545L396 545L271 367L271 545L53 545L53 0L271 0L271 174L284 191Z"/>
<glyph unicode="&#x139;" horiz-adv-x="540" d="M329 837L267 969L19 844L70 736ZM289 163L289 700L67 700L67 0L83 0L533 0L533 163Z"/>
<glyph unicode="&#x13a;" horiz-adv-x="331" d="M43 776L302 877L240 1009L-8 884ZM260 740L42 740L42 150C42 33 121 -20 222 -20C264 -20 298 -10 320 0L307 136C300 135 296 135 292 135C270 135 260 146 260 172Z"/>
<glyph unicode="&#x13b;" horiz-adv-x="540" d="M289 163L289 700L67 700L67 0L83 0L533 0L533 163ZM287 -47C234 -47 195 -89 195 -138C195 -171 213 -195 236 -211C233 -249 223 -276 208 -312L289 -345C349 -263 378 -190 378 -138C378 -86 340 -47 287 -47Z"/>
<glyph unicode="&#x13c;" horiz-adv-x="331" d="M260 740L42 740L42 150C42 33 121 -20 222 -20C264 -20 298 -10 320 0L307 136C300 135 296 135 292 135C270 135 260 146 260 172ZM201 -345C261 -263 290 -190 290 -138C290 -86 252 -47 199 -47C146 -47 107 -89 107 -138C107 -171 125 -195 148 -211C145 -249 135 -276 120 -312Z"/>
<glyph unicode="&#x13d;" horiz-adv-x="574" d="M557 695L390 720L365 479L494 459ZM289 700L67 700L67 0L83 0L533 0L533 163L289 163Z"/>
<glyph unicode="&#x13e;" horiz-adv-x="476" d="M434 499L497 735L330 760L305 519ZM260 740L42 740L42 150C42 33 121 -20 222 -20C264 -20 298 -10 320 0L307 136C300 135 296 135 292 135C270 135 260 146 260 172Z"/>
<glyph unicode="&#x13f;" horiz-adv-x="544" d="M289 700L67 700L67 0L83 0L533 0L533 163L289 163ZM454 309C505 309 546 351 546 402C546 452 505 493 454 493C403 493 363 452 363 402C363 351 403 309 454 309Z"/>
<glyph unicode="&#x140;" horiz-adv-x="440" d="M260 740L42 740L42 150C42 33 121 -20 222 -20C264 -20 298 -10 320 0L307 136C300 135 296 135 292 135C270 135 260 146 260 172ZM373 309C425 309 465 351 465 402C465 452 425 493 373 493C322 493 283 452 283 402C283 351 322 309 373 309Z"/>
<glyph unicode="&#x141;" horiz-adv-x="550" d="M299 163L299 343L413 376L380 502L299 478L299 700L77 700L77 414L15 396L47 270L77 279L77 0L93 0L543 0L543 163Z"/>
<glyph unicode="&#x142;" horiz-adv-x="344" d="M302 135C280 135 270 146 270 172L270 362L337 379L308 510L270 501L270 740L52 740L52 447L-14 431L16 300L52 309L52 150C52 33 131 -20 232 -20C274 -20 308 -10 330 0L317 136C310 135 306 135 302 135Z"/>
<glyph unicode="&#x143;" horiz-adv-x="734" d="M532 837L470 969L222 844L273 736ZM481 700L481 360L325 700L67 700L67 0L253 0L253 418L436 0L666 0L666 700Z"/>
<glyph unicode="&#x144;" horiz-adv-x="628" d="M470 706L403 837L160 701L212 596ZM408 565C344 565 295 546 253 501L243 545L53 545L53 0L271 0L271 386C288 406 305 416 325 416C353 416 368 398 368 362L368 0L586 0L586 376C586 497 514 565 408 565Z"/>
<glyph unicode="&#x145;" horiz-adv-x="734" d="M481 700L481 360L325 700L67 700L67 0L253 0L253 418L436 0L666 0L666 700ZM358 -47C305 -47 266 -89 266 -138C266 -171 284 -195 307 -211C304 -249 294 -276 279 -312L360 -345C420 -263 449 -190 449 -138C449 -86 411 -47 358 -47Z"/>
<glyph unicode="&#x146;" horiz-adv-x="628" d="M408 565C344 565 295 546 253 501L243 545L53 545L53 0L271 0L271 386C288 406 305 416 325 416C353 416 368 398 368 362L368 0L586 0L586 376C586 497 514 565 408 565ZM315 -47C262 -47 223 -89 223 -138C223 -171 241 -195 264 -211C261 -249 251 -276 236 -312L317 -345C377 -263 406 -190 406 -138C406 -86 368 -47 315 -47Z"/>
<glyph unicode="&#x147;" horiz-adv-x="734" d="M439 740L586 868L515 960L381 869L247 960L176 868L324 740ZM481 700L481 360L325 700L67 700L67 0L253 0L253 418L436 0L666 0L666 700Z"/>
<glyph unicode="&#x148;" horiz-adv-x="628" d="M372 597L519 730L448 822L314 726L180 822L109 730L257 597ZM408 565C344 565 295 546 253 501L243 545L53 545L53 0L271 0L271 386C288 406 305 416 325 416C353 416 368 398 368 362L368 0L586 0L586 376C586 497 514 565 408 565Z"/>
<glyph unicode="&#x14a;" horiz-adv-x="734" d="M481 700L481 360L325 700L67 700L67 0L253 0L253 418L436 0L468 0L468 -37C468 -67 449 -78 423 -78C411 -78 394 -77 385 -76L374 -200C394 -211 427 -220 469 -220C588 -220 666 -146 666 -11L666 0L666 700Z"/>
<glyph unicode="&#x14b;" horiz-adv-x="628" d="M408 565C344 565 295 546 253 501L243 545L53 545L53 0L271 0L271 386C288 406 305 416 325 416C353 416 368 398 368 362L368 203L368 -37C368 -67 356 -78 332 -78C323 -78 314 -77 305 -76L294 -200C314 -211 347 -220 388 -220C496 -220 586 -158 586 -23L586 0L586 376C586 497 514 565 408 565Z"/>
<glyph unicode="&#x14c;" horiz-adv-x="719" d="M198 760L520 760L520 891L198 891ZM360 720C158 720 43 607 43 432L43 268C43 93 161 -20 360 -20C564 -20 676 93 676 268L676 432C676 607 564 720 360 720ZM360 566C418 566 454 531 454 432L454 271C454 169 419 134 360 134C300 134 265 169 265 271L265 432C265 531 298 566 360 566Z"/>
<glyph unicode="&#x14d;" horiz-adv-x="618" d="M148 633L470 633L470 764L148 764ZM309 565C129 565 29 463 29 298L29 247C29 83 129 -20 309 -20C489 -20 589 83 589 247L589 298C589 463 489 565 309 565ZM309 416C354 416 371 391 371 301L371 248C371 154 354 129 309 129C265 129 247 154 247 248L247 301C247 391 265 416 309 416Z"/>
<glyph unicode="&#x150;" horiz-adv-x="719" d="M303 744L412 941L291 994L197 785ZM481 740L601 937L479 994L377 785ZM360 720C158 720 43 607 43 432L43 268C43 93 161 -20 360 -20C564 -20 676 93 676 268L676 432C676 607 564 720 360 720ZM360 566C418 566 454 531 454 432L454 271C454 169 419 134 360 134C300 134 265 169 265 271L265 432C265 531 298 566 360 566Z"/>
<glyph unicode="&#x151;" horiz-adv-x="618" d="M253 618L362 815L241 868L147 659ZM431 614L551 811L429 868L327 659ZM309 565C129 565 29 463 29 298L29 247C29 83 129 -20 309 -20C489 -20 589 83 589 247L589 298C589 463 489 565 309 565ZM309 416C354 416 371 391 371 301L371 248C371 154 354 129 309 129C265 129 247 154 247 248L247 301C247 391 265 416 309 416Z"/>
<glyph unicode="&#x152;" horiz-adv-x="962" d="M919 700L492 700C455 713 411 720 361 720C158 720 43 607 43 432L43 268C43 93 161 -20 361 -20C411 -20 455 -13 492 0L919 0L919 158L644 158C654 191 659 228 659 268L659 278L898 278L898 429L659 429L659 432C659 474 654 512 642 547L919 547ZM265 271L265 432C265 531 298 566 361 566C418 566 454 531 454 432L454 271C454 169 419 134 361 134C300 134 265 169 265 271Z"/>
<glyph unicode="&#x153;" horiz-adv-x="902" d="M669 128C606 128 573 152 573 213L573 219L872 219C875 238 877 258 877 282C877 474 790 565 640 565C563 565 511 532 475 487C438 532 383 565 300 565C129 565 29 463 29 298L29 247C29 83 129 -20 300 -20C384 -20 439 14 477 60C515 15 570 -20 653 -20C728 -20 816 9 874 47L811 165C766 142 725 128 669 128ZM631 437C670 437 690 414 690 332L690 329L573 329C573 415 591 437 631 437ZM369 248C369 156 352 131 309 131C267 131 249 156 249 248L249 301C249 392 267 417 309 417C352 417 369 392 369 301Z"/>
<glyph unicode="&#x154;" horiz-adv-x="672" d="M478 837L416 969L168 844L219 736ZM430 0L669 0L519 292C584 327 626 378 626 445L626 507C626 625 516 700 361 700L289 700L67 700L67 0L289 0L289 245L317 245ZM289 561L342 561C378 561 404 540 404 491L404 446C404 408 378 384 340 384L289 384Z"/>
<glyph unicode="&#x155;" horiz-adv-x="456" d="M404 706L337 837L94 701L146 596ZM392 562C325 562 258 520 228 449L195 545L53 545L53 0L271 0L271 282C303 344 345 363 382 363C401 363 411 361 421 359L457 553C434 560 417 562 392 562Z"/>
<glyph unicode="&#x156;" horiz-adv-x="672" d="M289 245L317 245L430 0L669 0L519 292C584 327 626 378 626 445L626 507C626 625 516 700 361 700L289 700L67 700L67 0L289 0ZM342 561C378 561 404 540 404 491L404 446C404 408 378 384 340 384L289 384L289 561ZM359 -47C306 -47 267 -89 267 -138C267 -171 285 -195 308 -211C305 -249 295 -276 280 -312L361 -345C421 -263 450 -190 450 -138C450 -86 412 -47 359 -47Z"/>
<glyph unicode="&#x157;" horiz-adv-x="456" d="M392 562C325 562 258 520 228 449L195 545L53 545L53 0L271 0L271 282C303 344 345 363 382 363C401 363 411 361 421 359L457 553C434 560 417 562 392 562ZM162 -47C109 -47 70 -89 70 -138C70 -171 88 -195 111 -211C108 -249 98 -276 83 -312L164 -345C224 -263 253 -190 253 -138C253 -86 215 -47 162 -47Z"/>
<glyph unicode="&#x158;" horiz-adv-x="672" d="M386 740L533 868L462 960L328 869L194 960L123 868L271 740ZM430 0L669 0L519 292C584 327 626 378 626 445L626 507C626 625 516 700 361 700L289 700L67 700L67 0L289 0L289 245L317 245ZM289 561L342 561C378 561 404 540 404 491L404 446C404 408 378 384 340 384L289 384Z"/>
<glyph unicode="&#x159;" horiz-adv-x="456" d="M307 597L454 730L383 822L249 726L115 822L44 730L192 597ZM392 562C325 562 258 520 228 449L195 545L53 545L53 0L271 0L271 282C303 344 345 363 382 363C401 363 411 361 421 359L457 553C434 560 417 562 392 562Z"/>
<glyph unicode="&#x15a;" horiz-adv-x="618" d="M198 736L457 837L395 969L147 844ZM308 -20C460 -20 597 59 597 197L597 231C597 329 531 395 438 428L342 462C270 487 253 496 253 521L253 528C253 556 289 571 338 571C382 571 424 558 488 513L581 627C519 679 433 720 314 720C149 720 33 644 33 518L33 490C33 405 95 345 212 305L300 275C364 252 379 235 379 205L379 194C379 158 342 134 279 134C204 134 157 155 97 198L2 82C65 26 160 -20 308 -20Z"/>
<glyph unicode="&#x15b;" horiz-adv-x="524" d="M167 596L425 706L358 837L115 701ZM251 -20C393 -20 504 35 504 151L504 181C504 252 462 296 381 325L319 348C259 370 248 376 248 391L248 398C248 413 262 426 295 426C337 426 366 417 410 388L495 488C444 533 364 565 279 565C133 565 35 498 35 395L35 368C35 296 75 255 158 225L220 203C275 184 288 173 288 157L288 148C288 134 272 121 229 121C184 121 144 133 94 169L5 68C59 10 150 -20 251 -20Z"/>
<glyph unicode="&#x15c;" horiz-adv-x="618" d="M173 740L307 831L441 740L512 832L365 960L250 960L102 832ZM308 -20C460 -20 597 59 597 197L597 231C597 329 531 395 438 428L342 462C270 487 253 496 253 521L253 528C253 556 289 571 338 571C382 571 424 558 488 513L581 627C519 679 433 720 314 720C149 720 33 644 33 518L33 490C33 405 95 345 212 305L300 275C364 252 379 235 379 205L379 194C379 158 342 134 279 134C204 134 157 155 97 198L2 82C65 26 160 -20 308 -20Z"/>
<glyph unicode="&#x15d;" horiz-adv-x="524" d="M136 597L270 693L404 597L475 689L328 822L213 822L65 689ZM251 -20C393 -20 504 35 504 151L504 181C504 252 462 296 381 325L319 348C259 370 248 376 248 391L248 398C248 413 262 426 295 426C337 426 366 417 410 388L495 488C444 533 364 565 279 565C133 565 35 498 35 395L35 368C35 296 75 255 158 225L220 203C275 184 288 173 288 157L288 148C288 134 272 121 229 121C184 121 144 133 94 169L5 68C59 10 150 -20 251 -20Z"/>
<glyph unicode="&#x15e;" horiz-adv-x="618" d="M438 428L342 462C270 487 253 496 253 521L253 528C253 556 289 571 338 571C382 571 424 558 488 513L581 627C519 679 433 720 314 720C149 720 33 644 33 518L33 490C33 405 95 345 212 305L300 275C364 252 379 235 379 205L379 194C379 158 342 134 279 134C204 134 157 155 97 198L2 82C56 34 134 -6 248 -17L240 -111C304 -111 333 -117 333 -134L333 -142C333 -155 321 -165 288 -165C264 -165 244 -163 224 -158L200 -246C239 -260 271 -265 313 -265C400 -265 472 -225 472 -153L472 -131C472 -69 431 -44 358 -35L358 -17C489 -1 597 74 597 197L597 231C597 329 531 395 438 428Z"/>
<glyph unicode="&#x15f;" horiz-adv-x="524" d="M381 325L319 348C259 370 248 376 248 391L248 398C248 413 262 426 295 426C337 426 366 417 410 388L495 488C444 533 364 565 279 565C133 565 35 498 35 395L35 368C35 296 75 255 158 225L220 203C275 184 288 173 288 157L288 148C288 134 272 121 229 121C184 121 144 133 94 169L5 68C51 18 125 -11 209 -18L201 -111C265 -111 294 -117 294 -134L294 -142C294 -155 282 -165 249 -165C225 -165 205 -163 185 -158L161 -246C200 -260 232 -265 274 -265C361 -265 433 -225 433 -153L433 -131C433 -69 392 -44 319 -35L319 -15C427 0 504 54 504 151L504 181C504 252 462 296 381 325Z"/>
<glyph unicode="&#x160;" horiz-adv-x="618" d="M250 740L365 740L512 868L441 960L307 869L173 960L102 868ZM308 -20C460 -20 597 59 597 197L597 231C597 329 531 395 438 428L342 462C270 487 253 496 253 521L253 528C253 556 289 571 338 571C382 571 424 558 488 513L581 627C519 679 433 720 314 720C149 720 33 644 33 518L33 490C33 405 95 345 212 305L300 275C364 252 379 235 379 205L379 194C379 158 342 134 279 134C204 134 157 155 97 198L2 82C65 26 160 -20 308 -20Z"/>
<glyph unicode="&#x161;" horiz-adv-x="524" d="M213 597L328 597L475 730L404 822L270 726L136 822L65 730ZM251 -20C393 -20 504 35 504 151L504 181C504 252 462 296 381 325L319 348C259 370 248 376 248 391L248 398C248 413 262 426 295 426C337 426 366 417 410 388L495 488C444 533 364 565 279 565C133 565 35 498 35 395L35 368C35 296 75 255 158 225L220 203C275 184 288 173 288 157L288 148C288 134 272 121 229 121C184 121 144 133 94 169L5 68C59 10 150 -20 251 -20Z"/>
<glyph unicode="&#x162;" horiz-adv-x="568" d="M395 0L395 547L567 547L567 700L395 700L1 700L1 547L173 547L173 0L233 0L223 -111C287 -111 316 -117 316 -134L316 -142C316 -155 304 -165 271 -165C247 -165 227 -163 207 -158L183 -246C222 -260 254 -265 296 -265C383 -265 455 -225 455 -153L455 -131C455 -69 414 -44 341 -35L341 0Z"/>
<glyph unicode="&#x163;" horiz-adv-x="414" d="M303 -35L303 -18C339 -16 376 -9 404 0L387 142C369 138 354 136 338 136C302 136 284 153 284 187L284 396L390 396L390 545L284 545L284 679L87 679L74 545L0 545L0 396L66 396L66 173C66 68 114 10 194 -11L185 -111C249 -111 278 -117 278 -134L278 -142C278 -155 266 -165 233 -165C209 -165 189 -163 169 -158L145 -246C184 -260 216 -265 258 -265C345 -265 417 -225 417 -153L417 -131C417 -69 376 -44 303 -35Z"/>
<glyph unicode="&#x164;" horiz-adv-x="568" d="M342 740L489 868L418 960L284 869L150 960L79 868L227 740ZM567 700L395 700L1 700L1 547L173 547L173 0L395 0L395 547L567 547Z"/>
<glyph unicode="&#x165;" horiz-adv-x="414" d="M447 740L318 760L304 582L393 572ZM338 136C302 136 284 153 284 187L284 396L390 396L390 545L284 545L284 679L87 679L74 545L0 545L0 396L66 396L66 173C66 38 147 -20 271 -20C317 -20 367 -12 404 0L387 142C369 138 354 136 338 136Z"/>
<glyph unicode="&#x166;" horiz-adv-x="568" d="M567 547L567 700L395 700L1 700L1 547L173 547L173 447L114 447L114 335L173 335L173 0L395 0L395 335L456 335L456 447L395 447L395 547Z"/>
<glyph unicode="&#x167;" horiz-adv-x="417" d="M387 142C369 138 354 136 338 136C303 136 284 153 284 187L284 228L372 228L372 340L284 340L284 396L390 396L390 545L284 545L284 679L88 679L74 545L0 545L0 396L66 396L66 340L0 340L0 228L66 228L66 173C66 38 147 -20 272 -20C318 -20 368 -12 404 0Z"/>
<glyph unicode="&#x168;" horiz-adv-x="709" d="M413 742C482 742 541 799 571 871L462 921C446 893 433 878 409 878C377 878 356 923 295 923C226 923 167 865 138 793L247 744C263 772 275 787 300 787C331 787 353 742 413 742ZM655 700L433 700L433 231C433 168 409 134 355 134C300 134 276 168 276 231L276 700L54 700L54 228C54 83 159 -20 355 -20C555 -20 655 83 655 228Z"/>
<glyph unicode="&#x169;" horiz-adv-x="623" d="M257 661C288 661 310 616 370 616C439 616 498 673 528 745L419 795C403 767 390 752 366 752C334 752 313 797 252 797C183 797 124 739 95 667L204 618C220 646 232 661 257 661ZM352 545L352 158C336 139 317 129 297 129C272 129 260 141 260 168L260 545L42 545L42 154C42 45 117 -20 215 -20C277 -20 331 5 374 46L389 0L570 0L570 545Z"/>
<glyph unicode="&#x16a;" horiz-adv-x="709" d="M193 760L515 760L515 891L193 891ZM655 700L433 700L433 231C433 168 409 134 355 134C300 134 276 168 276 231L276 700L54 700L54 228C54 83 159 -20 355 -20C555 -20 655 83 655 228Z"/>
<glyph unicode="&#x16b;" horiz-adv-x="623" d="M472 764L150 764L150 633L472 633ZM352 545L352 158C336 139 317 129 297 129C272 129 260 141 260 168L260 545L42 545L42 154C42 45 117 -20 215 -20C277 -20 331 5 374 46L389 0L570 0L570 545Z"/>
<glyph unicode="&#x16c;" horiz-adv-x="709" d="M355 743C473 743 544 822 557 923L432 942C421 895 400 873 355 873C310 873 290 895 279 942L153 923C167 822 237 743 355 743ZM655 700L433 700L433 231C433 168 409 134 355 134C300 134 276 168 276 231L276 700L54 700L54 228C54 83 159 -20 355 -20C555 -20 655 83 655 228Z"/>
<glyph unicode="&#x16d;" horiz-adv-x="623" d="M311 621C429 621 500 700 508 801L388 820C377 773 356 751 311 751C266 751 246 773 235 820L114 801C123 700 193 621 311 621ZM352 545L352 158C336 139 317 129 297 129C272 129 260 141 260 168L260 545L42 545L42 154C42 45 117 -20 215 -20C277 -20 331 5 374 46L389 0L570 0L570 545Z"/>
<glyph unicode="&#x16e;" horiz-adv-x="709" d="M356 715C456 715 516 777 516 854L516 879C516 956 456 1018 356 1018C256 1018 194 956 194 879L194 854C194 777 256 715 356 715ZM355 812C332 812 312 827 312 859L312 874C312 906 332 921 355 921C378 921 398 906 398 874L398 859C398 827 378 812 355 812ZM655 700L433 700L433 231C433 168 409 134 355 134C300 134 276 168 276 231L276 700L54 700L54 228C54 83 159 -20 355 -20C555 -20 655 83 655 228Z"/>
<glyph unicode="&#x16f;" horiz-adv-x="623" d="M312 589C412 589 472 651 472 728L472 753C472 830 412 892 312 892C212 892 150 830 150 753L150 728C150 651 212 589 312 589ZM268 748C268 780 288 795 311 795C334 795 354 780 354 748L354 733C354 701 334 686 311 686C288 686 268 701 268 733ZM352 545L352 158C336 139 317 129 297 129C272 129 260 141 260 168L260 545L42 545L42 154C42 45 117 -20 215 -20C277 -20 331 5 374 46L389 0L570 0L570 545Z"/>
<glyph unicode="&#x170;" horiz-adv-x="709" d="M298 744L407 941L286 994L192 785ZM476 740L596 937L474 994L372 785ZM655 700L433 700L433 231C433 168 409 134 355 134C300 134 276 168 276 231L276 700L54 700L54 228C54 83 159 -20 355 -20C555 -20 655 83 655 228Z"/>
<glyph unicode="&#x171;" horiz-adv-x="623" d="M365 815L244 868L150 659L256 618ZM434 614L554 811L432 868L330 659ZM352 545L352 158C336 139 317 129 297 129C272 129 260 141 260 168L260 545L42 545L42 154C42 45 117 -20 215 -20C277 -20 331 5 374 46L389 0L570 0L570 545Z"/>
<glyph unicode="&#x172;" horiz-adv-x="715" d="M433 700L433 231C433 168 409 134 355 134C300 134 276 168 276 231L276 700L54 700L54 228C54 93 145 -5 316 -18C266 -43 234 -76 234 -128C234 -207 293 -253 380 -253C416 -253 443 -249 465 -243L477 -132C455 -137 434 -140 415 -140C380 -140 365 -126 365 -96C365 -72 385 -39 474 -5C595 29 655 116 655 228L655 700Z"/>
<glyph unicode="&#x173;" horiz-adv-x="623" d="M352 545L352 158C336 139 317 129 297 129C272 129 260 141 260 168L260 545L42 545L42 154C42 45 117 -20 215 -20C277 -20 331 5 374 46L388 3C332 -28 294 -72 294 -128C294 -207 354 -253 441 -253C477 -253 504 -249 526 -243L538 -132C516 -137 495 -140 476 -140C441 -140 426 -126 426 -96C426 -69 454 -23 569 0L570 0L570 545Z"/>
<glyph unicode="&#x174;" horiz-adv-x="924" d="M472 831L606 740L677 832L530 960L415 960L267 832L338 740ZM718 700L671 199L606 700L338 700L339 699L271 199L225 700L6 700L112 0L407 0L470 509L528 0L823 0L918 700Z"/>
<glyph unicode="&#x175;" horiz-adv-x="802" d="M401 693L535 597L606 689L459 822L344 822L196 689L267 597ZM603 545L569 189L496 545L317 545L245 189L212 545L-4 545L115 0L333 0L401 333L469 0L686 0L805 545Z"/>
<glyph unicode="&#x176;" horiz-adv-x="629" d="M315 831L449 740L520 832L373 960L258 960L110 832L181 740ZM642 700L418 700L319 426L220 700L-13 700L205 271L205 0L426 0L426 273Z"/>
<glyph unicode="&#x177;" horiz-adv-x="558" d="M145 597L279 693L413 597L484 689L337 822L222 822L74 689ZM187 -220C315 -220 379 -158 417 -15L567 545L353 545L287 158L213 545L-9 545L157 0L244 0L239 -22C227 -67 204 -80 154 -80C131 -80 112 -77 83 -70L62 -200C93 -211 137 -220 187 -220Z"/>
<glyph unicode="&#x178;" horiz-adv-x="629" d="M184 767C241 767 285 811 285 866C285 920 241 964 184 964C129 964 83 920 83 866C83 811 129 767 184 767ZM447 767C504 767 548 811 548 866C548 920 504 964 447 964C392 964 346 920 346 866C346 811 392 767 447 767ZM642 700L418 700L319 426L220 700L-13 700L205 271L205 0L426 0L426 273Z"/>
<glyph unicode="&#x179;" horiz-adv-x="596" d="M200 736L459 837L397 969L149 844ZM564 700L40 700L40 544L330 544L28 163L28 0L573 0L573 168L268 168L564 549Z"/>
<glyph unicode="&#x17a;" horiz-adv-x="501" d="M148 596L406 706L339 837L96 701ZM471 545L35 545L35 397L251 397L25 146L25 0L481 0L481 152L246 152L471 402Z"/>
<glyph unicode="&#x17b;" horiz-adv-x="596" d="M308 747C377 747 429 798 429 864C429 932 377 982 308 982C240 982 187 932 187 864C187 798 240 747 308 747ZM564 700L40 700L40 544L330 544L28 163L28 0L573 0L573 168L268 168L564 549Z"/>
<glyph unicode="&#x17c;" horiz-adv-x="501" d="M251 602C320 602 372 653 372 719C372 787 320 837 251 837C183 837 130 787 130 719C130 653 183 602 251 602ZM471 545L35 545L35 397L251 397L25 146L25 0L481 0L481 152L246 152L471 402Z"/>
<glyph unicode="&#x17d;" horiz-adv-x="596" d="M251 740L366 740L513 868L442 960L308 869L174 960L103 868ZM564 700L40 700L40 544L330 544L28 163L28 0L573 0L573 168L268 168L564 549Z"/>
<glyph unicode="&#x17e;" horiz-adv-x="501" d="M194 597L309 597L456 730L385 822L251 726L117 822L46 730ZM471 545L35 545L35 397L251 397L25 146L25 0L481 0L481 152L246 152L471 402Z"/>
<glyph unicode="&#x192;" horiz-adv-x="444" d="M345 615C371 615 390 611 415 605L435 740C395 752 349 760 296 760C155 760 77 705 77 548L77 545L22 545L22 396L77 396L77 -47C77 -67 65 -78 41 -78C32 -78 23 -77 14 -76L3 -203C23 -211 56 -220 98 -220C205 -220 295 -158 295 -33L295 396L406 396L406 545L295 545L295 569C295 602 309 615 345 615Z"/>
<glyph unicode="&#x218;" horiz-adv-x="618" d="M308 -20C460 -20 597 59 597 197L597 231C597 329 531 395 438 428L342 462C270 487 253 496 253 521L253 528C253 556 289 571 338 571C382 571 424 558 488 513L581 627C519 679 433 720 314 720C149 720 33 644 33 518L33 490C33 405 95 345 212 305L300 275C364 252 379 235 379 205L379 194C379 158 342 134 279 134C204 134 157 155 97 198L2 82C65 26 160 -20 308 -20ZM304 -345C364 -263 393 -190 393 -138C393 -86 355 -47 302 -47C249 -47 210 -89 210 -138C210 -171 228 -195 251 -211C248 -249 238 -276 223 -312Z"/>
<glyph unicode="&#x219;" horiz-adv-x="524" d="M251 -20C393 -20 504 35 504 151L504 181C504 252 462 296 381 325L319 348C259 370 248 376 248 391L248 398C248 413 262 426 295 426C337 426 366 417 410 388L495 488C444 533 364 565 279 565C133 565 35 498 35 395L35 368C35 296 75 255 158 225L220 203C275 184 288 173 288 157L288 148C288 134 272 121 229 121C184 121 144 133 94 169L5 68C59 10 150 -20 251 -20ZM265 -345C325 -263 354 -190 354 -138C354 -86 316 -47 263 -47C210 -47 171 -89 171 -138C171 -171 189 -195 212 -211C209 -249 199 -276 184 -312Z"/>
<glyph unicode="&#x21a;" horiz-adv-x="568" d="M567 700L395 700L1 700L1 547L173 547L173 0L395 0L395 547L567 547ZM285 -47C232 -47 193 -89 193 -138C193 -171 211 -195 234 -211C231 -249 221 -276 206 -312L287 -345C347 -263 376 -190 376 -138C376 -86 338 -47 285 -47Z"/>
<glyph unicode="&#x21b;" horiz-adv-x="414" d="M404 0L387 142C369 138 354 136 338 136C302 136 284 153 284 187L284 396L390 396L390 545L284 545L284 679L87 679L74 545L0 545L0 396L66 396L66 173C66 38 147 -20 271 -20C317 -20 367 -12 404 0ZM247 -47C194 -47 155 -89 155 -138C155 -171 173 -195 196 -211C193 -249 183 -276 168 -312L249 -345C309 -263 338 -190 338 -138C338 -86 300 -47 247 -47Z"/>
<glyph unicode="&#x21e;" horiz-adv-x="732" d="M308 740L423 740L570 868L499 960L365 869L231 960L160 868ZM664 700L442 700L442 438L289 438L289 700L67 700L67 0L289 0L289 272L442 272L442 0L664 0Z"/>
<glyph unicode="&#x21f;" horiz-adv-x="630" d="M219 780L366 908L295 1000L161 909L27 1000L-44 908L104 780ZM408 565C353 565 309 551 271 515L271 740L53 740L53 0L271 0L271 387C287 407 305 416 325 416C352 416 369 398 369 364L369 0L587 0L587 376C587 497 514 565 408 565Z"/>
<glyph unicode="&#x237;" horiz-adv-x="348" d="M295 545L26 545L26 396L77 396L77 -37C77 -67 65 -78 41 -78C32 -78 23 -77 14 -76L3 -200C23 -211 56 -220 98 -220C205 -220 295 -158 295 -23Z"/>
<glyph unicode="&#x2c6;" horiz-adv-x="400" d="M66 597L200 693L334 597L405 689L258 822L142 822L-5 689Z"/>
<glyph unicode="&#x2c7;" horiz-adv-x="400" d="M142 597L258 597L405 730L334 822L200 726L66 822L-5 730Z"/>
<glyph unicode="&#x2d8;" horiz-adv-x="400" d="M200 621C318 621 388 700 397 801L277 820C266 773 245 751 200 751C155 751 134 773 123 820L3 801C11 700 82 621 200 621Z"/>
<glyph unicode="&#x2d9;" horiz-adv-x="400" d="M200 602C269 602 321 653 321 719C321 787 269 837 200 837C132 837 79 787 79 719C79 653 132 602 200 602Z"/>
<glyph unicode="&#x2da;" horiz-adv-x="400" d="M201 589C301 589 361 651 361 728L361 753C361 830 301 892 201 892C101 892 39 830 39 753L39 728C39 651 101 589 201 589ZM200 686C177 686 157 701 157 733L157 748C157 780 177 795 200 795C223 795 243 780 243 748L243 733C243 701 223 686 200 686Z"/>
<glyph unicode="&#x2db;" horiz-adv-x="400" d="M241 -253C276 -253 304 -249 325 -243L337 -132C315 -137 294 -140 275 -140C240 -140 225 -126 225 -96C225 -69 254 -23 369 0L355 47C220 38 94 -25 94 -128C94 -207 153 -253 241 -253Z"/>
<glyph unicode="&#x2dc;" horiz-adv-x="400" d="M258 616C327 616 386 673 416 745L306 795C290 767 278 752 253 752C222 752 201 797 140 797C71 797 12 739 -18 667L92 618C108 646 120 661 145 661C176 661 197 616 258 616Z"/>
<glyph unicode="&#x2dd;" horiz-adv-x="400" d="M103 618L213 815L91 868L-3 659ZM282 614L402 811L280 868L178 659Z"/>
<glyph unicode="&#x300;" horiz-adv-x="0" d="M-83 596L-30 701L-274 837L-340 706Z"/>
<glyph unicode="&#x301;" horiz-adv-x="0" d="M-288 596L-30 706L-97 837L-340 701Z"/>
<glyph unicode="&#x302;" horiz-adv-x="0" d="M-366 597L-232 693L-98 597L-27 689L-174 822L-289 822L-437 689Z"/>
<glyph unicode="&#x303;" horiz-adv-x="0" d="M-172 616C-103 616 -44 673 -14 745L-123 795C-139 767 -152 752 -176 752C-208 752 -229 797 -290 797C-359 797 -418 739 -447 667L-338 618C-322 646 -310 661 -285 661C-254 661 -232 616 -172 616Z"/>
<glyph unicode="&#x304;" horiz-adv-x="0" d="M-352 633L-30 633L-30 764L-352 764Z"/>
<glyph unicode="&#x306;" horiz-adv-x="0" d="M-214 621C-96 621 -25 700 -17 801L-137 820C-148 773 -169 751 -214 751C-259 751 -279 773 -290 820L-411 801C-402 700 -332 621 -214 621Z"/>
<glyph unicode="&#x307;" horiz-adv-x="0" d="M-153 602C-84 602 -32 653 -32 719C-32 787 -84 837 -153 837C-221 837 -274 787 -274 719C-274 653 -221 602 -153 602Z"/>
<glyph unicode="&#x308;" horiz-adv-x="0" d="M-378 620C-321 620 -277 664 -277 719C-277 773 -321 817 -378 817C-433 817 -479 773 -479 719C-479 664 -433 620 -378 620ZM-115 620C-58 620 -14 664 -14 719C-14 773 -58 817 -115 817C-170 817 -216 773 -216 719C-216 664 -170 620 -115 620Z"/>
<glyph unicode="&#x30a;" horiz-adv-x="0" d="M-181 589C-81 589 -21 651 -21 728L-21 753C-21 830 -81 892 -181 892C-281 892 -343 830 -343 753L-343 728C-343 651 -281 589 -181 589ZM-182 686C-205 686 -225 701 -225 733L-225 748C-225 780 -205 795 -182 795C-159 795 -139 780 -139 748L-139 733C-139 701 -159 686 -182 686Z"/>
<glyph unicode="&#x30b;" horiz-adv-x="0" d="M-328 618L-219 815L-340 868L-434 659ZM-150 614L-30 811L-152 868L-254 659Z"/>
<glyph unicode="&#x30c;" horiz-adv-x="0" d="M-289 597L-174 597L-27 730L-98 822L-232 726L-366 822L-437 730Z"/>
<glyph unicode="&#x312;" horiz-adv-x="0" d="M-112 896C-172 813 -201 741 -201 688C-201 637 -163 598 -110 598C-57 598 -18 640 -18 688C-18 721 -36 745 -59 762C-56 799 -47 827 -31 862Z"/>
<glyph unicode="&#x323;" horiz-adv-x="0" d="M-138 -47C-208 -47 -259 -98 -259 -164C-259 -233 -208 -283 -138 -283C-70 -283 -17 -233 -17 -164C-17 -98 -70 -47 -138 -47Z"/>
<glyph unicode="&#x326;" horiz-adv-x="0" d="M-123 -345C-63 -263 -34 -190 -34 -138C-34 -86 -72 -47 -125 -47C-178 -47 -217 -89 -217 -138C-217 -171 -199 -195 -176 -211C-179 -249 -189 -276 -204 -312Z"/>
<glyph unicode="&#x327;" horiz-adv-x="0" d="M-184 -265C-97 -265 -25 -225 -25 -153L-25 -131C-25 -69 -66 -44 -139 -35L-139 16L-246 16L-257 -111C-193 -111 -164 -117 -164 -134L-164 -142C-164 -155 -176 -165 -209 -165C-233 -165 -253 -163 -273 -158L-297 -246C-258 -260 -226 -265 -184 -265Z"/>
<glyph unicode="&#x328;" horiz-adv-x="0" d="M-167 -253C-131 -253 -104 -249 -82 -243L-70 -132C-92 -137 -113 -140 -132 -140C-167 -140 -182 -126 -182 -96C-182 -69 -154 -23 -39 0L-53 47C-187 38 -314 -25 -314 -128C-314 -207 -254 -253 -167 -253Z"/>
<glyph unicode="&#x335;" horiz-adv-x="0" d="M-376 287L-34 287L-34 399L-376 399Z"/>
<glyph unicode="&#x336;" horiz-adv-x="0" d="M-618 287L-15 287L-15 399L-618 399Z"/>
<glyph unicode="&#x394;" horiz-adv-x="661" d="M470 700L177 700L-8 0L177 0L445 0L669 0ZM242 156L324 557L411 156Z"/>
<glyph unicode="&#x3a9;" horiz-adv-x="721" d="M678 335L678 432C678 607 563 720 361 720C158 720 43 607 43 432L43 335C43 247 76 191 130 156L43 156L43 0L321 0L321 132C285 140 265 167 265 251L265 432C265 531 298 566 361 566C423 566 456 531 456 432L456 251C456 167 436 140 400 132L400 0L678 0L678 156L592 156C645 191 678 247 678 335Z"/>
<glyph unicode="&#x3bc;" horiz-adv-x="634" d="M363 545L363 149C347 131 328 121 308 121C283 121 271 133 271 159L271 545L53 545L53 -200L271 -200L271 -13C283 -18 295 -20 308 -20C342 -20 372 -3 392 25L400 0L581 0L581 545Z"/>
<glyph unicode="&#x3c0;" horiz-adv-x="725" d="M98 0L315 0L315 383L408 383L408 0L627 0L627 383L677 383L677 545L48 545L48 383L98 383Z"/>
<glyph unicode="&#x401;" horiz-adv-x="574" d="M166 767C223 767 267 811 267 866C267 920 223 964 166 964C111 964 65 920 65 866C65 811 111 767 166 767ZM429 767C486 767 530 811 530 866C530 920 486 964 429 964C374 964 328 920 328 866C328 811 374 767 429 767ZM530 700L67 700L67 0L130 0L530 0L530 158L289 158L289 278L509 278L509 429L289 429L289 547L530 547Z"/>
<glyph unicode="&#x402;" horiz-adv-x="813" d="M560 473C505 473 444 458 395 420L395 546L567 546L567 700L395 700L1 700L1 546L173 546L173 0L395 0L395 291C415 312 448 325 477 325C514 325 540 306 540 259L540 54C540 13 528 2 504 2C495 2 486 3 476 4L462 -123C482 -134 519 -143 561 -143C671 -143 762 -82 762 68L762 284C762 406 667 473 560 473Z"/>
<glyph unicode="&#x403;" horiz-adv-x="573" d="M469 837L407 969L159 844L210 736ZM559 700L289 700L67 700L67 0L289 0L289 544L559 544Z"/>
<glyph unicode="&#x404;" horiz-adv-x="614" d="M367 134C294 134 262 168 262 249L262 277L475 277L475 427L262 427L262 467C262 534 299 566 365 566C415 566 453 554 493 521L598 634C536 686 468 720 355 720C159 720 43 608 43 432L43 256C43 88 159 -20 353 -20C456 -20 543 23 596 70L509 185C471 157 424 134 367 134Z"/>
<glyph unicode="&#x405;" horiz-adv-x="618" d="M308 -20C460 -20 597 59 597 197L597 231C597 329 531 395 438 428L342 462C270 487 253 496 253 521L253 528C253 556 289 571 338 571C382 571 424 558 488 513L581 627C519 679 433 720 314 720C149 720 33 644 33 518L33 490C33 405 95 345 212 305L300 275C364 252 379 235 379 205L379 194C379 158 342 134 279 134C204 134 157 155 97 198L2 82C65 26 160 -20 308 -20Z"/>
<glyph unicode="&#x406;" horiz-adv-x="463" d="M431 549L431 700L342 700L31 700L31 549L120 549L120 153L31 153L31 0L120 0L431 0L431 153L342 153L342 549Z"/>
<glyph unicode="&#x407;" horiz-adv-x="463" d="M201 866C201 920 157 964 100 964C45 964 -1 920 -1 866C-1 811 45 767 100 767C157 767 201 811 201 866ZM363 964C308 964 262 920 262 866C262 811 308 767 363 767C420 767 464 811 464 866C464 920 420 964 363 964ZM431 700L31 700L31 549L120 549L120 153L31 153L31 0L120 0L431 0L431 153L342 153L342 549L431 549Z"/>
<glyph unicode="&#x408;" horiz-adv-x="586" d="M532 700L64 700L64 549L311 549L311 223C311 165 273 134 223 134C182 134 149 152 117 183L17 69C71 13 137 -20 246 -20C424 -20 532 97 532 236Z"/>
<glyph unicode="&#x409;" horiz-adv-x="1007" d="M696 455L642 455L642 700L143 700L95 295C79 156 74 127 31 127C21 127 13 128 6 130L6 0C28 -13 58 -19 92 -19C232 -19 285 70 305 234L342 545L422 544L422 0L620 0L696 0C870 0 985 75 985 187L985 269C985 380 866 455 696 455ZM763 208C763 167 731 149 688 149L642 149L642 307L688 307C731 307 763 289 763 248Z"/>
<glyph unicode="&#x40a;" horiz-adv-x="1019" d="M709 455L663 455L663 700L441 700L441 455L289 455L289 700L67 700L67 0L289 0L289 307L441 307L441 0L629 0L709 0C882 0 997 75 997 187L997 269C997 380 878 455 709 455ZM776 208C776 167 743 149 700 149L663 149L663 307L700 307C743 307 776 288 776 248Z"/>
<glyph unicode="&#x40b;" horiz-adv-x="813" d="M560 473C505 473 443 457 395 420L395 546L567 546L567 700L395 700L1 700L1 546L173 546L173 0L395 0L395 291C414 312 447 325 477 325C514 325 540 306 540 259L540 0L762 0L762 284C762 406 667 473 560 473Z"/>
<glyph unicode="&#x40c;" horiz-adv-x="721" d="M520 837L458 969L210 844L261 736ZM470 0L718 0L490 370L687 700L454 700L298 418L282 418L282 700L67 700L67 0L282 0L282 280L302 280Z"/>
<glyph unicode="&#x40e;" horiz-adv-x="622" d="M313 743C431 743 501 822 515 903L390 922C378 895 358 873 313 873C268 873 247 895 236 922L111 903C124 822 195 743 313 743ZM431 700L316 409L216 700L-9 700L215 183L129 0L340 0L642 700Z"/>
<glyph unicode="&#x40f;" horiz-adv-x="731" d="M663 700L442 700L442 156L289 156L289 700L67 700L67 0L279 0L309 -184L455 -184L455 0L663 0Z"/>
<glyph unicode="&#x410;" horiz-adv-x="661" d="M445 0L669 0L470 700L177 700L-8 0L210 0L237 124L413 124ZM378 280L270 280L324 559Z"/>
</font>
</defs>
</svg>
