<?xml version="1.0" encoding="UTF-8" standalone="no"?>
<!DOCTYPE svg PUBLIC "-//W3C//DTD SVG 1.1//EN" "http://www.w3.org/Graphics/SVG/1.1/DTD/svg11.dtd" >
<svg xmlns="http://www.w3.org/2000/svg">
<metadata>
This is a SVG font generated by e-font.
</metadata>
<defs>
<font id="ArtifaktElementBlack" horiz-adv-x="629" >
<font-face units-per-em="1000" ascent="1050" descent="-350" />
<missing-glyph horiz-adv-x="629" />
<glyph unicode="&#x20;" horiz-adv-x="240" />
<glyph unicode="&#x21;" horiz-adv-x="333" d="M80 700L98 264L235 264L253 700ZM166 -16C219 -16 261 26 261 78C261 130 219 173 166 173C114 173 72 130 72 78C72 26 114 -16 166 -16Z"/>
<glyph unicode="&#x22;" horiz-adv-x="471" d="M68 422L185 422L204 700L49 700ZM286 422L403 422L422 700L267 700Z"/>
<glyph unicode="&#x23;" horiz-adv-x="600" d="M573 425L585 539L515 539L531 691L388 700L371 539L270 539L286 691L143 700L126 539L55 539L42 425L114 425L98 275L27 275L14 161L86 161L69 0L212 -9L230 161L331 161L314 0L457 -9L475 161L545 161L557 275L487 275L503 425ZM343 275L242 275L258 425L359 425Z"/>
<glyph unicode="&#x24;" horiz-adv-x="596" d="M405 383L315 411C243 434 219 451 219 477L219 488C219 519 254 544 321 544C374 544 416 531 476 489L551 572C500 614 436 645 353 653L353 755L230 755L230 649C120 629 54 565 54 483L54 460C54 387 106 332 217 297L308 268C378 246 396 227 396 191L396 181C396 143 357 110 279 110C198 110 157 132 101 168L25 82C72 42 137 9 230 -2L230 -110L353 -110L353 -1C472 15 560 82 560 182L560 209C560 301 494 354 405 383Z"/>
<glyph unicode="&#x25;" horiz-adv-x="1018" d="M270 0L380 -45L746 740L635 785ZM236 316C353 316 414 381 414 481L414 590C414 692 353 756 236 756C119 756 54 692 54 590L54 481C54 381 119 316 236 316ZM236 414C203 414 184 436 184 477L184 597C184 640 203 661 236 661C266 661 285 640 285 597L285 477C285 436 266 414 236 414ZM785 -15C902 -15 963 49 963 150L963 259C963 361 902 425 785 425C668 425 603 361 603 259L603 150C603 49 668 -15 785 -15ZM785 83C752 83 733 104 733 145L733 265C733 308 751 329 785 329C815 329 834 308 834 265L834 145C834 104 815 83 785 83Z"/>
<glyph unicode="&#x26;" horiz-adv-x="725" d="M737 0L588 151L689 332L570 390L493 248L380 363C484 412 527 458 527 532L527 564C527 648 456 716 310 716C178 716 88 661 88 564L88 530C88 479 117 444 162 398C77 360 31 303 31 223L31 178C31 60 140 -16 295 -16C385 -16 442 2 503 52L555 0ZM241 554C241 589 266 609 310 609C352 609 377 588 377 554L377 539C377 503 356 475 295 449C256 489 241 509 241 538ZM204 194L204 220C204 262 221 286 252 306L412 144C381 118 348 106 302 106C242 106 204 138 204 194Z"/>
<glyph unicode="&#x27;" horiz-adv-x="253" d="M68 422L185 422L204 700L49 700Z"/>
<glyph unicode="&#x28;" horiz-adv-x="400" d="M230 170L230 370C230 525 239 569 345 673L251 756C108 643 54 558 54 370L54 170C54 -18 108 -103 251 -216L345 -133C239 -29 230 15 230 170Z"/>
<glyph unicode="&#x29;" horiz-adv-x="400" d="M149 756L55 673C161 569 170 525 170 370L170 170C170 15 161 -29 55 -133L149 -216C292 -103 346 -18 346 170L346 370C346 558 292 643 149 756Z"/>
<glyph unicode="&#x2a;" horiz-adv-x="448" d="M439 536L398 658L273 600L290 740L158 740L175 600L49 657L9 536L144 509L51 408L157 330L224 451L292 331L398 409L304 509Z"/>
<glyph unicode="&#x2b;" horiz-adv-x="597" d="M498 407L369 407L369 542L228 542L228 407L99 407L99 277L228 277L228 142L369 142L369 277L498 277Z"/>
<glyph unicode="&#x2c;" horiz-adv-x="309" d="M106 -202C225 -89 252 8 252 78C252 135 210 173 158 173C106 173 64 130 64 78C64 38 84 10 115 -6C106 -59 91 -95 47 -155Z"/>
<glyph unicode="&#x2d;" horiz-adv-x="438" d="M382 407L57 407L57 277L382 277Z"/>
<glyph unicode="&#x2e;" horiz-adv-x="302" d="M151 -16C204 -16 245 26 245 78C245 130 204 173 151 173C99 173 57 130 57 78C57 26 99 -16 151 -16Z"/>
<glyph unicode="&#x2f;" horiz-adv-x="400" d="M104 -183L431 740L296 783L-31 -140Z"/>
<glyph unicode="&#x30;" horiz-adv-x="646" d="M325 -16C501 -16 593 82 593 234L593 464C593 619 501 716 325 716C150 716 53 619 53 464L53 234C53 82 150 -16 325 -16ZM325 112C262 112 226 148 226 235L226 465C226 555 261 592 325 592C385 592 420 555 420 465L420 235C420 148 385 112 325 112Z"/>
<glyph unicode="&#x31;" horiz-adv-x="503" d="M361 125L361 700L233 700L24 581L83 473L191 522L191 125L57 125L57 0L191 0L477 0L477 125Z"/>
<glyph unicode="&#x32;" horiz-adv-x="552" d="M289 246L375 303C469 365 513 418 513 493L513 527C513 631 423 716 264 716C159 716 83 683 15 632L86 529C140 566 187 586 246 586C310 586 341 551 341 516L341 498C341 463 324 443 263 402L166 337C87 283 30 214 30 90L30 0L511 0L511 133L203 133C206 173 222 202 289 246Z"/>
<glyph unicode="&#x33;" horiz-adv-x="598" d="M276 -16C439 -16 556 67 556 180L556 227C556 318 473 365 404 377C473 393 532 444 532 505L532 545C532 644 426 716 286 716C162 716 87 671 26 610L111 525C162 572 210 594 266 594C321 594 363 573 363 522L363 501C363 443 303 427 251 427L197 427L197 310L251 310C301 310 384 297 384 221L384 200C384 135 332 110 265 110C197 110 145 141 105 184L12 95C68 31 143 -16 276 -16Z"/>
<glyph unicode="&#x34;" horiz-adv-x="629" d="M351 0L524 0L524 118L608 118L608 250L524 250L524 419L389 418L357 250L205 250L412 700L244 700L24 219L24 118L351 118Z"/>
<glyph unicode="&#x35;" horiz-adv-x="591" d="M337 448C296 448 264 442 239 434L239 568L510 568L510 700L74 700L74 312L175 312C207 321 229 327 263 327C334 327 380 301 380 236L380 204C380 144 331 115 264 115C194 115 155 141 103 191L9 98C65 30 149 -16 276 -16C448 -16 553 78 553 192L553 250C553 368 461 448 337 448Z"/>
<glyph unicode="&#x36;" horiz-adv-x="603" d="M370 469C299 469 250 447 212 411C231 535 337 581 493 585L493 716C208 712 40 581 40 321L40 270C40 95 141 -16 312 -16C489 -16 573 95 573 217L573 261C573 378 500 469 370 469ZM402 223C402 150 374 112 307 112C243 112 210 151 210 245L210 294C241 328 275 347 320 347C381 347 402 315 402 255Z"/>
<glyph unicode="&#x37;" horiz-adv-x="531" d="M509 700L9 700L9 569L334 569L84 0L268 0L509 572Z"/>
<glyph unicode="&#x38;" horiz-adv-x="644" d="M469 387C546 413 578 450 578 508L578 548C578 645 466 716 321 716C175 716 66 647 66 542L66 503C66 431 97 389 166 355C82 323 40 275 40 215L40 172C40 59 157 -16 319 -16C477 -16 604 59 604 174L604 217C604 310 554 352 469 387ZM235 539C235 584 273 599 320 599C371 599 410 578 410 534L410 503C410 471 393 453 350 431L316 443C259 463 235 477 235 511ZM433 181C433 131 389 105 322 105C254 105 212 132 212 189L212 220C212 264 233 285 281 309L331 290C398 266 433 250 433 210Z"/>
<glyph unicode="&#x39;" horiz-adv-x="603" d="M297 716C114 716 30 605 30 483L30 439C30 322 104 231 234 231C306 231 354 252 391 288C371 164 263 120 89 116L89 -16C401 -12 563 119 563 379L563 430C563 605 474 716 297 716ZM284 352C225 352 201 386 201 445L201 477C201 550 232 588 298 588C366 588 394 549 394 455L394 405C363 371 330 352 284 352Z"/>
<glyph unicode="&#x3a;" horiz-adv-x="302" d="M151 327C204 327 245 369 245 422C245 474 204 516 151 516C99 516 57 474 57 422C57 369 99 327 151 327ZM151 -16C204 -16 245 26 245 78C245 130 204 173 151 173C99 173 57 130 57 78C57 26 99 -16 151 -16Z"/>
<glyph unicode="&#x3b;" horiz-adv-x="309" d="M151 327C204 327 245 369 245 422C245 474 204 516 151 516C99 516 57 474 57 422C57 369 99 327 151 327ZM106 -202C225 -89 252 8 252 78C252 135 210 173 158 173C106 173 64 130 64 78C64 38 84 10 115 -6C106 -59 91 -95 47 -155Z"/>
<glyph unicode="&#x3c;" horiz-adv-x="600" d="M444 102L501 216L241 343L501 468L444 584L99 412L99 274Z"/>
<glyph unicode="&#x3d;" horiz-adv-x="600" d="M501 519L99 519L99 389L501 389ZM501 294L99 294L99 165L501 165Z"/>
<glyph unicode="&#x3e;" horiz-adv-x="600" d="M156 102L501 274L501 412L156 584L99 468L359 343L99 216Z"/>
<glyph unicode="&#x3f;" horiz-adv-x="518" d="M162 252L317 252L317 276C317 365 494 383 494 515L494 547C494 640 405 716 258 716C152 716 80 681 20 632L91 535C142 570 181 591 239 591C289 591 320 566 320 527L320 509C320 433 162 404 162 282ZM239 -16C292 -16 334 26 334 78C334 130 292 173 239 173C187 173 145 130 145 78C145 26 187 -16 239 -16Z"/>
<glyph unicode="&#x40;" horiz-adv-x="1026" d="M526 716C272 716 86 561 86 356L86 221C86 -4 249 -137 500 -137C572 -137 630 -126 701 -101L667 -2C618 -20 555 -29 507 -29C335 -29 231 58 231 229L231 346C231 482 326 611 526 611C723 611 808 504 808 342L808 267C808 203 792 171 760 171C718 171 712 200 712 248L713 471C655 511 591 527 524 527C369 527 304 436 304 315L304 258C304 148 362 68 482 68C544 68 590 93 623 129C647 95 693 63 763 63C887 63 952 158 952 263L952 369C952 575 778 716 526 716ZM450 263L450 310C450 395 468 427 523 427C543 427 557 424 570 418L570 197C553 184 533 175 507 175C460 175 450 207 450 263Z"/>
<glyph unicode="&#x41;" horiz-adv-x="651" d="M469 0L647 0L436 700L203 700L3 0L177 0L216 153L426 153ZM392 283L248 283L319 585Z"/>
<glyph unicode="&#x42;" horiz-adv-x="659" d="M500 366L501 366C538 378 591 410 591 480L591 525C591 635 490 700 329 700L261 700L86 700L86 0L245 0L332 0C503 0 614 76 614 186L614 227C614 318 543 356 500 366ZM324 585C384 585 416 563 416 513L416 477C416 431 385 408 334 408L261 408L261 585ZM439 198C439 140 396 115 329 115L261 115L261 304L342 304C409 304 439 277 439 232Z"/>
<glyph unicode="&#x43;" horiz-adv-x="595" d="M348 -16C445 -16 526 23 576 65L507 160C468 133 419 109 356 109C271 109 229 155 229 250L229 454C229 544 276 591 358 591C415 591 456 573 496 542L580 635C523 683 457 716 351 716C165 716 54 607 54 433L54 253C54 90 162 -16 348 -16Z"/>
<glyph unicode="&#x44;" horiz-adv-x="687" d="M339 700L261 700L86 700L86 0L220 0L315 0C523 0 633 112 633 292L633 421C633 588 535 700 339 700ZM458 287C458 176 412 126 319 126L261 126L261 574L334 574C418 574 458 525 458 427Z"/>
<glyph unicode="&#x45;" horiz-adv-x="578" d="M522 574L522 700L261 700L86 700L86 0L124 0L522 0L522 129L261 129L261 292L501 292L501 417L261 417L261 574Z"/>
<glyph unicode="&#x46;" horiz-adv-x="550" d="M533 574L533 700L261 700L86 700L86 0L261 0L261 283L491 283L491 407L261 407L261 574Z"/>
<glyph unicode="&#x47;" horiz-adv-x="679" d="M341 400L341 284L458 284L457 162C432 132 394 109 341 109C267 109 229 156 229 232L229 451C229 542 276 591 367 591C431 591 473 566 510 523L619 599C563 676 477 716 358 716C168 716 54 604 54 435L54 234C54 80 165 -16 303 -16C378 -16 438 12 481 50L494 0L624 0L624 400Z"/>
<glyph unicode="&#x48;" horiz-adv-x="737" d="M651 700L476 700L476 425L261 425L261 700L86 700L86 0L261 0L261 290L476 290L476 0L651 0Z"/>
<glyph unicode="&#x49;" horiz-adv-x="453" d="M404 575L404 700L314 700L50 700L50 575L139 575L139 126L50 126L50 0L139 0L404 0L404 126L314 126L314 575Z"/>
<glyph unicode="&#x4a;" horiz-adv-x="567" d="M498 700L67 700L67 575L323 575L323 214C323 142 278 109 222 109C172 109 137 128 104 156L23 64C71 16 139 -16 239 -16C400 -16 498 87 498 224Z"/>
<glyph unicode="&#x4b;" horiz-adv-x="672" d="M477 0L673 0L400 387L641 700L462 700L251 422L251 700L86 700L86 0L251 0L251 223L289 271Z"/>
<glyph unicode="&#x4c;" horiz-adv-x="533" d="M261 133L261 700L86 700L86 0L96 0L524 0L524 133Z"/>
<glyph unicode="&#x4d;" horiz-adv-x="877" d="M578 700L579 698L439 251L306 700L86 700L86 0L242 0L242 458L352 100L519 100L518 101L626 448L626 0L791 0L791 700Z"/>
<glyph unicode="&#x4e;" horiz-adv-x="737" d="M503 700L503 266L291 700L86 700L86 0L235 0L235 483L463 0L652 0L652 700Z"/>
<glyph unicode="&#x4f;" horiz-adv-x="713" d="M356 716C160 716 54 600 54 430L54 269C54 100 161 -16 356 -16C555 -16 659 100 659 269L659 430C659 600 555 716 356 716ZM356 591C440 591 483 536 483 431L483 270C483 164 440 109 356 109C272 109 229 164 229 270L229 431C229 536 272 591 356 591Z"/>
<glyph unicode="&#x50;" horiz-adv-x="635" d="M347 700L261 700L86 700L86 0L261 0L261 224L331 224C495 224 606 299 606 430L606 498C606 627 504 700 347 700ZM431 443C431 375 388 348 322 348L261 348L261 576L334 576C393 576 431 548 431 488Z"/>
<glyph unicode="&#x51;" horiz-adv-x="716" d="M669 -64L573 57C631 105 661 174 661 259L661 435C661 604 557 716 358 716C161 716 54 604 54 435L54 264C54 96 162 -16 358 -16C396 -16 432 -11 466 -1L574 -139ZM358 104C266 104 225 154 225 255L225 439C225 540 271 591 358 591C445 591 491 541 491 441L491 226C491 204 488 186 483 170L429 238L335 166L383 105C375 104 367 104 358 104Z"/>
<glyph unicode="&#x52;" horiz-adv-x="666" d="M456 0L645 0L490 295C561 328 606 382 606 454L606 511C606 628 503 700 351 700L261 700L86 700L86 0L261 0L261 261L327 261ZM261 583L339 583C394 583 431 556 431 500L431 456C431 406 395 378 338 378L261 378Z"/>
<glyph unicode="&#x53;" horiz-adv-x="615" d="M299 -16C454 -16 577 62 577 191L577 221C577 324 508 382 414 414L319 446C243 471 219 490 219 519L219 532C219 565 256 594 325 594C382 594 426 579 489 533L568 624C505 679 423 716 310 716C148 716 45 637 45 526L45 500C45 419 99 358 217 319L312 287C386 262 405 241 405 202L405 190C405 148 364 111 282 111C197 111 154 135 94 176L15 80C74 26 162 -16 299 -16Z"/>
<glyph unicode="&#x54;" horiz-adv-x="558" d="M550 700L367 700L7 700L7 574L192 574L192 0L367 0L367 574L550 574Z"/>
<glyph unicode="&#x55;" horiz-adv-x="708" d="M639 700L464 700L464 228C464 155 432 109 354 109C276 109 243 155 243 228L243 700L68 700L68 227C68 87 165 -16 354 -16C546 -16 639 87 639 227Z"/>
<glyph unicode="&#x56;" horiz-adv-x="641" d="M210 0L443 0L638 700L461 700L329 137L184 700L3 700Z"/>
<glyph unicode="&#x57;" horiz-adv-x="912" d="M728 700L662 154L569 700L353 700L353 699L259 154L192 700L18 700L131 0L369 0L459 548L546 0L783 0L890 700Z"/>
<glyph unicode="&#x58;" horiz-adv-x="651" d="M435 385L634 700L449 700L328 477L327 477L209 700L18 700L216 370L-5 0L187 0L324 264L459 0L656 0Z"/>
<glyph unicode="&#x59;" horiz-adv-x="606" d="M611 700L434 700L307 405L179 700L-5 700L216 278L216 0L391 0L391 279Z"/>
<glyph unicode="&#x5a;" horiz-adv-x="585" d="M545 700L50 700L50 573L359 573L36 130L36 0L554 0L554 135L225 135L545 578Z"/>
<glyph unicode="&#x5b;" horiz-adv-x="400" d="M60 -200L339 -200L339 -75L227 -75L227 615L339 615L339 740L60 740Z"/>
<glyph unicode="&#x5c;" horiz-adv-x="400" d="M296 -183L431 -140L104 783L-31 740Z"/>
<glyph unicode="&#x5d;" horiz-adv-x="400" d="M340 -200L340 740L61 740L61 615L173 615L173 -75L61 -75L61 -200Z"/>
<glyph unicode="&#x5e;" horiz-adv-x="600" d="M379 700L221 700L42 384L202 384L299 573L399 384L558 384Z"/>
<glyph unicode="&#x5f;" horiz-adv-x="600" d="M572 -42L47 -42L47 -173L572 -173Z"/>
<glyph unicode="&#x60;" horiz-adv-x="400" d="M295 599L338 684L112 808L57 701Z"/>
<glyph unicode="&#x61;" horiz-adv-x="571" d="M281 555C197 555 117 532 57 496L107 398C150 419 200 437 259 437C314 437 343 418 343 364L343 335L256 335C111 335 28 274 28 176L28 143C28 47 108 -16 215 -16C273 -16 325 4 370 48L385 0L513 0L513 354C513 474 443 555 281 555ZM256 100C216 100 196 120 196 157L196 176C196 221 225 242 280 242L343 242L343 139C319 113 288 100 256 100Z"/>
<glyph unicode="&#x62;" horiz-adv-x="617" d="M376 555C319 555 275 538 241 504L241 740L69 740L69 0L195 0L213 48C250 8 298 -16 361 -16C478 -16 576 83 576 241L576 299C576 460 493 555 376 555ZM403 232C403 145 369 105 318 105C287 105 262 117 241 139L241 391C262 417 290 434 326 434C376 434 403 396 403 309Z"/>
<glyph unicode="&#x63;" horiz-adv-x="498" d="M296 -16C368 -16 437 12 484 51L420 144C387 122 356 105 313 105C244 105 210 144 210 245L210 296C210 396 246 434 312 434C354 434 380 422 409 396L487 483C438 531 379 555 301 555C133 555 38 453 38 293L38 246C38 86 134 -16 296 -16Z"/>
<glyph unicode="&#x64;" horiz-adv-x="619" d="M378 740L378 510C347 539 308 555 256 555C135 555 41 452 41 299L41 240C41 82 130 -16 254 -16C320 -16 368 13 403 57L424 0L550 0L550 740ZM295 105C244 105 213 142 213 237L213 304C213 395 243 434 298 434C331 434 359 420 378 399L378 153C357 123 331 105 295 105Z"/>
<glyph unicode="&#x65;" horiz-adv-x="566" d="M531 285C531 468 449 555 288 555C133 555 38 448 38 295L38 240C38 92 135 -16 306 -16C387 -16 467 13 518 48L465 145C422 122 370 105 320 105C237 105 205 140 205 223L527 223C529 241 531 261 531 285ZM380 319L205 319C206 409 236 446 292 446C352 446 380 409 380 322Z"/>
<glyph unicode="&#x66;" horiz-adv-x="395" d="M325 638C350 638 370 634 394 629L410 740C379 749 337 756 291 756C163 756 92 702 92 565L92 539L29 539L29 418L92 418L92 0L264 0L264 418L382 418L382 539L264 539L264 581C264 621 281 638 325 638Z"/>
<glyph unicode="&#x67;" horiz-adv-x="620" d="M418 539L404 491C369 532 321 555 258 555C144 555 41 463 41 301L41 258C41 82 133 0 251 0C308 0 352 24 385 61L385 11C385 -65 345 -97 271 -97C209 -97 164 -84 118 -63L68 -160C123 -194 196 -216 283 -216C435 -216 551 -139 551 21L551 539ZM291 122C243 122 213 151 213 258L213 304C213 405 248 434 296 434C330 434 356 419 378 395L378 163C355 138 326 122 291 122Z"/>
<glyph unicode="&#x68;" horiz-adv-x="619" d="M383 555C324 555 278 539 241 501L241 740L69 740L69 0L241 0L241 386C264 417 292 434 325 434C364 434 389 411 389 361L389 0L561 0L561 372C561 490 486 555 383 555Z"/>
<glyph unicode="&#x69;" horiz-adv-x="332" d="M173 608C228 608 271 650 271 704C271 760 228 801 173 801C117 801 74 760 74 704C74 650 117 608 173 608ZM20 539L20 418L91 418L91 0L263 0L263 539Z"/>
<glyph unicode="&#x6a;" horiz-adv-x="333" d="M176 608C231 608 274 650 274 704C274 760 231 801 176 801C120 801 77 760 77 704C77 650 120 608 176 608ZM264 539L32 539L32 418L92 418L92 -55C92 -89 82 -100 52 -100C42 -100 32 -99 23 -98L13 -200C30 -209 59 -216 95 -216C191 -216 264 -162 264 -49Z"/>
<glyph unicode="&#x6b;" horiz-adv-x="588" d="M408 0L594 0L393 315L569 539L394 539L241 349L241 740L69 740L69 0L241 0L241 182L269 217Z"/>
<glyph unicode="&#x6c;" horiz-adv-x="319" d="M231 740L59 740L59 129C59 30 123 -16 211 -16C246 -16 275 -9 295 0L282 111C275 110 270 109 265 109C240 109 231 121 231 149Z"/>
<glyph unicode="&#x6d;" horiz-adv-x="890" d="M666 555C601 555 553 530 510 478C481 528 429 555 371 555C311 555 265 534 227 489L218 539L69 539L69 0L240 0L240 385C262 417 285 434 312 434C341 434 364 417 364 365L364 0L535 0L535 385C557 417 580 434 607 434C636 434 661 417 661 365L661 0L831 0L831 372C831 490 756 555 666 555Z"/>
<glyph unicode="&#x6e;" horiz-adv-x="618" d="M383 555C316 555 267 534 227 490L218 539L69 539L69 0L241 0L241 386C265 417 292 434 325 434C364 434 387 411 387 360L387 0L559 0L559 372C559 490 486 555 383 555Z"/>
<glyph unicode="&#x6f;" horiz-adv-x="607" d="M303 555C131 555 38 452 38 296L38 244C38 87 131 -16 303 -16C475 -16 569 87 569 244L569 296C569 452 475 555 303 555ZM303 434C366 434 397 395 397 298L397 244C397 144 366 105 303 105C240 105 210 144 210 244L210 298C210 395 240 434 303 434Z"/>
<glyph unicode="&#x70;" horiz-adv-x="617" d="M376 555C312 555 263 532 227 490L218 539L69 539L69 -200L241 -200L241 24C275 -2 314 -16 361 -16C479 -16 576 83 576 241L576 299C576 460 490 555 376 555ZM404 233C404 145 371 105 317 105C288 105 265 113 241 132L241 392C262 418 290 434 325 434C375 434 404 394 404 309Z"/>
<glyph unicode="&#x71;" horiz-adv-x="618" d="M400 539L392 497C358 533 315 555 256 555C135 555 41 452 41 299L41 240C41 82 131 -16 250 -16C304 -16 345 4 377 35L377 -200L549 -200L549 539ZM295 105C244 105 213 142 213 237L213 304C213 395 243 434 298 434C331 434 358 421 377 401L377 147C355 120 329 105 295 105Z"/>
<glyph unicode="&#x72;" horiz-adv-x="436" d="M366 553C306 553 243 519 213 450L185 539L69 539L69 0L241 0L241 300C272 370 318 392 366 392C381 392 392 390 402 388L431 543C412 550 394 553 366 553Z"/>
<glyph unicode="&#x73;" horiz-adv-x="516" d="M249 -16C378 -16 483 36 483 144L483 170C483 246 435 286 357 314L292 337C228 360 214 372 214 393L214 401C214 422 234 439 278 439C323 439 356 430 405 399L476 484C425 527 348 555 268 555C136 555 45 493 45 399L45 374C45 304 87 264 170 234L234 211C297 190 312 177 312 151L312 143C312 116 285 101 233 101C181 101 138 116 90 150L16 64C70 12 154 -16 249 -16Z"/>
<glyph unicode="&#x74;" horiz-adv-x="408" d="M371 115C354 112 338 110 320 110C281 110 261 127 261 164L261 418L371 418L371 539L261 539L261 671L106 671L94 539L16 539L16 418L89 418L89 153C89 35 159 -16 272 -16C312 -16 355 -9 386 0Z"/>
<glyph unicode="&#x75;" horiz-adv-x="614" d="M373 539L373 153C349 122 318 105 286 105C249 105 231 124 231 162L231 539L59 539L59 151C59 47 134 -16 230 -16C293 -16 347 9 389 52L401 0L545 0L545 539Z"/>
<glyph unicode="&#x76;" horiz-adv-x="556" d="M549 539L378 539L282 131L185 539L8 539L172 0L386 0Z"/>
<glyph unicode="&#x77;" horiz-adv-x="800" d="M622 539L568 147L484 539L325 539L242 147L186 539L15 539L135 0L320 0L401 377L481 0L667 0L785 539Z"/>
<glyph unicode="&#x78;" horiz-adv-x="550" d="M375 271L537 540L362 540L276 358L190 540L8 540L173 271L3 0L180 0L273 177L361 0L547 0Z"/>
<glyph unicode="&#x79;" horiz-adv-x="550" d="M169 -216C279 -216 342 -168 377 -40L543 539L373 539L283 125L184 539L8 539L176 0L247 0L236 -40C224 -87 198 -102 150 -102C128 -102 111 -100 86 -94L67 -200C91 -209 129 -216 169 -216Z"/>
<glyph unicode="&#x7a;" horiz-adv-x="484" d="M449 539L41 539L41 417L272 417L30 119L30 0L458 0L458 124L208 124L449 423Z"/>
<glyph unicode="&#x7b;" horiz-adv-x="400" d="M341 -216L363 -104C308 -92 281 -62 281 -9L281 140C281 215 230 264 154 270C230 276 281 325 281 400L281 549C281 602 308 632 363 644L341 756C207 744 111 699 111 573L111 408C111 358 89 331 28 330L28 210C89 210 111 182 111 133L111 -33C111 -159 207 -204 341 -216Z"/>
<glyph unicode="&#x7c;" horiz-adv-x="400" d="M114 -80L286 -80L286 740L114 740Z"/>
<glyph unicode="&#x7d;" horiz-adv-x="400" d="M80 -216C214 -204 310 -159 310 -33L310 133C310 182 332 210 393 210L393 330C332 331 310 358 310 408L310 573C310 699 214 744 80 756L58 644C112 632 140 602 140 549L140 400C140 325 190 276 266 270C190 264 140 215 140 140L140 -9C140 -62 112 -92 58 -104Z"/>
<glyph unicode="&#x7e;" horiz-adv-x="600" d="M383 248C465 248 516 309 546 369L455 411C440 387 417 365 382 365C327 365 301 422 219 422C135 422 84 360 54 301L146 256C161 282 183 306 220 306C273 306 299 248 383 248Z"/>
<glyph unicode="&#xa0;" horiz-adv-x="240" />
<glyph unicode="&#xa1;" horiz-adv-x="333" d="M167 516C114 516 72 474 72 422C72 370 114 327 167 327C219 327 261 370 261 422C261 474 219 516 167 516ZM252 -200L235 236L98 236L80 -200Z"/>
<glyph unicode="&#xa2;" horiz-adv-x="585" d="M454 144C421 122 390 105 347 105C278 105 244 144 244 245L244 296C244 396 280 434 346 434C388 434 414 422 443 396L521 483C482 521 437 544 381 552L381 639L258 639L258 547C138 520 72 427 72 293L72 246C72 111 140 18 258 -8L258 -110L381 -110L381 -11C434 -2 482 21 518 51Z"/>
<glyph unicode="&#xa3;" horiz-adv-x="595" d="M294 301C294 304 294 308 293 311L490 311L490 375L283 375C271 415 254 444 254 483L254 501C254 539 285 588 352 588C398 588 435 575 491 535L561 635C494 689 422 716 330 716C169 716 84 608 84 509L84 483C84 445 100 411 112 375L64 375L64 311L127 311C128 306 128 302 128 297C128 250 120 199 64 133L64 0L540 0L540 133L228 133C281 201 294 256 294 301Z"/>
<glyph unicode="&#xa4;" horiz-adv-x="600" d="M529 342C529 388 515 430 491 466L562 537L493 605L420 531C386 551 344 562 299 562C255 562 215 551 181 531L107 605L38 537L109 464C86 429 73 387 73 342C73 296 86 253 110 218L38 147L107 79L181 152C215 132 255 120 299 120C344 120 385 131 420 151L493 79L562 147L491 217C515 252 529 295 529 342ZM300 236C241 236 204 278 204 342C204 405 241 447 300 447C360 447 395 405 395 342C395 278 360 236 300 236Z"/>
<glyph unicode="&#xa5;" horiz-adv-x="607" d="M594 700L430 700L309 422L184 700L12 700L204 332L91 332L91 274L223 274L223 202L91 202L91 144L223 144L223 0L384 0L384 144L517 144L517 202L384 202L384 274L517 274L517 332L403 332Z"/>
<glyph unicode="&#xa6;" horiz-adv-x="400" d="M114 420L286 420L286 740L114 740ZM114 -80L286 -80L286 240L114 240Z"/>
<glyph unicode="&#xa7;" horiz-adv-x="600" d="M532 345L532 371C532 447 484 487 406 515L341 538C276 561 262 573 262 594L262 602C262 624 282 641 326 641C372 641 405 632 454 600L525 685C474 728 398 756 317 756C185 756 95 694 95 600L95 575C95 531 112 499 146 475C101 451 68 413 68 355L68 329C68 253 116 213 194 185L259 162C324 139 338 127 338 106L338 98C338 76 318 59 274 59C228 59 195 68 146 100L75 15C126 -28 202 -56 283 -56C415 -56 505 6 505 100L505 125C505 169 488 201 454 225C499 249 532 287 532 345ZM222 349L222 364C222 385 237 408 265 423L287 416C363 390 378 378 378 351L378 336C378 315 363 292 335 277L313 284C237 310 222 322 222 349Z"/>
<glyph unicode="&#xa8;" horiz-adv-x="400" d="M75 621C122 621 159 658 159 703C159 749 122 785 75 785C29 785 -9 749 -9 703C-9 658 29 621 75 621ZM324 621C371 621 408 658 408 703C408 749 371 785 324 785C278 785 240 749 240 703C240 658 278 621 324 621Z"/>
<glyph unicode="&#xa9;" horiz-adv-x="892" d="M444 -16C669 -16 819 117 819 302L819 398C819 570 669 716 445 716C234 716 73 570 73 398L73 302C73 117 234 -16 444 -16ZM446 64C279 64 166 157 166 302L166 398C166 529 279 636 446 636C626 636 726 529 726 398L726 302C726 157 626 64 446 64ZM453 130C513 130 561 154 591 179L545 249C523 233 495 220 460 220C414 220 390 245 390 292L390 410C390 458 418 484 461 484C493 484 515 474 539 455L593 521C559 551 519 570 455 570C344 570 277 504 277 399L277 292C277 194 342 130 453 130Z"/>
<glyph unicode="&#xaa;" horiz-adv-x="482" d="M252 716C186 716 130 699 84 673L122 597C170 618 201 627 244 627C282 627 302 612 302 577L302 555L243 555C127 555 61 504 61 438L61 402C61 331 125 288 198 288C247 288 283 307 314 335L324 297L421 297L421 575C421 661 365 716 252 716ZM179 417L179 434C179 459 198 479 252 479L302 479L302 412C279 392 250 381 222 381C195 381 179 393 179 417Z"/>
<glyph unicode="&#xab;" horiz-adv-x="644" d="M500 19L594 81L465 285L593 486L499 548L314 326L314 243ZM246 19L340 81L211 285L339 486L245 548L60 326L60 243Z"/>
<glyph unicode="&#xac;" horiz-adv-x="600" d="M100 407L100 277L369 277L369 142L500 142L500 277L500 407Z"/>
<glyph unicode="&#xad;" horiz-adv-x="438" d="M382 407L57 407L57 277L382 277Z"/>
<glyph unicode="&#xae;" horiz-adv-x="892" d="M445 716C234 716 73 570 73 398L73 302C73 117 234 -16 444 -16C669 -16 819 117 819 302L819 398C819 570 669 716 445 716ZM726 302C726 157 626 64 446 64C279 64 166 157 166 302L166 398C166 529 279 636 446 636C626 636 726 529 726 398ZM611 413L611 446C611 516 553 560 461 560L417 560L308 560L308 140L417 140L417 296L447 296L512 140L625 140L546 316C587 335 611 368 611 413ZM417 483L453 483C481 483 503 471 503 439L503 415C503 386 480 371 447 371L417 371Z"/>
<glyph unicode="&#xaf;" horiz-adv-x="400" d="M48 635L351 635L351 740L48 740Z"/>
<glyph unicode="&#xb0;" horiz-adv-x="520" d="M218 367C311 367 392 430 392 542C392 656 311 716 218 716C129 716 44 656 44 543C44 428 129 367 218 367ZM218 465C176 465 157 499 157 543C157 587 176 619 218 619C262 619 279 587 279 542C279 499 262 465 218 465Z"/>
<glyph unicode="&#xb1;" horiz-adv-x="597" d="M369 407L369 542L228 542L228 407L99 407L99 277L228 277L228 176L369 176L369 277L498 277L498 407ZM99 0L498 0L498 131L99 131Z"/>
<glyph unicode="&#xb2;" horiz-adv-x="500" d="M68 415L443 415L443 511L189 511C191 542 207 564 264 600L332 643C408 692 444 730 444 786L444 811C444 889 374 952 249 952C169 952 109 928 55 889L107 815C151 844 189 858 238 858C294 858 320 832 320 804L320 790C320 761 305 747 255 714L177 665C113 625 68 573 68 480Z"/>
<glyph unicode="&#xb3;" horiz-adv-x="500" d="M245 403C369 403 460 466 460 550L460 586C460 654 393 689 340 698C393 709 441 748 441 794L441 824C441 898 356 952 252 952C157 952 98 919 50 873L111 812C152 847 192 864 239 864C283 864 319 847 319 807L319 791C319 746 274 734 229 734L186 734L186 650L229 650C274 650 337 639 337 581L337 564C337 516 291 494 238 494C182 494 140 517 107 550L39 487C84 438 142 403 245 403Z"/>
<glyph unicode="&#xb4;" horiz-adv-x="400" d="M100 599L338 701L283 808L57 684Z"/>
<glyph unicode="&#xb5;" horiz-adv-x="624" d="M383 539L383 147C360 118 329 101 297 101C260 101 241 120 241 156L241 539L69 539L69 -200L241 -200L241 -4C258 -12 276 -16 297 -16C341 -16 377 5 402 40L412 0L555 0L555 539Z"/>
<glyph unicode="&#xb6;" horiz-adv-x="782" d="M334 700C164 703 68 619 68 485C68 365 149 278 305 273L305 -200L438 -200L438 593L532 593L532 -200L664 -200L664 700Z"/>
<glyph unicode="&#xb7;" horiz-adv-x="302" d="M151 237C204 237 245 279 245 332C245 383 204 426 151 426C99 426 57 383 57 332C57 279 99 237 151 237Z"/>
<glyph unicode="&#xb8;" horiz-adv-x="400" d="M186 -255C264 -255 330 -222 330 -153L330 -134C330 -79 296 -51 225 -44L225 16L134 16L125 -108C190 -108 217 -115 217 -137L217 -145C217 -165 200 -171 170 -171C149 -171 129 -169 106 -164L86 -238C118 -250 149 -255 186 -255Z"/>
<glyph unicode="&#xb9;" horiz-adv-x="500" d="M89 415L435 415L435 505L333 505L333 940L241 940L65 845L108 768L209 813L209 505L89 505Z"/>
<glyph unicode="&#xba;" horiz-adv-x="482" d="M240 288C376 288 437 367 437 475L437 526C437 637 376 716 240 716C105 716 45 637 45 526L45 475C45 367 103 288 240 288ZM240 383C186 383 164 410 164 475L164 529C164 595 186 623 240 623C293 623 317 595 317 529L317 475C317 410 293 383 240 383Z"/>
<glyph unicode="&#xbb;" horiz-adv-x="644" d="M154 19L340 243L340 326L155 548L61 486L189 285L60 81ZM407 19L594 243L594 326L408 548L314 486L442 285L314 81Z"/>
<glyph unicode="&#xbc;" horiz-adv-x="1237" d="M516 -18L822 719L721 757L415 20ZM89 215L435 215L435 305L333 305L333 740L241 740L65 645L108 568L209 613L209 305L89 305ZM1014 0L1138 0L1138 91L1201 91L1201 186L1138 186L1138 314L1041 314L1017 186L906 186L1060 525L941 525L773 164L773 91L1014 91Z"/>
<glyph unicode="&#xbd;" horiz-adv-x="1237" d="M516 -18L822 719L721 757L415 20ZM89 215L435 215L435 305L333 305L333 740L241 740L65 645L108 568L209 613L209 305L89 305ZM805 0L1180 0L1180 96L926 96C928 127 944 149 1001 185L1069 228C1145 277 1181 315 1181 371L1181 396C1181 474 1111 537 986 537C906 537 846 513 792 474L844 400C888 429 926 443 975 443C1031 443 1057 417 1057 389L1057 375C1057 346 1042 332 992 299L914 250C850 210 805 158 805 65Z"/>
<glyph unicode="&#xbe;" horiz-adv-x="1237" d="M516 -18L822 719L721 757L415 20ZM245 203C369 203 460 266 460 350L460 386C460 454 393 489 340 498C393 509 441 548 441 594L441 624C441 698 356 752 252 752C157 752 98 719 50 673L111 612C152 647 192 664 239 664C283 664 319 647 319 607L319 591C319 546 274 534 229 534L186 534L186 450L229 450C274 450 337 439 337 381L337 364C337 316 291 294 238 294C182 294 140 317 107 350L39 287C84 238 142 203 245 203ZM1014 0L1138 0L1138 91L1201 91L1201 186L1138 186L1138 314L1041 314L1017 186L906 186L1060 525L941 525L773 164L773 91L1014 91Z"/>
<glyph unicode="&#xbf;" horiz-adv-x="518" d="M279 516C226 516 184 474 184 422C184 370 226 327 279 327C331 327 373 370 373 422C373 474 331 516 279 516ZM356 248L201 248L201 224C201 135 24 117 24 -15L24 -47C24 -140 113 -216 260 -216C366 -216 439 -181 498 -132L427 -35C377 -70 338 -91 279 -91C229 -91 198 -66 198 -27L198 -9C198 67 356 96 356 218Z"/>
<glyph unicode="&#xc0;" horiz-adv-x="651" d="M463 827L233 942L183 834L421 740ZM469 0L647 0L436 700L203 700L3 0L177 0L216 153L426 153ZM392 283L248 283L319 585Z"/>
<glyph unicode="&#xc1;" horiz-adv-x="651" d="M460 834L410 942L180 827L221 740ZM469 0L647 0L436 700L203 700L3 0L177 0L216 153L426 153ZM392 283L248 283L319 585Z"/>
<glyph unicode="&#xc2;" horiz-adv-x="651" d="M323 831L454 740L512 815L370 937L277 937L134 815L193 740ZM469 0L647 0L436 700L203 700L3 0L177 0L216 153L426 153ZM392 283L248 283L319 585Z"/>
<glyph unicode="&#xc3;" horiz-adv-x="651" d="M267 792C299 792 324 746 381 746C442 746 494 795 521 858L431 899C415 870 402 855 378 855C346 855 321 901 264 901C203 901 151 852 124 790L214 748C230 777 243 792 267 792ZM469 0L647 0L436 700L203 700L3 0L177 0L216 153L426 153ZM392 283L248 283L319 585Z"/>
<glyph unicode="&#xc4;" horiz-adv-x="651" d="M199 771C246 771 282 808 282 853C282 899 246 935 199 935C153 935 115 899 115 853C115 808 153 771 199 771ZM448 771C495 771 532 808 532 853C532 899 495 935 448 935C402 935 364 899 364 853C364 808 402 771 448 771ZM469 0L647 0L436 700L203 700L3 0L177 0L216 153L426 153ZM392 283L248 283L319 585Z"/>
<glyph unicode="&#xc5;" horiz-adv-x="651" d="M324 719C411 719 467 775 467 844L467 866C467 935 411 992 324 992C237 992 179 935 179 866L179 844C179 775 237 719 324 719ZM277 863C277 894 297 911 323 911C350 911 370 894 370 863L370 847C370 816 350 800 323 800C297 800 277 816 277 847ZM469 0L647 0L436 700L203 700L3 0L177 0L216 153L426 153ZM392 283L248 283L319 585Z"/>
<glyph unicode="&#xc6;" horiz-adv-x="973" d="M617 129L579 293L865 293L865 416L550 416L513 575L892 575L892 700L484 700L251 700L3 0L177 0L224 153L438 153L469 0L534 0L928 0L928 129ZM413 282L264 282L359 583Z"/>
<glyph unicode="&#xc7;" horiz-adv-x="595" d="M576 65L507 160C468 133 419 109 356 109C271 109 229 155 229 250L229 454C229 544 276 591 358 591C415 591 456 573 496 542L580 635C523 683 457 716 351 716C165 716 54 607 54 433L54 253C54 111 136 12 280 -11L273 -108C338 -108 365 -115 365 -137L365 -145C365 -165 348 -171 318 -171C297 -171 277 -169 254 -164L234 -238C266 -250 297 -255 333 -255C411 -255 478 -222 478 -153L478 -134C478 -79 444 -51 373 -44L373 -16C459 -10 530 27 576 65Z"/>
<glyph unicode="&#xc8;" horiz-adv-x="578" d="M444 827L214 942L164 834L402 740ZM522 574L522 700L261 700L86 700L86 0L124 0L522 0L522 129L261 129L261 292L501 292L501 417L261 417L261 574Z"/>
<glyph unicode="&#xc9;" horiz-adv-x="578" d="M441 834L391 942L161 827L202 740ZM522 574L522 700L261 700L86 700L86 0L124 0L522 0L522 129L261 129L261 292L501 292L501 417L261 417L261 574Z"/>
<glyph unicode="&#xca;" horiz-adv-x="578" d="M304 831L435 740L493 815L351 937L258 937L115 815L174 740ZM522 574L522 700L261 700L86 700L86 0L124 0L522 0L522 129L261 129L261 292L501 292L501 417L261 417L261 574Z"/>
<glyph unicode="&#xcb;" horiz-adv-x="578" d="M180 771C227 771 263 808 263 853C263 899 227 935 180 935C134 935 96 899 96 853C96 808 134 771 180 771ZM429 771C476 771 513 808 513 853C513 899 476 935 429 935C383 935 345 899 345 853C345 808 383 771 429 771ZM522 574L522 700L261 700L86 700L86 0L124 0L522 0L522 129L261 129L261 292L501 292L501 417L261 417L261 574Z"/>
<glyph unicode="&#xcc;" horiz-adv-x="453" d="M367 827L137 942L87 834L325 740ZM404 575L404 700L314 700L50 700L50 575L139 575L139 126L50 126L50 0L139 0L404 0L404 126L314 126L314 575Z"/>
<glyph unicode="&#xcd;" horiz-adv-x="453" d="M364 834L314 942L84 827L125 740ZM404 575L404 700L314 700L50 700L50 575L139 575L139 126L50 126L50 0L139 0L404 0L404 126L314 126L314 575Z"/>
<glyph unicode="&#xce;" horiz-adv-x="453" d="M226 831L357 740L415 815L273 937L180 937L37 815L96 740ZM404 700L50 700L50 575L139 575L139 126L50 126L50 0L139 0L404 0L404 126L314 126L314 575L404 575Z"/>
<glyph unicode="&#xcf;" horiz-adv-x="453" d="M185 853C185 899 149 935 102 935C56 935 18 899 18 853C18 808 56 771 102 771C149 771 185 808 185 853ZM351 935C305 935 267 899 267 853C267 808 305 771 351 771C398 771 435 808 435 853C435 899 398 935 351 935ZM404 700L50 700L50 575L139 575L139 126L50 126L50 0L139 0L404 0L404 126L314 126L314 575L404 575Z"/>
<glyph unicode="&#xd0;" horiz-adv-x="687" d="M339 700L261 700L86 700L86 397L45 397L45 303L86 303L86 0L220 0L315 0C523 0 633 112 633 292L633 421C633 588 535 700 339 700ZM458 287C458 176 412 126 319 126L261 126L261 303L371 303L371 397L261 397L261 574L334 574C418 574 458 525 458 427Z"/>
<glyph unicode="&#xd1;" horiz-adv-x="737" d="M325 792C357 792 382 746 439 746C500 746 552 795 579 858L489 899C473 870 460 855 436 855C404 855 379 901 322 901C261 901 209 852 182 790L272 748C288 777 301 792 325 792ZM503 700L503 266L291 700L86 700L86 0L235 0L235 483L463 0L652 0L652 700Z"/>
<glyph unicode="&#xd2;" horiz-adv-x="713" d="M454 740L496 827L266 942L216 834ZM356 716C160 716 54 600 54 430L54 269C54 100 161 -16 356 -16C555 -16 659 100 659 269L659 430C659 600 555 716 356 716ZM356 591C440 591 483 536 483 431L483 270C483 164 440 109 356 109C272 109 229 164 229 270L229 431C229 536 272 591 356 591Z"/>
<glyph unicode="&#xd3;" horiz-adv-x="713" d="M255 740L494 834L444 942L214 827ZM356 716C160 716 54 600 54 430L54 269C54 100 161 -16 356 -16C555 -16 659 100 659 269L659 430C659 600 555 716 356 716ZM356 591C440 591 483 536 483 431L483 270C483 164 440 109 356 109C272 109 229 164 229 270L229 431C229 536 272 591 356 591Z"/>
<glyph unicode="&#xd4;" horiz-adv-x="713" d="M226 740L356 831L487 740L545 815L403 937L310 937L167 815ZM356 716C160 716 54 600 54 430L54 269C54 100 161 -16 356 -16C555 -16 659 100 659 269L659 430C659 600 555 716 356 716ZM356 591C440 591 483 536 483 431L483 270C483 164 440 109 356 109C272 109 229 164 229 270L229 431C229 536 272 591 356 591Z"/>
<glyph unicode="&#xd5;" horiz-adv-x="713" d="M414 746C475 746 527 795 554 858L464 899C448 870 435 855 411 855C379 855 354 901 297 901C236 901 184 852 157 790L247 748C263 777 276 792 300 792C332 792 357 746 414 746ZM356 716C160 716 54 600 54 430L54 269C54 100 161 -16 356 -16C555 -16 659 100 659 269L659 430C659 600 555 716 356 716ZM356 591C440 591 483 536 483 431L483 270C483 164 440 109 356 109C272 109 229 164 229 270L229 431C229 536 272 591 356 591Z"/>
<glyph unicode="&#xd6;" horiz-adv-x="713" d="M232 771C279 771 315 808 315 853C315 899 279 935 232 935C186 935 148 899 148 853C148 808 186 771 232 771ZM481 771C528 771 565 808 565 853C565 899 528 935 481 935C435 935 397 899 397 853C397 808 435 771 481 771ZM356 716C160 716 54 600 54 430L54 269C54 100 161 -16 356 -16C555 -16 659 100 659 269L659 430C659 600 555 716 356 716ZM356 591C440 591 483 536 483 431L483 270C483 164 440 109 356 109C272 109 229 164 229 270L229 431C229 536 272 591 356 591Z"/>
<glyph unicode="&#xd7;" horiz-adv-x="600" d="M497 448L405 540L300 434L194 540L102 448L207 342L102 237L194 144L300 250L405 144L497 237L392 342Z"/>
<glyph unicode="&#xd8;" horiz-adv-x="713" d="M580 639L630 730L534 780L487 696C449 709 406 716 356 716C160 716 54 600 54 430L54 269C54 183 82 110 136 59L88 -30L184 -80L230 3C267 -10 309 -16 356 -16C555 -16 659 100 659 269L659 430C659 516 632 588 580 639ZM229 431C229 536 272 591 356 591C389 591 415 582 435 566L236 207C232 226 229 247 229 270ZM483 270C483 164 440 109 356 109C326 109 300 117 281 131L478 488C482 471 483 452 483 431Z"/>
<glyph unicode="&#xd9;" horiz-adv-x="708" d="M452 740L494 827L264 942L214 834ZM639 700L464 700L464 228C464 155 432 109 354 109C276 109 243 155 243 228L243 700L68 700L68 227C68 87 165 -16 354 -16C546 -16 639 87 639 227Z"/>
<glyph unicode="&#xda;" horiz-adv-x="708" d="M252 740L491 834L441 942L211 827ZM639 700L464 700L464 228C464 155 432 109 354 109C276 109 243 155 243 228L243 700L68 700L68 227C68 87 165 -16 354 -16C546 -16 639 87 639 227Z"/>
<glyph unicode="&#xdb;" horiz-adv-x="708" d="M224 740L354 831L485 740L543 815L401 937L308 937L165 815ZM639 700L464 700L464 228C464 155 432 109 354 109C276 109 243 155 243 228L243 700L68 700L68 227C68 87 165 -16 354 -16C546 -16 639 87 639 227Z"/>
<glyph unicode="&#xdc;" horiz-adv-x="708" d="M230 771C277 771 313 808 313 853C313 899 277 935 230 935C184 935 146 899 146 853C146 808 184 771 230 771ZM479 771C526 771 563 808 563 853C563 899 526 935 479 935C433 935 395 899 395 853C395 808 433 771 479 771ZM639 700L464 700L464 228C464 155 432 109 354 109C276 109 243 155 243 228L243 700L68 700L68 227C68 87 165 -16 354 -16C546 -16 639 87 639 227Z"/>
<glyph unicode="&#xdd;" horiz-adv-x="606" d="M441 834L391 942L161 827L202 740ZM611 700L434 700L307 405L179 700L-5 700L216 278L216 0L391 0L391 279Z"/>
<glyph unicode="&#xde;" horiz-adv-x="642" d="M345 588L261 588L261 700L86 700L86 0L261 0L261 112L329 112C493 112 604 188 604 318L604 386C604 515 502 588 345 588ZM429 331C429 264 385 236 320 236L261 236L261 464L332 464C391 464 429 437 429 376Z"/>
<glyph unicode="&#xdf;" horiz-adv-x="652" d="M418 -16C541 -16 627 43 627 156L627 198C627 281 581 320 501 357C427 392 416 402 416 421L416 433C416 455 435 467 567 519C564 666 476 756 314 756C169 756 59 676 59 531L59 0L227 0L227 549C227 619 270 645 319 645C366 645 403 620 407 563C296 519 277 485 277 424L277 405C277 324 300 301 393 262C447 240 465 220 465 179L465 162C465 124 438 101 393 101C367 101 340 105 310 117L269 14C315 -5 361 -16 418 -16Z"/>
<glyph unicode="&#xe0;" horiz-adv-x="571" d="M427 684L201 808L146 701L384 599ZM281 555C197 555 117 532 57 496L107 398C150 419 200 437 259 437C314 437 343 418 343 364L343 335L256 335C111 335 28 274 28 176L28 143C28 47 108 -16 215 -16C273 -16 325 4 370 48L385 0L513 0L513 354C513 474 443 555 281 555ZM256 100C216 100 196 120 196 157L196 176C196 221 225 242 280 242L343 242L343 139C319 113 288 100 256 100Z"/>
<glyph unicode="&#xe1;" horiz-adv-x="571" d="M427 701L372 808L146 684L189 599ZM281 555C197 555 117 532 57 496L107 398C150 419 200 437 259 437C314 437 343 418 343 364L343 335L256 335C111 335 28 274 28 176L28 143C28 47 108 -16 215 -16C273 -16 325 4 370 48L385 0L513 0L513 354C513 474 443 555 281 555ZM256 100C216 100 196 120 196 157L196 176C196 221 225 242 280 242L343 242L343 139C319 113 288 100 256 100Z"/>
<glyph unicode="&#xe2;" horiz-adv-x="571" d="M286 690L417 597L475 672L333 797L240 797L97 672L156 597ZM281 555C197 555 117 532 57 496L107 398C150 419 200 437 259 437C314 437 343 418 343 364L343 335L256 335C111 335 28 274 28 176L28 143C28 47 108 -16 215 -16C273 -16 325 4 370 48L385 0L513 0L513 354C513 474 443 555 281 555ZM256 100C216 100 196 120 196 157L196 176C196 221 225 242 280 242L343 242L343 139C319 113 288 100 256 100Z"/>
<glyph unicode="&#xe3;" horiz-adv-x="571" d="M231 666C263 666 288 620 345 620C406 620 458 669 485 732L395 773C379 744 366 729 342 729C310 729 285 775 228 775C167 775 115 726 88 664L178 622C194 651 207 666 231 666ZM281 555C197 555 117 532 57 496L107 398C150 419 200 437 259 437C314 437 343 418 343 364L343 335L256 335C111 335 28 274 28 176L28 143C28 47 108 -16 215 -16C273 -16 325 4 370 48L385 0L513 0L513 354C513 474 443 555 281 555ZM256 100C216 100 196 120 196 157L196 176C196 221 225 242 280 242L343 242L343 139C319 113 288 100 256 100Z"/>
<glyph unicode="&#xe4;" horiz-adv-x="571" d="M161 621C208 621 244 658 244 703C244 749 208 785 161 785C115 785 77 749 77 703C77 658 115 621 161 621ZM410 621C457 621 494 658 494 703C494 749 457 785 410 785C364 785 326 749 326 703C326 658 364 621 410 621ZM281 555C197 555 117 532 57 496L107 398C150 419 200 437 259 437C314 437 343 418 343 364L343 335L256 335C111 335 28 274 28 176L28 143C28 47 108 -16 215 -16C273 -16 325 4 370 48L385 0L513 0L513 354C513 474 443 555 281 555ZM256 100C216 100 196 120 196 157L196 176C196 221 225 242 280 242L343 242L343 139C319 113 288 100 256 100Z"/>
<glyph unicode="&#xe5;" horiz-adv-x="571" d="M287 593C374 593 430 649 430 718L430 740C430 809 374 866 287 866C200 866 142 809 142 740L142 718C142 649 200 593 287 593ZM240 737C240 768 260 785 286 785C313 785 333 768 333 737L333 721C333 690 313 674 286 674C260 674 240 690 240 721ZM281 555C197 555 117 532 57 496L107 398C150 419 200 437 259 437C314 437 343 418 343 364L343 335L256 335C111 335 28 274 28 176L28 143C28 47 108 -16 215 -16C273 -16 325 4 370 48L385 0L513 0L513 354C513 474 443 555 281 555ZM256 100C216 100 196 120 196 157L196 176C196 221 225 242 280 242L343 242L343 139C319 113 288 100 256 100Z"/>
<glyph unicode="&#xe6;" horiz-adv-x="866" d="M827 234C829 252 831 272 831 296C831 470 745 555 600 555C525 555 465 521 435 467C413 528 356 555 281 555C197 555 117 532 57 496L107 398C150 419 200 437 259 437C314 437 343 418 343 364L343 327L256 327C111 327 28 266 28 176L28 143C28 47 108 -16 215 -16C283 -16 349 3 401 67C446 15 516 -16 607 -16C688 -16 769 13 820 48L767 145C724 122 683 105 625 105C548 105 503 140 503 223L503 234ZM595 447C652 447 682 413 682 331L682 327L503 327C506 410 538 447 595 447ZM256 100C216 100 196 120 196 157L196 176C196 214 225 234 280 234L343 234C343 206 347 179 354 155C326 117 292 100 256 100Z"/>
<glyph unicode="&#xe7;" horiz-adv-x="498" d="M484 51L420 144C387 122 356 105 313 105C244 105 210 144 210 245L210 296C210 396 246 434 312 434C354 434 380 422 409 396L487 483C438 531 379 555 301 555C133 555 38 453 38 293L38 246C38 107 110 12 235 -11L228 -108C293 -108 320 -115 320 -137L320 -145C320 -165 303 -171 273 -171C252 -171 232 -169 209 -164L189 -238C221 -250 252 -255 288 -255C366 -255 433 -222 433 -153L433 -134C433 -79 399 -51 328 -44L328 -15C388 -8 444 18 484 51Z"/>
<glyph unicode="&#xe8;" horiz-adv-x="566" d="M432 684L206 808L151 701L389 599ZM531 285C531 468 449 555 288 555C133 555 38 448 38 295L38 240C38 92 135 -16 306 -16C387 -16 467 13 518 48L465 145C422 122 370 105 320 105C237 105 205 140 205 223L527 223C529 241 531 261 531 285ZM380 319L205 319C206 409 236 446 292 446C352 446 380 409 380 322Z"/>
<glyph unicode="&#xe9;" horiz-adv-x="566" d="M432 701L377 808L151 684L194 599ZM531 285C531 468 449 555 288 555C133 555 38 448 38 295L38 240C38 92 135 -16 306 -16C387 -16 467 13 518 48L465 145C422 122 370 105 320 105C237 105 205 140 205 223L527 223C529 241 531 261 531 285ZM380 319L205 319C206 409 236 446 292 446C352 446 380 409 380 322Z"/>
<glyph unicode="&#xea;" horiz-adv-x="566" d="M291 690L422 597L480 672L338 797L245 797L102 672L161 597ZM531 285C531 468 449 555 288 555C133 555 38 448 38 295L38 240C38 92 135 -16 306 -16C387 -16 467 13 518 48L465 145C422 122 370 105 320 105C237 105 205 140 205 223L527 223C529 241 531 261 531 285ZM380 319L205 319C206 409 236 446 292 446C352 446 380 409 380 322Z"/>
<glyph unicode="&#xeb;" horiz-adv-x="566" d="M167 621C214 621 250 658 250 703C250 749 214 785 167 785C121 785 83 749 83 703C83 658 121 621 167 621ZM416 621C463 621 500 658 500 703C500 749 463 785 416 785C370 785 332 749 332 703C332 658 370 621 416 621ZM531 285C531 468 449 555 288 555C133 555 38 448 38 295L38 240C38 92 135 -16 306 -16C387 -16 467 13 518 48L465 145C422 122 370 105 320 105C237 105 205 140 205 223L527 223C529 241 531 261 531 285ZM380 319L205 319C206 409 236 446 292 446C352 446 380 409 380 322Z"/>
<glyph unicode="&#xec;" horiz-adv-x="332" d="M87 808L32 701L270 599L313 684ZM20 539L20 418L91 418L91 0L263 0L263 539Z"/>
<glyph unicode="&#xed;" horiz-adv-x="332" d="M313 701L258 808L32 684L75 599ZM20 539L20 418L91 418L91 0L263 0L263 539Z"/>
<glyph unicode="&#xee;" horiz-adv-x="332" d="M219 797L126 797L-17 672L42 597L172 690L303 597L361 672ZM20 539L20 418L91 418L91 0L263 0L263 539Z"/>
<glyph unicode="&#xef;" horiz-adv-x="332" d="M131 703C131 749 95 785 48 785C2 785 -36 749 -36 703C-36 658 2 621 48 621C95 621 131 658 131 703ZM297 785C251 785 213 749 213 703C213 658 251 621 297 621C344 621 381 658 381 703C381 749 344 785 297 785ZM20 539L20 418L91 418L91 0L263 0L263 539Z"/>
<glyph unicode="&#xf0;" horiz-adv-x="612" d="M386 688L426 757L334 806L290 731C239 747 181 756 118 756L118 634C158 633 194 629 226 621L188 556L280 507L322 578C373 540 399 481 400 403C363 442 316 464 240 464C111 464 38 374 38 261L38 217C38 95 121 -16 299 -16C470 -16 571 95 571 270L571 321C571 485 507 614 386 688ZM301 105C238 105 210 142 210 223L210 255C210 315 232 348 290 348C334 348 368 327 400 290L400 245C400 144 365 105 301 105Z"/>
<glyph unicode="&#xf1;" horiz-adv-x="618" d="M254 666C286 666 311 620 368 620C429 620 481 669 508 732L418 773C402 744 389 729 365 729C333 729 308 775 251 775C190 775 138 726 111 664L201 622C217 651 230 666 254 666ZM383 555C316 555 267 534 227 490L218 539L69 539L69 0L241 0L241 386C265 417 292 434 325 434C364 434 387 411 387 360L387 0L559 0L559 372C559 490 486 555 383 555Z"/>
<glyph unicode="&#xf2;" horiz-adv-x="607" d="M401 599L444 684L218 808L163 701ZM303 555C131 555 38 452 38 296L38 244C38 87 131 -16 303 -16C475 -16 569 87 569 244L569 296C569 452 475 555 303 555ZM303 434C366 434 397 395 397 298L397 244C397 144 366 105 303 105C240 105 210 144 210 244L210 298C210 395 240 434 303 434Z"/>
<glyph unicode="&#xf3;" horiz-adv-x="607" d="M206 599L444 701L389 808L163 684ZM303 555C131 555 38 452 38 296L38 244C38 87 131 -16 303 -16C475 -16 569 87 569 244L569 296C569 452 475 555 303 555ZM303 434C366 434 397 395 397 298L397 244C397 144 366 105 303 105C240 105 210 144 210 244L210 298C210 395 240 434 303 434Z"/>
<glyph unicode="&#xf4;" horiz-adv-x="607" d="M173 597L303 690L434 597L492 672L350 797L257 797L114 672ZM303 555C131 555 38 452 38 296L38 244C38 87 131 -16 303 -16C475 -16 569 87 569 244L569 296C569 452 475 555 303 555ZM303 434C366 434 397 395 397 298L397 244C397 144 366 105 303 105C240 105 210 144 210 244L210 298C210 395 240 434 303 434Z"/>
<glyph unicode="&#xf5;" horiz-adv-x="607" d="M362 620C423 620 475 669 502 732L412 773C396 744 383 729 359 729C327 729 302 775 245 775C184 775 132 726 105 664L195 622C211 651 224 666 248 666C280 666 305 620 362 620ZM303 555C131 555 38 452 38 296L38 244C38 87 131 -16 303 -16C475 -16 569 87 569 244L569 296C569 452 475 555 303 555ZM303 434C366 434 397 395 397 298L397 244C397 144 366 105 303 105C240 105 210 144 210 244L210 298C210 395 240 434 303 434Z"/>
<glyph unicode="&#xf6;" horiz-adv-x="607" d="M179 621C226 621 262 658 262 703C262 749 226 785 179 785C133 785 95 749 95 703C95 658 133 621 179 621ZM428 621C475 621 512 658 512 703C512 749 475 785 428 785C382 785 344 749 344 703C344 658 382 621 428 621ZM303 555C131 555 38 452 38 296L38 244C38 87 131 -16 303 -16C475 -16 569 87 569 244L569 296C569 452 475 555 303 555ZM303 434C366 434 397 395 397 298L397 244C397 144 366 105 303 105C240 105 210 144 210 244L210 298C210 395 240 434 303 434Z"/>
<glyph unicode="&#xf7;" horiz-adv-x="600" d="M310 650C257 650 215 608 215 556C215 504 257 461 310 461C362 461 404 504 404 556C404 608 362 650 310 650ZM501 279L501 409L99 409L99 279ZM310 36C362 36 404 78 404 130C404 182 362 225 310 225C257 225 215 182 215 130C215 78 257 36 310 36Z"/>
<glyph unicode="&#xf8;" horiz-adv-x="607" d="M492 492L531 563L432 612L394 544C366 552 336 555 303 555C131 555 38 452 38 296L38 244C38 160 64 92 115 46L76 -25L175 -75L213 -6C240 -13 270 -16 303 -16C475 -16 569 87 569 244L569 296C569 378 543 446 492 492ZM205 298C205 395 241 440 303 440C321 440 337 436 350 428L213 176C208 195 205 218 205 244ZM402 244C402 146 365 101 303 101C286 101 271 104 258 111L395 362C399 344 402 323 402 298Z"/>
<glyph unicode="&#xf9;" horiz-adv-x="614" d="M448 684L222 808L167 701L405 599ZM373 539L373 153C349 122 318 105 286 105C249 105 231 124 231 162L231 539L59 539L59 151C59 47 134 -16 230 -16C293 -16 347 9 389 52L401 0L545 0L545 539Z"/>
<glyph unicode="&#xfa;" horiz-adv-x="614" d="M448 701L393 808L167 684L210 599ZM373 539L373 153C349 122 318 105 286 105C249 105 231 124 231 162L231 539L59 539L59 151C59 47 134 -16 230 -16C293 -16 347 9 389 52L401 0L545 0L545 539Z"/>
<glyph unicode="&#xfb;" horiz-adv-x="614" d="M307 690L438 597L496 672L354 797L261 797L118 672L177 597ZM373 539L373 153C349 122 318 105 286 105C249 105 231 124 231 162L231 539L59 539L59 151C59 47 134 -16 230 -16C293 -16 347 9 389 52L401 0L545 0L545 539Z"/>
<glyph unicode="&#xfc;" horiz-adv-x="614" d="M182 621C229 621 265 658 265 703C265 749 229 785 182 785C136 785 98 749 98 703C98 658 136 621 182 621ZM431 621C478 621 515 658 515 703C515 749 478 785 431 785C385 785 347 749 347 703C347 658 385 621 431 621ZM373 539L373 153C349 122 318 105 286 105C249 105 231 124 231 162L231 539L59 539L59 151C59 47 134 -16 230 -16C293 -16 347 9 389 52L401 0L545 0L545 539Z"/>
<glyph unicode="&#xfd;" horiz-adv-x="550" d="M178 599L416 701L361 808L135 684ZM169 -216C279 -216 342 -168 377 -40L543 539L373 539L283 125L184 539L8 539L176 0L247 0L236 -40C224 -87 198 -102 150 -102C128 -102 111 -100 86 -94L67 -200C91 -209 129 -216 169 -216Z"/>
<glyph unicode="&#xfe;" horiz-adv-x="618" d="M377 555C320 555 276 538 242 504L242 740L69 740L69 -200L242 -200L242 27C274 0 313 -16 362 -16C479 -16 577 83 577 241L577 299C577 460 494 555 377 555ZM404 232C404 146 370 107 319 107C288 107 263 118 242 140L242 391C263 418 291 434 327 434C377 434 404 396 404 309Z"/>
<glyph unicode="&#xff;" horiz-adv-x="550" d="M151 621C198 621 234 658 234 703C234 749 198 785 151 785C105 785 67 749 67 703C67 658 105 621 151 621ZM400 621C447 621 484 658 484 703C484 749 447 785 400 785C354 785 316 749 316 703C316 658 354 621 400 621ZM169 -216C279 -216 342 -168 377 -40L543 539L373 539L283 125L184 539L8 539L176 0L247 0L236 -40C224 -87 198 -102 150 -102C128 -102 111 -100 86 -94L67 -200C91 -209 129 -216 169 -216Z"/>
<glyph unicode="&#x100;" horiz-adv-x="651" d="M474 875L172 875L172 770L474 770ZM469 0L647 0L436 700L203 700L3 0L177 0L216 153L426 153ZM392 283L248 283L319 585Z"/>
<glyph unicode="&#x101;" horiz-adv-x="571" d="M437 740L135 740L135 635L437 635ZM281 555C197 555 117 532 57 496L107 398C150 419 200 437 259 437C314 437 343 418 343 364L343 335L256 335C111 335 28 274 28 176L28 143C28 47 108 -16 215 -16C273 -16 325 4 370 48L385 0L513 0L513 354C513 474 443 555 281 555ZM256 100C216 100 196 120 196 157L196 176C196 221 225 242 280 242L343 242L343 139C319 113 288 100 256 100Z"/>
<glyph unicode="&#x102;" horiz-adv-x="651" d="M323 748C425 748 492 815 509 909L406 925C393 877 368 854 323 854C277 854 253 877 241 925L138 909C154 815 220 748 323 748ZM469 0L647 0L436 700L203 700L3 0L177 0L216 153L426 153ZM392 283L248 283L319 585Z"/>
<glyph unicode="&#x103;" horiz-adv-x="571" d="M286 617C388 617 455 684 468 778L369 795C356 746 331 723 286 723C240 723 216 746 204 795L105 778C117 684 183 617 286 617ZM281 555C197 555 117 532 57 496L107 398C150 419 200 437 259 437C314 437 343 418 343 364L343 335L256 335C111 335 28 274 28 176L28 143C28 47 108 -16 215 -16C273 -16 325 4 370 48L385 0L513 0L513 354C513 474 443 555 281 555ZM256 100C216 100 196 120 196 157L196 176C196 221 225 242 280 242L343 242L343 139C319 113 288 100 256 100Z"/>
<glyph unicode="&#x104;" horiz-adv-x="651" d="M607 0L647 0L436 700L203 700L3 0L177 0L216 153L426 153L466 10C399 -20 354 -68 354 -128C354 -200 409 -244 492 -244C524 -244 547 -241 568 -236L579 -142C556 -147 537 -149 517 -149C479 -149 464 -134 464 -106C464 -71 497 -27 607 0ZM392 283L248 283L319 585Z"/>
<glyph unicode="&#x105;" horiz-adv-x="571" d="M370 -106C370 -71 403 -27 513 0L513 354C513 474 443 555 281 555C197 555 117 532 57 496L107 398C150 419 200 437 259 437C314 437 343 418 343 364L343 335L256 335C111 335 28 274 28 176L28 143C28 47 108 -16 215 -16C273 -16 325 4 370 48L381 14C308 -17 260 -66 260 -128C260 -200 315 -244 398 -244C430 -244 453 -241 474 -236L485 -142C462 -147 443 -149 423 -149C385 -149 370 -134 370 -106ZM256 100C216 100 196 120 196 157L196 176C196 221 225 242 280 242L343 242L343 139C319 113 288 100 256 100Z"/>
<glyph unicode="&#x106;" horiz-adv-x="595" d="M242 740L481 834L431 942L201 827ZM348 -16C445 -16 526 23 576 65L507 160C468 133 419 109 356 109C271 109 229 155 229 250L229 454C229 544 276 591 358 591C415 591 456 573 496 542L580 635C523 683 457 716 351 716C165 716 54 607 54 433L54 253C54 90 162 -16 348 -16Z"/>
<glyph unicode="&#x107;" horiz-adv-x="498" d="M193 599L431 701L376 808L150 684ZM296 -16C368 -16 437 12 484 51L420 144C387 122 356 105 313 105C244 105 210 144 210 245L210 296C210 396 246 434 312 434C354 434 380 422 409 396L487 483C438 531 379 555 301 555C133 555 38 453 38 293L38 246C38 86 134 -16 296 -16Z"/>
<glyph unicode="&#x108;" horiz-adv-x="595" d="M213 740L343 831L474 740L532 815L390 937L297 937L154 815ZM348 -16C445 -16 526 23 576 65L507 160C468 133 419 109 356 109C271 109 229 155 229 250L229 454C229 544 276 591 358 591C415 591 456 573 496 542L580 635C523 683 457 716 351 716C165 716 54 607 54 433L54 253C54 90 162 -16 348 -16Z"/>
<glyph unicode="&#x109;" horiz-adv-x="498" d="M160 597L290 690L421 597L479 672L337 797L244 797L101 672ZM296 -16C368 -16 437 12 484 51L420 144C387 122 356 105 313 105C244 105 210 144 210 245L210 296C210 396 246 434 312 434C354 434 380 422 409 396L487 483C438 531 379 555 301 555C133 555 38 453 38 293L38 246C38 86 134 -16 296 -16Z"/>
<glyph unicode="&#x10a;" horiz-adv-x="595" d="M344 750C399 750 442 792 442 846C442 902 399 943 344 943C288 943 245 902 245 846C245 792 288 750 344 750ZM348 -16C445 -16 526 23 576 65L507 160C468 133 419 109 356 109C271 109 229 155 229 250L229 454C229 544 276 591 358 591C415 591 456 573 496 542L580 635C523 683 457 716 351 716C165 716 54 607 54 433L54 253C54 90 162 -16 348 -16Z"/>
<glyph unicode="&#x10b;" horiz-adv-x="498" d="M291 608C346 608 389 650 389 704C389 760 346 801 291 801C235 801 192 760 192 704C192 650 235 608 291 608ZM296 -16C368 -16 437 12 484 51L420 144C387 122 356 105 313 105C244 105 210 144 210 245L210 296C210 396 246 434 312 434C354 434 380 422 409 396L487 483C438 531 379 555 301 555C133 555 38 453 38 293L38 246C38 86 134 -16 296 -16Z"/>
<glyph unicode="&#x10c;" horiz-adv-x="595" d="M297 740L390 740L532 862L474 937L343 847L213 937L154 862ZM348 -16C445 -16 526 23 576 65L507 160C468 133 419 109 356 109C271 109 229 155 229 250L229 454C229 544 276 591 358 591C415 591 456 573 496 542L580 635C523 683 457 716 351 716C165 716 54 607 54 433L54 253C54 90 162 -16 348 -16Z"/>
<glyph unicode="&#x10d;" horiz-adv-x="498" d="M244 597L337 597L479 722L421 797L290 703L160 797L101 722ZM296 -16C368 -16 437 12 484 51L420 144C387 122 356 105 313 105C244 105 210 144 210 245L210 296C210 396 246 434 312 434C354 434 380 422 409 396L487 483C438 531 379 555 301 555C133 555 38 453 38 293L38 246C38 86 134 -16 296 -16Z"/>
<glyph unicode="&#x10e;" horiz-adv-x="687" d="M365 740L507 862L449 937L318 847L188 937L129 862L272 740ZM339 700L261 700L86 700L86 0L220 0L315 0C523 0 633 112 633 292L633 421C633 588 535 700 339 700ZM458 287C458 176 412 126 319 126L261 126L261 574L334 574C418 574 458 525 458 427Z"/>
<glyph unicode="&#x10f;" horiz-adv-x="746" d="M629 757L604 538L707 522L764 738ZM378 510C347 539 308 555 256 555C135 555 41 452 41 299L41 240C41 82 130 -16 254 -16C320 -16 368 13 403 57L424 0L550 0L550 740L378 740ZM295 105C244 105 213 142 213 237L213 304C213 395 243 434 298 434C331 434 359 420 378 399L378 153C357 123 331 105 295 105Z"/>
<glyph unicode="&#x110;" horiz-adv-x="687" d="M339 700L261 700L86 700L86 397L45 397L45 303L86 303L86 0L220 0L315 0C523 0 633 112 633 292L633 421C633 588 535 700 339 700ZM458 287C458 176 412 126 319 126L261 126L261 303L371 303L371 397L261 397L261 574L334 574C418 574 458 525 458 427Z"/>
<glyph unicode="&#x111;" horiz-adv-x="631" d="M596 685L550 685L550 740L378 740L378 685L275 685L275 591L378 591L378 510C347 539 308 555 256 555C135 555 41 452 41 299L41 240C41 82 130 -16 254 -16C320 -16 368 13 403 57L424 0L550 0L550 591L596 591ZM295 105C244 105 213 142 213 237L213 304C213 395 243 434 298 434C331 434 359 420 378 399L378 153C357 123 331 105 295 105Z"/>
<glyph unicode="&#x112;" horiz-adv-x="578" d="M455 875L153 875L153 770L455 770ZM522 574L522 700L261 700L86 700L86 0L124 0L522 0L522 129L261 129L261 292L501 292L501 417L261 417L261 574Z"/>
<glyph unicode="&#x113;" horiz-adv-x="566" d="M442 740L140 740L140 635L442 635ZM531 285C531 468 449 555 288 555C133 555 38 448 38 295L38 240C38 92 135 -16 306 -16C387 -16 467 13 518 48L465 145C422 122 370 105 320 105C237 105 205 140 205 223L527 223C529 241 531 261 531 285ZM380 319L205 319C206 409 236 446 292 446C352 446 380 409 380 322Z"/>
<glyph unicode="&#x116;" horiz-adv-x="578" d="M304 750C359 750 402 792 402 846C402 902 359 943 304 943C248 943 205 902 205 846C205 792 248 750 304 750ZM522 574L522 700L261 700L86 700L86 0L124 0L522 0L522 129L261 129L261 292L501 292L501 417L261 417L261 574Z"/>
<glyph unicode="&#x117;" horiz-adv-x="566" d="M292 608C347 608 390 650 390 704C390 760 347 801 292 801C236 801 193 760 193 704C193 650 236 608 292 608ZM531 285C531 468 449 555 288 555C133 555 38 448 38 295L38 240C38 92 135 -16 306 -16C387 -16 467 13 518 48L465 145C422 122 370 105 320 105C237 105 205 140 205 223L527 223C529 241 531 261 531 285ZM380 319L205 319C206 409 236 446 292 446C352 446 380 409 380 322Z"/>
<glyph unicode="&#x118;" horiz-adv-x="578" d="M380 -106C380 -71 413 -27 523 0L522 3L522 129L261 129L261 292L501 292L501 417L261 417L261 574L522 574L522 700L261 700L86 700L86 0L124 0L362 0C306 -30 270 -74 270 -128C270 -200 325 -244 408 -244C440 -244 463 -241 484 -236L495 -142C472 -147 453 -149 433 -149C395 -149 380 -134 380 -106Z"/>
<glyph unicode="&#x119;" horiz-adv-x="566" d="M531 285C531 468 449 555 288 555C133 555 38 448 38 295L38 240C38 101 123 -3 275 -15C221 -42 187 -76 187 -128C187 -200 242 -244 325 -244C357 -244 380 -241 401 -236L412 -142C389 -147 370 -149 350 -149C313 -149 298 -134 298 -106C298 -72 327 -36 431 5C464 17 494 32 518 48L465 145C422 122 370 105 320 105C237 105 205 140 205 223L527 223C529 241 531 261 531 285ZM380 319L205 319C206 409 236 446 292 446C352 446 380 409 380 322Z"/>
<glyph unicode="&#x11a;" horiz-adv-x="578" d="M351 740L493 862L435 937L304 847L174 937L115 862L258 740ZM522 574L522 700L261 700L86 700L86 0L124 0L522 0L522 129L261 129L261 292L501 292L501 417L261 417L261 574Z"/>
<glyph unicode="&#x11b;" horiz-adv-x="566" d="M338 597L480 722L422 797L291 703L161 797L102 722L245 597ZM531 285C531 468 449 555 288 555C133 555 38 448 38 295L38 240C38 92 135 -16 306 -16C387 -16 467 13 518 48L465 145C422 122 370 105 320 105C237 105 205 140 205 223L527 223C529 241 531 261 531 285ZM380 319L205 319C206 409 236 446 292 446C352 446 380 409 380 322Z"/>
<glyph unicode="&#x11c;" horiz-adv-x="679" d="M361 831L492 740L550 815L408 937L315 937L172 815L231 740ZM341 400L341 284L458 284L457 162C432 132 394 109 341 109C267 109 229 156 229 232L229 451C229 542 276 591 367 591C431 591 473 566 510 523L619 599C563 676 477 716 358 716C168 716 54 604 54 435L54 234C54 80 165 -16 303 -16C378 -16 438 12 481 50L494 0L624 0L624 400Z"/>
<glyph unicode="&#x11d;" horiz-adv-x="620" d="M301 690L432 597L490 672L348 797L255 797L112 672L171 597ZM418 539L404 491C369 532 321 555 258 555C144 555 41 463 41 301L41 258C41 82 133 0 251 0C308 0 352 24 385 61L385 11C385 -65 345 -97 271 -97C209 -97 164 -84 118 -63L68 -160C123 -194 196 -216 283 -216C435 -216 551 -139 551 21L551 539ZM291 122C243 122 213 151 213 258L213 304C213 405 248 434 296 434C330 434 356 419 378 395L378 163C355 138 326 122 291 122Z"/>
<glyph unicode="&#x11e;" horiz-adv-x="679" d="M361 748C463 748 530 815 547 909L444 925C431 877 406 854 361 854C315 854 291 877 279 925L176 909C192 815 258 748 361 748ZM341 400L341 284L458 284L457 162C432 132 394 109 341 109C267 109 229 156 229 232L229 451C229 542 276 591 367 591C431 591 473 566 510 523L619 599C563 676 477 716 358 716C168 716 54 604 54 435L54 234C54 80 165 -16 303 -16C378 -16 438 12 481 50L494 0L624 0L624 400Z"/>
<glyph unicode="&#x11f;" horiz-adv-x="620" d="M300 617C402 617 469 684 482 778L383 795C370 746 345 723 300 723C254 723 230 746 218 795L119 778C131 684 197 617 300 617ZM418 539L404 491C369 532 321 555 258 555C144 555 41 463 41 301L41 258C41 82 133 0 251 0C308 0 352 24 385 61L385 11C385 -65 345 -97 271 -97C209 -97 164 -84 118 -63L68 -160C123 -194 196 -216 283 -216C435 -216 551 -139 551 21L551 539ZM291 122C243 122 213 151 213 258L213 304C213 405 248 434 296 434C330 434 356 419 378 395L378 163C355 138 326 122 291 122Z"/>
<glyph unicode="&#x120;" horiz-adv-x="679" d="M362 750C417 750 460 792 460 846C460 902 417 943 362 943C306 943 263 902 263 846C263 792 306 750 362 750ZM341 400L341 284L458 284L457 162C432 132 394 109 341 109C267 109 229 156 229 232L229 451C229 542 276 591 367 591C431 591 473 566 510 523L619 599C563 676 477 716 358 716C168 716 54 604 54 435L54 234C54 80 165 -16 303 -16C378 -16 438 12 481 50L494 0L624 0L624 400Z"/>
<glyph unicode="&#x121;" horiz-adv-x="620" d="M301 608C356 608 399 650 399 704C399 760 356 801 301 801C245 801 202 760 202 704C202 650 245 608 301 608ZM418 539L404 491C369 532 321 555 258 555C144 555 41 463 41 301L41 258C41 82 133 0 251 0C308 0 352 24 385 61L385 11C385 -65 345 -97 271 -97C209 -97 164 -84 118 -63L68 -160C123 -194 196 -216 283 -216C435 -216 551 -139 551 21L551 539ZM291 122C243 122 213 151 213 258L213 304C213 405 248 434 296 434C330 434 356 419 378 395L378 163C355 138 326 122 291 122Z"/>
<glyph unicode="&#x122;" horiz-adv-x="679" d="M341 400L341 284L458 284L457 162C432 132 394 109 341 109C267 109 229 156 229 232L229 451C229 542 276 591 367 591C431 591 473 566 510 523L619 599C563 676 477 716 358 716C168 716 54 604 54 435L54 234C54 80 165 -16 303 -16C378 -16 438 12 481 50L494 0L624 0L624 400ZM345 -55C299 -55 265 -91 265 -134C265 -163 280 -185 302 -199C299 -239 288 -272 270 -309L338 -338C395 -260 426 -186 426 -134C426 -89 391 -55 345 -55Z"/>
<glyph unicode="&#x123;" horiz-adv-x="620" d="M300 602C346 602 380 638 380 681C380 710 365 732 343 746C346 786 357 819 375 856L307 885C250 807 219 733 219 681C219 636 254 602 300 602ZM418 539L404 491C369 532 321 555 258 555C144 555 41 463 41 301L41 258C41 82 133 0 251 0C308 0 352 24 385 61L385 11C385 -65 345 -97 271 -97C209 -97 164 -84 118 -63L68 -160C123 -194 196 -216 283 -216C435 -216 551 -139 551 21L551 539ZM291 122C243 122 213 151 213 258L213 304C213 405 248 434 296 434C330 434 356 419 378 395L378 163C355 138 326 122 291 122Z"/>
<glyph unicode="&#x124;" horiz-adv-x="737" d="M238 740L368 831L499 740L557 815L415 937L322 937L179 815ZM651 700L476 700L476 425L261 425L261 700L86 700L86 0L261 0L261 290L476 290L476 0L651 0Z"/>
<glyph unicode="&#x125;" horiz-adv-x="619" d="M285 780L343 855L201 977L108 977L-35 855L24 780L154 871ZM383 555C324 555 278 539 241 501L241 740L69 740L69 0L241 0L241 386C264 417 292 434 325 434C364 434 389 411 389 361L389 0L561 0L561 372C561 490 486 555 383 555Z"/>
<glyph unicode="&#x126;" horiz-adv-x="737" d="M685 595L651 595L651 700L476 700L476 595L261 595L261 700L86 700L86 595L51 595L51 501L86 501L86 0L261 0L261 290L476 290L476 0L651 0L651 501L685 501ZM476 425L261 425L261 501L476 501Z"/>
<glyph unicode="&#x127;" horiz-adv-x="617" d="M381 555C322 555 276 539 239 501L239 591L345 591L345 685L239 685L239 740L67 740L67 685L24 685L24 591L67 591L67 0L239 0L239 386C262 417 289 434 322 434C361 434 386 411 386 361L386 0L558 0L558 372C558 490 484 555 381 555Z"/>
<glyph unicode="&#x128;" horiz-adv-x="453" d="M171 792C203 792 228 746 285 746C346 746 398 795 425 858L335 899C319 870 306 855 282 855C250 855 225 901 168 901C107 901 55 852 28 790L118 748C134 777 147 792 171 792ZM404 700L50 700L50 575L139 575L139 126L50 126L50 0L139 0L404 0L404 126L314 126L314 575L404 575Z"/>
<glyph unicode="&#x129;" horiz-adv-x="332" d="M281 773C265 744 252 729 228 729C196 729 171 775 114 775C53 775 1 726 -26 664L64 622C80 651 93 666 117 666C149 666 174 620 231 620C292 620 344 669 371 732ZM20 539L20 418L91 418L91 0L263 0L263 539Z"/>
<glyph unicode="&#x12a;" horiz-adv-x="453" d="M377 875L75 875L75 770L377 770ZM404 575L404 700L314 700L50 700L50 575L139 575L139 126L50 126L50 0L139 0L404 0L404 126L314 126L314 575Z"/>
<glyph unicode="&#x12b;" horiz-adv-x="332" d="M21 740L21 635L323 635L323 740ZM20 539L20 418L91 418L91 0L263 0L263 539Z"/>
<glyph unicode="&#x12e;" horiz-adv-x="453" d="M404 575L404 700L314 700L50 700L50 575L139 575L139 126L50 126L50 0L157 0C101 -30 65 -74 65 -128C65 -200 120 -244 203 -244C235 -244 258 -241 279 -236L290 -142C267 -147 248 -149 228 -149C190 -149 175 -134 175 -106C175 -71 208 -27 318 0L404 0L404 126L314 126L314 575Z"/>
<glyph unicode="&#x12f;" horiz-adv-x="332" d="M173 608C228 608 271 650 271 704C271 760 228 801 173 801C117 801 74 760 74 704C74 650 117 608 173 608ZM20 539L20 418L91 418L91 5C28 -25 -12 -71 -12 -128C-12 -200 43 -244 126 -244C158 -244 181 -241 202 -236L213 -142C190 -147 171 -149 151 -149C113 -149 98 -134 98 -106C98 -71 131 -27 241 0L263 0L263 539Z"/>
<glyph unicode="&#x130;" horiz-adv-x="453" d="M227 750C282 750 325 792 325 846C325 902 282 943 227 943C171 943 128 902 128 846C128 792 171 750 227 750ZM404 575L404 700L314 700L50 700L50 575L139 575L139 126L50 126L50 0L139 0L404 0L404 126L314 126L314 575Z"/>
<glyph unicode="&#x131;" horiz-adv-x="332" d="M263 539L20 539L20 418L91 418L91 0L263 0Z"/>
<glyph unicode="&#x132;" horiz-adv-x="1000" d="M404 700L50 700L50 575L139 575L139 126L50 126L50 0L139 0L404 0L404 126L314 126L314 575L404 575ZM931 700L500 700L500 575L756 575L756 214C756 142 711 109 655 109C605 109 570 128 537 156L456 64C504 16 572 -16 672 -16C833 -16 931 87 931 224Z"/>
<glyph unicode="&#x133;" horiz-adv-x="665" d="M173 801C117 801 74 760 74 704C74 650 117 608 173 608C228 608 271 650 271 704C271 760 228 801 173 801ZM508 608C563 608 606 650 606 704C606 760 563 801 508 801C452 801 409 760 409 704C409 650 452 608 508 608ZM364 418L424 418L424 -55C424 -89 414 -100 384 -100C374 -100 364 -99 355 -98L345 -200C362 -209 391 -216 427 -216C523 -216 596 -162 596 -49L596 539L364 539ZM20 539L20 418L91 418L91 0L263 0L263 539Z"/>
<glyph unicode="&#x134;" horiz-adv-x="567" d="M285 831L416 740L474 815L332 937L239 937L96 815L155 740ZM498 700L67 700L67 575L323 575L323 214C323 142 278 109 222 109C172 109 137 128 104 156L23 64C71 16 139 -16 239 -16C400 -16 498 87 498 224Z"/>
<glyph unicode="&#x135;" horiz-adv-x="333" d="M45 597L175 690L306 597L364 672L222 797L129 797L-14 672ZM264 539L32 539L32 418L92 418L92 -55C92 -89 82 -100 52 -100C42 -100 32 -99 23 -98L13 -200C30 -209 59 -216 95 -216C191 -216 264 -162 264 -49Z"/>
<glyph unicode="&#x136;" horiz-adv-x="672" d="M400 387L641 700L462 700L251 422L251 700L86 700L86 0L251 0L251 223L289 271L477 0L673 0ZM351 -55C305 -55 271 -91 271 -134C271 -163 286 -185 308 -199C305 -239 294 -272 276 -309L344 -338C401 -260 432 -186 432 -134C432 -89 397 -55 351 -55Z"/>
<glyph unicode="&#x137;" horiz-adv-x="588" d="M393 315L569 539L394 539L241 349L241 740L69 740L69 0L241 0L241 182L269 217L408 0L594 0ZM324 -55C278 -55 244 -91 244 -134C244 -163 259 -185 281 -199C278 -239 267 -272 249 -309L317 -338C374 -260 405 -186 405 -134C405 -89 370 -55 324 -55Z"/>
<glyph unicode="&#x138;" horiz-adv-x="588" d="M405 0L594 0L393 315L569 539L394 539L241 349L241 539L69 539L69 0L241 0L241 182L268 215Z"/>
<glyph unicode="&#x139;" horiz-adv-x="533" d="M260 942L30 827L71 740L310 834ZM261 133L261 700L86 700L86 0L96 0L524 0L524 133Z"/>
<glyph unicode="&#x13a;" horiz-adv-x="319" d="M43 780L282 874L232 982L2 867ZM231 740L59 740L59 129C59 30 123 -16 211 -16C246 -16 275 -9 295 0L282 111C275 110 270 109 265 109C240 109 231 121 231 149Z"/>
<glyph unicode="&#x13b;" horiz-adv-x="533" d="M261 133L261 700L86 700L86 0L96 0L524 0L524 133ZM297 -55C251 -55 217 -91 217 -134C217 -163 232 -185 254 -199C251 -239 240 -272 222 -309L290 -338C347 -260 378 -186 378 -134C378 -89 343 -55 297 -55Z"/>
<glyph unicode="&#x13c;" horiz-adv-x="319" d="M231 740L59 740L59 129C59 30 123 -16 211 -16C246 -16 275 -9 295 0L282 111C275 110 270 109 265 109C240 109 231 121 231 149ZM183 -338C240 -260 271 -186 271 -134C271 -89 236 -55 190 -55C144 -55 110 -91 110 -134C110 -163 125 -185 147 -199C144 -239 133 -272 115 -309Z"/>
<glyph unicode="&#x13d;" horiz-adv-x="553" d="M501 698L366 717L341 498L444 482ZM261 133L261 700L86 700L86 0L96 0L524 0L524 133Z"/>
<glyph unicode="&#x13e;" horiz-adv-x="426" d="M387 522L444 738L309 757L284 538ZM231 740L59 740L59 129C59 30 123 -16 211 -16C246 -16 275 -9 295 0L282 111C275 110 270 109 265 109C240 109 231 121 231 149Z"/>
<glyph unicode="&#x13f;" horiz-adv-x="537" d="M261 700L86 700L86 0L96 0L524 0L524 133L261 133ZM445 320C491 320 526 356 526 402C526 447 491 483 445 483C399 483 364 447 364 402C364 356 399 320 445 320Z"/>
<glyph unicode="&#x140;" horiz-adv-x="401" d="M231 740L59 740L59 129C59 30 123 -16 211 -16C246 -16 275 -9 295 0L282 111C275 110 270 109 265 109C240 109 231 121 231 149ZM345 320C391 320 426 356 426 402C426 447 391 483 345 483C299 483 264 447 264 402C264 356 299 320 345 320Z"/>
<glyph unicode="&#x141;" horiz-adv-x="543" d="M271 133L271 350L400 387L372 492L271 463L271 700L96 700L96 412L26 392L53 287L96 299L96 0L106 0L534 0L534 133Z"/>
<glyph unicode="&#x142;" horiz-adv-x="330" d="M275 109C250 109 241 121 241 149L241 368L316 386L292 494L241 481L241 740L69 740L69 439L-2 422L22 314L69 326L69 129C69 30 133 -16 221 -16C256 -16 285 -9 305 0L292 111C285 110 280 109 275 109Z"/>
<glyph unicode="&#x143;" horiz-adv-x="737" d="M518 834L468 942L238 827L279 740ZM503 700L503 266L291 700L86 700L86 0L235 0L235 483L463 0L652 0L652 700Z"/>
<glyph unicode="&#x144;" horiz-adv-x="618" d="M450 701L395 808L169 684L212 599ZM383 555C316 555 267 534 227 490L218 539L69 539L69 0L241 0L241 386C265 417 292 434 325 434C364 434 387 411 387 360L387 0L559 0L559 372C559 490 486 555 383 555Z"/>
<glyph unicode="&#x145;" horiz-adv-x="737" d="M503 700L503 266L291 700L86 700L86 0L235 0L235 483L463 0L652 0L652 700ZM364 -55C318 -55 284 -91 284 -134C284 -163 299 -185 321 -199C318 -239 307 -272 289 -309L357 -338C414 -260 445 -186 445 -134C445 -89 410 -55 364 -55Z"/>
<glyph unicode="&#x146;" horiz-adv-x="618" d="M383 555C316 555 267 534 227 490L218 539L69 539L69 0L241 0L241 386C265 417 292 434 325 434C364 434 387 411 387 360L387 0L559 0L559 372C559 490 486 555 383 555ZM310 -55C264 -55 230 -91 230 -134C230 -163 245 -185 267 -199C264 -239 253 -272 235 -309L303 -338C360 -260 391 -186 391 -134C391 -89 356 -55 310 -55Z"/>
<glyph unicode="&#x147;" horiz-adv-x="737" d="M428 740L570 862L512 937L381 847L251 937L192 862L335 740ZM503 700L503 266L291 700L86 700L86 0L235 0L235 483L463 0L652 0L652 700Z"/>
<glyph unicode="&#x148;" horiz-adv-x="618" d="M356 597L498 722L440 797L309 703L179 797L120 722L263 597ZM383 555C316 555 267 534 227 490L218 539L69 539L69 0L241 0L241 386C265 417 292 434 325 434C364 434 387 411 387 360L387 0L559 0L559 372C559 490 486 555 383 555Z"/>
<glyph unicode="&#x14a;" horiz-adv-x="737" d="M503 700L503 266L291 700L86 700L86 0L235 0L235 483L463 0L495 0L495 -55C495 -89 476 -100 446 -100C434 -100 420 -99 410 -98L401 -200C418 -209 446 -216 482 -216C585 -216 652 -155 652 -42L652 0L652 700Z"/>
<glyph unicode="&#x14b;" horiz-adv-x="618" d="M383 555C316 555 267 534 227 490L218 539L69 539L69 0L241 0L241 386C265 417 292 434 325 434C364 434 387 411 387 360L387 214L387 -55C387 -89 377 -100 347 -100C338 -100 327 -99 318 -98L308 -200C326 -209 354 -216 390 -216C486 -216 559 -162 559 -49L559 0L559 372C559 490 486 555 383 555Z"/>
<glyph unicode="&#x14c;" horiz-adv-x="713" d="M205 770L507 770L507 875L205 875ZM356 716C160 716 54 600 54 430L54 269C54 100 161 -16 356 -16C555 -16 659 100 659 269L659 430C659 600 555 716 356 716ZM356 591C440 591 483 536 483 431L483 270C483 164 440 109 356 109C272 109 229 164 229 270L229 431C229 536 272 591 356 591Z"/>
<glyph unicode="&#x14d;" horiz-adv-x="607" d="M152 635L454 635L454 740L152 740ZM303 555C131 555 38 452 38 296L38 244C38 87 131 -16 303 -16C475 -16 569 87 569 244L569 296C569 452 475 555 303 555ZM303 434C366 434 397 395 397 298L397 244C397 144 366 105 303 105C240 105 210 144 210 244L210 298C210 395 240 434 303 434Z"/>
<glyph unicode="&#x150;" horiz-adv-x="713" d="M299 740L400 921L296 967L210 775ZM467 735L576 918L474 967L379 774ZM356 716C160 716 54 600 54 430L54 269C54 100 161 -16 356 -16C555 -16 659 100 659 269L659 430C659 600 555 716 356 716ZM356 591C440 591 483 536 483 431L483 270C483 164 440 109 356 109C272 109 229 164 229 270L229 431C229 536 272 591 356 591Z"/>
<glyph unicode="&#x151;" horiz-adv-x="607" d="M246 614L347 795L243 841L157 649ZM414 609L523 792L421 841L326 648ZM303 555C131 555 38 452 38 296L38 244C38 87 131 -16 303 -16C475 -16 569 87 569 244L569 296C569 452 475 555 303 555ZM303 434C366 434 397 395 397 298L397 244C397 144 366 105 303 105C240 105 210 144 210 244L210 298C210 395 240 434 303 434Z"/>
<glyph unicode="&#x152;" horiz-adv-x="979" d="M923 700L475 700C441 711 402 716 358 716C161 716 54 600 54 430L54 269C54 100 162 -16 358 -16C402 -16 441 -11 475 0L923 0L923 129L623 129C641 169 650 217 650 269L650 292L901 292L901 417L650 417L650 430C650 484 641 533 621 574L923 574ZM229 270L229 431C229 535 272 591 358 591C441 591 485 535 485 431L485 270C485 164 442 109 358 109C272 109 229 164 229 270Z"/>
<glyph unicode="&#x153;" horiz-adv-x="918" d="M883 285C883 464 796 555 651 555C569 555 516 517 480 466C443 518 386 555 297 555C131 555 38 452 38 296L38 244C38 87 131 -16 297 -16C387 -16 444 22 481 74C519 23 576 -16 664 -16C740 -16 820 13 871 48L818 145C775 122 735 105 676 105C599 105 558 140 558 223L878 223C881 241 883 261 883 285ZM733 319L558 319C559 411 587 447 645 447C703 447 733 410 733 322ZM396 244C396 146 365 106 303 106C241 106 211 146 211 244L211 298C211 395 241 434 303 434C365 434 396 395 396 298Z"/>
<glyph unicode="&#x154;" horiz-adv-x="666" d="M462 834L412 942L182 827L223 740ZM456 0L645 0L490 295C561 328 606 382 606 454L606 511C606 628 503 700 351 700L261 700L86 700L86 0L261 0L261 261L327 261ZM261 583L339 583C394 583 431 556 431 500L431 456C431 406 395 378 338 378L261 378Z"/>
<glyph unicode="&#x155;" horiz-adv-x="436" d="M387 701L332 808L106 684L149 599ZM366 553C306 553 243 519 213 450L185 539L69 539L69 0L241 0L241 300C272 370 318 392 366 392C381 392 392 390 402 388L431 543C412 550 394 553 366 553Z"/>
<glyph unicode="&#x156;" horiz-adv-x="666" d="M490 295C561 328 606 382 606 454L606 511C606 628 503 700 351 700L261 700L86 700L86 0L261 0L261 261L327 261L456 0L645 0ZM261 583L339 583C394 583 431 556 431 500L431 456C431 406 395 378 338 378L261 378ZM355 -55C309 -55 275 -91 275 -134C275 -163 290 -185 312 -199C309 -239 298 -272 280 -309L348 -338C405 -260 436 -186 436 -134C436 -89 401 -55 355 -55Z"/>
<glyph unicode="&#x157;" horiz-adv-x="436" d="M366 553C306 553 243 519 213 450L185 539L69 539L69 0L241 0L241 300C272 370 318 392 366 392C381 392 392 390 402 388L431 543C412 550 394 553 366 553ZM156 -55C110 -55 76 -91 76 -134C76 -163 91 -185 113 -199C110 -239 99 -272 81 -309L149 -338C206 -260 237 -186 237 -134C237 -89 202 -55 156 -55Z"/>
<glyph unicode="&#x158;" horiz-adv-x="666" d="M371 740L513 862L455 937L324 847L194 937L135 862L278 740ZM456 0L645 0L490 295C561 328 606 382 606 454L606 511C606 628 503 700 351 700L261 700L86 700L86 0L261 0L261 261L327 261ZM261 583L339 583C394 583 431 556 431 500L431 456C431 406 395 378 338 378L261 378Z"/>
<glyph unicode="&#x159;" horiz-adv-x="436" d="M293 597L435 722L377 797L246 703L116 797L57 722L200 597ZM213 450L185 539L69 539L69 0L241 0L241 300C272 370 318 392 366 392C381 392 392 390 402 388L431 543C412 550 394 553 366 553C306 553 243 519 213 450Z"/>
<glyph unicode="&#x15a;" horiz-adv-x="615" d="M203 740L442 834L392 942L162 827ZM299 -16C454 -16 577 62 577 191L577 221C577 324 508 382 414 414L319 446C243 471 219 490 219 519L219 532C219 565 256 594 325 594C382 594 426 579 489 533L568 624C505 679 423 716 310 716C148 716 45 637 45 526L45 500C45 419 99 358 217 319L312 287C386 262 405 241 405 202L405 190C405 148 364 111 282 111C197 111 154 135 94 176L15 80C74 26 162 -16 299 -16Z"/>
<glyph unicode="&#x15b;" horiz-adv-x="516" d="M165 599L403 701L348 808L122 684ZM249 -16C378 -16 483 36 483 144L483 170C483 246 435 286 357 314L292 337C228 360 214 372 214 393L214 401C214 422 234 439 278 439C323 439 356 430 405 399L476 484C425 527 348 555 268 555C136 555 45 493 45 399L45 374C45 304 87 264 170 234L234 211C297 190 312 177 312 151L312 143C312 116 285 101 233 101C181 101 138 116 90 150L16 64C70 12 154 -16 249 -16Z"/>
<glyph unicode="&#x15c;" horiz-adv-x="615" d="M174 740L304 831L435 740L493 815L351 937L258 937L115 815ZM299 -16C454 -16 577 62 577 191L577 221C577 324 508 382 414 414L319 446C243 471 219 490 219 519L219 532C219 565 256 594 325 594C382 594 426 579 489 533L568 624C505 679 423 716 310 716C148 716 45 637 45 526L45 500C45 419 99 358 217 319L312 287C386 262 405 241 405 202L405 190C405 148 364 111 282 111C197 111 154 135 94 176L15 80C74 26 162 -16 299 -16Z"/>
<glyph unicode="&#x15d;" horiz-adv-x="516" d="M132 597L262 690L393 597L451 672L309 797L216 797L73 672ZM249 -16C378 -16 483 36 483 144L483 170C483 246 435 286 357 314L292 337C228 360 214 372 214 393L214 401C214 422 234 439 278 439C323 439 356 430 405 399L476 484C425 527 348 555 268 555C136 555 45 493 45 399L45 374C45 304 87 264 170 234L234 211C297 190 312 177 312 151L312 143C312 116 285 101 233 101C181 101 138 116 90 150L16 64C70 12 154 -16 249 -16Z"/>
<glyph unicode="&#x15e;" horiz-adv-x="615" d="M414 414L319 446C243 471 219 490 219 519L219 532C219 565 256 594 325 594C382 594 426 579 489 533L568 624C505 679 423 716 310 716C148 716 45 637 45 526L45 500C45 419 99 358 217 319L312 287C386 262 405 241 405 202L405 190C405 148 364 111 282 111C197 111 154 135 94 176L15 80C67 33 142 -6 253 -15L246 -108C311 -108 338 -115 338 -137L338 -145C338 -165 321 -171 291 -171C270 -171 250 -169 227 -164L207 -238C239 -250 270 -255 306 -255C384 -255 451 -222 451 -153L451 -134C451 -79 417 -51 346 -44L346 -14C478 0 577 76 577 191L577 221C577 324 508 382 414 414Z"/>
<glyph unicode="&#x15f;" horiz-adv-x="516" d="M357 314L292 337C228 360 214 372 214 393L214 401C214 422 234 439 278 439C323 439 356 430 405 399L476 484C425 527 348 555 268 555C136 555 45 493 45 399L45 374C45 304 87 264 170 234L234 211C297 190 312 177 312 151L312 143C312 116 285 101 233 101C181 101 138 116 90 150L16 64C63 19 132 -8 212 -15L205 -108C270 -108 297 -115 297 -137L297 -145C297 -165 280 -171 250 -171C229 -171 209 -169 186 -164L166 -238C198 -250 229 -255 265 -255C343 -255 410 -222 410 -153L410 -134C410 -79 376 -51 305 -44L305 -13C407 0 483 52 483 144L483 170C483 246 435 286 357 314Z"/>
<glyph unicode="&#x160;" horiz-adv-x="615" d="M258 740L351 740L493 862L435 937L304 847L174 937L115 862ZM299 -16C454 -16 577 62 577 191L577 221C577 324 508 382 414 414L319 446C243 471 219 490 219 519L219 532C219 565 256 594 325 594C382 594 426 579 489 533L568 624C505 679 423 716 310 716C148 716 45 637 45 526L45 500C45 419 99 358 217 319L312 287C386 262 405 241 405 202L405 190C405 148 364 111 282 111C197 111 154 135 94 176L15 80C74 26 162 -16 299 -16Z"/>
<glyph unicode="&#x161;" horiz-adv-x="516" d="M216 597L309 597L451 722L393 797L262 703L132 797L73 722ZM249 -16C378 -16 483 36 483 144L483 170C483 246 435 286 357 314L292 337C228 360 214 372 214 393L214 401C214 422 234 439 278 439C323 439 356 430 405 399L476 484C425 527 348 555 268 555C136 555 45 493 45 399L45 374C45 304 87 264 170 234L234 211C297 190 312 177 312 151L312 143C312 116 285 101 233 101C181 101 138 116 90 150L16 64C70 12 154 -16 249 -16Z"/>
<glyph unicode="&#x162;" horiz-adv-x="558" d="M367 0L367 574L550 574L550 700L367 700L7 700L7 574L192 574L192 0L235 0L227 -108C292 -108 319 -115 319 -137L319 -145C319 -165 302 -171 272 -171C251 -171 231 -169 208 -164L188 -238C220 -250 251 -255 287 -255C365 -255 432 -222 432 -153L432 -134C432 -79 398 -51 327 -44L327 0Z"/>
<glyph unicode="&#x163;" horiz-adv-x="408" d="M296 -44L296 -16C329 -14 361 -8 386 0L371 115C354 112 338 110 320 110C281 110 261 127 261 164L261 418L371 418L371 539L261 539L261 671L106 671L94 539L16 539L16 418L89 418L89 153C89 61 131 10 203 -9L196 -108C261 -108 288 -115 288 -137L288 -145C288 -165 271 -171 241 -171C220 -171 200 -169 177 -164L157 -238C189 -250 220 -255 256 -255C334 -255 401 -222 401 -153L401 -134C401 -79 367 -51 296 -44Z"/>
<glyph unicode="&#x164;" horiz-adv-x="558" d="M326 740L468 862L410 937L279 847L149 937L90 862L233 740ZM550 700L367 700L7 700L7 574L192 574L192 0L367 0L367 574L550 574Z"/>
<glyph unicode="&#x165;" horiz-adv-x="402" d="M420 740L308 756L293 586L373 576ZM320 110C281 110 261 127 261 164L261 418L371 418L371 539L261 539L261 671L106 671L94 539L16 539L16 418L89 418L89 153C89 35 159 -16 272 -16C312 -16 355 -9 386 0L371 115C354 112 338 110 320 110Z"/>
<glyph unicode="&#x166;" horiz-adv-x="558" d="M550 574L550 700L367 700L7 700L7 574L192 574L192 437L116 437L116 343L192 343L192 0L367 0L367 343L442 343L442 437L367 437L367 574Z"/>
<glyph unicode="&#x167;" horiz-adv-x="416" d="M374 115C357 112 341 110 324 110C284 110 265 127 265 164L265 246L360 246L360 340L265 340L265 418L375 418L375 539L265 539L265 671L110 671L98 539L19 539L19 418L93 418L93 340L19 340L19 246L93 246L93 153C93 35 163 -16 276 -16C316 -16 359 -9 389 0Z"/>
<glyph unicode="&#x168;" horiz-adv-x="708" d="M412 746C473 746 525 795 552 858L462 899C446 870 433 855 409 855C377 855 352 901 295 901C234 901 182 852 155 790L245 748C261 777 274 792 298 792C330 792 355 746 412 746ZM639 700L464 700L464 228C464 155 432 109 354 109C276 109 243 155 243 228L243 700L68 700L68 227C68 87 165 -16 354 -16C546 -16 639 87 639 227Z"/>
<glyph unicode="&#x169;" horiz-adv-x="614" d="M252 666C284 666 309 620 366 620C427 620 479 669 506 732L416 773C400 744 387 729 363 729C331 729 306 775 249 775C188 775 136 726 109 664L199 622C215 651 228 666 252 666ZM373 539L373 153C349 122 318 105 286 105C249 105 231 124 231 162L231 539L59 539L59 151C59 47 134 -16 230 -16C293 -16 347 9 389 52L401 0L545 0L545 539Z"/>
<glyph unicode="&#x16a;" horiz-adv-x="708" d="M203 770L505 770L505 875L203 875ZM639 700L464 700L464 228C464 155 432 109 354 109C276 109 243 155 243 228L243 700L68 700L68 227C68 87 165 -16 354 -16C546 -16 639 87 639 227Z"/>
<glyph unicode="&#x16b;" horiz-adv-x="614" d="M458 740L156 740L156 635L458 635ZM373 539L373 153C349 122 318 105 286 105C249 105 231 124 231 162L231 539L59 539L59 151C59 47 134 -16 230 -16C293 -16 347 9 389 52L401 0L545 0L545 539Z"/>
<glyph unicode="&#x16c;" horiz-adv-x="708" d="M354 748C456 748 523 815 540 909L437 925C424 877 399 854 354 854C308 854 284 877 272 925L169 909C185 815 251 748 354 748ZM639 700L464 700L464 228C464 155 432 109 354 109C276 109 243 155 243 228L243 700L68 700L68 227C68 87 165 -16 354 -16C546 -16 639 87 639 227Z"/>
<glyph unicode="&#x16d;" horiz-adv-x="614" d="M307 617C409 617 476 684 489 778L390 795C377 746 352 723 307 723C261 723 237 746 225 795L126 778C138 684 204 617 307 617ZM373 539L373 153C349 122 318 105 286 105C249 105 231 124 231 162L231 539L59 539L59 151C59 47 134 -16 230 -16C293 -16 347 9 389 52L401 0L545 0L545 539Z"/>
<glyph unicode="&#x16e;" horiz-adv-x="708" d="M355 719C442 719 498 775 498 844L498 866C498 935 442 992 355 992C268 992 210 935 210 866L210 844C210 775 268 719 355 719ZM354 800C328 800 308 816 308 847L308 863C308 894 328 911 354 911C381 911 401 894 401 863L401 847C401 816 381 800 354 800ZM639 700L464 700L464 228C464 155 432 109 354 109C276 109 243 155 243 228L243 700L68 700L68 227C68 87 165 -16 354 -16C546 -16 639 87 639 227Z"/>
<glyph unicode="&#x16f;" horiz-adv-x="614" d="M308 593C395 593 451 649 451 718L451 740C451 809 395 866 308 866C221 866 163 809 163 740L163 718C163 649 221 593 308 593ZM261 737C261 768 281 785 307 785C334 785 354 768 354 737L354 721C354 690 334 674 307 674C281 674 261 690 261 721ZM373 539L373 153C349 122 318 105 286 105C249 105 231 124 231 162L231 539L59 539L59 151C59 47 134 -16 230 -16C293 -16 347 9 389 52L401 0L545 0L545 539Z"/>
<glyph unicode="&#x170;" horiz-adv-x="708" d="M296 740L397 921L293 967L207 775ZM464 735L573 918L471 967L376 774ZM639 700L464 700L464 228C464 155 432 109 354 109C276 109 243 155 243 228L243 700L68 700L68 227C68 87 165 -16 354 -16C546 -16 639 87 639 227Z"/>
<glyph unicode="&#x171;" horiz-adv-x="614" d="M351 795L247 841L161 649L250 614ZM418 609L527 792L425 841L330 648ZM373 539L373 153C349 122 318 105 286 105C249 105 231 124 231 162L231 539L59 539L59 151C59 47 134 -16 230 -16C293 -16 347 9 389 52L401 0L545 0L545 539Z"/>
<glyph unicode="&#x172;" horiz-adv-x="713" d="M464 700L464 228C464 155 432 109 354 109C276 109 243 155 243 228L243 700L68 700L68 227C68 92 158 -8 332 -16C279 -42 246 -77 246 -128C246 -200 301 -244 384 -244C416 -244 439 -241 460 -236L471 -142C448 -147 429 -149 409 -149C371 -149 356 -134 356 -106C356 -73 383 -37 479 2C587 37 639 121 639 227L639 700Z"/>
<glyph unicode="&#x173;" horiz-adv-x="614" d="M402 -106C402 -71 435 -27 545 0L545 539L373 539L373 153C349 122 318 105 286 105C249 105 231 124 231 162L231 539L59 539L59 151C59 47 134 -16 230 -16C293 -16 347 9 389 52L399 8C334 -23 292 -70 292 -128C292 -200 347 -244 430 -244C462 -244 485 -241 506 -236L517 -142C494 -147 475 -149 455 -149C417 -149 402 -134 402 -106Z"/>
<glyph unicode="&#x174;" horiz-adv-x="912" d="M461 831L592 740L650 815L508 937L415 937L272 815L331 740ZM728 700L662 154L569 700L353 700L353 699L259 154L192 700L18 700L131 0L369 0L459 548L546 0L783 0L890 700Z"/>
<glyph unicode="&#x175;" horiz-adv-x="800" d="M400 690L531 597L589 672L447 797L354 797L211 672L270 597ZM622 539L568 147L484 539L325 539L242 147L186 539L15 539L135 0L320 0L401 377L481 0L667 0L785 539Z"/>
<glyph unicode="&#x176;" horiz-adv-x="606" d="M304 831L435 740L493 815L351 937L258 937L115 815L174 740ZM611 700L434 700L307 405L179 700L-5 700L216 278L216 0L391 0L391 279Z"/>
<glyph unicode="&#x177;" horiz-adv-x="550" d="M145 597L275 690L406 597L464 672L322 797L229 797L86 672ZM169 -216C279 -216 342 -168 377 -40L543 539L373 539L283 125L184 539L8 539L176 0L247 0L236 -40C224 -87 198 -102 150 -102C128 -102 111 -100 86 -94L67 -200C91 -209 129 -216 169 -216Z"/>
<glyph unicode="&#x178;" horiz-adv-x="606" d="M179 771C226 771 262 808 262 853C262 899 226 935 179 935C133 935 95 899 95 853C95 808 133 771 179 771ZM428 771C475 771 512 808 512 853C512 899 475 935 428 935C382 935 344 899 344 853C344 808 382 771 428 771ZM611 700L434 700L307 405L179 700L-5 700L216 278L216 0L391 0L391 279Z"/>
<glyph unicode="&#x179;" horiz-adv-x="585" d="M201 740L440 834L390 942L160 827ZM545 700L50 700L50 573L359 573L36 130L36 0L554 0L554 135L225 135L545 578Z"/>
<glyph unicode="&#x17a;" horiz-adv-x="484" d="M144 599L382 701L327 808L101 684ZM449 539L41 539L41 417L272 417L30 119L30 0L458 0L458 124L208 124L449 423Z"/>
<glyph unicode="&#x17b;" horiz-adv-x="585" d="M303 750C358 750 401 792 401 846C401 902 358 943 303 943C247 943 204 902 204 846C204 792 247 750 303 750ZM545 700L50 700L50 573L359 573L36 130L36 0L554 0L554 135L225 135L545 578Z"/>
<glyph unicode="&#x17c;" horiz-adv-x="484" d="M242 608C297 608 340 650 340 704C340 760 297 801 242 801C186 801 143 760 143 704C143 650 186 608 242 608ZM449 539L41 539L41 417L272 417L30 119L30 0L458 0L458 124L208 124L449 423Z"/>
<glyph unicode="&#x17d;" horiz-adv-x="585" d="M256 740L349 740L491 862L433 937L302 847L172 937L113 862ZM545 700L50 700L50 573L359 573L36 130L36 0L554 0L554 135L225 135L545 578Z"/>
<glyph unicode="&#x17e;" horiz-adv-x="484" d="M196 597L289 597L431 722L373 797L242 703L112 797L53 722ZM449 539L41 539L41 417L272 417L30 119L30 0L458 0L458 124L208 124L449 423Z"/>
<glyph unicode="&#x192;" horiz-adv-x="416" d="M326 638C350 638 371 634 394 628L411 740C379 749 338 756 292 756C163 756 92 702 92 565L92 539L29 539L29 418L92 418L92 -60C92 -89 82 -100 52 -100C42 -100 32 -99 23 -98L13 -202C30 -209 59 -216 95 -216C191 -216 264 -162 264 -55L264 418L383 418L383 539L264 539L264 581C264 621 282 638 326 638Z"/>
<glyph unicode="&#x218;" horiz-adv-x="615" d="M299 -16C454 -16 577 62 577 191L577 221C577 324 508 382 414 414L319 446C243 471 219 490 219 519L219 532C219 565 256 594 325 594C382 594 426 579 489 533L568 624C505 679 423 716 310 716C148 716 45 637 45 526L45 500C45 419 99 358 217 319L312 287C386 262 405 241 405 202L405 190C405 148 364 111 282 111C197 111 154 135 94 176L15 80C74 26 162 -16 299 -16ZM291 -338C348 -260 379 -186 379 -134C379 -89 344 -55 298 -55C252 -55 218 -91 218 -134C218 -163 233 -185 255 -199C252 -239 241 -272 223 -309Z"/>
<glyph unicode="&#x219;" horiz-adv-x="516" d="M249 -16C378 -16 483 36 483 144L483 170C483 246 435 286 357 314L292 337C228 360 214 372 214 393L214 401C214 422 234 439 278 439C323 439 356 430 405 399L476 484C425 527 348 555 268 555C136 555 45 493 45 399L45 374C45 304 87 264 170 234L234 211C297 190 312 177 312 151L312 143C312 116 285 101 233 101C181 101 138 116 90 150L16 64C70 12 154 -16 249 -16ZM250 -338C307 -260 338 -186 338 -134C338 -89 303 -55 257 -55C211 -55 177 -91 177 -134C177 -163 192 -185 214 -199C211 -239 200 -272 182 -309Z"/>
<glyph unicode="&#x21a;" horiz-adv-x="558" d="M550 700L367 700L7 700L7 574L192 574L192 0L367 0L367 574L550 574ZM280 -55C234 -55 200 -91 200 -134C200 -163 215 -185 237 -199C234 -239 223 -272 205 -309L273 -338C330 -260 361 -186 361 -134C361 -89 326 -55 280 -55Z"/>
<glyph unicode="&#x21b;" horiz-adv-x="408" d="M386 0L371 115C354 112 338 110 320 110C281 110 261 127 261 164L261 418L371 418L371 539L261 539L261 671L106 671L94 539L16 539L16 418L89 418L89 153C89 35 159 -16 272 -16C312 -16 355 -9 386 0ZM248 -55C202 -55 168 -91 168 -134C168 -163 183 -185 205 -199C202 -239 191 -272 173 -309L241 -338C298 -260 329 -186 329 -134C329 -89 294 -55 248 -55Z"/>
<glyph unicode="&#x21e;" horiz-adv-x="737" d="M322 740L415 740L557 862L499 937L368 847L238 937L179 862ZM651 700L476 700L476 425L261 425L261 700L86 700L86 0L261 0L261 290L476 290L476 0L651 0Z"/>
<glyph unicode="&#x21f;" horiz-adv-x="619" d="M201 780L343 902L285 977L154 887L24 977L-35 902L108 780ZM383 555C324 555 278 539 241 501L241 740L69 740L69 0L241 0L241 386C264 417 292 434 325 434C364 434 389 411 389 361L389 0L561 0L561 372C561 490 486 555 383 555Z"/>
<glyph unicode="&#x237;" horiz-adv-x="333" d="M264 539L32 539L32 418L92 418L92 -55C92 -89 82 -100 52 -100C42 -100 32 -99 23 -98L13 -200C30 -209 59 -216 95 -216C191 -216 264 -162 264 -49Z"/>
<glyph unicode="&#x2c6;" horiz-adv-x="400" d="M70 597L200 690L331 597L389 672L247 797L154 797L11 672Z"/>
<glyph unicode="&#x2c7;" horiz-adv-x="400" d="M154 597L247 597L389 722L331 797L200 703L70 797L11 722Z"/>
<glyph unicode="&#x2d8;" horiz-adv-x="400" d="M199 617C302 617 369 684 381 778L282 795C270 746 245 723 199 723C153 723 130 746 117 795L18 778C31 684 97 617 199 617Z"/>
<glyph unicode="&#x2d9;" horiz-adv-x="400" d="M200 608C256 608 298 650 298 704C298 760 256 801 200 801C145 801 102 760 102 704C102 650 145 608 200 608Z"/>
<glyph unicode="&#x2da;" horiz-adv-x="400" d="M201 593C288 593 344 649 344 718L344 740C344 809 288 866 201 866C114 866 56 809 56 740L56 718C56 649 114 593 201 593ZM200 674C173 674 153 690 153 721L153 737C153 768 173 785 200 785C227 785 247 768 247 737L247 721C247 690 227 674 200 674Z"/>
<glyph unicode="&#x2db;" horiz-adv-x="400" d="M245 -244C277 -244 300 -241 321 -236L332 -142C309 -147 290 -149 270 -149C233 -149 218 -134 218 -106C218 -71 250 -27 360 0L347 43C214 28 107 -36 107 -128C107 -200 162 -244 245 -244Z"/>
<glyph unicode="&#x2dc;" horiz-adv-x="400" d="M258 620C319 620 371 669 398 732L308 773C292 744 279 729 255 729C223 729 198 775 141 775C80 775 28 726 1 664L91 622C107 651 120 666 144 666C176 666 201 620 258 620Z"/>
<glyph unicode="&#x2dd;" horiz-adv-x="400" d="M105 614L206 795L102 841L16 649ZM272 609L382 792L280 841L184 648Z"/>
<glyph unicode="&#x300;" horiz-adv-x="0" d="M-73 599L-30 684L-256 808L-311 701Z"/>
<glyph unicode="&#x301;" horiz-adv-x="0" d="M-268 599L-30 701L-85 808L-311 684Z"/>
<glyph unicode="&#x302;" horiz-adv-x="0" d="M-348 597L-218 690L-87 597L-29 672L-171 797L-264 797L-407 672Z"/>
<glyph unicode="&#x303;" horiz-adv-x="0" d="M-158 620C-97 620 -45 669 -18 732L-108 773C-124 744 -137 729 -161 729C-193 729 -218 775 -275 775C-336 775 -388 726 -415 664L-325 622C-309 651 -296 666 -272 666C-240 666 -215 620 -158 620Z"/>
<glyph unicode="&#x304;" horiz-adv-x="0" d="M-332 635L-30 635L-30 740L-332 740Z"/>
<glyph unicode="&#x306;" horiz-adv-x="0" d="M-200 617C-98 617 -31 684 -18 778L-117 795C-130 746 -155 723 -200 723C-246 723 -270 746 -282 795L-381 778C-369 684 -303 617 -200 617Z"/>
<glyph unicode="&#x307;" horiz-adv-x="0" d="M-129 608C-74 608 -31 650 -31 704C-31 760 -74 801 -129 801C-185 801 -228 760 -228 704C-228 650 -185 608 -129 608Z"/>
<glyph unicode="&#x308;" horiz-adv-x="0" d="M-349 621C-302 621 -266 658 -266 703C-266 749 -302 785 -349 785C-395 785 -433 749 -433 703C-433 658 -395 621 -349 621ZM-100 621C-53 621 -16 658 -16 703C-16 749 -53 785 -100 785C-146 785 -184 749 -184 703C-184 658 -146 621 -100 621Z"/>
<glyph unicode="&#x30a;" horiz-adv-x="0" d="M-166 593C-79 593 -23 649 -23 718L-23 740C-23 809 -79 866 -166 866C-253 866 -311 809 -311 740L-311 718C-311 649 -253 593 -166 593ZM-167 674C-193 674 -213 690 -213 721L-213 737C-213 768 -193 785 -167 785C-140 785 -120 768 -120 737L-120 721C-120 690 -140 674 -167 674Z"/>
<glyph unicode="&#x30b;" horiz-adv-x="0" d="M-307 614L-206 795L-310 841L-396 649ZM-139 609L-30 792L-132 841L-227 648Z"/>
<glyph unicode="&#x30c;" horiz-adv-x="0" d="M-264 597L-171 597L-29 722L-87 797L-218 703L-348 797L-407 722Z"/>
<glyph unicode="&#x312;" horiz-adv-x="0" d="M-94 885C-151 807 -182 732 -182 681C-182 636 -147 601 -101 601C-55 601 -21 637 -21 681C-21 709 -36 731 -58 746C-55 786 -43 819 -26 856Z"/>
<glyph unicode="&#x323;" horiz-adv-x="0" d="M-121 -55C-177 -55 -220 -97 -220 -151C-220 -206 -177 -248 -121 -248C-66 -248 -23 -206 -23 -151C-23 -97 -66 -55 -121 -55Z"/>
<glyph unicode="&#x326;" horiz-adv-x="0" d="M-117 -338C-60 -260 -29 -186 -29 -134C-29 -89 -64 -55 -110 -55C-156 -55 -190 -91 -190 -134C-190 -163 -175 -185 -153 -199C-156 -239 -167 -272 -185 -309Z"/>
<glyph unicode="&#x327;" horiz-adv-x="0" d="M-172 -255C-94 -255 -27 -222 -27 -153L-27 -134C-27 -79 -61 -51 -132 -44L-132 16L-223 16L-232 -108C-167 -108 -140 -115 -140 -137L-140 -145C-140 -165 -157 -171 -187 -171C-208 -171 -228 -169 -251 -164L-271 -238C-239 -250 -208 -255 -172 -255Z"/>
<glyph unicode="&#x328;" horiz-adv-x="0" d="M-155 -244C-123 -244 -100 -241 -79 -236L-68 -142C-91 -147 -110 -149 -130 -149C-168 -149 -183 -134 -183 -106C-183 -71 -150 -27 -40 0L-53 43C-187 28 -293 -36 -293 -128C-293 -200 -238 -244 -155 -244Z"/>
<glyph unicode="&#x335;" horiz-adv-x="0" d="M-367 295L-41 295L-41 389L-367 389Z"/>
<glyph unicode="&#x336;" horiz-adv-x="0" d="M-602 295L-17 295L-17 389L-602 389Z"/>
<glyph unicode="&#x394;" horiz-adv-x="651" d="M436 700L203 700L3 0L139 0L469 0L647 0ZM208 129L319 583L436 129Z"/>
<glyph unicode="&#x3a9;" horiz-adv-x="716" d="M661 313L661 430C661 600 555 716 358 716C161 716 54 600 54 430L54 313C54 224 90 165 149 127L54 127L54 0L316 0L316 109C260 124 229 168 229 255L229 431C229 535 272 591 358 591C444 591 486 535 486 431L486 255C486 168 456 124 400 109L400 0L661 0L661 127L567 127C626 165 661 224 661 313Z"/>
<glyph unicode="&#x3bc;" horiz-adv-x="624" d="M383 539L383 147C360 118 329 101 297 101C260 101 241 120 241 156L241 539L69 539L69 -200L241 -200L241 -4C258 -12 276 -16 297 -16C341 -16 377 5 402 40L412 0L555 0L555 539Z"/>
<glyph unicode="&#x3c0;" horiz-adv-x="701" d="M113 0L284 0L284 408L416 408L416 0L588 0L588 408L638 408L638 539L62 539L62 408L113 408Z"/>
<glyph unicode="&#x401;" horiz-adv-x="578" d="M180 771C227 771 263 808 263 853C263 899 227 935 180 935C134 935 96 899 96 853C96 808 134 771 180 771ZM429 771C476 771 513 808 513 853C513 899 476 935 429 935C383 935 345 899 345 853C345 808 383 771 429 771ZM522 574L522 700L261 700L86 700L86 0L124 0L522 0L522 129L261 129L261 292L501 292L501 417L261 417L261 574Z"/>
<glyph unicode="&#x402;" horiz-adv-x="789" d="M527 469C470 469 413 451 368 416L368 575L550 575L550 700L368 700L7 700L7 575L193 575L193 0L368 0L368 303C394 330 434 346 473 346C515 346 553 324 553 266L553 52C553 -5 541 -16 514 -16C501 -16 489 -14 480 -13L468 -120C485 -129 517 -137 561 -137C651 -137 727 -83 728 56L728 285C728 403 633 469 527 469Z"/>
<glyph unicode="&#x403;" horiz-adv-x="562" d="M456 834L406 942L176 827L217 740ZM545 700L261 700L86 700L86 0L261 0L261 571L545 571Z"/>
<glyph unicode="&#x404;" horiz-adv-x="603" d="M357 109C268 109 227 156 227 250L227 290L463 290L463 415L227 415L227 454C227 544 274 591 359 591C416 591 457 573 497 542L581 635C523 683 458 716 351 716C166 716 54 607 54 433L54 253C54 90 163 -16 349 -16C446 -16 527 23 577 65L507 161C467 134 420 109 357 109Z"/>
<glyph unicode="&#x405;" horiz-adv-x="615" d="M299 -16C454 -16 577 62 577 191L577 221C577 324 508 382 414 414L319 446C243 471 219 490 219 519L219 532C219 565 256 594 325 594C382 594 426 579 489 533L568 624C505 679 423 716 310 716C148 716 45 637 45 526L45 500C45 419 99 358 217 319L312 287C386 262 405 241 405 202L405 190C405 148 364 111 282 111C197 111 154 135 94 176L15 80C74 26 162 -16 299 -16Z"/>
<glyph unicode="&#x406;" horiz-adv-x="453" d="M404 575L404 700L314 700L50 700L50 575L139 575L139 126L50 126L50 0L139 0L404 0L404 126L314 126L314 575Z"/>
<glyph unicode="&#x407;" horiz-adv-x="453" d="M185 853C185 899 149 935 102 935C56 935 18 899 18 853C18 808 56 771 102 771C149 771 185 808 185 853ZM351 935C305 935 267 899 267 853C267 808 305 771 351 771C398 771 435 808 435 853C435 899 398 935 351 935ZM404 700L50 700L50 575L139 575L139 126L50 126L50 0L139 0L404 0L404 126L314 126L314 575L404 575Z"/>
<glyph unicode="&#x408;" horiz-adv-x="567" d="M498 700L67 700L67 575L323 575L323 214C323 142 278 109 222 109C172 109 137 128 104 156L23 64C71 16 139 -16 239 -16C400 -16 498 87 498 224Z"/>
<glyph unicode="&#x409;" horiz-adv-x="1003" d="M690 443L616 443L616 700L162 700L105 251C89 126 77 104 35 104C25 104 17 106 12 107L12 0C30 -9 54 -15 84 -15C212 -15 254 67 273 214L319 571L442 571L442 0L601 0L690 0C860 0 970 75 970 183L970 259C970 368 857 443 690 443ZM795 198C795 148 752 123 686 123L616 123L616 320L686 320C752 320 795 295 795 245Z"/>
<glyph unicode="&#x40a;" horiz-adv-x="1019" d="M705 443L646 443L646 700L471 700L471 443L261 443L261 700L86 700L86 0L261 0L261 320L471 320L471 0L617 0L705 0C875 0 985 75 985 183L985 259C985 368 873 443 705 443ZM810 198C810 148 767 123 702 123L646 123L646 320L702 320C767 320 810 294 810 245Z"/>
<glyph unicode="&#x40b;" horiz-adv-x="789" d="M527 469C471 469 413 452 368 416L368 575L550 575L550 700L368 700L7 700L7 575L193 575L193 0L368 0L368 303C394 330 434 346 473 346C515 346 553 324 553 266L553 0L728 0L728 285C728 403 633 469 527 469Z"/>
<glyph unicode="&#x40c;" horiz-adv-x="698" d="M503 834L453 942L223 827L264 740ZM492 0L689 0L456 367L659 700L474 700L303 409L256 409L256 700L86 700L86 0L256 0L256 291L311 291Z"/>
<glyph unicode="&#x40e;" horiz-adv-x="594" d="M299 748C401 748 468 815 484 889L381 905C369 877 345 854 299 854C253 854 230 877 217 905L114 889C131 815 197 748 299 748ZM438 700L302 373L180 700L1 700L221 195L129 0L298 0L607 700Z"/>
<glyph unicode="&#x40f;" horiz-adv-x="737" d="M651 700L476 700L476 129L261 129L261 700L86 700L86 0L296 0L323 -181L437 -181L437 0L651 0Z"/>
</font>
</defs>
</svg>
