<?xml version="1.0" encoding="UTF-8" standalone="no"?>
<!DOCTYPE svg PUBLIC "-//W3C//DTD SVG 1.1//EN" "http://www.w3.org/Graphics/SVG/1.1/DTD/svg11.dtd" >
<svg xmlns="http://www.w3.org/2000/svg">
<metadata>
This is a SVG font generated by e-font.
</metadata>
<defs>
<font id="ArtifaktElementBold" horiz-adv-x="620" >
<font-face units-per-em="1000" ascent="1050" descent="-350" />
<missing-glyph horiz-adv-x="620" />
<glyph unicode="&#x20;" horiz-adv-x="258" />
<glyph unicode="&#x21;" horiz-adv-x="313" d="M91 700L107 239L207 239L223 700ZM157 -13C201 -13 235 22 235 66C235 109 201 145 157 145C113 145 78 109 78 66C78 22 113 -13 157 -13Z"/>
<glyph unicode="&#x22;" horiz-adv-x="426" d="M73 434L155 434L171 700L57 700ZM271 434L353 434L369 700L255 700Z"/>
<glyph unicode="&#x23;" horiz-adv-x="600" d="M570 439L580 532L505 532L522 693L408 700L390 532L249 532L266 693L151 700L133 532L58 532L48 439L123 439L105 261L29 261L19 168L95 168L77 0L192 -7L210 168L351 168L334 0L448 -7L467 168L541 168L551 261L477 261L495 439ZM361 261L220 261L239 439L380 439Z"/>
<glyph unicode="&#x24;" horiz-adv-x="584" d="M380 370L291 396C215 419 185 444 185 476L185 491C185 527 221 565 308 565C374 565 417 551 477 507L537 570C485 615 422 644 341 650L341 753L241 753L241 647C128 630 65 564 65 491L65 470C65 400 110 345 222 310L320 280C399 256 421 234 421 188L421 176C421 134 379 88 281 88C191 88 153 113 98 147L38 80C83 40 146 8 241 0L241 -110L341 -110L341 1C461 17 541 84 541 176L541 200C541 296 471 342 380 370Z"/>
<glyph unicode="&#x25;" horiz-adv-x="944" d="M252 0L336 -36L692 740L607 776ZM227 328C331 328 391 388 391 482L391 597C391 694 331 753 227 753C120 753 58 694 58 597L58 482C58 388 120 328 227 328ZM227 405C182 405 153 431 153 480L153 600C153 652 182 678 227 678C267 678 296 652 296 600L296 480C296 431 268 405 227 405ZM722 -13C825 -13 885 47 885 141L885 257C885 354 825 413 722 413C614 413 553 354 553 257L553 141C553 47 614 -13 722 -13ZM722 64C676 64 648 90 648 139L648 259C648 311 676 338 722 338C762 338 790 311 790 259L790 139C790 90 762 64 722 64Z"/>
<glyph unicode="&#x26;" horiz-adv-x="713" d="M709 0L564 148L671 347L577 390L491 222L343 373C457 423 497 470 497 539L497 570C497 649 426 713 301 713C175 713 97 655 97 569L97 536C97 480 128 446 175 398C85 359 41 302 41 228L41 181C41 62 141 -13 283 -13C381 -13 436 7 500 68L567 0ZM213 563C213 605 245 628 299 628C349 628 382 604 382 562L382 545C382 497 357 470 279 438C234 485 213 507 213 545ZM165 191L165 221C165 281 195 309 241 331L430 139C389 99 348 83 287 83C215 83 165 120 165 191Z"/>
<glyph unicode="&#x27;" horiz-adv-x="228" d="M73 434L155 434L171 700L57 700Z"/>
<glyph unicode="&#x28;" horiz-adv-x="400" d="M194 370C194 517 214 573 330 690L258 753C119 636 69 550 69 370L69 170C69 -10 119 -96 258 -213L330 -150C214 -33 194 23 194 170Z"/>
<glyph unicode="&#x29;" horiz-adv-x="400" d="M142 753L70 690C186 573 206 517 206 370L206 170C206 23 186 -33 70 -150L142 -213C281 -96 331 -10 331 170L331 370C331 550 281 636 142 753Z"/>
<glyph unicode="&#x2a;" horiz-adv-x="441" d="M424 555L393 649L260 593L271 740L170 740L181 593L48 648L17 555L157 521L64 411L145 352L221 474L296 352L378 412L284 521Z"/>
<glyph unicode="&#x2b;" horiz-adv-x="599" d="M492 391L352 391L352 535L247 535L247 391L107 391L107 293L247 293L247 149L352 149L352 293L492 293Z"/>
<glyph unicode="&#x2c;" horiz-adv-x="288" d="M100 -186C197 -88 225 -4 225 66C225 113 190 145 146 145C104 145 68 110 68 66C68 31 85 9 111 -4C104 -51 95 -91 53 -149Z"/>
<glyph unicode="&#x2d;" horiz-adv-x="432" d="M370 391L63 391L63 293L370 293Z"/>
<glyph unicode="&#x2e;" horiz-adv-x="283" d="M142 -13C186 -13 220 22 220 66C220 109 186 145 142 145C98 145 63 109 63 66C63 22 98 -13 142 -13Z"/>
<glyph unicode="&#x2f;" horiz-adv-x="400" d="M84 -172L418 740L315 772L-18 -140Z"/>
<glyph unicode="&#x30;" horiz-adv-x="637" d="M322 -13C481 -13 573 81 573 230L573 466C573 620 481 713 322 713C157 713 63 620 63 466L63 230C63 81 157 -13 322 -13ZM322 85C239 85 189 133 189 229L189 468C189 569 239 618 322 618C397 618 448 569 448 468L448 229C448 133 397 85 322 85Z"/>
<glyph unicode="&#x31;" horiz-adv-x="477" d="M325 95L325 700L232 700L36 586L82 504L203 564L203 95L60 95L60 0L203 0L448 0L448 95Z"/>
<glyph unicode="&#x32;" horiz-adv-x="529" d="M158 102C160 155 179 196 257 247L334 297C442 367 484 428 484 497L484 528C484 622 401 713 250 713C157 713 84 682 19 631L75 555C135 597 182 615 242 615C325 615 358 566 358 524L358 500C358 454 334 428 271 385L175 319C94 263 34 195 34 71L34 0L485 0L485 102Z"/>
<glyph unicode="&#x33;" horiz-adv-x="586" d="M271 -13C421 -13 531 71 531 183L531 228C531 314 447 367 387 377C447 391 507 440 507 503L507 542C507 645 404 713 275 713C164 713 88 670 28 611L95 544C146 591 198 619 265 619C329 619 385 595 385 528L385 505C385 434 316 415 263 415L198 415L198 325L263 325C316 325 406 305 406 218L406 193C406 113 341 83 264 83C188 83 133 117 90 163L18 94C71 34 142 -13 271 -13Z"/>
<glyph unicode="&#x34;" horiz-adv-x="595" d="M355 0L480 0L480 135L573 135L573 233L480 233L480 422L381 421L358 233L159 233L389 700L266 700L27 217L27 135L355 135Z"/>
<glyph unicode="&#x35;" horiz-adv-x="574" d="M301 444C258 444 228 439 202 431L202 597L484 597L484 700L80 700L80 334L163 334C198 343 221 348 256 348C340 348 399 315 399 241L399 196C399 121 338 86 263 86C188 86 143 116 91 169L17 101C75 33 146 -13 268 -13C420 -13 524 76 524 188L524 253C524 359 438 444 301 444Z"/>
<glyph unicode="&#x36;" horiz-adv-x="586" d="M348 464C266 464 212 435 173 389C188 537 292 606 468 614L468 713C200 705 47 574 47 311L47 262C47 97 148 -13 303 -13C466 -13 549 95 549 216L549 259C549 374 478 464 348 464ZM425 220C425 137 386 85 303 85C224 85 171 139 171 257L171 289C212 341 256 369 322 369C397 369 425 324 425 256Z"/>
<glyph unicode="&#x37;" horiz-adv-x="515" d="M486 700L13 700L13 600L365 600L100 0L229 0L486 597Z"/>
<glyph unicode="&#x38;" horiz-adv-x="625" d="M433 385C516 413 546 450 546 506L546 550C546 645 447 713 310 713C174 713 79 645 79 549L79 504C79 431 113 390 186 359C93 325 48 281 48 216L48 173C48 61 159 -13 312 -13C459 -13 577 61 577 173L577 216C577 308 522 352 433 385ZM201 547C201 606 257 623 310 623C364 623 425 600 425 540L425 502C425 462 395 442 335 417L301 428C235 448 201 466 201 510ZM452 177C452 113 388 82 313 82C233 82 173 113 173 181L173 219C173 274 215 299 284 325L324 312C400 288 452 266 452 215Z"/>
<glyph unicode="&#x39;" horiz-adv-x="586" d="M288 713C120 713 37 605 37 484L37 441C37 326 111 236 240 236C319 236 374 264 413 310C398 162 292 95 101 88L101 -13C388 -5 538 126 538 389L538 438C538 603 449 713 288 713ZM266 329C192 329 160 378 160 444L160 480C160 563 200 615 286 615C372 615 415 561 415 443L415 411C375 359 334 329 266 329Z"/>
<glyph unicode="&#x3a;" horiz-adv-x="283" d="M142 355C186 355 220 390 220 434C220 478 186 513 142 513C98 513 63 478 63 434C63 390 98 355 142 355ZM142 -13C186 -13 220 22 220 66C220 109 186 145 142 145C98 145 63 109 63 66C63 22 98 -13 142 -13Z"/>
<glyph unicode="&#x3b;" horiz-adv-x="288" d="M142 355C186 355 220 390 220 434C220 478 186 513 142 513C98 513 63 478 63 434C63 390 98 355 142 355ZM100 -186C197 -88 225 -4 225 66C225 113 190 145 146 145C104 145 68 110 68 66C68 31 85 9 111 -4C104 -51 95 -91 53 -149Z"/>
<glyph unicode="&#x3c;" horiz-adv-x="600" d="M448 119L493 207L218 343L493 477L448 567L107 397L107 289Z"/>
<glyph unicode="&#x3d;" horiz-adv-x="600" d="M493 494L107 494L107 398L493 398ZM493 285L107 285L107 189L493 189Z"/>
<glyph unicode="&#x3e;" horiz-adv-x="600" d="M152 119L493 289L493 397L152 567L107 477L382 343L107 207Z"/>
<glyph unicode="&#x3f;" horiz-adv-x="486" d="M164 236L281 236L281 261C281 374 458 381 458 517L458 547C458 638 379 713 245 713C145 713 79 679 20 632L76 558C131 596 170 617 234 617C295 617 330 585 330 536L330 512C330 426 164 406 164 265ZM222 -13C267 -13 301 22 301 66C301 109 267 145 222 145C179 145 144 109 144 66C144 22 179 -13 222 -13Z"/>
<glyph unicode="&#x40;" horiz-adv-x="1022" d="M525 713C271 713 104 546 104 356L104 220C104 -4 272 -130 504 -130C584 -130 642 -117 705 -95L677 -14C628 -32 570 -44 507 -44C334 -44 212 46 212 228L212 353C212 497 322 629 525 629C722 629 823 516 823 351L823 276C823 201 800 156 757 156C698 156 690 198 690 257L691 471C638 507 578 519 524 519C382 519 320 436 320 315L320 257C320 147 377 75 483 75C548 75 595 103 628 140C647 105 688 70 759 70C867 70 929 162 929 266L929 366C929 554 778 713 525 713ZM429 262L429 310C429 397 453 438 526 438C551 438 569 433 585 426L585 193C564 174 536 160 497 160C446 160 429 189 429 262Z"/>
<glyph unicode="&#x41;" horiz-adv-x="640" d="M495 0L625 0L400 700L229 700L15 0L142 0L195 184L437 184ZM314 612L407 285L223 285Z"/>
<glyph unicode="&#x42;" horiz-adv-x="651" d="M466 363C514 375 569 408 569 482L569 526C569 637 471 700 321 700L231 700L105 700L105 0L225 0L320 0C486 0 591 75 591 181L591 221C591 316 517 353 466 363ZM322 608C396 608 442 580 442 519L442 482C442 425 402 397 341 397L231 397L231 608ZM465 187C465 124 411 92 322 92L231 92L231 308L347 308C424 308 465 276 465 223Z"/>
<glyph unicode="&#x43;" horiz-adv-x="583" d="M342 -13C434 -13 509 23 556 60L503 135C463 108 414 84 345 84C243 84 192 142 192 252L192 441C192 553 249 616 351 616C415 616 458 594 498 565L562 637C508 680 446 713 347 713C172 713 66 605 66 434L66 250C66 92 166 -13 342 -13Z"/>
<glyph unicode="&#x44;" horiz-adv-x="685" d="M334 700L231 700L105 700L105 0L190 0L309 0C511 0 619 114 619 296L619 420C619 588 524 700 334 700ZM493 294C493 161 432 97 310 97L231 97L231 603L328 603C439 603 493 537 493 423Z"/>
<glyph unicode="&#x45;" horiz-adv-x="582" d="M514 603L514 700L231 700L105 700L105 0L117 0L514 0L514 98L231 98L231 307L492 307L492 404L231 404L231 603Z"/>
<glyph unicode="&#x46;" horiz-adv-x="546" d="M525 603L525 700L231 700L105 700L105 0L231 0L231 298L483 298L483 395L231 395L231 603Z"/>
<glyph unicode="&#x47;" horiz-adv-x="671" d="M331 387L331 293L479 293L479 157C448 113 400 84 334 84C240 84 192 142 192 237L192 435C192 550 245 616 355 616C429 616 473 593 512 545L594 603C542 671 468 713 352 713C172 713 66 601 66 429L66 234C66 77 172 -13 307 -13C387 -13 448 18 491 60L502 0L601 0L601 387Z"/>
<glyph unicode="&#x48;" horiz-adv-x="743" d="M638 700L512 700L512 411L231 411L231 700L105 700L105 0L231 0L231 309L512 309L512 0L638 0Z"/>
<glyph unicode="&#x49;" horiz-adv-x="444" d="M375 603L375 700L285 700L69 700L69 603L159 603L159 97L69 97L69 0L159 0L375 0L375 97L285 97L285 603Z"/>
<glyph unicode="&#x4a;" horiz-adv-x="546" d="M462 700L71 700L71 603L335 603L335 205C335 118 284 84 221 84C161 84 125 103 91 129L30 58C72 19 140 -13 231 -13C374 -13 462 77 462 211Z"/>
<glyph unicode="&#x4b;" horiz-adv-x="655" d="M507 0L650 0L368 387L613 700L480 700L225 377L225 700L105 700L105 0L225 0L225 219L290 300Z"/>
<glyph unicode="&#x4c;" horiz-adv-x="525" d="M231 102L231 700L105 700L105 0L109 0L515 0L515 102Z"/>
<glyph unicode="&#x4d;" horiz-adv-x="874" d="M614 700L614 698L439 206L268 700L105 700L105 0L219 0L219 524L369 100L502 100L502 101L648 511L648 0L769 0L769 700Z"/>
<glyph unicode="&#x4e;" horiz-adv-x="741" d="M525 700L525 175L256 700L105 700L105 0L216 0L216 542L491 0L637 0L637 700Z"/>
<glyph unicode="&#x4f;" horiz-adv-x="706" d="M353 713C161 713 66 593 66 428L66 271C66 108 162 -13 353 -13C546 -13 641 108 641 271L641 428C641 593 546 713 353 713ZM353 616C462 616 514 542 514 429L514 269C514 159 463 84 353 84C243 84 192 159 192 269L192 429C192 542 244 616 353 616Z"/>
<glyph unicode="&#x50;" horiz-adv-x="621" d="M336 700L231 700L105 700L105 0L231 0L231 240L319 240C479 240 585 314 585 442L585 500C585 629 487 700 336 700ZM459 449C459 369 405 336 315 336L231 336L231 604L330 604C409 604 459 570 459 494Z"/>
<glyph unicode="&#x51;" horiz-adv-x="711" d="M655 -63L560 58C616 106 644 177 644 261L644 429C644 601 548 713 355 713C163 713 66 601 66 429L66 269C66 99 164 -13 355 -13C399 -13 440 -7 476 7L576 -123ZM355 81C243 81 191 147 191 261L191 432C191 549 245 616 355 616C466 616 519 549 519 432L519 238C519 195 512 162 497 138L431 221L355 164L415 86C397 82 377 81 355 81Z"/>
<glyph unicode="&#x52;" horiz-adv-x="659" d="M482 0L620 0L459 299C537 329 586 385 586 463L586 515C586 630 488 700 341 700L231 700L105 700L105 0L231 0L231 277L336 277ZM231 605L336 605C411 605 459 572 459 509L459 466C459 405 412 371 337 371L231 371Z"/>
<glyph unicode="&#x53;" horiz-adv-x="613" d="M290 -13C447 -13 557 66 557 184L557 211C557 318 484 369 388 399L295 429C215 454 183 483 183 518L183 535C183 574 221 617 312 617C382 617 427 601 491 553L553 622C490 680 413 713 307 713C147 713 57 629 57 534L57 511C57 434 104 372 222 334L325 300C408 273 432 248 432 198L432 185C432 138 387 87 284 87C189 87 150 114 91 153L28 78C83 27 163 -13 290 -13Z"/>
<glyph unicode="&#x54;" horiz-adv-x="548" d="M533 700L337 700L14 700L14 603L211 603L211 0L337 0L337 603L533 603Z"/>
<glyph unicode="&#x55;" horiz-adv-x="707" d="M623 700L497 700L497 226C497 141 455 84 353 84C251 84 210 141 210 226L210 700L83 700L83 226C83 90 172 -13 353 -13C537 -13 623 90 623 226Z"/>
<glyph unicode="&#x56;" horiz-adv-x="631" d="M235 0L407 0L615 700L486 700L322 104L146 700L15 700Z"/>
<glyph unicode="&#x57;" horiz-adv-x="899" d="M738 700L653 107L530 700L368 700L247 107L159 700L30 700L151 0L329 0L447 589L565 0L742 0L860 700Z"/>
<glyph unicode="&#x58;" horiz-adv-x="635" d="M396 382L606 700L470 700L319 457L318 457L170 700L30 700L238 373L5 0L145 0L317 290L487 0L630 0Z"/>
<glyph unicode="&#x59;" horiz-adv-x="582" d="M578 700L451 700L295 383L136 700L4 700L228 285L228 0L355 0L355 286Z"/>
<glyph unicode="&#x5a;" horiz-adv-x="573" d="M525 700L59 700L59 603L389 603L45 96L45 0L534 0L534 101L181 101L525 608Z"/>
<glyph unicode="&#x5b;" horiz-adv-x="400" d="M76 -200L323 -200L323 -103L199 -103L199 643L323 643L323 740L76 740Z"/>
<glyph unicode="&#x5c;" horiz-adv-x="400" d="M316 -172L418 -140L85 772L-18 740Z"/>
<glyph unicode="&#x5d;" horiz-adv-x="400" d="M324 -200L324 740L77 740L77 643L201 643L201 -103L77 -103L77 -200Z"/>
<glyph unicode="&#x5e;" horiz-adv-x="600" d="M359 700L241 700L62 388L182 388L299 605L417 388L538 388Z"/>
<glyph unicode="&#x5f;" horiz-adv-x="600" d="M568 -57L61 -57L61 -155L568 -155Z"/>
<glyph unicode="&#x60;" horiz-adv-x="400" d="M292 601L325 667L117 778L74 696Z"/>
<glyph unicode="&#x61;" horiz-adv-x="558" d="M275 546C195 546 125 523 71 490L109 413C159 438 205 453 264 453C327 453 359 426 359 363L359 327L261 327C122 327 40 266 40 173L40 138C40 44 123 -13 217 -13C276 -13 330 7 375 51L385 0L482 0L482 359C482 472 417 546 275 546ZM241 79C188 79 163 106 163 148L163 168C163 222 200 249 273 249L359 249L359 131C328 95 286 79 241 79Z"/>
<glyph unicode="&#x62;" horiz-adv-x="602" d="M348 546C290 546 244 526 210 491L210 740L86 740L86 0L183 0L193 46C230 8 276 -13 333 -13C455 -13 550 93 550 240L550 294C550 448 470 546 348 546ZM426 236C426 134 381 80 312 80C271 80 237 96 210 125L210 395C237 429 275 452 323 452C391 452 426 402 426 298Z"/>
<glyph unicode="&#x63;" horiz-adv-x="491" d="M289 -13C353 -13 419 13 463 50L412 123C379 100 344 80 295 80C215 80 171 134 171 242L171 291C171 400 218 452 296 452C343 452 375 439 408 410L467 476C418 523 363 546 291 546C134 546 47 443 47 289L47 244C47 90 136 -13 289 -13Z"/>
<glyph unicode="&#x64;" horiz-adv-x="604" d="M394 740L394 499C360 530 320 546 268 546C139 546 51 440 51 294L51 238C51 86 138 -13 262 -13C327 -13 373 15 408 58L421 0L518 0L518 740ZM284 80C217 80 175 130 175 236L175 297C175 398 218 452 289 452C335 452 372 432 394 408L394 142C366 104 333 80 284 80Z"/>
<glyph unicode="&#x65;" horiz-adv-x="560" d="M515 287C515 456 430 546 285 546C137 546 47 437 47 293L47 238C47 94 139 -13 301 -13C378 -13 450 16 495 50L451 124C410 101 367 80 309 80C217 80 170 125 168 227L511 227C513 243 515 265 515 287ZM404 308L168 308C170 405 210 455 286 455C363 455 404 405 404 313Z"/>
<glyph unicode="&#x66;" horiz-adv-x="382" d="M305 660C329 660 351 657 373 652L386 740C364 747 328 753 288 753C172 753 109 698 109 583L109 532L38 532L38 440L109 440L109 0L233 0L233 440L360 440L360 532L233 532L233 593C233 641 254 660 305 660Z"/>
<glyph unicode="&#x67;" horiz-adv-x="603" d="M416 532L407 485C369 525 324 546 262 546C153 546 51 462 51 294L51 249C51 73 144 0 255 0C316 0 363 27 397 66L397 -1C397 -84 352 -120 273 -120C211 -120 167 -109 122 -88L83 -163C135 -194 201 -213 282 -213C415 -213 518 -139 518 -2L518 532ZM276 94C216 94 175 128 175 249L175 297C175 417 223 452 284 452C331 452 365 433 393 399L393 155C364 116 323 94 276 94Z"/>
<glyph unicode="&#x68;" horiz-adv-x="608" d="M358 546C294 546 246 526 210 486L210 740L86 740L86 0L210 0L210 384C240 427 277 452 325 452C376 452 409 425 409 358L409 0L533 0L533 368C533 483 457 546 358 546Z"/>
<glyph unicode="&#x69;" horiz-adv-x="317" d="M164 615C206 615 239 648 239 689C239 731 206 764 164 764C123 764 89 731 89 689C89 648 123 615 164 615ZM27 532L27 440L107 440L107 0L231 0L231 532Z"/>
<glyph unicode="&#x6a;" horiz-adv-x="318" d="M168 615C210 615 243 648 243 689C243 731 210 764 168 764C127 764 93 731 93 689C93 648 127 615 168 615ZM232 532L39 532L39 440L108 440L108 -73C108 -111 99 -123 63 -123C53 -123 41 -122 32 -120L23 -200C38 -208 61 -213 92 -213C176 -213 232 -166 232 -76Z"/>
<glyph unicode="&#x6b;" horiz-adv-x="555" d="M423 0L561 0L338 317L528 532L392 532L210 327L210 740L86 740L86 0L210 0L210 190L255 242Z"/>
<glyph unicode="&#x6c;" horiz-adv-x="307" d="M200 740L76 740L76 106C76 27 125 -13 199 -13C227 -13 250 -7 270 0L257 85C249 84 242 83 236 83C209 83 200 95 200 124Z"/>
<glyph unicode="&#x6d;" horiz-adv-x="880" d="M640 546C575 546 525 517 484 466C455 518 401 546 343 546C283 546 236 521 199 477L192 532L86 532L86 0L209 0L209 385C239 427 271 452 311 452C351 452 383 426 383 359L383 0L507 0L507 385C536 427 569 452 608 452C648 452 681 426 681 359L681 0L804 0L804 368C804 483 728 546 640 546Z"/>
<glyph unicode="&#x6e;" horiz-adv-x="608" d="M358 546C287 546 237 521 200 477L192 532L86 532L86 0L210 0L210 385C240 427 277 452 325 452C376 452 408 425 408 358L408 0L532 0L532 368C532 483 457 546 358 546Z"/>
<glyph unicode="&#x6f;" horiz-adv-x="595" d="M296 546C133 546 47 440 47 294L47 240C47 91 133 -13 296 -13C460 -13 548 91 548 240L548 294C548 440 460 546 296 546ZM296 452C379 452 424 398 424 296L424 240C424 135 379 80 296 80C214 80 171 135 171 240L171 296C171 398 214 452 296 452Z"/>
<glyph unicode="&#x70;" horiz-adv-x="602" d="M349 546C285 546 235 522 199 481L192 532L86 532L86 -200L210 -200L210 30C245 2 285 -13 333 -13C456 -13 550 92 550 241L550 294C550 447 467 546 349 546ZM426 237C426 133 382 80 311 80C272 80 240 93 210 118L210 396C237 431 276 452 321 452C387 452 426 401 426 298Z"/>
<glyph unicode="&#x71;" horiz-adv-x="603" d="M412 532L405 489C368 527 325 546 268 546C139 546 51 440 51 294L51 238C51 86 139 -13 260 -13C317 -13 360 9 394 44L394 -200L518 -200L518 532ZM285 80C218 80 175 130 175 236L175 297C175 398 218 452 289 452C335 452 371 433 394 408L394 137C364 101 331 80 285 80Z"/>
<glyph unicode="&#x72;" horiz-adv-x="416" d="M340 544C285 544 227 517 196 448L176 532L86 532L86 0L210 0L210 316C240 396 290 422 350 422C361 422 372 421 382 419L404 534C389 539 369 544 340 544Z"/>
<glyph unicode="&#x73;" horiz-adv-x="507" d="M248 -13C363 -13 461 38 461 137L461 159C461 240 407 275 331 302L264 325C196 349 178 367 178 395L178 403C178 431 204 454 260 454C308 454 346 445 399 411L456 479C405 521 332 546 256 546C138 546 54 487 54 402L54 380C54 313 99 273 182 243L249 220C319 196 338 180 338 145L338 137C338 97 300 79 237 79C177 79 131 98 87 131L28 60C82 14 158 -13 248 -13Z"/>
<glyph unicode="&#x74;" horiz-adv-x="401" d="M354 87C338 84 321 82 302 82C258 82 237 100 237 139L237 440L352 440L352 532L237 532L237 663L126 663L116 532L32 532L32 440L113 440L113 132C113 32 172 -13 274 -13C307 -13 343 -7 367 0Z"/>
<glyph unicode="&#x75;" horiz-adv-x="605" d="M395 532L395 148C364 105 320 80 275 80C226 80 200 107 200 155L200 532L76 532L76 149C76 49 151 -13 245 -13C310 -13 364 14 405 59L414 0L519 0L519 532Z"/>
<glyph unicode="&#x76;" horiz-adv-x="549" d="M524 532L400 532L277 99L154 532L25 532L198 0L351 0Z"/>
<glyph unicode="&#x77;" horiz-adv-x="799" d="M642 532L567 104L471 532L333 532L238 104L159 532L35 532L155 0L305 0L400 424L493 0L646 0L764 532Z"/>
<glyph unicode="&#x78;" horiz-adv-x="538" d="M344 267L510 533L380 533L269 332L161 533L26 533L192 266L20 0L150 0L269 197L381 0L518 0Z"/>
<glyph unicode="&#x79;" horiz-adv-x="542" d="M151 -213C241 -213 303 -177 336 -65L517 532L394 532L279 92L153 532L25 532L196 0L250 0L233 -58C220 -107 191 -125 145 -125C125 -125 109 -123 89 -119L72 -200C90 -207 121 -213 151 -213Z"/>
<glyph unicode="&#x7a;" horiz-adv-x="467" d="M427 532L48 532L48 438L294 438L35 90L35 0L434 0L434 95L168 95L427 445Z"/>
<glyph unicode="&#x7b;" horiz-adv-x="400" d="M337 -213L354 -127C295 -115 259 -88 259 -35L259 144C259 219 205 264 129 270C205 276 259 321 259 396L259 575C259 628 295 655 354 667L337 753C218 741 134 699 134 585L134 400C134 350 111 319 38 318L38 222C111 222 134 191 134 141L134 -45C134 -159 218 -201 337 -213Z"/>
<glyph unicode="&#x7c;" horiz-adv-x="400" d="M138 -80L262 -80L262 740L138 740Z"/>
<glyph unicode="&#x7d;" horiz-adv-x="400" d="M86 -213C205 -201 289 -159 289 -45L289 141C289 191 312 222 385 222L385 318C312 319 289 350 289 400L289 585C289 699 205 741 86 753L70 667C128 655 164 628 164 575L164 396C164 321 218 276 294 270C218 264 164 219 164 144L164 -35C164 -88 128 -115 70 -127Z"/>
<glyph unicode="&#x7e;" horiz-adv-x="600" d="M381 264C456 264 500 317 523 363L454 396C438 371 415 349 381 349C328 349 300 409 222 409C144 409 100 351 77 305L147 272C162 298 185 325 221 325C272 325 300 264 381 264Z"/>
<glyph unicode="&#xa0;" horiz-adv-x="258" />
<glyph unicode="&#xa1;" horiz-adv-x="313" d="M156 513C112 513 78 478 78 434C78 391 112 355 156 355C200 355 235 391 235 434C235 478 200 513 156 513ZM222 -200L207 261L107 261L90 -200Z"/>
<glyph unicode="&#xa2;" horiz-adv-x="573" d="M446 123C413 100 378 80 329 80C249 80 205 134 205 242L205 291C205 400 252 452 330 452C377 452 409 439 442 410L501 476C461 515 417 537 362 544L362 639L263 639L263 540C145 516 81 421 81 289L81 244C81 111 147 17 263 -7L263 -110L362 -110L362 -10C413 -2 462 21 497 50Z"/>
<glyph unicode="&#xa3;" horiz-adv-x="593" d="M262 278C262 291 261 303 260 314L486 314L486 372L247 372C235 411 221 444 221 485L221 508C221 551 254 616 340 616C390 616 432 601 492 558L548 633C483 685 413 713 331 713C178 713 94 606 94 513L94 484C94 450 109 413 122 372L76 372L76 314L137 314C140 300 141 286 141 271C141 217 127 162 76 101L76 0L536 0L536 101L197 101C246 168 262 228 262 278Z"/>
<glyph unicode="&#xa4;" horiz-adv-x="600" d="M520 341C520 388 506 430 481 465L554 539L495 598L419 521C385 541 344 553 298 553C255 553 215 541 181 520L105 598L46 539L120 463C96 428 82 387 82 341C82 295 96 253 120 218L46 144L105 86L181 162C214 141 254 129 298 129C344 129 385 140 419 160L495 86L554 144L481 216C506 251 520 294 520 341ZM301 219C233 219 186 266 186 342C186 417 233 464 301 464C369 464 414 417 414 342C414 266 369 219 301 219Z"/>
<glyph unicode="&#xa5;" horiz-adv-x="582" d="M564 700L442 700L295 388L145 700L18 700L211 331L87 331L87 275L232 275L232 201L87 201L87 145L232 145L232 0L351 0L351 145L497 145L497 201L351 201L351 275L497 275L497 331L372 331Z"/>
<glyph unicode="&#xa6;" horiz-adv-x="400" d="M138 420L262 420L262 740L138 740ZM138 -80L262 -80L262 240L138 240Z"/>
<glyph unicode="&#xa7;" horiz-adv-x="600" d="M515 344L515 367C515 448 461 483 386 509L318 533C250 557 231 574 231 603L231 611C231 641 258 663 314 663C362 663 400 654 453 619L510 686C459 729 386 753 310 753C192 753 110 695 110 609L110 587C110 540 131 506 173 480C123 457 85 416 85 356L85 333C85 252 139 217 214 191L282 167C350 143 369 126 369 97L369 89C369 59 342 37 286 37C238 37 200 46 147 81L90 14C141 -29 214 -53 290 -53C408 -53 490 5 490 91L490 113C490 160 469 194 427 220C477 243 515 284 515 344ZM201 348L201 365C201 392 227 426 270 441L307 428C381 404 399 387 399 352L399 335C399 308 373 274 330 259L293 272C219 296 201 313 201 348Z"/>
<glyph unicode="&#xa8;" horiz-adv-x="400" d="M82 622C119 622 148 651 148 687C148 723 119 752 82 752C45 752 16 723 16 687C16 651 45 622 82 622ZM317 622C354 622 383 651 383 687C383 723 354 752 317 752C280 752 251 723 251 687C251 651 280 622 317 622Z"/>
<glyph unicode="&#xa9;" horiz-adv-x="905" d="M451 -13C671 -13 820 118 820 307L820 401C820 573 671 713 453 713C247 713 85 573 85 401L85 307C85 118 247 -13 451 -13ZM453 56C289 56 164 153 164 306L164 402C164 537 289 644 453 644C629 644 741 537 741 402L741 306C741 153 629 56 453 56ZM454 132C512 132 554 154 582 176L544 237C524 221 493 208 459 208C406 208 378 239 378 291L378 404C378 460 410 493 461 493C495 493 517 482 541 464L586 522C554 549 516 568 457 568C352 568 288 503 288 400L288 290C288 196 348 132 454 132Z"/>
<glyph unicode="&#xaa;" horiz-adv-x="466" d="M244 713C179 713 122 696 77 671L110 606C150 625 187 637 235 637C283 637 308 619 308 575L308 550L231 550C120 550 54 502 54 433L54 405C54 334 118 290 195 290C244 290 285 309 320 342L330 300L412 300L412 571C412 657 359 713 244 713ZM217 366C179 366 157 384 157 415L157 430C157 466 186 486 243 486L308 486L308 403C284 378 251 366 217 366Z"/>
<glyph unicode="&#xab;" horiz-adv-x="619" d="M485 34L552 78L417 286L550 490L483 535L307 316L307 256ZM255 34L323 78L188 286L321 490L254 535L77 316L77 256Z"/>
<glyph unicode="&#xac;" horiz-adv-x="600" d="M107 391L107 293L395 293L395 149L493 149L493 293L493 391Z"/>
<glyph unicode="&#xad;" horiz-adv-x="432" d="M370 391L63 391L63 293L370 293Z"/>
<glyph unicode="&#xae;" horiz-adv-x="905" d="M453 713C247 713 85 573 85 401L85 307C85 118 247 -13 451 -13C671 -13 820 118 820 307L820 401C820 573 671 713 453 713ZM741 306C741 153 629 56 453 56C289 56 164 153 164 306L164 402C164 537 289 644 453 644C629 644 741 537 741 402ZM607 420L607 446C607 515 549 560 458 560L408 560L320 560L320 140L408 140L408 302L451 302L454 302L530 140L627 140L537 318C581 337 607 371 607 420ZM408 491L454 491C489 491 519 480 519 442L519 423C519 386 487 370 445 370L408 370Z"/>
<glyph unicode="&#xaf;" horiz-adv-x="400" d="M59 636L340 636L340 715L59 715Z"/>
<glyph unicode="&#xb0;" horiz-adv-x="521" d="M219 380C309 380 383 441 383 546C383 655 309 713 219 713C135 713 55 654 55 547C55 437 135 380 219 380ZM219 460C172 460 148 497 148 547C148 598 172 634 219 634C270 634 291 598 291 546C291 497 270 460 219 460Z"/>
<glyph unicode="&#xb1;" horiz-adv-x="599" d="M352 391L352 535L247 535L247 391L107 391L107 293L247 293L247 159L352 159L352 293L492 293L492 391ZM107 0L492 0L492 98L107 98Z"/>
<glyph unicode="&#xb2;" horiz-adv-x="500" d="M73 415L438 415L438 499L177 499C179 536 196 562 256 600L323 642C402 693 437 733 437 787L437 812C437 887 370 950 248 950C172 950 113 927 60 889L106 824C153 855 191 869 240 869C303 869 330 838 330 807L330 791C330 759 313 742 262 708L183 658C118 617 73 566 73 473Z"/>
<glyph unicode="&#xb3;" horiz-adv-x="500" d="M247 404C367 404 456 467 456 551L456 585C456 652 388 690 337 698C388 708 437 746 437 794L437 823C437 899 353 951 251 951C160 951 100 918 53 874L107 819C148 855 190 873 241 873C289 873 331 855 331 809L331 793C331 744 281 730 236 730L189 730L189 655L236 655C282 655 349 641 349 580L349 562C349 508 299 484 240 484C181 484 137 508 103 542L43 486C87 440 143 404 247 404Z"/>
<glyph unicode="&#xb4;" horiz-adv-x="400" d="M107 601L325 696L282 778L74 667Z"/>
<glyph unicode="&#xb5;" horiz-adv-x="615" d="M405 532L405 146C374 104 330 79 285 79C236 79 210 105 210 153L210 532L86 532L86 -200L210 -200L210 7C232 -6 256 -13 285 -13C340 -13 382 12 416 55L424 0L529 0L529 532Z"/>
<glyph unicode="&#xb6;" horiz-adv-x="747" d="M336 699C179 700 84 624 84 493C84 380 155 295 312 288L312 -200L408 -200L408 617L517 617L517 -200L613 -200L613 700Z"/>
<glyph unicode="&#xb7;" horiz-adv-x="283" d="M142 252C186 252 220 287 220 331C220 374 186 410 142 410C98 410 63 374 63 331C63 287 98 252 142 252Z"/>
<glyph unicode="&#xb8;" horiz-adv-x="400" d="M184 -245C252 -245 313 -219 313 -152L313 -138C313 -88 286 -59 217 -53L217 16L143 16L137 -106C201 -106 226 -113 226 -139L226 -147C226 -175 205 -178 177 -178C160 -178 139 -176 114 -171L98 -230C123 -239 153 -245 184 -245Z"/>
<glyph unicode="&#xb9;" horiz-adv-x="500" d="M91 415L429 415L429 494L322 494L322 940L244 940L71 847L109 779L216 828L216 494L91 494Z"/>
<glyph unicode="&#xba;" horiz-adv-x="466" d="M232 289C364 289 425 368 425 480L425 521C425 634 364 712 232 712C101 712 41 634 41 521L41 480C41 368 99 289 232 289ZM232 368C169 368 146 404 146 480L146 523C146 599 169 635 232 635C295 635 319 599 319 523L319 480C319 404 295 368 232 368Z"/>
<glyph unicode="&#xbb;" horiz-adv-x="619" d="M145 34L323 256L323 316L146 535L79 490L212 286L77 78ZM374 34L552 256L552 316L375 535L308 490L441 286L307 78Z"/>
<glyph unicode="&#xbc;" horiz-adv-x="1225" d="M504 -15L809 724L721 756L417 16ZM91 215L429 215L429 294L322 294L322 740L244 740L71 647L109 579L216 628L216 294L91 294ZM1010 0L1117 0L1117 98L1185 98L1185 180L1117 180L1117 316L1033 315L1012 180L879 180L1046 525L943 525L765 162L765 98L1010 98Z"/>
<glyph unicode="&#xbd;" horiz-adv-x="1225" d="M504 -15L809 724L721 756L417 16ZM91 215L429 215L429 294L322 294L322 740L244 740L71 647L109 579L216 628L216 294L91 294ZM798 0L1163 0L1163 84L902 84C904 121 921 147 981 185L1048 227C1127 278 1162 318 1162 372L1162 397C1162 472 1095 535 973 535C897 535 838 512 785 474L831 409C878 440 916 454 965 454C1028 454 1055 423 1055 392L1055 376C1055 344 1038 327 987 293L908 243C843 202 798 151 798 58Z"/>
<glyph unicode="&#xbe;" horiz-adv-x="1225" d="M504 -15L809 724L721 756L417 16ZM247 204C367 204 456 267 456 351L456 385C456 452 388 490 337 498C388 508 437 546 437 594L437 623C437 699 353 751 251 751C160 751 100 718 53 674L107 619C148 655 190 673 241 673C289 673 331 655 331 609L331 593C331 544 281 530 236 530L189 530L189 455L236 455C282 455 349 441 349 380L349 362C349 308 299 284 240 284C181 284 137 308 103 342L43 286C87 240 143 204 247 204ZM1010 0L1117 0L1117 98L1185 98L1185 180L1117 180L1117 316L1033 315L1012 180L879 180L1046 525L943 525L765 162L765 98L1010 98Z"/>
<glyph unicode="&#xbf;" horiz-adv-x="486" d="M264 513C219 513 185 478 185 434C185 391 219 355 264 355C307 355 342 391 342 434C342 478 307 513 264 513ZM323 264L205 264L205 239C205 126 28 119 28 -17L28 -47C28 -138 107 -213 241 -213C341 -213 407 -179 466 -132L410 -58C355 -96 316 -117 252 -117C191 -117 156 -85 156 -36L156 -12C156 74 323 94 323 235Z"/>
<glyph unicode="&#xc0;" horiz-adv-x="640" d="M442 810L231 914L193 831L411 743ZM495 0L625 0L400 700L229 700L15 0L142 0L195 184L437 184ZM314 612L407 285L223 285Z"/>
<glyph unicode="&#xc1;" horiz-adv-x="640" d="M441 831L402 914L192 810L223 743ZM495 0L625 0L400 700L229 700L15 0L142 0L195 184L437 184ZM314 612L407 285L223 285Z"/>
<glyph unicode="&#xc2;" horiz-adv-x="640" d="M318 831L446 741L490 798L353 914L283 914L146 798L191 741ZM495 0L625 0L400 700L229 700L15 0L142 0L195 184L437 184ZM314 612L407 285L223 285Z"/>
<glyph unicode="&#xc3;" horiz-adv-x="640" d="M261 798C293 798 322 750 376 750C429 750 474 791 498 843L428 877C412 847 399 831 375 831C343 831 314 879 260 879C207 879 162 838 138 786L208 752C224 782 237 798 261 798ZM495 0L625 0L400 700L229 700L15 0L142 0L195 184L437 184ZM314 612L407 285L223 285Z"/>
<glyph unicode="&#xc4;" horiz-adv-x="640" d="M201 776C238 776 267 805 267 841C267 877 238 906 201 906C164 906 134 877 134 841C134 805 164 776 201 776ZM435 776C473 776 502 805 502 841C502 877 473 906 435 906C399 906 370 877 370 841C370 805 399 776 435 776ZM495 0L625 0L400 700L229 700L15 0L142 0L195 184L437 184ZM314 612L407 285L223 285Z"/>
<glyph unicode="&#xc5;" horiz-adv-x="640" d="M318 724C391 724 445 773 445 834L445 852C445 913 391 964 318 964C245 964 192 913 192 852L192 834C192 773 245 724 318 724ZM267 851C267 882 288 900 318 900C348 900 369 882 369 851L369 835C369 804 348 788 318 788C288 788 267 804 267 835ZM495 0L625 0L400 700L229 700L15 0L142 0L195 184L437 184ZM314 612L407 285L223 285Z"/>
<glyph unicode="&#xc6;" horiz-adv-x="970" d="M600 98L547 308L850 308L850 403L523 403L472 605L883 605L883 700L448 700L277 700L15 0L142 0L205 184L451 184L495 0L546 0L916 0L916 98ZM356 609L429 284L240 284Z"/>
<glyph unicode="&#xc7;" horiz-adv-x="583" d="M556 60L503 135C463 108 414 84 345 84C243 84 192 142 192 252L192 441C192 553 249 616 351 616C415 616 458 594 498 565L562 637C508 680 446 713 347 713C172 713 66 605 66 434L66 250C66 109 146 10 289 -10L284 -106C349 -106 374 -113 374 -139L374 -147C374 -175 353 -178 325 -178C308 -178 287 -176 262 -171L246 -230C271 -239 301 -245 331 -245C400 -245 461 -219 461 -152L461 -138C461 -88 433 -59 365 -53L365 -12C446 -7 513 26 556 60Z"/>
<glyph unicode="&#xc8;" horiz-adv-x="582" d="M435 810L224 914L186 831L404 743ZM514 603L514 700L231 700L105 700L105 0L117 0L514 0L514 98L231 98L231 307L492 307L492 404L231 404L231 603Z"/>
<glyph unicode="&#xc9;" horiz-adv-x="582" d="M434 831L395 914L185 810L216 743ZM514 603L514 700L231 700L105 700L105 0L117 0L514 0L514 98L231 98L231 307L492 307L492 404L231 404L231 603Z"/>
<glyph unicode="&#xca;" horiz-adv-x="582" d="M311 831L439 741L483 798L346 914L276 914L139 798L184 741ZM514 603L514 700L231 700L105 700L105 0L117 0L514 0L514 98L231 98L231 307L492 307L492 404L231 404L231 603Z"/>
<glyph unicode="&#xcb;" horiz-adv-x="582" d="M193 776C230 776 259 805 259 841C259 877 230 906 193 906C156 906 126 877 126 841C126 805 156 776 193 776ZM427 776C465 776 494 805 494 841C494 877 465 906 427 906C391 906 362 877 362 841C362 805 391 776 427 776ZM514 603L514 700L231 700L105 700L105 0L117 0L514 0L514 98L231 98L231 307L492 307L492 404L231 404L231 603Z"/>
<glyph unicode="&#xcc;" horiz-adv-x="444" d="M346 810L135 914L97 831L315 743ZM375 603L375 700L285 700L69 700L69 603L159 603L159 97L69 97L69 0L159 0L375 0L375 97L285 97L285 603Z"/>
<glyph unicode="&#xcd;" horiz-adv-x="444" d="M345 831L306 914L96 810L127 743ZM375 603L375 700L285 700L69 700L69 603L159 603L159 97L69 97L69 0L159 0L375 0L375 97L285 97L285 603Z"/>
<glyph unicode="&#xce;" horiz-adv-x="444" d="M222 831L350 741L394 798L257 914L187 914L50 798L95 741ZM375 700L69 700L69 603L159 603L159 97L69 97L69 0L159 0L375 0L375 97L285 97L285 603L375 603Z"/>
<glyph unicode="&#xcf;" horiz-adv-x="444" d="M171 841C171 877 142 906 105 906C68 906 38 877 38 841C38 805 68 776 105 776C142 776 171 805 171 841ZM339 906C303 906 274 877 274 841C274 805 303 776 339 776C377 776 406 805 406 841C406 877 377 906 339 906ZM375 700L69 700L69 603L159 603L159 97L69 97L69 0L159 0L375 0L375 97L285 97L285 603L375 603Z"/>
<glyph unicode="&#xd0;" horiz-adv-x="685" d="M334 700L231 700L105 700L105 387L62 387L62 311L105 311L105 0L190 0L309 0C511 0 619 114 619 296L619 420C619 588 524 700 334 700ZM493 294C493 161 432 97 310 97L231 97L231 311L372 311L372 387L231 387L231 603L328 603C439 603 493 537 493 423Z"/>
<glyph unicode="&#xd1;" horiz-adv-x="741" d="M324 798C356 798 385 750 439 750C492 750 537 791 561 843L491 877C475 847 462 831 438 831C406 831 377 879 323 879C270 879 225 838 201 786L271 752C287 782 300 798 324 798ZM525 700L525 175L256 700L105 700L105 0L216 0L216 542L491 0L637 0L637 700Z"/>
<glyph unicode="&#xd2;" horiz-adv-x="706" d="M446 743L477 810L266 914L228 831ZM353 713C161 713 66 593 66 428L66 271C66 108 162 -13 353 -13C546 -13 641 108 641 271L641 428C641 593 546 713 353 713ZM353 616C462 616 514 542 514 429L514 269C514 159 463 84 353 84C243 84 192 159 192 269L192 429C192 542 244 616 353 616Z"/>
<glyph unicode="&#xd3;" horiz-adv-x="706" d="M259 743L477 831L438 914L228 810ZM353 713C161 713 66 593 66 428L66 271C66 108 162 -13 353 -13C546 -13 641 108 641 271L641 428C641 593 546 713 353 713ZM353 616C462 616 514 542 514 429L514 269C514 159 463 84 353 84C243 84 192 159 192 269L192 429C192 542 244 616 353 616Z"/>
<glyph unicode="&#xd4;" horiz-adv-x="706" d="M226 741L353 831L481 741L525 798L388 914L318 914L181 798ZM353 713C161 713 66 593 66 428L66 271C66 108 162 -13 353 -13C546 -13 641 108 641 271L641 428C641 593 546 713 353 713ZM353 616C462 616 514 542 514 429L514 269C514 159 463 84 353 84C243 84 192 159 192 269L192 429C192 542 244 616 353 616Z"/>
<glyph unicode="&#xd5;" horiz-adv-x="706" d="M411 750C464 750 509 791 533 843L463 877C447 847 434 831 410 831C378 831 349 879 295 879C242 879 197 838 173 786L243 752C259 782 272 798 296 798C328 798 357 750 411 750ZM353 713C161 713 66 593 66 428L66 271C66 108 162 -13 353 -13C546 -13 641 108 641 271L641 428C641 593 546 713 353 713ZM353 616C462 616 514 542 514 429L514 269C514 159 463 84 353 84C243 84 192 159 192 269L192 429C192 542 244 616 353 616Z"/>
<glyph unicode="&#xd6;" horiz-adv-x="706" d="M236 776C273 776 302 805 302 841C302 877 273 906 236 906C199 906 169 877 169 841C169 805 199 776 236 776ZM470 776C508 776 537 805 537 841C537 877 508 906 470 906C434 906 405 877 405 841C405 805 434 776 470 776ZM353 713C161 713 66 593 66 428L66 271C66 108 162 -13 353 -13C546 -13 641 108 641 271L641 428C641 593 546 713 353 713ZM353 616C462 616 514 542 514 429L514 269C514 159 463 84 353 84C243 84 192 159 192 269L192 429C192 542 244 616 353 616Z"/>
<glyph unicode="&#xd7;" horiz-adv-x="600" d="M481 455L412 523L300 411L187 523L119 455L231 342L119 230L187 161L300 273L412 161L481 230L369 342Z"/>
<glyph unicode="&#xd8;" horiz-adv-x="706" d="M567 635L621 730L540 773L491 687C452 704 406 713 353 713C161 713 66 593 66 428L66 271C66 186 92 113 143 62L93 -29L175 -72L221 11C258 -5 302 -13 353 -13C546 -13 641 108 641 271L641 428C641 511 616 584 567 635ZM192 429C192 542 244 616 353 616C393 616 425 607 450 589L213 164C199 193 192 229 192 269ZM514 269C514 159 463 84 353 84C316 84 286 92 262 108L496 531C508 503 514 468 514 429Z"/>
<glyph unicode="&#xd9;" horiz-adv-x="707" d="M446 743L477 810L266 914L228 831ZM623 700L497 700L497 226C497 141 455 84 353 84C251 84 210 141 210 226L210 700L83 700L83 226C83 90 172 -13 353 -13C537 -13 623 90 623 226Z"/>
<glyph unicode="&#xda;" horiz-adv-x="707" d="M259 743L477 831L438 914L228 810ZM623 700L497 700L497 226C497 141 455 84 353 84C251 84 210 141 210 226L210 700L83 700L83 226C83 90 172 -13 353 -13C537 -13 623 90 623 226Z"/>
<glyph unicode="&#xdb;" horiz-adv-x="707" d="M227 741L354 831L482 741L526 798L389 914L319 914L182 798ZM623 700L497 700L497 226C497 141 455 84 353 84C251 84 210 141 210 226L210 700L83 700L83 226C83 90 172 -13 353 -13C537 -13 623 90 623 226Z"/>
<glyph unicode="&#xdc;" horiz-adv-x="707" d="M236 776C273 776 302 805 302 841C302 877 273 906 236 906C199 906 169 877 169 841C169 805 199 776 236 776ZM470 776C508 776 537 805 537 841C537 877 508 906 470 906C434 906 405 877 405 841C405 805 434 776 470 776ZM623 700L497 700L497 226C497 141 455 84 353 84C251 84 210 141 210 226L210 700L83 700L83 226C83 90 172 -13 353 -13C537 -13 623 90 623 226Z"/>
<glyph unicode="&#xdd;" horiz-adv-x="582" d="M415 831L376 914L166 810L197 743ZM578 700L451 700L295 383L136 700L4 700L228 285L228 0L355 0L355 286Z"/>
<glyph unicode="&#xde;" horiz-adv-x="631" d="M336 580L231 580L231 700L105 700L105 0L231 0L231 120L319 120C478 120 584 194 584 322L584 380C584 509 487 580 336 580ZM458 329C458 249 404 216 315 216L231 216L231 484L330 484C408 484 458 450 458 374Z"/>
<glyph unicode="&#xdf;" horiz-adv-x="635" d="M387 -13C506 -13 599 47 599 157L599 193C599 283 548 319 470 354C389 390 371 403 371 424L371 439C371 461 396 475 534 527C533 672 445 753 307 753C167 753 76 669 76 538L76 0L199 0L199 548C199 630 247 662 310 662C372 662 412 626 417 572C284 522 262 491 262 437L262 415C262 339 291 317 392 276C456 249 477 229 477 179L477 159C477 107 440 79 380 79C347 79 314 86 286 97L251 16C292 -3 339 -13 387 -13Z"/>
<glyph unicode="&#xe0;" horiz-adv-x="558" d="M404 667L196 778L153 696L371 601ZM275 546C195 546 125 523 71 490L109 413C159 438 205 453 264 453C327 453 359 426 359 363L359 327L261 327C122 327 40 266 40 173L40 138C40 44 123 -13 217 -13C276 -13 330 7 375 51L385 0L482 0L482 359C482 472 417 546 275 546ZM241 79C188 79 163 106 163 148L163 168C163 222 200 249 273 249L359 249L359 131C328 95 286 79 241 79Z"/>
<glyph unicode="&#xe1;" horiz-adv-x="558" d="M404 696L361 778L153 667L186 601ZM275 546C195 546 125 523 71 490L109 413C159 438 205 453 264 453C327 453 359 426 359 363L359 327L261 327C122 327 40 266 40 173L40 138C40 44 123 -13 217 -13C276 -13 330 7 375 51L385 0L482 0L482 359C482 472 417 546 275 546ZM241 79C188 79 163 106 163 148L163 168C163 222 200 249 273 249L359 249L359 131C328 95 286 79 241 79Z"/>
<glyph unicode="&#xe2;" horiz-adv-x="558" d="M279 688L407 597L451 655L314 771L244 771L107 655L152 597ZM275 546C195 546 125 523 71 490L109 413C159 438 205 453 264 453C327 453 359 426 359 363L359 327L261 327C122 327 40 266 40 173L40 138C40 44 123 -13 217 -13C276 -13 330 7 375 51L385 0L482 0L482 359C482 472 417 546 275 546ZM241 79C188 79 163 106 163 148L163 168C163 222 200 249 273 249L359 249L359 131C328 95 286 79 241 79Z"/>
<glyph unicode="&#xe3;" horiz-adv-x="558" d="M222 672C254 672 283 624 337 624C390 624 435 665 459 717L389 751C373 721 360 705 336 705C304 705 275 753 221 753C168 753 123 712 99 660L169 626C185 656 198 672 222 672ZM275 546C195 546 125 523 71 490L109 413C159 438 205 453 264 453C327 453 359 426 359 363L359 327L261 327C122 327 40 266 40 173L40 138C40 44 123 -13 217 -13C276 -13 330 7 375 51L385 0L482 0L482 359C482 472 417 546 275 546ZM241 79C188 79 163 106 163 148L163 168C163 222 200 249 273 249L359 249L359 131C328 95 286 79 241 79Z"/>
<glyph unicode="&#xe4;" horiz-adv-x="558" d="M161 622C198 622 227 651 227 687C227 723 198 752 161 752C124 752 94 723 94 687C94 651 124 622 161 622ZM395 622C433 622 462 651 462 687C462 723 433 752 395 752C359 752 330 723 330 687C330 651 359 622 395 622ZM275 546C195 546 125 523 71 490L109 413C159 438 205 453 264 453C327 453 359 426 359 363L359 327L261 327C122 327 40 266 40 173L40 138C40 44 123 -13 217 -13C276 -13 330 7 375 51L385 0L482 0L482 359C482 472 417 546 275 546ZM241 79C188 79 163 106 163 148L163 168C163 222 200 249 273 249L359 249L359 131C328 95 286 79 241 79Z"/>
<glyph unicode="&#xe5;" horiz-adv-x="558" d="M279 598C352 598 406 647 406 708L406 726C406 787 352 838 279 838C206 838 153 787 153 726L153 708C153 647 206 598 279 598ZM228 725C228 756 249 774 279 774C309 774 330 756 330 725L330 709C330 678 309 662 279 662C249 662 228 678 228 709ZM275 546C195 546 125 523 71 490L109 413C159 438 205 453 264 453C327 453 359 426 359 363L359 327L261 327C122 327 40 266 40 173L40 138C40 44 123 -13 217 -13C276 -13 330 7 375 51L385 0L482 0L482 359C482 472 417 546 275 546ZM241 79C188 79 163 106 163 148L163 168C163 222 200 249 273 249L359 249L359 131C328 95 286 79 241 79Z"/>
<glyph unicode="&#xe6;" horiz-adv-x="871" d="M822 239C824 255 826 277 826 299C826 456 740 546 599 546C523 546 461 509 430 446C410 513 355 546 275 546C195 546 125 523 71 490L109 413C159 438 205 453 264 453C327 453 359 426 359 363L359 319L261 319C122 319 40 257 40 173L40 138C40 44 123 -13 217 -13C290 -13 356 11 408 79C450 22 520 -13 612 -13C690 -13 762 16 806 50L763 124C722 101 682 80 621 80C529 80 472 127 472 233L472 239ZM598 458C674 458 715 407 715 324L715 319L473 319C479 410 524 458 598 458ZM241 79C188 79 163 106 163 148L163 168C163 213 200 239 273 239L359 239L359 238C359 208 363 180 371 154C338 105 291 79 241 79Z"/>
<glyph unicode="&#xe7;" horiz-adv-x="491" d="M463 50L412 123C379 100 344 80 295 80C215 80 171 134 171 242L171 291C171 400 218 452 296 452C343 452 375 439 408 410L467 476C418 523 363 546 291 546C134 546 47 443 47 289L47 244C47 109 116 13 236 -9L231 -106C296 -106 321 -113 321 -139L321 -147C321 -175 300 -178 272 -178C255 -178 234 -176 209 -171L193 -230C218 -239 248 -245 278 -245C347 -245 408 -219 408 -152L408 -138C408 -88 380 -59 312 -53L312 -12C369 -7 424 17 463 50Z"/>
<glyph unicode="&#xe8;" horiz-adv-x="560" d="M410 667L202 778L159 696L377 601ZM515 287C515 456 430 546 285 546C137 546 47 437 47 293L47 238C47 94 139 -13 301 -13C378 -13 450 16 495 50L451 124C410 101 367 80 309 80C217 80 170 125 168 227L511 227C513 243 515 265 515 287ZM404 308L168 308C170 405 210 455 286 455C363 455 404 405 404 313Z"/>
<glyph unicode="&#xe9;" horiz-adv-x="560" d="M410 696L367 778L159 667L192 601ZM515 287C515 456 430 546 285 546C137 546 47 437 47 293L47 238C47 94 139 -13 301 -13C378 -13 450 16 495 50L451 124C410 101 367 80 309 80C217 80 170 125 168 227L511 227C513 243 515 265 515 287ZM404 308L168 308C170 405 210 455 286 455C363 455 404 405 404 313Z"/>
<glyph unicode="&#xea;" horiz-adv-x="560" d="M285 688L413 597L457 655L320 771L250 771L113 655L158 597ZM515 287C515 456 430 546 285 546C137 546 47 437 47 293L47 238C47 94 139 -13 301 -13C378 -13 450 16 495 50L451 124C410 101 367 80 309 80C217 80 170 125 168 227L511 227C513 243 515 265 515 287ZM404 308L168 308C170 405 210 455 286 455C363 455 404 405 404 313Z"/>
<glyph unicode="&#xeb;" horiz-adv-x="560" d="M168 622C205 622 234 651 234 687C234 723 205 752 168 752C131 752 101 723 101 687C101 651 131 622 168 622ZM402 622C440 622 469 651 469 687C469 723 440 752 402 752C366 752 337 723 337 687C337 651 366 622 402 622ZM515 287C515 456 430 546 285 546C137 546 47 437 47 293L47 238C47 94 139 -13 301 -13C378 -13 450 16 495 50L451 124C410 101 367 80 309 80C217 80 170 125 168 227L511 227C513 243 515 265 515 287ZM404 308L168 308C170 405 210 455 286 455C363 455 404 405 404 313Z"/>
<glyph unicode="&#xec;" horiz-adv-x="317" d="M81 778L38 696L256 601L289 667ZM27 532L27 440L107 440L107 0L231 0L231 532Z"/>
<glyph unicode="&#xed;" horiz-adv-x="317" d="M289 696L246 778L38 667L71 601ZM27 532L27 440L107 440L107 0L231 0L231 532Z"/>
<glyph unicode="&#xee;" horiz-adv-x="317" d="M199 771L129 771L-8 655L37 597L164 688L292 597L336 655ZM27 532L27 440L107 440L107 0L231 0L231 532Z"/>
<glyph unicode="&#xef;" horiz-adv-x="317" d="M113 687C113 723 84 752 47 752C10 752 -20 723 -20 687C-20 651 10 622 47 622C84 622 113 651 113 687ZM281 752C245 752 216 723 216 687C216 651 245 622 281 622C319 622 348 651 348 687C348 723 319 752 281 752ZM27 532L27 440L107 440L107 0L231 0L231 532Z"/>
<glyph unicode="&#xf0;" horiz-adv-x="600" d="M372 684L419 764L339 806L291 724C243 741 188 751 127 753L127 657C170 655 208 649 241 639L197 564L277 522L323 601C391 555 426 482 426 381L426 380C388 431 335 462 248 462C118 462 47 372 47 259L47 216C47 95 130 -13 293 -13C448 -13 548 97 548 262L548 311C548 479 487 610 372 684ZM292 80C210 80 171 131 171 220L171 256C171 324 199 371 274 371C342 371 384 339 426 283L426 257C426 133 374 80 292 80Z"/>
<glyph unicode="&#xf1;" horiz-adv-x="608" d="M247 672C279 672 308 624 362 624C415 624 460 665 484 717L414 751C398 721 385 705 361 705C329 705 300 753 246 753C193 753 148 712 124 660L194 626C210 656 223 672 247 672ZM358 546C287 546 237 521 200 477L192 532L86 532L86 0L210 0L210 385C240 427 277 452 325 452C376 452 408 425 408 358L408 0L532 0L532 368C532 483 457 546 358 546Z"/>
<glyph unicode="&#xf2;" horiz-adv-x="595" d="M389 601L422 667L214 778L171 696ZM296 546C133 546 47 440 47 294L47 240C47 91 133 -13 296 -13C460 -13 548 91 548 240L548 294C548 440 460 546 296 546ZM296 452C379 452 424 398 424 296L424 240C424 135 379 80 296 80C214 80 171 135 171 240L171 296C171 398 214 452 296 452Z"/>
<glyph unicode="&#xf3;" horiz-adv-x="595" d="M204 601L422 696L379 778L171 667ZM296 546C133 546 47 440 47 294L47 240C47 91 133 -13 296 -13C460 -13 548 91 548 240L548 294C548 440 460 546 296 546ZM296 452C379 452 424 398 424 296L424 240C424 135 379 80 296 80C214 80 171 135 171 240L171 296C171 398 214 452 296 452Z"/>
<glyph unicode="&#xf4;" horiz-adv-x="595" d="M170 597L297 688L425 597L469 655L332 771L262 771L125 655ZM296 546C133 546 47 440 47 294L47 240C47 91 133 -13 296 -13C460 -13 548 91 548 240L548 294C548 440 460 546 296 546ZM296 452C379 452 424 398 424 296L424 240C424 135 379 80 296 80C214 80 171 135 171 240L171 296C171 398 214 452 296 452Z"/>
<glyph unicode="&#xf5;" horiz-adv-x="595" d="M355 624C408 624 453 665 477 717L407 751C391 721 378 705 354 705C322 705 293 753 239 753C186 753 141 712 117 660L187 626C203 656 216 672 240 672C272 672 301 624 355 624ZM296 546C133 546 47 440 47 294L47 240C47 91 133 -13 296 -13C460 -13 548 91 548 240L548 294C548 440 460 546 296 546ZM296 452C379 452 424 398 424 296L424 240C424 135 379 80 296 80C214 80 171 135 171 240L171 296C171 398 214 452 296 452Z"/>
<glyph unicode="&#xf6;" horiz-adv-x="595" d="M180 622C217 622 246 651 246 687C246 723 217 752 180 752C143 752 113 723 113 687C113 651 143 622 180 622ZM414 622C452 622 481 651 481 687C481 723 452 752 414 752C378 752 349 723 349 687C349 651 378 622 414 622ZM296 546C133 546 47 440 47 294L47 240C47 91 133 -13 296 -13C460 -13 548 91 548 240L548 294C548 440 460 546 296 546ZM296 452C379 452 424 398 424 296L424 240C424 135 379 80 296 80C214 80 171 135 171 240L171 296C171 398 214 452 296 452Z"/>
<glyph unicode="&#xf7;" horiz-adv-x="600" d="M314 627C270 627 235 592 235 548C235 505 270 469 314 469C358 469 392 505 392 548C392 592 358 627 314 627ZM493 295L493 393L107 393L107 295ZM314 59C358 59 392 94 392 138C392 181 358 217 314 217C270 217 235 181 235 138C235 94 270 59 314 59Z"/>
<glyph unicode="&#xf8;" horiz-adv-x="595" d="M472 485L514 562L431 602L391 532C363 541 331 546 296 546C133 546 47 440 47 294L47 240C47 159 72 92 121 47L80 -27L163 -68L202 1C230 -8 261 -13 296 -13C460 -13 548 91 548 240L548 294C548 373 522 440 472 485ZM169 296C169 398 214 454 296 454C319 454 339 450 356 441L189 141C176 166 169 200 169 240ZM425 240C425 136 379 79 296 79C275 79 255 83 239 91L405 392C418 367 425 335 425 296Z"/>
<glyph unicode="&#xf9;" horiz-adv-x="605" d="M428 667L220 778L177 696L395 601ZM395 532L395 148C364 105 320 80 275 80C226 80 200 107 200 155L200 532L76 532L76 149C76 49 151 -13 245 -13C310 -13 364 14 405 59L414 0L519 0L519 532Z"/>
<glyph unicode="&#xfa;" horiz-adv-x="605" d="M428 696L385 778L177 667L210 601ZM395 532L395 148C364 105 320 80 275 80C226 80 200 107 200 155L200 532L76 532L76 149C76 49 151 -13 245 -13C310 -13 364 14 405 59L414 0L519 0L519 532Z"/>
<glyph unicode="&#xfb;" horiz-adv-x="605" d="M303 688L431 597L475 655L338 771L268 771L131 655L176 597ZM395 532L395 148C364 105 320 80 275 80C226 80 200 107 200 155L200 532L76 532L76 149C76 49 151 -13 245 -13C310 -13 364 14 405 59L414 0L519 0L519 532Z"/>
<glyph unicode="&#xfc;" horiz-adv-x="605" d="M185 622C222 622 251 651 251 687C251 723 222 752 185 752C148 752 118 723 118 687C118 651 148 622 185 622ZM419 622C457 622 486 651 486 687C486 723 457 752 419 752C383 752 354 723 354 687C354 651 383 622 419 622ZM395 532L395 148C364 105 320 80 275 80C226 80 200 107 200 155L200 532L76 532L76 149C76 49 151 -13 245 -13C310 -13 364 14 405 59L414 0L519 0L519 532Z"/>
<glyph unicode="&#xfd;" horiz-adv-x="542" d="M179 601L397 696L354 778L146 667ZM151 -213C241 -213 303 -177 336 -65L517 532L394 532L279 92L153 532L25 532L196 0L250 0L233 -58C220 -107 191 -125 145 -125C125 -125 109 -123 89 -119L72 -200C90 -207 121 -213 151 -213Z"/>
<glyph unicode="&#xfe;" horiz-adv-x="602" d="M349 546C290 546 245 526 210 491L210 740L86 740L86 -200L210 -200L210 35C243 5 283 -13 333 -13C455 -13 551 93 551 240L551 294C551 448 471 546 349 546ZM426 236C426 134 381 81 312 81C271 81 237 97 210 125L210 395C237 429 275 452 323 452C391 452 426 402 426 298Z"/>
<glyph unicode="&#xff;" horiz-adv-x="542" d="M154 622C191 622 220 651 220 687C220 723 191 752 154 752C117 752 87 723 87 687C87 651 117 622 154 622ZM388 622C426 622 455 651 455 687C455 723 426 752 388 752C352 752 323 723 323 687C323 651 352 622 388 622ZM151 -213C241 -213 303 -177 336 -65L517 532L394 532L279 92L153 532L25 532L196 0L250 0L233 -58C220 -107 191 -125 145 -125C125 -125 109 -123 89 -119L72 -200C90 -207 121 -213 151 -213Z"/>
<glyph unicode="&#x100;" horiz-adv-x="640" d="M458 858L177 858L177 779L458 779ZM495 0L625 0L400 700L229 700L15 0L142 0L195 184L437 184ZM314 612L407 285L223 285Z"/>
<glyph unicode="&#x101;" horiz-adv-x="558" d="M419 715L138 715L138 636L419 636ZM275 546C195 546 125 523 71 490L109 413C159 438 205 453 264 453C327 453 359 426 359 363L359 327L261 327C122 327 40 266 40 173L40 138C40 44 123 -13 217 -13C276 -13 330 7 375 51L385 0L482 0L482 359C482 472 417 546 275 546ZM241 79C188 79 163 106 163 148L163 168C163 222 200 249 273 249L359 249L359 131C328 95 286 79 241 79Z"/>
<glyph unicode="&#x102;" horiz-adv-x="640" d="M316 754C403 754 467 808 486 894L406 908C392 859 363 834 316 834C270 834 243 859 229 908L149 894C169 808 230 754 316 754ZM495 0L625 0L400 700L229 700L15 0L142 0L195 184L437 184ZM314 612L407 285L223 285Z"/>
<glyph unicode="&#x103;" horiz-adv-x="558" d="M277 614C364 614 428 668 444 755L367 769C353 719 324 694 277 694C231 694 204 719 190 769L113 755C130 668 191 614 277 614ZM275 546C195 546 125 523 71 490L109 413C159 438 205 453 264 453C327 453 359 426 359 363L359 327L261 327C122 327 40 266 40 173L40 138C40 44 123 -13 217 -13C276 -13 330 7 375 51L385 0L482 0L482 359C482 472 417 546 275 546ZM241 79C188 79 163 106 163 148L163 168C163 222 200 249 273 249L359 249L359 131C328 95 286 79 241 79Z"/>
<glyph unicode="&#x104;" horiz-adv-x="640" d="M612 0L625 0L400 700L229 700L15 0L142 0L195 184L437 184L492 7C424 -25 383 -73 383 -128C383 -193 433 -235 512 -235C539 -235 558 -232 578 -228L588 -151C564 -156 547 -158 527 -158C486 -158 471 -143 471 -116C471 -72 508 -32 612 0ZM314 612L407 285L223 285Z"/>
<glyph unicode="&#x105;" horiz-adv-x="558" d="M275 546C195 546 125 523 71 490L109 413C159 438 205 453 264 453C327 453 359 426 359 363L359 327L261 327C122 327 40 266 40 173L40 138C40 44 123 -13 217 -13C276 -13 330 7 375 51L382 15C301 -16 253 -68 253 -128C253 -193 303 -235 382 -235C409 -235 428 -232 448 -228L458 -151C434 -156 417 -158 397 -158C356 -158 341 -143 341 -116C341 -72 378 -32 482 0L482 359C482 472 417 546 275 546ZM241 79C188 79 163 106 163 148L163 168C163 222 200 249 273 249L359 249L359 131C328 95 286 79 241 79Z"/>
<glyph unicode="&#x106;" horiz-adv-x="583" d="M248 743L466 831L427 914L217 810ZM342 -13C434 -13 509 23 556 60L503 135C463 108 414 84 345 84C243 84 192 142 192 252L192 441C192 553 249 616 351 616C415 616 458 594 498 565L562 637C508 680 446 713 347 713C172 713 66 605 66 434L66 250C66 92 166 -13 342 -13Z"/>
<glyph unicode="&#x107;" horiz-adv-x="491" d="M193 601L411 696L368 778L160 667ZM289 -13C353 -13 419 13 463 50L412 123C379 100 344 80 295 80C215 80 171 134 171 242L171 291C171 400 218 452 296 452C343 452 375 439 408 410L467 476C418 523 363 546 291 546C134 546 47 443 47 289L47 244C47 90 136 -13 289 -13Z"/>
<glyph unicode="&#x108;" horiz-adv-x="583" d="M216 741L343 831L471 741L515 798L378 914L308 914L171 798ZM342 -13C434 -13 509 23 556 60L503 135C463 108 414 84 345 84C243 84 192 142 192 252L192 441C192 553 249 616 351 616C415 616 458 594 498 565L562 637C508 680 446 713 347 713C172 713 66 605 66 434L66 250C66 92 166 -13 342 -13Z"/>
<glyph unicode="&#x109;" horiz-adv-x="491" d="M159 597L286 688L414 597L458 655L321 771L251 771L114 655ZM289 -13C353 -13 419 13 463 50L412 123C379 100 344 80 295 80C215 80 171 134 171 242L171 291C171 400 218 452 296 452C343 452 375 439 408 410L467 476C418 523 363 546 291 546C134 546 47 443 47 289L47 244C47 90 136 -13 289 -13Z"/>
<glyph unicode="&#x10a;" horiz-adv-x="583" d="M342 753C384 753 417 786 417 827C417 869 384 902 342 902C301 902 267 869 267 827C267 786 301 753 342 753ZM342 -13C434 -13 509 23 556 60L503 135C463 108 414 84 345 84C243 84 192 142 192 252L192 441C192 553 249 616 351 616C415 616 458 594 498 565L562 637C508 680 446 713 347 713C172 713 66 605 66 434L66 250C66 92 166 -13 342 -13Z"/>
<glyph unicode="&#x10b;" horiz-adv-x="491" d="M286 615C328 615 361 648 361 689C361 731 328 764 286 764C245 764 211 731 211 689C211 648 245 615 286 615ZM289 -13C353 -13 419 13 463 50L412 123C379 100 344 80 295 80C215 80 171 134 171 242L171 291C171 400 218 452 296 452C343 452 375 439 408 410L467 476C418 523 363 546 291 546C134 546 47 443 47 289L47 244C47 90 136 -13 289 -13Z"/>
<glyph unicode="&#x10c;" horiz-adv-x="583" d="M308 741L378 741L515 856L471 914L343 824L216 914L171 856ZM342 -13C434 -13 509 23 556 60L503 135C463 108 414 84 345 84C243 84 192 142 192 252L192 441C192 553 249 616 351 616C415 616 458 594 498 565L562 637C508 680 446 713 347 713C172 713 66 605 66 434L66 250C66 92 166 -13 342 -13Z"/>
<glyph unicode="&#x10d;" horiz-adv-x="491" d="M251 597L321 597L458 713L414 771L286 680L159 771L114 713ZM289 -13C353 -13 419 13 463 50L412 123C379 100 344 80 295 80C215 80 171 134 171 242L171 291C171 400 218 452 296 452C343 452 375 439 408 410L467 476C418 523 363 546 291 546C134 546 47 443 47 289L47 244C47 90 136 -13 289 -13Z"/>
<glyph unicode="&#x10e;" horiz-adv-x="685" d="M358 741L495 856L451 914L323 824L196 914L151 856L288 741ZM334 700L231 700L105 700L105 0L190 0L309 0C511 0 619 114 619 296L619 420C619 588 524 700 334 700ZM493 294C493 161 432 97 310 97L231 97L231 603L328 603C439 603 493 537 493 423Z"/>
<glyph unicode="&#x10f;" horiz-adv-x="691" d="M606 755L581 557L657 546L707 740ZM394 499C360 530 320 546 268 546C139 546 51 440 51 294L51 238C51 86 138 -13 262 -13C327 -13 373 15 408 58L421 0L518 0L518 740L394 740ZM284 80C217 80 175 130 175 236L175 297C175 398 218 452 289 452C335 452 372 432 394 408L394 142C366 104 333 80 284 80Z"/>
<glyph unicode="&#x110;" horiz-adv-x="685" d="M334 700L231 700L105 700L105 387L62 387L62 311L105 311L105 0L190 0L309 0C511 0 619 114 619 296L619 420C619 588 524 700 334 700ZM493 294C493 161 432 97 310 97L231 97L231 311L372 311L372 387L231 387L231 603L328 603C439 603 493 537 493 423Z"/>
<glyph unicode="&#x111;" horiz-adv-x="616" d="M567 671L518 671L518 740L394 740L394 671L277 671L277 595L394 595L394 499C360 530 320 546 268 546C139 546 51 440 51 294L51 238C51 86 138 -13 262 -13C327 -13 373 15 408 58L421 0L518 0L518 595L567 595ZM284 80C217 80 175 130 175 236L175 297C175 398 218 452 289 452C335 452 372 432 394 408L394 142C366 104 333 80 284 80Z"/>
<glyph unicode="&#x112;" horiz-adv-x="582" d="M451 858L170 858L170 779L451 779ZM514 603L514 700L231 700L105 700L105 0L117 0L514 0L514 98L231 98L231 307L492 307L492 404L231 404L231 603Z"/>
<glyph unicode="&#x113;" horiz-adv-x="560" d="M425 715L144 715L144 636L425 636ZM515 287C515 456 430 546 285 546C137 546 47 437 47 293L47 238C47 94 139 -13 301 -13C378 -13 450 16 495 50L451 124C410 101 367 80 309 80C217 80 170 125 168 227L511 227C513 243 515 265 515 287ZM404 308L168 308C170 405 210 455 286 455C363 455 404 405 404 313Z"/>
<glyph unicode="&#x116;" horiz-adv-x="582" d="M310 753C352 753 385 786 385 827C385 869 352 902 310 902C269 902 235 869 235 827C235 786 269 753 310 753ZM514 603L514 700L231 700L105 700L105 0L117 0L514 0L514 98L231 98L231 307L492 307L492 404L231 404L231 603Z"/>
<glyph unicode="&#x117;" horiz-adv-x="560" d="M285 615C327 615 360 648 360 689C360 731 327 764 285 764C244 764 210 731 210 689C210 648 244 615 285 615ZM515 287C515 456 430 546 285 546C137 546 47 437 47 293L47 238C47 94 139 -13 301 -13C378 -13 450 16 495 50L451 124C410 101 367 80 309 80C217 80 170 125 168 227L511 227C513 243 515 265 515 287ZM404 308L168 308C170 405 210 455 286 455C363 455 404 405 404 313Z"/>
<glyph unicode="&#x118;" horiz-adv-x="582" d="M514 603L514 700L231 700L105 700L105 0L117 0L380 0C320 -32 285 -77 285 -128C285 -193 335 -235 414 -235C441 -235 460 -232 480 -228L490 -151C466 -156 449 -158 429 -158C388 -158 373 -143 373 -116C373 -72 410 -32 514 0L514 98L231 98L231 307L492 307L492 404L231 404L231 603Z"/>
<glyph unicode="&#x119;" horiz-adv-x="560" d="M515 287C515 456 430 546 285 546C137 546 47 437 47 293L47 238C47 98 134 -7 287 -13C231 -42 198 -79 198 -128C198 -193 248 -235 327 -235C354 -235 373 -232 393 -228L403 -151C379 -156 362 -158 341 -158C301 -158 286 -143 286 -116C286 -74 321 -36 420 9C449 20 475 34 495 50L451 124C410 101 367 80 309 80C217 80 170 125 168 227L511 227C513 243 515 265 515 287ZM404 308L168 308C170 405 210 455 286 455C363 455 404 405 404 313Z"/>
<glyph unicode="&#x11a;" horiz-adv-x="582" d="M346 741L483 856L439 914L311 824L184 914L139 856L276 741ZM514 603L514 700L231 700L105 700L105 0L117 0L514 0L514 98L231 98L231 307L492 307L492 404L231 404L231 603Z"/>
<glyph unicode="&#x11b;" horiz-adv-x="560" d="M320 597L457 713L413 771L285 680L158 771L113 713L250 597ZM515 287C515 456 430 546 285 546C137 546 47 437 47 293L47 238C47 94 139 -13 301 -13C378 -13 450 16 495 50L451 124C410 101 367 80 309 80C217 80 170 125 168 227L511 227C513 243 515 265 515 287ZM404 308L168 308C170 405 210 455 286 455C363 455 404 405 404 313Z"/>
<glyph unicode="&#x11c;" horiz-adv-x="671" d="M355 831L483 741L527 798L390 914L320 914L183 798L228 741ZM331 387L331 293L479 293L479 157C448 113 400 84 334 84C240 84 192 142 192 237L192 435C192 550 245 616 355 616C429 616 473 593 512 545L594 603C542 671 468 713 352 713C172 713 66 601 66 429L66 234C66 77 172 -13 307 -13C387 -13 448 18 491 60L502 0L601 0L601 387Z"/>
<glyph unicode="&#x11d;" horiz-adv-x="603" d="M288 688L416 597L460 655L323 771L253 771L116 655L161 597ZM416 532L407 485C369 525 324 546 262 546C153 546 51 462 51 294L51 249C51 73 144 0 255 0C316 0 363 27 397 66L397 -1C397 -84 352 -120 273 -120C211 -120 167 -109 122 -88L83 -163C135 -194 201 -213 282 -213C415 -213 518 -139 518 -2L518 532ZM276 94C216 94 175 128 175 249L175 297C175 417 223 452 284 452C331 452 365 433 393 399L393 155C364 116 323 94 276 94Z"/>
<glyph unicode="&#x11e;" horiz-adv-x="671" d="M353 754C440 754 504 808 523 894L443 908C429 859 400 834 353 834C307 834 280 859 266 908L186 894C206 808 267 754 353 754ZM331 387L331 293L479 293L479 157C448 113 400 84 334 84C240 84 192 142 192 237L192 435C192 550 245 616 355 616C429 616 473 593 512 545L594 603C542 671 468 713 352 713C172 713 66 601 66 429L66 234C66 77 172 -13 307 -13C387 -13 448 18 491 60L502 0L601 0L601 387Z"/>
<glyph unicode="&#x11f;" horiz-adv-x="603" d="M286 614C373 614 437 668 453 755L376 769C362 719 333 694 286 694C240 694 213 719 199 769L122 755C139 668 200 614 286 614ZM416 532L407 485C369 525 324 546 262 546C153 546 51 462 51 294L51 249C51 73 144 0 255 0C316 0 363 27 397 66L397 -1C397 -84 352 -120 273 -120C211 -120 167 -109 122 -88L83 -163C135 -194 201 -213 282 -213C415 -213 518 -139 518 -2L518 532ZM276 94C216 94 175 128 175 249L175 297C175 417 223 452 284 452C331 452 365 433 393 399L393 155C364 116 323 94 276 94Z"/>
<glyph unicode="&#x120;" horiz-adv-x="671" d="M354 753C396 753 429 786 429 827C429 869 396 902 354 902C313 902 279 869 279 827C279 786 313 753 354 753ZM331 387L331 293L479 293L479 157C448 113 400 84 334 84C240 84 192 142 192 237L192 435C192 550 245 616 355 616C429 616 473 593 512 545L594 603C542 671 468 713 352 713C172 713 66 601 66 429L66 234C66 77 172 -13 307 -13C387 -13 448 18 491 60L502 0L601 0L601 387Z"/>
<glyph unicode="&#x121;" horiz-adv-x="603" d="M288 615C330 615 363 648 363 689C363 731 330 764 288 764C247 764 213 731 213 689C213 648 247 615 288 615ZM416 532L407 485C369 525 324 546 262 546C153 546 51 462 51 294L51 249C51 73 144 0 255 0C316 0 363 27 397 66L397 -1C397 -84 352 -120 273 -120C211 -120 167 -109 122 -88L83 -163C135 -194 201 -213 282 -213C415 -213 518 -139 518 -2L518 532ZM276 94C216 94 175 128 175 249L175 297C175 417 223 452 284 452C331 452 365 433 393 399L393 155C364 116 323 94 276 94Z"/>
<glyph unicode="&#x122;" horiz-adv-x="671" d="M331 387L331 293L479 293L479 157C448 113 400 84 334 84C240 84 192 142 192 237L192 435C192 550 245 616 355 616C429 616 473 593 512 545L594 603C542 671 468 713 352 713C172 713 66 601 66 429L66 234C66 77 172 -13 307 -13C387 -13 448 18 491 60L502 0L601 0L601 387ZM337 -63C298 -63 267 -92 267 -130C267 -154 279 -174 301 -187C299 -230 285 -268 265 -306L319 -331C374 -258 406 -181 406 -130C406 -92 375 -63 337 -63Z"/>
<glyph unicode="&#x123;" horiz-adv-x="603" d="M285 606C324 606 355 635 355 673C355 697 343 717 321 730C323 773 337 811 357 849L303 874C248 801 216 724 216 673C216 635 247 606 285 606ZM416 532L407 485C369 525 324 546 262 546C153 546 51 462 51 294L51 249C51 73 144 0 255 0C316 0 363 27 397 66L397 -1C397 -84 352 -120 273 -120C211 -120 167 -109 122 -88L83 -163C135 -194 201 -213 282 -213C415 -213 518 -139 518 -2L518 532ZM276 94C216 94 175 128 175 249L175 297C175 417 223 452 284 452C331 452 365 433 393 399L393 155C364 116 323 94 276 94Z"/>
<glyph unicode="&#x124;" horiz-adv-x="743" d="M245 741L372 831L500 741L544 798L407 914L337 914L200 798ZM638 700L512 700L512 411L231 411L231 700L105 700L105 0L231 0L231 309L512 309L512 0L638 0Z"/>
<glyph unicode="&#x125;" horiz-adv-x="608" d="M276 781L320 838L183 954L113 954L-24 838L21 781L148 871ZM358 546C294 546 246 526 210 486L210 740L86 740L86 0L210 0L210 384C240 427 277 452 325 452C376 452 409 425 409 358L409 0L533 0L533 368C533 483 457 546 358 546Z"/>
<glyph unicode="&#x126;" horiz-adv-x="743" d="M674 587L638 587L638 700L512 700L512 587L231 587L231 700L105 700L105 587L70 587L70 510L105 510L105 0L231 0L231 309L512 309L512 0L638 0L638 510L674 510ZM512 411L231 411L231 510L512 510Z"/>
<glyph unicode="&#x127;" horiz-adv-x="606" d="M355 546C292 546 244 526 208 487L208 595L329 595L329 671L208 671L208 740L84 740L84 671L39 671L39 595L84 595L84 0L208 0L208 384C238 428 275 452 323 452C374 452 406 425 406 358L406 0L530 0L530 368C530 483 455 546 355 546Z"/>
<glyph unicode="&#x128;" horiz-adv-x="444" d="M165 798C197 798 226 750 280 750C333 750 378 791 402 843L332 877C316 847 303 831 279 831C247 831 218 879 164 879C111 879 66 838 42 786L112 752C128 782 141 798 165 798ZM375 700L69 700L69 603L159 603L159 97L69 97L69 0L159 0L375 0L375 97L285 97L285 603L375 603Z"/>
<glyph unicode="&#x129;" horiz-adv-x="317" d="M274 751C258 721 245 705 221 705C189 705 160 753 106 753C53 753 8 712 -16 660L54 626C70 656 83 672 107 672C139 672 168 624 222 624C275 624 320 665 344 717ZM27 532L27 440L107 440L107 0L231 0L231 532Z"/>
<glyph unicode="&#x12a;" horiz-adv-x="444" d="M362 858L81 858L81 779L362 779ZM375 603L375 700L285 700L69 700L69 603L159 603L159 97L69 97L69 0L159 0L375 0L375 97L285 97L285 603Z"/>
<glyph unicode="&#x12b;" horiz-adv-x="317" d="M23 715L23 636L304 636L304 715ZM27 532L27 440L107 440L107 0L231 0L231 532Z"/>
<glyph unicode="&#x12e;" horiz-adv-x="444" d="M375 603L375 700L285 700L69 700L69 603L159 603L159 97L69 97L69 0L155 0C95 -32 60 -77 60 -128C60 -193 110 -235 189 -235C216 -235 235 -232 255 -228L265 -151C241 -156 224 -158 204 -158C163 -158 148 -143 148 -116C148 -72 185 -32 289 0L375 0L375 97L285 97L285 603Z"/>
<glyph unicode="&#x12f;" horiz-adv-x="317" d="M164 615C206 615 239 648 239 689C239 731 206 764 164 764C123 764 89 731 89 689C89 648 123 615 164 615ZM27 532L27 440L107 440L107 8C37 -24 -4 -72 -4 -128C-4 -193 46 -235 125 -235C152 -235 171 -232 191 -228L201 -151C177 -156 160 -158 140 -158C99 -158 84 -143 84 -116C84 -72 121 -32 225 0L231 0L231 532Z"/>
<glyph unicode="&#x130;" horiz-adv-x="444" d="M222 753C264 753 297 786 297 827C297 869 264 902 222 902C181 902 147 869 147 827C147 786 181 753 222 753ZM375 603L375 700L285 700L69 700L69 603L159 603L159 97L69 97L69 0L159 0L375 0L375 97L285 97L285 603Z"/>
<glyph unicode="&#x131;" horiz-adv-x="317" d="M231 532L27 532L27 440L107 440L107 0L231 0Z"/>
<glyph unicode="&#x132;" horiz-adv-x="969" d="M375 700L69 700L69 603L159 603L159 97L69 97L69 0L159 0L375 0L375 97L285 97L285 603L375 603ZM886 700L495 700L495 603L759 603L759 205C759 118 708 84 645 84C585 84 549 103 515 129L454 58C496 19 564 -13 655 -13C798 -13 886 77 886 211Z"/>
<glyph unicode="&#x133;" horiz-adv-x="635" d="M164 764C123 764 89 731 89 689C89 648 123 615 164 615C206 615 239 648 239 689C239 731 206 764 164 764ZM485 615C527 615 560 648 560 689C560 731 527 764 485 764C444 764 410 731 410 689C410 648 444 615 485 615ZM27 532L27 440L107 440L107 0L231 0L231 532ZM356 440L425 440L425 -73C425 -111 416 -123 380 -123C370 -123 358 -122 349 -120L340 -200C355 -208 378 -213 409 -213C493 -213 549 -166 549 -76L549 532L356 532Z"/>
<glyph unicode="&#x134;" horiz-adv-x="546" d="M274 831L402 741L446 798L309 914L239 914L102 798L147 741ZM462 700L71 700L71 603L335 603L335 205C335 118 284 84 221 84C161 84 125 103 91 129L30 58C72 19 140 -13 231 -13C374 -13 462 77 462 211Z"/>
<glyph unicode="&#x135;" horiz-adv-x="318" d="M41 597L168 688L296 597L340 655L203 771L133 771L-4 655ZM232 532L39 532L39 440L108 440L108 -73C108 -111 99 -123 63 -123C53 -123 41 -122 32 -120L23 -200C38 -208 61 -213 92 -213C176 -213 232 -166 232 -76Z"/>
<glyph unicode="&#x136;" horiz-adv-x="655" d="M368 387L613 700L480 700L225 377L225 700L105 700L105 0L225 0L225 219L290 300L507 0L650 0ZM350 -63C311 -63 280 -92 280 -130C280 -154 292 -174 314 -187C312 -230 298 -268 278 -306L332 -331C387 -258 419 -181 419 -130C419 -92 388 -63 350 -63Z"/>
<glyph unicode="&#x137;" horiz-adv-x="555" d="M338 317L528 532L392 532L210 327L210 740L86 740L86 0L210 0L210 190L255 242L423 0L561 0ZM311 -63C272 -63 241 -92 241 -130C241 -154 253 -174 275 -187C273 -230 259 -268 239 -306L293 -331C348 -258 380 -181 380 -130C380 -92 349 -63 311 -63Z"/>
<glyph unicode="&#x138;" horiz-adv-x="555" d="M417 0L561 0L338 317L528 532L392 532L210 327L210 532L86 532L86 0L210 0L210 190L251 238Z"/>
<glyph unicode="&#x139;" horiz-adv-x="525" d="M252 914L42 810L73 743L291 831ZM231 102L231 700L105 700L105 0L109 0L515 0L515 102Z"/>
<glyph unicode="&#x13a;" horiz-adv-x="307" d="M43 783L261 871L222 954L12 850ZM200 740L76 740L76 106C76 27 125 -13 199 -13C227 -13 250 -7 270 0L257 85C249 84 242 83 236 83C209 83 200 95 200 124Z"/>
<glyph unicode="&#x13b;" horiz-adv-x="525" d="M231 102L231 700L105 700L105 0L109 0L515 0L515 102ZM309 -63C270 -63 239 -92 239 -130C239 -154 251 -174 273 -187C271 -230 257 -268 237 -306L291 -331C346 -258 378 -181 378 -130C378 -92 347 -63 309 -63Z"/>
<glyph unicode="&#x13c;" horiz-adv-x="307" d="M200 740L76 740L76 106C76 27 125 -13 199 -13C227 -13 250 -7 270 0L257 85C249 84 242 83 236 83C209 83 200 95 200 124ZM165 -331C220 -258 252 -181 252 -130C252 -92 221 -63 183 -63C144 -63 113 -92 113 -130C113 -154 125 -174 147 -187C145 -230 131 -268 111 -306Z"/>
<glyph unicode="&#x13d;" horiz-adv-x="531" d="M443 700L342 715L317 517L393 506ZM231 102L231 700L105 700L105 0L109 0L515 0L515 102Z"/>
<glyph unicode="&#x13e;" horiz-adv-x="373" d="M338 546L388 740L287 755L262 557ZM200 740L76 740L76 106C76 27 125 -13 199 -13C227 -13 250 -7 270 0L257 85C249 84 242 83 236 83C209 83 200 95 200 124Z"/>
<glyph unicode="&#x13f;" horiz-adv-x="530" d="M231 102L231 700L105 700L105 0L109 0L515 0L515 102ZM436 331C476 331 506 362 506 402C506 441 476 473 436 473C396 473 365 441 365 402C365 362 396 331 436 331Z"/>
<glyph unicode="&#x140;" horiz-adv-x="361" d="M200 740L76 740L76 106C76 27 125 -13 199 -13C227 -13 250 -7 270 0L257 85C249 84 242 83 236 83C209 83 200 95 200 124ZM315 331C355 331 386 362 386 402C386 441 355 473 315 473C276 473 244 441 244 402C244 362 276 331 315 331Z"/>
<glyph unicode="&#x141;" horiz-adv-x="535" d="M241 102L241 357L386 399L363 482L241 446L241 700L115 700L115 410L37 387L60 304L115 321L115 0L119 0L525 0L525 102Z"/>
<glyph unicode="&#x142;" horiz-adv-x="315" d="M246 83C219 83 210 95 210 124L210 374L294 394L275 477L210 461L210 740L86 740L86 431L10 413L29 329L86 343L86 106C86 27 135 -13 209 -13C237 -13 260 -7 280 0L267 85C259 84 252 83 246 83Z"/>
<glyph unicode="&#x143;" horiz-adv-x="741" d="M504 831L465 914L255 810L286 743ZM525 700L525 175L256 700L105 700L105 0L216 0L216 542L491 0L637 0L637 700Z"/>
<glyph unicode="&#x144;" horiz-adv-x="608" d="M429 696L386 778L178 667L211 601ZM358 546C287 546 237 521 200 477L192 532L86 532L86 0L210 0L210 385C240 427 277 452 325 452C376 452 408 425 408 358L408 0L532 0L532 368C532 483 457 546 358 546Z"/>
<glyph unicode="&#x145;" horiz-adv-x="741" d="M525 700L525 175L256 700L105 700L105 0L216 0L216 542L491 0L637 0L637 700ZM372 -63C333 -63 302 -92 302 -130C302 -154 314 -174 336 -187C334 -230 320 -268 300 -306L354 -331C409 -258 441 -181 441 -130C441 -92 410 -63 372 -63Z"/>
<glyph unicode="&#x146;" horiz-adv-x="608" d="M358 546C287 546 237 521 200 477L192 532L86 532L86 0L210 0L210 385C240 427 277 452 325 452C376 452 408 425 408 358L408 0L532 0L532 368C532 483 457 546 358 546ZM306 -63C267 -63 236 -92 236 -130C236 -154 248 -174 270 -187C268 -230 254 -268 234 -306L288 -331C343 -258 375 -181 375 -130C375 -92 344 -63 306 -63Z"/>
<glyph unicode="&#x147;" horiz-adv-x="741" d="M416 741L553 856L509 914L381 824L254 914L209 856L346 741ZM525 700L525 175L256 700L105 700L105 0L216 0L216 542L491 0L637 0L637 700Z"/>
<glyph unicode="&#x148;" horiz-adv-x="608" d="M339 597L476 713L432 771L304 680L177 771L132 713L269 597ZM358 546C287 546 237 521 200 477L192 532L86 532L86 0L210 0L210 385C240 427 277 452 325 452C376 452 408 425 408 358L408 0L532 0L532 368C532 483 457 546 358 546Z"/>
<glyph unicode="&#x14a;" horiz-adv-x="741" d="M525 700L525 175L256 700L105 700L105 0L216 0L216 542L491 0L523 0L523 -73C523 -111 505 -123 469 -123C459 -123 446 -122 436 -120L428 -200C443 -208 466 -213 497 -213C583 -213 637 -164 637 -74L637 0L637 700Z"/>
<glyph unicode="&#x14b;" horiz-adv-x="608" d="M358 546C287 546 237 521 200 477L192 532L86 532L86 0L210 0L210 385C240 427 277 452 325 452C376 452 408 425 408 358L408 225L408 -73C408 -111 399 -123 363 -123C353 -123 342 -122 332 -120L323 -200C338 -208 361 -213 392 -213C477 -213 532 -166 532 -76L532 0L532 368C532 483 457 546 358 546Z"/>
<glyph unicode="&#x14c;" horiz-adv-x="706" d="M212 779L493 779L493 858L212 858ZM353 713C161 713 66 593 66 428L66 271C66 108 162 -13 353 -13C546 -13 641 108 641 271L641 428C641 593 546 713 353 713ZM353 616C462 616 514 542 514 429L514 269C514 159 463 84 353 84C243 84 192 159 192 269L192 429C192 542 244 616 353 616Z"/>
<glyph unicode="&#x14d;" horiz-adv-x="595" d="M156 636L437 636L437 715L156 715ZM296 546C133 546 47 440 47 294L47 240C47 91 133 -13 296 -13C460 -13 548 91 548 240L548 294C548 440 460 546 296 546ZM296 452C379 452 424 398 424 296L424 240C424 135 379 80 296 80C214 80 171 135 171 240L171 296C171 398 214 452 296 452Z"/>
<glyph unicode="&#x150;" horiz-adv-x="706" d="M294 735L386 901L302 939L223 764ZM451 730L550 898L468 939L379 762ZM353 713C161 713 66 593 66 428L66 271C66 108 162 -13 353 -13C546 -13 641 108 641 271L641 428C641 593 546 713 353 713ZM353 616C462 616 514 542 514 429L514 269C514 159 463 84 353 84C243 84 192 159 192 269L192 429C192 542 244 616 353 616Z"/>
<glyph unicode="&#x151;" horiz-adv-x="595" d="M238 609L330 775L246 813L167 638ZM395 604L494 772L412 813L323 636ZM296 546C133 546 47 440 47 294L47 240C47 91 133 -13 296 -13C460 -13 548 91 548 240L548 294C548 440 460 546 296 546ZM296 452C379 452 424 398 424 296L424 240C424 135 379 80 296 80C214 80 171 135 171 240L171 296C171 398 214 452 296 452Z"/>
<glyph unicode="&#x152;" horiz-adv-x="996" d="M927 700L457 700C426 709 393 713 355 713C163 713 66 593 66 428L66 271C66 108 164 -13 355 -13C393 -13 426 -9 456 0L927 0L927 98L594 98C626 145 641 204 641 271L641 307L905 307L905 404L641 404L641 428C641 495 626 556 594 603L927 603ZM192 269L192 429C192 540 244 616 355 616C466 616 518 540 518 429L518 269C518 158 466 84 355 84C243 84 192 158 192 269Z"/>
<glyph unicode="&#x153;" horiz-adv-x="934" d="M889 287C889 455 803 546 662 546C576 546 520 502 485 442C449 502 389 546 295 546C133 546 47 440 47 294L47 240C47 91 133 -13 295 -13C390 -13 449 31 485 91C522 31 583 -13 676 -13C752 -13 824 16 869 50L825 124C784 101 744 80 684 80C593 80 544 125 542 227L885 227C887 243 889 265 889 287ZM778 308L542 308C544 407 584 458 660 458C736 458 778 406 778 313ZM424 240C424 136 379 81 296 81C214 81 171 136 171 240L171 296C171 398 214 452 296 452C379 452 424 398 424 296Z"/>
<glyph unicode="&#x154;" horiz-adv-x="659" d="M445 831L406 914L196 810L227 743ZM482 0L620 0L459 299C537 329 586 385 586 463L586 515C586 630 488 700 341 700L231 700L105 700L105 0L231 0L231 277L336 277ZM231 605L336 605C411 605 459 572 459 509L459 466C459 405 412 371 337 371L231 371Z"/>
<glyph unicode="&#x155;" horiz-adv-x="416" d="M369 696L326 778L118 667L151 601ZM340 544C285 544 227 517 196 448L176 532L86 532L86 0L210 0L210 316C240 396 290 422 350 422C361 422 372 421 382 419L404 534C389 539 369 544 340 544Z"/>
<glyph unicode="&#x156;" horiz-adv-x="659" d="M459 299C537 329 586 385 586 463L586 515C586 630 488 700 341 700L231 700L105 700L105 0L231 0L231 277L336 277L482 0L620 0ZM231 605L336 605C411 605 459 572 459 509L459 466C459 405 412 371 337 371L231 371ZM352 -63C313 -63 282 -92 282 -130C282 -154 294 -174 316 -187C314 -230 300 -268 280 -306L334 -331C389 -258 421 -181 421 -130C421 -92 390 -63 352 -63Z"/>
<glyph unicode="&#x157;" horiz-adv-x="416" d="M340 544C285 544 227 517 196 448L176 532L86 532L86 0L210 0L210 316C240 396 290 422 350 422C361 422 372 421 382 419L404 534C389 539 369 544 340 544ZM150 -63C111 -63 80 -92 80 -130C80 -154 92 -174 114 -187C112 -230 98 -268 78 -306L132 -331C187 -258 219 -181 219 -130C219 -92 188 -63 150 -63Z"/>
<glyph unicode="&#x158;" horiz-adv-x="659" d="M356 741L493 856L449 914L321 824L194 914L149 856L286 741ZM482 0L620 0L459 299C537 329 586 385 586 463L586 515C586 630 488 700 341 700L231 700L105 700L105 0L231 0L231 277L336 277ZM231 605L336 605C411 605 459 572 459 509L459 466C459 405 412 371 337 371L231 371Z"/>
<glyph unicode="&#x159;" horiz-adv-x="416" d="M279 597L416 713L372 771L244 680L117 771L72 713L209 597ZM196 448L176 532L86 532L86 0L210 0L210 316C240 396 290 422 350 422C361 422 372 421 382 419L404 534C389 539 369 544 340 544C285 544 227 517 196 448Z"/>
<glyph unicode="&#x15a;" horiz-adv-x="613" d="M207 743L425 831L386 914L176 810ZM290 -13C447 -13 557 66 557 184L557 211C557 318 484 369 388 399L295 429C215 454 183 483 183 518L183 535C183 574 221 617 312 617C382 617 427 601 491 553L553 622C490 680 413 713 307 713C147 713 57 629 57 534L57 511C57 434 104 372 222 334L325 300C408 273 432 248 432 198L432 185C432 138 387 87 284 87C189 87 150 114 91 153L28 78C83 27 163 -13 290 -13Z"/>
<glyph unicode="&#x15b;" horiz-adv-x="507" d="M162 601L380 696L337 778L129 667ZM248 -13C363 -13 461 38 461 137L461 159C461 240 407 275 331 302L264 325C196 349 178 367 178 395L178 403C178 431 204 454 260 454C308 454 346 445 399 411L456 479C405 521 332 546 256 546C138 546 54 487 54 402L54 380C54 313 99 273 182 243L249 220C319 196 338 180 338 145L338 137C338 97 300 79 237 79C177 79 131 98 87 131L28 60C82 14 158 -13 248 -13Z"/>
<glyph unicode="&#x15c;" horiz-adv-x="613" d="M175 741L302 831L430 741L474 798L337 914L267 914L130 798ZM290 -13C447 -13 557 66 557 184L557 211C557 318 484 369 388 399L295 429C215 454 183 483 183 518L183 535C183 574 221 617 312 617C382 617 427 601 491 553L553 622C490 680 413 713 307 713C147 713 57 629 57 534L57 511C57 434 104 372 222 334L325 300C408 273 432 248 432 198L432 185C432 138 387 87 284 87C189 87 150 114 91 153L28 78C83 27 163 -13 290 -13Z"/>
<glyph unicode="&#x15d;" horiz-adv-x="507" d="M128 597L255 688L383 597L427 655L290 771L220 771L83 655ZM248 -13C363 -13 461 38 461 137L461 159C461 240 407 275 331 302L264 325C196 349 178 367 178 395L178 403C178 431 204 454 260 454C308 454 346 445 399 411L456 479C405 521 332 546 256 546C138 546 54 487 54 402L54 380C54 313 99 273 182 243L249 220C319 196 338 180 338 145L338 137C338 97 300 79 237 79C177 79 131 98 87 131L28 60C82 14 158 -13 248 -13Z"/>
<glyph unicode="&#x15e;" horiz-adv-x="613" d="M388 399L295 429C215 454 183 483 183 518L183 535C183 574 221 617 312 617C382 617 427 601 491 553L553 622C490 680 413 713 307 713C147 713 57 629 57 534L57 511C57 434 104 372 222 334L325 300C408 273 432 248 432 198L432 185C432 138 387 87 284 87C189 87 150 114 91 153L28 78C78 32 149 -6 256 -12L251 -106C316 -106 341 -113 341 -139L341 -147C341 -175 320 -178 292 -178C275 -178 254 -176 229 -171L213 -230C238 -239 268 -245 298 -245C367 -245 428 -219 428 -152L428 -138C428 -88 400 -59 332 -53L332 -11C467 2 557 77 557 184L557 211C557 318 484 369 388 399Z"/>
<glyph unicode="&#x15f;" horiz-adv-x="507" d="M331 302L264 325C196 349 178 367 178 395L178 403C178 431 204 454 260 454C308 454 346 445 399 411L456 479C405 521 332 546 256 546C138 546 54 487 54 402L54 380C54 313 99 273 182 243L249 220C319 196 338 180 338 145L338 137C338 97 300 79 237 79C177 79 131 98 87 131L28 60C75 20 139 -6 214 -12L209 -106C274 -106 299 -113 299 -139L299 -147C299 -175 278 -178 250 -178C233 -178 212 -176 187 -171L171 -230C196 -239 226 -245 256 -245C325 -245 386 -219 386 -152L386 -138C386 -88 358 -59 290 -53L290 -11C386 0 461 50 461 137L461 159C461 240 407 275 331 302Z"/>
<glyph unicode="&#x160;" horiz-adv-x="613" d="M267 741L337 741L474 856L430 914L302 824L175 914L130 856ZM290 -13C447 -13 557 66 557 184L557 211C557 318 484 369 388 399L295 429C215 454 183 483 183 518L183 535C183 574 221 617 312 617C382 617 427 601 491 553L553 622C490 680 413 713 307 713C147 713 57 629 57 534L57 511C57 434 104 372 222 334L325 300C408 273 432 248 432 198L432 185C432 138 387 87 284 87C189 87 150 114 91 153L28 78C83 27 163 -13 290 -13Z"/>
<glyph unicode="&#x161;" horiz-adv-x="507" d="M220 597L290 597L427 713L383 771L255 680L128 771L83 713ZM248 -13C363 -13 461 38 461 137L461 159C461 240 407 275 331 302L264 325C196 349 178 367 178 395L178 403C178 431 204 454 260 454C308 454 346 445 399 411L456 479C405 521 332 546 256 546C138 546 54 487 54 402L54 380C54 313 99 273 182 243L249 220C319 196 338 180 338 145L338 137C338 97 300 79 237 79C177 79 131 98 87 131L28 60C82 14 158 -13 248 -13Z"/>
<glyph unicode="&#x162;" horiz-adv-x="548" d="M337 0L337 603L533 603L533 700L337 700L14 700L14 603L211 603L211 0L237 0L232 -106C297 -106 322 -113 322 -139L322 -147C322 -175 301 -178 273 -178C256 -178 235 -176 210 -171L194 -230C219 -239 249 -245 279 -245C348 -245 409 -219 409 -152L409 -138C409 -88 381 -59 313 -53L313 0Z"/>
<glyph unicode="&#x163;" horiz-adv-x="401" d="M288 -53L288 -13C317 -11 346 -6 367 0L354 87C338 84 321 82 302 82C258 82 237 100 237 139L237 440L352 440L352 532L237 532L237 663L126 663L116 532L32 532L32 440L113 440L113 132C113 54 149 10 212 -6L207 -106C272 -106 297 -113 297 -139L297 -147C297 -175 276 -178 248 -178C231 -178 210 -176 185 -171L169 -230C194 -239 224 -245 254 -245C323 -245 384 -219 384 -152L384 -138C384 -88 356 -59 288 -53Z"/>
<glyph unicode="&#x164;" horiz-adv-x="548" d="M309 741L446 856L402 914L274 824L147 914L102 856L239 741ZM533 700L337 700L14 700L14 603L211 603L211 0L337 0L337 603L533 603Z"/>
<glyph unicode="&#x165;" horiz-adv-x="390" d="M392 740L298 752L281 590L351 580ZM302 82C258 82 237 100 237 139L237 440L352 440L352 532L237 532L237 663L126 663L116 532L32 532L32 440L113 440L113 132C113 32 172 -13 274 -13C307 -13 343 -7 367 0L354 87C338 84 321 82 302 82Z"/>
<glyph unicode="&#x166;" horiz-adv-x="548" d="M533 603L533 700L337 700L14 700L14 603L211 603L211 427L119 427L119 351L211 351L211 0L337 0L337 351L429 351L429 427L337 427L337 603Z"/>
<glyph unicode="&#x167;" horiz-adv-x="415" d="M361 87C345 84 328 82 309 82C265 82 244 100 244 139L244 264L348 264L348 340L244 340L244 440L359 440L359 532L244 532L244 663L132 663L123 532L39 532L39 440L120 440L120 340L39 340L39 264L120 264L120 132C120 32 179 -13 280 -13C314 -13 350 -7 374 0Z"/>
<glyph unicode="&#x168;" horiz-adv-x="707" d="M411 750C464 750 509 791 533 843L463 877C447 847 434 831 410 831C378 831 349 879 295 879C242 879 197 838 173 786L243 752C259 782 272 798 296 798C328 798 357 750 411 750ZM623 700L497 700L497 226C497 141 455 84 353 84C251 84 210 141 210 226L210 700L83 700L83 226C83 90 172 -13 353 -13C537 -13 623 90 623 226Z"/>
<glyph unicode="&#x169;" horiz-adv-x="605" d="M246 672C278 672 307 624 361 624C414 624 459 665 483 717L413 751C397 721 384 705 360 705C328 705 299 753 245 753C192 753 147 712 123 660L193 626C209 656 222 672 246 672ZM395 532L395 148C364 105 320 80 275 80C226 80 200 107 200 155L200 532L76 532L76 149C76 49 151 -13 245 -13C310 -13 364 14 405 59L414 0L519 0L519 532Z"/>
<glyph unicode="&#x16a;" horiz-adv-x="707" d="M212 779L493 779L493 858L212 858ZM623 700L497 700L497 226C497 141 455 84 353 84C251 84 210 141 210 226L210 700L83 700L83 226C83 90 172 -13 353 -13C537 -13 623 90 623 226Z"/>
<glyph unicode="&#x16b;" horiz-adv-x="605" d="M443 715L162 715L162 636L443 636ZM395 532L395 148C364 105 320 80 275 80C226 80 200 107 200 155L200 532L76 532L76 149C76 49 151 -13 245 -13C310 -13 364 14 405 59L414 0L519 0L519 532Z"/>
<glyph unicode="&#x16c;" horiz-adv-x="707" d="M351 754C438 754 502 808 521 894L441 908C427 859 398 834 351 834C305 834 278 859 264 908L184 894C204 808 265 754 351 754ZM623 700L497 700L497 226C497 141 455 84 353 84C251 84 210 141 210 226L210 700L83 700L83 226C83 90 172 -13 353 -13C537 -13 623 90 623 226Z"/>
<glyph unicode="&#x16d;" horiz-adv-x="605" d="M301 614C388 614 452 668 468 755L391 769C377 719 348 694 301 694C255 694 228 719 214 769L137 755C154 668 215 614 301 614ZM395 532L395 148C364 105 320 80 275 80C226 80 200 107 200 155L200 532L76 532L76 149C76 49 151 -13 245 -13C310 -13 364 14 405 59L414 0L519 0L519 532Z"/>
<glyph unicode="&#x16e;" horiz-adv-x="707" d="M353 724C426 724 480 773 480 834L480 852C480 913 426 964 353 964C280 964 227 913 227 852L227 834C227 773 280 724 353 724ZM353 788C323 788 302 804 302 835L302 851C302 882 323 900 353 900C383 900 404 882 404 851L404 835C404 804 383 788 353 788ZM623 700L497 700L497 226C497 141 455 84 353 84C251 84 210 141 210 226L210 700L83 700L83 226C83 90 172 -13 353 -13C537 -13 623 90 623 226Z"/>
<glyph unicode="&#x16f;" horiz-adv-x="605" d="M303 598C376 598 430 647 430 708L430 726C430 787 376 838 303 838C230 838 177 787 177 726L177 708C177 647 230 598 303 598ZM252 725C252 756 273 774 303 774C333 774 354 756 354 725L354 709C354 678 333 662 303 662C273 662 252 678 252 709ZM395 532L395 148C364 105 320 80 275 80C226 80 200 107 200 155L200 532L76 532L76 149C76 49 151 -13 245 -13C310 -13 364 14 405 59L414 0L519 0L519 532Z"/>
<glyph unicode="&#x170;" horiz-adv-x="707" d="M294 735L386 901L302 939L223 764ZM451 730L550 898L468 939L379 762ZM623 700L497 700L497 226C497 141 455 84 353 84C251 84 210 141 210 226L210 700L83 700L83 226C83 90 172 -13 353 -13C537 -13 623 90 623 226Z"/>
<glyph unicode="&#x171;" horiz-adv-x="605" d="M335 775L251 813L172 638L243 609ZM400 604L499 772L417 813L328 636ZM395 532L395 148C364 105 320 80 275 80C226 80 200 107 200 155L200 532L76 532L76 149C76 49 151 -13 245 -13C310 -13 364 14 405 59L414 0L519 0L519 532Z"/>
<glyph unicode="&#x172;" horiz-adv-x="711" d="M497 700L497 226C497 141 455 84 353 84C251 84 210 141 210 226L210 700L83 700L83 226C83 91 170 -11 348 -13C292 -42 259 -79 259 -128C259 -193 309 -235 388 -235C415 -235 434 -232 454 -228L464 -151C440 -156 423 -158 402 -158C362 -158 347 -143 347 -116C347 -74 381 -36 478 7C576 44 623 126 623 226L623 700Z"/>
<glyph unicode="&#x173;" horiz-adv-x="605" d="M378 -116C378 -72 415 -32 519 0L519 532L395 532L395 148C364 105 320 80 275 80C226 80 200 107 200 155L200 532L76 532L76 149C76 49 151 -13 245 -13C310 -13 364 14 405 59L412 13C336 -19 290 -69 290 -128C290 -193 340 -235 419 -235C446 -235 465 -232 485 -228L495 -151C471 -156 454 -158 434 -158C393 -158 378 -143 378 -116Z"/>
<glyph unicode="&#x174;" horiz-adv-x="899" d="M450 831L578 741L622 798L485 914L415 914L278 798L323 741ZM738 700L653 107L530 700L368 700L247 107L159 700L30 700L151 0L329 0L447 589L565 0L742 0L860 700Z"/>
<glyph unicode="&#x175;" horiz-adv-x="799" d="M400 688L528 597L572 655L435 771L365 771L228 655L273 597ZM642 532L567 104L471 532L333 532L238 104L159 532L35 532L155 0L305 0L400 424L493 0L646 0L764 532Z"/>
<glyph unicode="&#x176;" horiz-adv-x="582" d="M292 831L420 741L464 798L327 914L257 914L120 798L165 741ZM578 700L451 700L295 383L136 700L4 700L228 285L228 0L355 0L355 286Z"/>
<glyph unicode="&#x177;" horiz-adv-x="542" d="M145 597L272 688L400 597L444 655L307 771L237 771L100 655ZM151 -213C241 -213 303 -177 336 -65L517 532L394 532L279 92L153 532L25 532L196 0L250 0L233 -58C220 -107 191 -125 145 -125C125 -125 109 -123 89 -119L72 -200C90 -207 121 -213 151 -213Z"/>
<glyph unicode="&#x178;" horiz-adv-x="582" d="M174 776C211 776 240 805 240 841C240 877 211 906 174 906C137 906 107 877 107 841C107 805 137 776 174 776ZM408 776C446 776 475 805 475 841C475 877 446 906 408 906C372 906 343 877 343 841C343 805 372 776 408 776ZM578 700L451 700L295 383L136 700L4 700L228 285L228 0L355 0L355 286Z"/>
<glyph unicode="&#x179;" horiz-adv-x="573" d="M202 743L420 831L381 914L171 810ZM525 700L59 700L59 603L389 603L45 96L45 0L534 0L534 101L181 101L525 608Z"/>
<glyph unicode="&#x17a;" horiz-adv-x="467" d="M140 601L358 696L315 778L107 667ZM427 532L48 532L48 438L294 438L35 90L35 0L434 0L434 95L168 95L427 445Z"/>
<glyph unicode="&#x17b;" horiz-adv-x="573" d="M296 753C338 753 371 786 371 827C371 869 338 902 296 902C255 902 221 869 221 827C221 786 255 753 296 753ZM525 700L59 700L59 603L389 603L45 96L45 0L534 0L534 101L181 101L525 608Z"/>
<glyph unicode="&#x17c;" horiz-adv-x="467" d="M232 615C274 615 307 648 307 689C307 731 274 764 232 764C191 764 157 731 157 689C157 648 191 615 232 615ZM427 532L48 532L48 438L294 438L35 90L35 0L434 0L434 95L168 95L427 445Z"/>
<glyph unicode="&#x17d;" horiz-adv-x="573" d="M261 741L331 741L468 856L424 914L296 824L169 914L124 856ZM525 700L59 700L59 603L389 603L45 96L45 0L534 0L534 101L181 101L525 608Z"/>
<glyph unicode="&#x17e;" horiz-adv-x="467" d="M198 597L268 597L405 713L361 771L233 680L106 771L61 713ZM427 532L48 532L48 438L294 438L35 90L35 0L434 0L434 95L168 95L427 445Z"/>
<glyph unicode="&#x192;" horiz-adv-x="387" d="M305 661C328 661 351 657 372 652L385 740C363 747 327 753 288 753C172 753 108 698 108 583L108 532L37 532L37 440L108 440L108 -75C108 -111 99 -123 63 -123C53 -123 41 -122 32 -120L23 -200C38 -208 61 -213 92 -213C176 -213 232 -166 232 -77L232 440L359 440L359 532L232 532L232 593C232 641 254 661 305 661Z"/>
<glyph unicode="&#x218;" horiz-adv-x="613" d="M290 -13C447 -13 557 66 557 184L557 211C557 318 484 369 388 399L295 429C215 454 183 483 183 518L183 535C183 574 221 617 312 617C382 617 427 601 491 553L553 622C490 680 413 713 307 713C147 713 57 629 57 534L57 511C57 434 104 372 222 334L325 300C408 273 432 248 432 198L432 185C432 138 387 87 284 87C189 87 150 114 91 153L28 78C83 27 163 -13 290 -13ZM278 -331C333 -258 365 -181 365 -130C365 -92 334 -63 296 -63C257 -63 226 -92 226 -130C226 -154 238 -174 260 -187C258 -230 244 -268 224 -306Z"/>
<glyph unicode="&#x219;" horiz-adv-x="507" d="M248 -13C363 -13 461 38 461 137L461 159C461 240 407 275 331 302L264 325C196 349 178 367 178 395L178 403C178 431 204 454 260 454C308 454 346 445 399 411L456 479C405 521 332 546 256 546C138 546 54 487 54 402L54 380C54 313 99 273 182 243L249 220C319 196 338 180 338 145L338 137C338 97 300 79 237 79C177 79 131 98 87 131L28 60C82 14 158 -13 248 -13ZM235 -331C290 -258 322 -181 322 -130C322 -92 291 -63 253 -63C214 -63 183 -92 183 -130C183 -154 195 -174 217 -187C215 -230 201 -268 181 -306Z"/>
<glyph unicode="&#x21a;" horiz-adv-x="548" d="M533 700L14 700L14 603L211 603L211 0L337 0L337 603L533 603ZM276 -63C237 -63 206 -92 206 -130C206 -154 218 -174 240 -187C238 -230 224 -268 204 -306L258 -331C313 -258 345 -181 345 -130C345 -92 314 -63 276 -63Z"/>
<glyph unicode="&#x21b;" horiz-adv-x="401" d="M367 0L354 87C338 84 321 82 302 82C258 82 237 100 237 139L237 440L352 440L352 532L237 532L237 663L126 663L116 532L32 532L32 440L113 440L113 132C113 32 172 -13 274 -13C307 -13 343 -7 367 0ZM251 -63C212 -63 181 -92 181 -130C181 -154 193 -174 215 -187C213 -230 199 -268 179 -306L233 -331C288 -258 320 -181 320 -130C320 -92 289 -63 251 -63Z"/>
<glyph unicode="&#x21e;" horiz-adv-x="743" d="M337 741L407 741L544 856L500 914L372 824L245 914L200 856ZM638 700L512 700L512 411L231 411L231 700L105 700L105 0L231 0L231 309L512 309L512 0L638 0Z"/>
<glyph unicode="&#x21f;" horiz-adv-x="608" d="M183 781L320 896L276 954L148 864L21 954L-24 896L113 781ZM358 546C294 546 246 526 210 486L210 740L86 740L86 0L210 0L210 384C240 427 277 452 325 452C376 452 409 425 409 358L409 0L533 0L533 368C533 483 457 546 358 546Z"/>
<glyph unicode="&#x237;" horiz-adv-x="318" d="M232 532L39 532L39 440L108 440L108 -73C108 -111 99 -123 63 -123C53 -123 41 -122 32 -120L23 -200C38 -208 61 -213 92 -213C176 -213 232 -166 232 -76Z"/>
<glyph unicode="&#x2c6;" horiz-adv-x="400" d="M73 597L200 688L328 597L372 655L235 771L166 771L28 655Z"/>
<glyph unicode="&#x2c7;" horiz-adv-x="400" d="M166 597L235 597L372 713L328 771L200 680L73 771L28 713Z"/>
<glyph unicode="&#x2d8;" horiz-adv-x="400" d="M198 614C285 614 349 668 365 755L288 769C274 719 245 694 198 694C152 694 125 719 111 769L34 755C51 668 112 614 198 614Z"/>
<glyph unicode="&#x2d9;" horiz-adv-x="400" d="M200 615C242 615 275 648 275 689C275 731 242 764 200 764C158 764 125 731 125 689C125 648 158 615 200 615Z"/>
<glyph unicode="&#x2da;" horiz-adv-x="400" d="M200 598C273 598 327 647 327 708L327 726C327 787 273 838 200 838C127 838 73 787 73 726L73 708C73 647 127 598 200 598ZM200 662C170 662 149 678 149 709L149 725C149 756 170 774 200 774C230 774 251 756 251 725L251 709C251 678 230 662 200 662Z"/>
<glyph unicode="&#x2db;" horiz-adv-x="400" d="M250 -235C278 -235 296 -232 317 -228L326 -151C302 -156 286 -158 265 -158C225 -158 210 -143 210 -116C210 -72 246 -32 351 0L339 39C207 17 122 -48 122 -128C122 -193 171 -235 250 -235Z"/>
<glyph unicode="&#x2dc;" horiz-adv-x="400" d="M258 624C311 624 356 665 380 717L310 751C294 721 281 705 257 705C225 705 196 753 142 753C89 753 44 712 20 660L89 626C105 656 119 672 142 672C175 672 204 624 258 624Z"/>
<glyph unicode="&#x2dd;" horiz-adv-x="400" d="M106 609L198 775L114 813L35 638ZM263 604L362 772L280 813L191 636Z"/>
<glyph unicode="&#x300;" horiz-adv-x="0" d="M-63 601L-30 667L-238 778L-281 696Z"/>
<glyph unicode="&#x301;" horiz-adv-x="0" d="M-248 601L-30 696L-73 778L-281 667Z"/>
<glyph unicode="&#x302;" horiz-adv-x="0" d="M-329 597L-202 688L-74 597L-30 655L-167 771L-237 771L-374 655Z"/>
<glyph unicode="&#x303;" horiz-adv-x="0" d="M-144 624C-91 624 -46 665 -22 717L-92 751C-108 721 -121 705 -145 705C-177 705 -206 753 -260 753C-313 753 -358 712 -382 660L-312 626C-296 656 -283 672 -259 672C-227 672 -198 624 -144 624Z"/>
<glyph unicode="&#x304;" horiz-adv-x="0" d="M-311 636L-30 636L-30 715L-311 715Z"/>
<glyph unicode="&#x306;" horiz-adv-x="0" d="M-188 614C-101 614 -37 668 -21 755L-98 769C-112 719 -141 694 -188 694C-234 694 -261 719 -275 769L-352 755C-335 668 -274 614 -188 614Z"/>
<glyph unicode="&#x307;" horiz-adv-x="0" d="M-105 615C-63 615 -30 648 -30 689C-30 731 -63 764 -105 764C-146 764 -180 731 -180 689C-180 648 -146 615 -105 615Z"/>
<glyph unicode="&#x308;" horiz-adv-x="0" d="M-318 622C-281 622 -252 651 -252 687C-252 723 -281 752 -318 752C-355 752 -385 723 -385 687C-385 651 -355 622 -318 622ZM-84 622C-46 622 -17 651 -17 687C-17 723 -46 752 -84 752C-120 752 -149 723 -149 687C-149 651 -120 622 -84 622Z"/>
<glyph unicode="&#x30a;" horiz-adv-x="0" d="M-150 598C-77 598 -23 647 -23 708L-23 726C-23 787 -77 838 -150 838C-223 838 -276 787 -276 726L-276 708C-276 647 -223 598 -150 598ZM-150 662C-180 662 -201 678 -201 709L-201 725C-201 756 -180 774 -150 774C-120 774 -99 756 -99 725L-99 709C-99 678 -120 662 -150 662Z"/>
<glyph unicode="&#x30b;" horiz-adv-x="0" d="M-285 609L-193 775L-277 813L-356 638ZM-128 604L-29 772L-111 813L-200 636Z"/>
<glyph unicode="&#x30c;" horiz-adv-x="0" d="M-237 597L-167 597L-30 713L-74 771L-202 680L-329 771L-374 713Z"/>
<glyph unicode="&#x312;" horiz-adv-x="0" d="M-76 873C-130 800 -163 723 -163 673C-163 634 -132 605 -93 605C-55 605 -24 635 -24 673C-24 697 -36 716 -57 729C-55 772 -41 810 -22 849Z"/>
<glyph unicode="&#x323;" horiz-adv-x="0" d="M-103 -63C-144 -63 -178 -96 -178 -138C-178 -179 -144 -212 -103 -212C-61 -212 -28 -179 -28 -138C-28 -96 -61 -63 -103 -63Z"/>
<glyph unicode="&#x326;" horiz-adv-x="0" d="M-111 -331C-56 -258 -24 -181 -24 -130C-24 -92 -55 -63 -93 -63C-132 -63 -163 -92 -163 -130C-163 -154 -151 -174 -129 -187C-131 -230 -145 -268 -165 -306Z"/>
<glyph unicode="&#x327;" horiz-adv-x="0" d="M-159 -245C-90 -245 -29 -219 -29 -152L-29 -138C-29 -88 -57 -59 -125 -53L-125 16L-200 16L-206 -106C-141 -106 -116 -113 -116 -139L-116 -147C-116 -175 -137 -178 -165 -178C-182 -178 -203 -176 -228 -171L-244 -230C-219 -239 -189 -245 -159 -245Z"/>
<glyph unicode="&#x328;" horiz-adv-x="0" d="M-141 -235C-114 -235 -95 -232 -75 -228L-65 -151C-89 -156 -106 -158 -126 -158C-167 -158 -182 -143 -182 -116C-182 -72 -145 -32 -41 0L-52 39C-185 17 -270 -48 -270 -128C-270 -193 -220 -235 -141 -235Z"/>
<glyph unicode="&#x335;" horiz-adv-x="0" d="M-357 303L-47 303L-47 379L-357 379Z"/>
<glyph unicode="&#x336;" horiz-adv-x="0" d="M-586 303L-19 303L-19 380L-586 380Z"/>
<glyph unicode="&#x394;" horiz-adv-x="640" d="M400 700L229 700L15 0L100 0L495 0L625 0ZM170 100L314 609L465 100Z"/>
<glyph unicode="&#x3a9;" horiz-adv-x="710" d="M644 290L644 428C644 593 547 713 355 713C163 713 66 593 66 428L66 290C66 203 102 139 165 97L66 97L66 0L311 0L311 85C233 108 192 169 192 258L192 429C192 540 244 616 355 616C467 616 518 540 518 429L518 258C518 169 477 108 399 85L399 0L644 0L644 97L545 97C608 139 644 203 644 290Z"/>
<glyph unicode="&#x3bc;" horiz-adv-x="615" d="M405 532L405 146C374 104 330 79 285 79C236 79 210 105 210 153L210 532L86 532L86 -200L210 -200L210 7C232 -6 256 -13 285 -13C340 -13 382 12 416 55L424 0L529 0L529 532Z"/>
<glyph unicode="&#x3c0;" horiz-adv-x="675" d="M128 0L252 0L252 434L425 434L425 0L548 0L548 434L598 434L598 532L77 532L77 434L128 434Z"/>
<glyph unicode="&#x401;" horiz-adv-x="582" d="M193 776C230 776 259 805 259 841C259 877 230 906 193 906C156 906 126 877 126 841C126 805 156 776 193 776ZM427 776C465 776 494 805 494 841C494 877 465 906 427 906C391 906 362 877 362 841C362 805 391 776 427 776ZM514 603L514 700L231 700L105 700L105 0L117 0L514 0L514 98L231 98L231 307L492 307L492 404L231 404L231 603Z"/>
<glyph unicode="&#x402;" horiz-adv-x="764" d="M493 464C435 464 381 446 339 412L339 605L533 605L533 700L339 700L14 700L14 605L213 605L213 0L339 0L339 316C372 349 420 368 468 368C517 368 567 343 567 274L567 51C567 -23 554 -35 523 -35C508 -35 493 -32 484 -30L475 -116C489 -123 516 -130 560 -130C630 -130 691 -84 692 44L693 287C693 401 597 464 493 464Z"/>
<glyph unicode="&#x403;" horiz-adv-x="551" d="M442 831L403 914L193 810L224 743ZM530 700L231 700L105 700L105 0L231 0L231 599L530 599Z"/>
<glyph unicode="&#x404;" horiz-adv-x="591" d="M347 84C242 84 191 144 191 252L191 304L451 304L451 403L191 403L191 441C191 553 248 616 352 616C417 616 460 593 500 564L564 637C510 680 448 713 348 713C173 713 66 605 66 434L66 250C66 92 167 -13 344 -13C436 -13 510 23 557 60L505 135C464 109 416 84 347 84Z"/>
<glyph unicode="&#x405;" horiz-adv-x="613" d="M290 -13C447 -13 557 66 557 184L557 211C557 318 484 369 388 399L295 429C215 454 183 483 183 518L183 535C183 574 221 617 312 617C382 617 427 601 491 553L553 622C490 680 413 713 307 713C147 713 57 629 57 534L57 511C57 434 104 372 222 334L325 300C408 273 432 248 432 198L432 185C432 138 387 87 284 87C189 87 150 114 91 153L28 78C83 27 163 -13 290 -13Z"/>
<glyph unicode="&#x406;" horiz-adv-x="444" d="M375 603L375 700L285 700L69 700L69 603L159 603L159 97L69 97L69 0L159 0L375 0L375 97L285 97L285 603Z"/>
<glyph unicode="&#x407;" horiz-adv-x="444" d="M171 841C171 877 142 906 105 906C68 906 38 877 38 841C38 805 68 776 105 776C142 776 171 805 171 841ZM339 906C303 906 274 877 274 841C274 805 303 776 339 776C377 776 406 805 406 841C406 877 377 906 339 906ZM375 700L69 700L69 603L159 603L159 97L69 97L69 0L159 0L375 0L375 97L285 97L285 603L375 603Z"/>
<glyph unicode="&#x408;" horiz-adv-x="546" d="M462 700L71 700L71 603L335 603L335 205C335 118 284 84 221 84C161 84 125 103 91 129L30 58C72 19 140 -13 231 -13C374 -13 462 77 462 211Z"/>
<glyph unicode="&#x409;" horiz-adv-x="999" d="M683 430L588 430L588 700L183 700L115 204C100 94 80 81 40 81C29 81 21 83 18 84L18 0C31 -6 50 -11 76 -11C191 -11 222 64 240 193L294 599L462 599L462 0L581 0L683 0C849 0 954 74 954 180L954 250C954 356 848 430 683 430ZM828 187C828 128 774 96 685 96L588 96L588 334L685 334C774 334 828 302 828 243Z"/>
<glyph unicode="&#x40a;" horiz-adv-x="1018" d="M702 430L629 430L629 700L503 700L503 430L231 430L231 700L105 700L105 0L231 0L231 334L503 334L503 0L604 0L702 0C868 0 973 74 973 180L973 250C973 356 867 430 702 430ZM846 187C846 128 793 96 703 96L629 96L629 334L703 334C793 334 846 301 846 243Z"/>
<glyph unicode="&#x40b;" horiz-adv-x="764" d="M493 464C435 464 381 446 339 412L339 605L533 605L533 700L339 700L14 700L14 605L213 605L213 0L339 0L339 315C372 349 420 368 468 368C517 368 567 342 567 274L567 0L693 0L693 287C693 401 597 464 493 464Z"/>
<glyph unicode="&#x40c;" horiz-adv-x="675" d="M485 831L446 914L236 810L267 743ZM514 0L659 0L421 364L630 700L494 700L309 400L230 400L230 700L105 700L105 0L230 0L230 303L320 303Z"/>
<glyph unicode="&#x40e;" horiz-adv-x="564" d="M285 754C371 754 433 808 453 874L372 888C359 859 332 834 285 834C239 834 212 859 198 888L118 874C138 808 199 754 285 754ZM446 700L287 339L142 700L11 700L228 208L130 0L255 0L571 700Z"/>
<glyph unicode="&#x40f;" horiz-adv-x="743" d="M638 700L512 700L512 101L231 101L231 700L105 700L105 0L315 0L338 -177L420 -177L420 0L638 0Z"/>
<glyph unicode="&#x410;" horiz-adv-x="640" d="M495 0L625 0L400 700L229 700L15 0L142 0L195 184L437 184ZM314 612L407 285L223 285Z"/>
<glyph unicode="&#x411;" horiz-adv-x="662" d="M332 430L231 430L231 599L530 599L530 700L231 700L105 700L105 0L225 0L332 0C497 0 602 74 602 180L602 250C602 356 497 430 332 430ZM476 187C476 128 422 96 333 96L231 96L231 334L333 334C422 334 476 302 476 243Z"/>
</font>
</defs>
</svg>
